<?xml version="1.0" encoding="UTF-8"?>
<svg xmlns="http://www.w3.org/2000/svg" xmlns:xlink="http://www.w3.org/1999/xlink" stroke-dasharray="none" shape-rendering="auto" font-family="'Dialog'" width="1215" text-rendering="auto" fill-opacity="1" contentScriptType="text/ecmascript" color-interpolation="auto" color-rendering="auto" preserveAspectRatio="xMidYMid meet" font-size="12" viewBox="0 0 1215 1270" fill="black" stroke="black" image-rendering="auto" stroke-miterlimit="10" zoomAndPan="magnify" version="1.0" stroke-linecap="square" stroke-linejoin="miter" contentStyleType="text/css" font-style="normal" height="1270" stroke-width="1" stroke-dashoffset="0" font-weight="normal" stroke-opacity="1">
  <!--Generated by the Batik Graphics2D SVG Generator-->
  <defs id="genericDefs" />
  <g>
    <defs id="defs1">
      <clipPath clipPathUnits="userSpaceOnUse" id="clipPath1">
        <path d="M208 9 L280 9 L280 41 L208 41 L208 9 Z" />
      </clipPath>
      <clipPath clipPathUnits="userSpaceOnUse" id="clipPath2">
        <path d="M208 9 L284 9 L284 41 L208 41 L208 9 Z" />
      </clipPath>
      <clipPath clipPathUnits="userSpaceOnUse" id="clipPath3">
        <path d="M238 39 L250 39 L250 1261 L238 1261 L238 39 Z" />
      </clipPath>
      <clipPath clipPathUnits="userSpaceOnUse" id="clipPath4">
        <path d="M308 9 L430 9 L430 61 L308 61 L308 9 Z" />
      </clipPath>
      <clipPath clipPathUnits="userSpaceOnUse" id="clipPath5">
        <path d="M308 9 L435 9 L435 61 L308 61 L308 9 Z" />
      </clipPath>
      <clipPath clipPathUnits="userSpaceOnUse" id="clipPath6">
        <path d="M363 59 L375 59 L375 1261 L363 1261 L363 59 Z" />
      </clipPath>
      <clipPath clipPathUnits="userSpaceOnUse" id="clipPath7">
        <path d="M438 9 L559 9 L559 61 L438 61 L438 9 Z" />
      </clipPath>
      <clipPath clipPathUnits="userSpaceOnUse" id="clipPath8">
        <path d="M438 9 L564 9 L564 61 L438 61 L438 9 Z" />
      </clipPath>
      <clipPath clipPathUnits="userSpaceOnUse" id="clipPath9">
        <path d="M492 59 L504 59 L504 1261 L492 1261 L492 59 Z" />
      </clipPath>
      <clipPath clipPathUnits="userSpaceOnUse" id="clipPath10">
        <path d="M487 509 L509 509 L509 551 L487 551 L487 509 Z" />
      </clipPath>
      <clipPath clipPathUnits="userSpaceOnUse" id="clipPath11">
        <path d="M508 509 L583 509 L583 537 L508 537 L508 509 Z" />
      </clipPath>
      <clipPath clipPathUnits="userSpaceOnUse" id="clipPath12">
        <path d="M487 809 L509 809 L509 851 L487 851 L487 809 Z" />
      </clipPath>
      <clipPath clipPathUnits="userSpaceOnUse" id="clipPath13">
        <path d="M508 809 L583 809 L583 837 L508 837 L508 809 Z" />
      </clipPath>
      <clipPath clipPathUnits="userSpaceOnUse" id="clipPath14">
        <path d="M567 9 L699 9 L699 61 L567 61 L567 9 Z" />
      </clipPath>
      <clipPath clipPathUnits="userSpaceOnUse" id="clipPath15">
        <path d="M567 9 L703 9 L703 61 L567 61 L567 9 Z" />
      </clipPath>
      <clipPath clipPathUnits="userSpaceOnUse" id="clipPath16">
        <path d="M567 9 L704 9 L704 61 L567 61 L567 9 Z" />
      </clipPath>
      <clipPath clipPathUnits="userSpaceOnUse" id="clipPath17">
        <path d="M627 59 L639 59 L639 1261 L627 1261 L627 59 Z" />
      </clipPath>
      <clipPath clipPathUnits="userSpaceOnUse" id="clipPath18">
        <path d="M707 9 L841 9 L841 61 L707 61 L707 9 Z" />
      </clipPath>
      <clipPath clipPathUnits="userSpaceOnUse" id="clipPath19">
        <path d="M707 9 L847 9 L847 61 L707 61 L707 9 Z" />
      </clipPath>
      <clipPath clipPathUnits="userSpaceOnUse" id="clipPath20">
        <path d="M707 9 L846 9 L846 61 L707 61 L707 9 Z" />
      </clipPath>
      <clipPath clipPathUnits="userSpaceOnUse" id="clipPath21">
        <path d="M768 59 L780 59 L780 1261 L768 1261 L768 59 Z" />
      </clipPath>
      <clipPath clipPathUnits="userSpaceOnUse" id="clipPath22">
        <path d="M763 689 L785 689 L785 731 L763 731 L763 689 Z" />
      </clipPath>
      <clipPath clipPathUnits="userSpaceOnUse" id="clipPath23">
        <path d="M784 689 L859 689 L859 717 L784 717 L784 689 Z" />
      </clipPath>
      <clipPath clipPathUnits="userSpaceOnUse" id="clipPath24">
        <path d="M763 389 L785 389 L785 431 L763 431 L763 389 Z" />
      </clipPath>
      <clipPath clipPathUnits="userSpaceOnUse" id="clipPath25">
        <path d="M784 389 L845 389 L845 417 L784 417 L784 389 Z" />
      </clipPath>
      <clipPath clipPathUnits="userSpaceOnUse" id="clipPath26">
        <path d="M763 749 L785 749 L785 791 L763 791 L763 749 Z" />
      </clipPath>
      <clipPath clipPathUnits="userSpaceOnUse" id="clipPath27">
        <path d="M784 749 L845 749 L845 777 L784 777 L784 749 Z" />
      </clipPath>
      <clipPath clipPathUnits="userSpaceOnUse" id="clipPath28">
        <path d="M849 9 L973 9 L973 61 L849 61 L849 9 Z" />
      </clipPath>
      <clipPath clipPathUnits="userSpaceOnUse" id="clipPath29">
        <path d="M849 9 L978 9 L978 61 L849 61 L849 9 Z" />
      </clipPath>
      <clipPath clipPathUnits="userSpaceOnUse" id="clipPath30">
        <path d="M905 59 L917 59 L917 1261 L905 1261 L905 59 Z" />
      </clipPath>
      <clipPath clipPathUnits="userSpaceOnUse" id="clipPath31">
        <path d="M900 98 L922 98 L922 140 L900 140 L900 98 Z" />
      </clipPath>
      <clipPath clipPathUnits="userSpaceOnUse" id="clipPath32">
        <path d="M921 98 L996 98 L996 126 L921 126 L921 98 Z" />
      </clipPath>
      <clipPath clipPathUnits="userSpaceOnUse" id="clipPath33">
        <path d="M900 209 L922 209 L922 251 L900 251 L900 209 Z" />
      </clipPath>
      <clipPath clipPathUnits="userSpaceOnUse" id="clipPath34">
        <path d="M921 209 L996 209 L996 237 L921 237 L921 209 Z" />
      </clipPath>
      <clipPath clipPathUnits="userSpaceOnUse" id="clipPath35">
        <path d="M900 329 L922 329 L922 371 L900 371 L900 329 Z" />
      </clipPath>
      <clipPath clipPathUnits="userSpaceOnUse" id="clipPath36">
        <path d="M921 329 L996 329 L996 357 L921 357 L921 329 Z" />
      </clipPath>
      <clipPath clipPathUnits="userSpaceOnUse" id="clipPath37">
        <path d="M900 569 L922 569 L922 611 L900 611 L900 569 Z" />
      </clipPath>
      <clipPath clipPathUnits="userSpaceOnUse" id="clipPath38">
        <path d="M921 569 L996 569 L996 597 L921 597 L921 569 Z" />
      </clipPath>
      <clipPath clipPathUnits="userSpaceOnUse" id="clipPath39">
        <path d="M900 869 L922 869 L922 911 L900 911 L900 869 Z" />
      </clipPath>
      <clipPath clipPathUnits="userSpaceOnUse" id="clipPath40">
        <path d="M921 869 L996 869 L996 897 L921 897 L921 869 Z" />
      </clipPath>
      <clipPath clipPathUnits="userSpaceOnUse" id="clipPath41">
        <path d="M900 989 L922 989 L922 1031 L900 1031 L900 989 Z" />
      </clipPath>
      <clipPath clipPathUnits="userSpaceOnUse" id="clipPath42">
        <path d="M921 989 L996 989 L996 1017 L921 1017 L921 989 Z" />
      </clipPath>
      <clipPath clipPathUnits="userSpaceOnUse" id="clipPath43">
        <path d="M900 1109 L922 1109 L922 1151 L900 1151 L900 1109 Z" />
      </clipPath>
      <clipPath clipPathUnits="userSpaceOnUse" id="clipPath44">
        <path d="M921 1109 L996 1109 L996 1137 L921 1137 L921 1109 Z" />
      </clipPath>
      <clipPath clipPathUnits="userSpaceOnUse" id="clipPath45">
        <path d="M900 149 L922 149 L922 191 L900 191 L900 149 Z" />
      </clipPath>
      <clipPath clipPathUnits="userSpaceOnUse" id="clipPath46">
        <path d="M921 149 L982 149 L982 177 L921 177 L921 149 Z" />
      </clipPath>
      <clipPath clipPathUnits="userSpaceOnUse" id="clipPath47">
        <path d="M900 262 L922 262 L922 304 L900 304 L900 262 Z" />
      </clipPath>
      <clipPath clipPathUnits="userSpaceOnUse" id="clipPath48">
        <path d="M921 262 L982 262 L982 290 L921 290 L921 262 Z" />
      </clipPath>
      <clipPath clipPathUnits="userSpaceOnUse" id="clipPath49">
        <path d="M900 449 L922 449 L922 491 L900 491 L900 449 Z" />
      </clipPath>
      <clipPath clipPathUnits="userSpaceOnUse" id="clipPath50">
        <path d="M921 449 L982 449 L982 477 L921 477 L921 449 Z" />
      </clipPath>
      <clipPath clipPathUnits="userSpaceOnUse" id="clipPath51">
        <path d="M900 629 L922 629 L922 671 L900 671 L900 629 Z" />
      </clipPath>
      <clipPath clipPathUnits="userSpaceOnUse" id="clipPath52">
        <path d="M921 629 L982 629 L982 657 L921 657 L921 629 Z" />
      </clipPath>
      <clipPath clipPathUnits="userSpaceOnUse" id="clipPath53">
        <path d="M900 929 L922 929 L922 971 L900 971 L900 929 Z" />
      </clipPath>
      <clipPath clipPathUnits="userSpaceOnUse" id="clipPath54">
        <path d="M921 929 L982 929 L982 957 L921 957 L921 929 Z" />
      </clipPath>
      <clipPath clipPathUnits="userSpaceOnUse" id="clipPath55">
        <path d="M900 1049 L922 1049 L922 1091 L900 1091 L900 1049 Z" />
      </clipPath>
      <clipPath clipPathUnits="userSpaceOnUse" id="clipPath56">
        <path d="M921 1049 L982 1049 L982 1077 L921 1077 L921 1049 Z" />
      </clipPath>
      <clipPath clipPathUnits="userSpaceOnUse" id="clipPath57">
        <path d="M900 1169 L922 1169 L922 1211 L900 1211 L900 1169 Z" />
      </clipPath>
      <clipPath clipPathUnits="userSpaceOnUse" id="clipPath58">
        <path d="M921 1169 L982 1169 L982 1197 L921 1197 L921 1169 Z" />
      </clipPath>
      <clipPath clipPathUnits="userSpaceOnUse" id="clipPath59">
        <path d="M-1 -1 L1216 -1 L1216 1271 L-1 1271 L-1 -1 Z" />
      </clipPath>
      <clipPath clipPathUnits="userSpaceOnUse" id="clipPath60">
        <path d="M150 69 L646 69 L646 97 L150 97 L150 69 Z" />
      </clipPath>
      <clipPath clipPathUnits="userSpaceOnUse" id="clipPath61">
        <path d="M242 93 L254 93 L254 104 L242 104 L242 93 Z" />
      </clipPath>
      <clipPath clipPathUnits="userSpaceOnUse" id="clipPath62">
        <path d="M191 180 L486 180 L486 208 L191 208 L191 180 Z" />
      </clipPath>
      <clipPath clipPathUnits="userSpaceOnUse" id="clipPath63">
        <path d="M242 204 L254 204 L254 215 L242 215 L242 204 Z" />
      </clipPath>
      <clipPath clipPathUnits="userSpaceOnUse" id="clipPath64">
        <path d="M197 299 L464 299 L464 327 L197 327 L197 299 Z" />
      </clipPath>
      <clipPath clipPathUnits="userSpaceOnUse" id="clipPath65">
        <path d="M242 324 L254 324 L254 335 L242 335 L242 324 Z" />
      </clipPath>
      <clipPath clipPathUnits="userSpaceOnUse" id="clipPath66">
        <path d="M173 481 L592 481 L592 509 L173 509 L173 481 Z" />
      </clipPath>
      <clipPath clipPathUnits="userSpaceOnUse" id="clipPath67">
        <path d="M242 504 L254 504 L254 515 L242 515 L242 504 Z" />
      </clipPath>
      <clipPath clipPathUnits="userSpaceOnUse" id="clipPath68">
        <path d="M206 540 L430 540 L430 568 L206 568 L206 540 Z" />
      </clipPath>
      <clipPath clipPathUnits="userSpaceOnUse" id="clipPath69">
        <path d="M242 564 L254 564 L254 575 L242 575 L242 564 Z" />
      </clipPath>
      <clipPath clipPathUnits="userSpaceOnUse" id="clipPath70">
        <path d="M248 635 L754 635 L754 693 L248 693 L248 635 Z" />
      </clipPath>
      <clipPath clipPathUnits="userSpaceOnUse" id="clipPath71">
        <path d="M248 635 L755 635 L755 693 L248 693 L248 635 Z" />
      </clipPath>
      <clipPath clipPathUnits="userSpaceOnUse" id="clipPath72">
        <path d="M242 684 L254 684 L254 695 L242 695 L242 684 Z" />
      </clipPath>
      <clipPath clipPathUnits="userSpaceOnUse" id="clipPath73">
        <path d="M174 780 L593 780 L593 808 L174 808 L174 780 Z" />
      </clipPath>
      <clipPath clipPathUnits="userSpaceOnUse" id="clipPath74">
        <path d="M242 804 L254 804 L254 815 L242 815 L242 804 Z" />
      </clipPath>
      <clipPath clipPathUnits="userSpaceOnUse" id="clipPath75">
        <path d="M186 840 L523 840 L523 868 L186 868 L186 840 Z" />
      </clipPath>
      <clipPath clipPathUnits="userSpaceOnUse" id="clipPath76">
        <path d="M242 864 L254 864 L254 875 L242 875 L242 864 Z" />
      </clipPath>
      <clipPath clipPathUnits="userSpaceOnUse" id="clipPath77">
        <path d="M33 965 L1116 965 L1116 993 L33 993 L33 965 Z" />
      </clipPath>
      <clipPath clipPathUnits="userSpaceOnUse" id="clipPath78">
        <path d="M242 984 L254 984 L254 995 L242 995 L242 984 Z" />
      </clipPath>
      <clipPath clipPathUnits="userSpaceOnUse" id="clipPath79">
        <path d="M211 1080 L413 1080 L413 1108 L211 1108 L211 1080 Z" />
      </clipPath>
      <clipPath clipPathUnits="userSpaceOnUse" id="clipPath80">
        <path d="M242 1104 L254 1104 L254 1115 L242 1115 L242 1104 Z" />
      </clipPath>
      <clipPath clipPathUnits="userSpaceOnUse" id="clipPath81">
        <path d="M159 121 L615 121 L615 149 L159 149 L159 121 Z" />
      </clipPath>
      <clipPath clipPathUnits="userSpaceOnUse" id="clipPath82">
        <path d="M892 144 L904 144 L904 155 L892 155 L892 144 Z" />
      </clipPath>
      <clipPath clipPathUnits="userSpaceOnUse" id="clipPath83">
        <path d="M166 235 L589 235 L589 263 L166 263 L166 235 Z" />
      </clipPath>
      <clipPath clipPathUnits="userSpaceOnUse" id="clipPath84">
        <path d="M892 257 L904 257 L904 268 L892 268 L892 257 Z" />
      </clipPath>
      <clipPath clipPathUnits="userSpaceOnUse" id="clipPath85">
        <path d="M53 361 L1061 361 L1061 389 L53 389 L53 361 Z" />
      </clipPath>
      <clipPath clipPathUnits="userSpaceOnUse" id="clipPath86">
        <path d="M755 384 L767 384 L767 395 L755 395 L755 384 Z" />
      </clipPath>
      <clipPath clipPathUnits="userSpaceOnUse" id="clipPath87">
        <path d="M115 419 L789 419 L789 447 L115 447 L115 419 Z" />
      </clipPath>
      <clipPath clipPathUnits="userSpaceOnUse" id="clipPath88">
        <path d="M892 444 L904 444 L904 455 L892 455 L892 444 Z" />
      </clipPath>
      <clipPath clipPathUnits="userSpaceOnUse" id="clipPath89">
        <path d="M147 600 L678 600 L678 628 L147 628 L147 600 Z" />
      </clipPath>
      <clipPath clipPathUnits="userSpaceOnUse" id="clipPath90">
        <path d="M892 624 L904 624 L904 635 L892 635 L892 624 Z" />
      </clipPath>
      <clipPath clipPathUnits="userSpaceOnUse" id="clipPath91">
        <path d="M23 723 L1198 723 L1198 751 L23 751 L23 723 Z" />
      </clipPath>
      <clipPath clipPathUnits="userSpaceOnUse" id="clipPath92">
        <path d="M755 744 L767 744 L767 755 L755 755 L755 744 Z" />
      </clipPath>
      <clipPath clipPathUnits="userSpaceOnUse" id="clipPath93">
        <path d="M142 901 L685 901 L685 929 L142 929 L142 901 Z" />
      </clipPath>
      <clipPath clipPathUnits="userSpaceOnUse" id="clipPath94">
        <path d="M892 924 L904 924 L904 935 L892 935 L892 924 Z" />
      </clipPath>
      <clipPath clipPathUnits="userSpaceOnUse" id="clipPath95">
        <path d="M132 1020 L716 1020 L716 1048 L132 1048 L132 1020 Z" />
      </clipPath>
      <clipPath clipPathUnits="userSpaceOnUse" id="clipPath96">
        <path d="M892 1044 L904 1044 L904 1055 L892 1055 L892 1044 Z" />
      </clipPath>
      <clipPath clipPathUnits="userSpaceOnUse" id="clipPath97">
        <path d="M170 1139 L587 1139 L587 1167 L170 1167 L170 1139 Z" />
      </clipPath>
      <clipPath clipPathUnits="userSpaceOnUse" id="clipPath98">
        <path d="M892 1164 L904 1164 L904 1175 L892 1175 L892 1164 Z" />
      </clipPath>
    </defs>
    <g font-size="23" fill="rgb(238,201,142)" font-family="'Lucida Sans'" stroke-linejoin="round" stroke="rgb(238,201,142)" stroke-width="0" stroke-miterlimit="0">
      <rect x="209" y="10" clip-path="url(#clipPath1)" width="70" height="30" stroke="none" />
    </g>
    <g stroke-width="0.1" font-size="23" font-family="'Lucida Sans'" stroke-linecap="butt">
      <rect x="209" y="10" clip-path="url(#clipPath1)" fill="none" width="69" height="29" />
      <text xml:space="preserve" x="211" y="34" clip-path="url(#clipPath2)" stroke="none">Syst...</text>
      <line clip-path="url(#clipPath3)" fill="none" x1="243" x2="243" y1="40" y2="1260" stroke-dasharray="10,10" stroke-width="1.1" />
    </g>
    <g stroke-linecap="butt" font-size="23" fill="rgb(255,245,181)" font-family="'Lucida Sans'" stroke-dasharray="10,10" stroke="rgb(255,245,181)" stroke-width="1.1">
      <rect x="309" y="10" clip-path="url(#clipPath4)" width="120" height="50" stroke="none" />
    </g>
    <g stroke-width="0.1" font-size="23" font-family="'Lucida Sans'" stroke-linecap="butt">
      <rect x="309" y="10" clip-path="url(#clipPath4)" fill="none" width="119" height="49" />
      <text xml:space="preserve" x="313" y="44" clip-path="url(#clipPath5)" stroke="none">theCrea...</text>
      <line clip-path="url(#clipPath6)" fill="none" x1="368" x2="368" y1="60" y2="1260" stroke-dasharray="10,10" stroke-width="1.1" />
    </g>
    <g stroke-linecap="butt" font-size="23" fill="rgb(255,245,181)" font-family="'Lucida Sans'" stroke-dasharray="10,10" stroke="rgb(255,245,181)" stroke-width="1.1">
      <rect x="439" y="10" clip-path="url(#clipPath7)" width="119" height="50" stroke="none" />
    </g>
    <g stroke-width="0.1" font-size="23" font-family="'Lucida Sans'" stroke-linecap="butt">
      <rect x="439" y="10" clip-path="url(#clipPath7)" fill="none" width="118" height="49" />
      <text xml:space="preserve" x="445" y="31" clip-path="url(#clipPath8)" stroke="none">theCloc...</text>
      <line clip-path="url(#clipPath9)" fill="none" x1="497" x2="497" y1="60" y2="1260" stroke-dasharray="10,10" stroke-width="1.1" />
    </g>
    <g stroke-linecap="butt" font-size="23" fill="rgb(39,76,114)" font-family="'Lucida Sans'" stroke-dasharray="10,10" stroke="rgb(39,76,114)" stroke-width="1.1">
      <rect x="488" y="510" clip-path="url(#clipPath10)" width="20" height="40" stroke="none" />
      <rect x="488" y="510" clip-path="url(#clipPath10)" fill="none" width="19" stroke-dasharray="none" height="39" stroke-width="0.1" />
    </g>
    <g stroke-width="0.1" font-size="23" font-family="'Lucida Sans'" stroke-linecap="butt">
      <text xml:space="preserve" x="509" y="532" clip-path="url(#clipPath11)" stroke="none">out04</text>
      <rect x="488" y="810" clip-path="url(#clipPath12)" fill="rgb(39,76,114)" width="20" height="40" stroke="none" />
      <rect x="488" y="810" clip-path="url(#clipPath12)" fill="none" width="19" height="39" stroke="rgb(39,76,114)" />
      <text xml:space="preserve" x="509" y="832" clip-path="url(#clipPath13)" stroke="none">out07</text>
      <rect x="568" y="10" clip-path="url(#clipPath14)" fill="rgb(255,245,181)" width="130" height="50" stroke="none" />
      <rect x="568" y="10" clip-path="url(#clipPath14)" fill="none" width="129" height="49" />
      <text xml:space="preserve" x="615" y="31" clip-path="url(#clipPath15)" stroke="none">bill</text>
      <text xml:space="preserve" x="570" y="57" clip-path="url(#clipPath16)" stroke="none">: actAdmi...</text>
      <line clip-path="url(#clipPath17)" fill="none" x1="632" x2="632" y1="60" y2="1260" stroke-dasharray="10,10" stroke-width="1.1" />
    </g>
    <g stroke-linecap="butt" font-size="23" fill="rgb(255,245,181)" font-family="'Lucida Sans'" stroke-dasharray="10,10" stroke="rgb(255,245,181)" stroke-width="1.1">
      <rect x="708" y="10" clip-path="url(#clipPath18)" width="132" height="50" stroke="none" />
    </g>
    <g stroke-width="0.1" font-size="23" font-family="'Lucida Sans'" stroke-linecap="butt">
      <rect x="708" y="10" clip-path="url(#clipPath18)" fill="none" width="131" height="49" />
      <text xml:space="preserve" x="740" y="31" clip-path="url(#clipPath19)" stroke="none">tango</text>
      <text xml:space="preserve" x="714" y="57" clip-path="url(#clipPath20)" stroke="none">: actCom...</text>
      <line clip-path="url(#clipPath21)" fill="none" x1="773" x2="773" y1="60" y2="1260" stroke-dasharray="10,10" stroke-width="1.1" />
    </g>
    <g stroke-linecap="butt" font-size="23" fill="rgb(39,76,114)" font-family="'Lucida Sans'" stroke-dasharray="10,10" stroke="rgb(39,76,114)" stroke-width="1.1">
      <rect x="764" y="690" clip-path="url(#clipPath22)" width="20" height="40" stroke="none" />
      <rect x="764" y="690" clip-path="url(#clipPath22)" fill="none" width="19" stroke-dasharray="none" height="39" stroke-width="0.1" />
    </g>
    <g stroke-width="0.1" font-size="23" font-family="'Lucida Sans'" stroke-linecap="butt">
      <text xml:space="preserve" x="785" y="712" clip-path="url(#clipPath23)" stroke="none">out06</text>
      <rect x="764" y="390" clip-path="url(#clipPath24)" fill="rgb(194,239,255)" width="20" height="40" stroke="none" />
      <rect x="764" y="390" clip-path="url(#clipPath24)" fill="none" width="19" height="39" stroke="rgb(194,239,255)" />
      <text xml:space="preserve" x="785" y="412" clip-path="url(#clipPath25)" stroke="none">in03</text>
      <rect x="764" y="750" clip-path="url(#clipPath26)" fill="rgb(194,239,255)" width="20" height="40" stroke="none" />
      <rect x="764" y="750" clip-path="url(#clipPath26)" fill="none" width="19" height="39" stroke="rgb(194,239,255)" />
      <text xml:space="preserve" x="785" y="772" clip-path="url(#clipPath27)" stroke="none">in06</text>
      <rect x="850" y="10" clip-path="url(#clipPath28)" fill="rgb(255,245,181)" width="122" height="50" stroke="none" />
      <rect x="850" y="10" clip-path="url(#clipPath28)" fill="none" width="121" height="49" />
      <text xml:space="preserve" x="881" y="31" clip-path="url(#clipPath29)" stroke="none">steve</text>
      <text xml:space="preserve" x="855" y="57" clip-path="url(#clipPath29)" stroke="none">: actCoo...</text>
      <line clip-path="url(#clipPath30)" fill="none" x1="910" x2="910" y1="60" y2="1260" stroke-dasharray="10,10" stroke-width="1.1" />
    </g>
    <g stroke-linecap="butt" font-size="23" fill="rgb(39,76,114)" font-family="'Lucida Sans'" stroke-dasharray="10,10" stroke="rgb(39,76,114)" stroke-width="1.1">
      <rect x="901" y="99" clip-path="url(#clipPath31)" width="20" height="40" stroke="none" />
      <rect x="901" y="99" clip-path="url(#clipPath31)" fill="none" width="19" stroke-dasharray="none" height="39" stroke-width="0.1" />
    </g>
    <g stroke-width="0.1" font-size="23" font-family="'Lucida Sans'" stroke-linecap="butt">
      <text xml:space="preserve" x="922" y="121" clip-path="url(#clipPath32)" stroke="none">out01</text>
      <rect x="901" y="210" clip-path="url(#clipPath33)" fill="rgb(39,76,114)" width="20" height="40" stroke="none" />
      <rect x="901" y="210" clip-path="url(#clipPath33)" fill="none" width="19" height="39" stroke="rgb(39,76,114)" />
      <text xml:space="preserve" x="922" y="232" clip-path="url(#clipPath34)" stroke="none">out02</text>
      <rect x="901" y="330" clip-path="url(#clipPath35)" fill="rgb(39,76,114)" width="20" height="40" stroke="none" />
      <rect x="901" y="330" clip-path="url(#clipPath35)" fill="none" width="19" height="39" stroke="rgb(39,76,114)" />
      <text xml:space="preserve" x="922" y="352" clip-path="url(#clipPath36)" stroke="none">out03</text>
      <rect x="901" y="570" clip-path="url(#clipPath37)" fill="rgb(39,76,114)" width="20" height="40" stroke="none" />
      <rect x="901" y="570" clip-path="url(#clipPath37)" fill="none" width="19" height="39" stroke="rgb(39,76,114)" />
      <text xml:space="preserve" x="922" y="592" clip-path="url(#clipPath38)" stroke="none">out05</text>
      <rect x="901" y="870" clip-path="url(#clipPath39)" fill="rgb(39,76,114)" width="20" height="40" stroke="none" />
      <rect x="901" y="870" clip-path="url(#clipPath39)" fill="none" width="19" height="39" stroke="rgb(39,76,114)" />
      <text xml:space="preserve" x="922" y="892" clip-path="url(#clipPath40)" stroke="none">out08</text>
      <rect x="901" y="990" clip-path="url(#clipPath41)" fill="rgb(39,76,114)" width="20" height="40" stroke="none" />
      <rect x="901" y="990" clip-path="url(#clipPath41)" fill="none" width="19" height="39" stroke="rgb(39,76,114)" />
      <text xml:space="preserve" x="922" y="1012" clip-path="url(#clipPath42)" stroke="none">out09</text>
      <rect x="901" y="1110" clip-path="url(#clipPath43)" fill="rgb(39,76,114)" width="20" height="40" stroke="none" />
      <rect x="901" y="1110" clip-path="url(#clipPath43)" fill="none" width="19" height="39" stroke="rgb(39,76,114)" />
      <text xml:space="preserve" x="922" y="1132" clip-path="url(#clipPath44)" stroke="none">out10</text>
      <rect x="901" y="150" clip-path="url(#clipPath45)" fill="rgb(194,239,255)" width="20" height="40" stroke="none" />
      <rect x="901" y="150" clip-path="url(#clipPath45)" fill="none" width="19" height="39" stroke="rgb(194,239,255)" />
      <text xml:space="preserve" x="922" y="172" clip-path="url(#clipPath46)" stroke="none">in01</text>
      <rect x="901" y="263" clip-path="url(#clipPath47)" fill="rgb(194,239,255)" width="20" height="40" stroke="none" />
      <rect x="901" y="263" clip-path="url(#clipPath47)" fill="none" width="19" height="39" stroke="rgb(194,239,255)" />
      <text xml:space="preserve" x="922" y="285" clip-path="url(#clipPath48)" stroke="none">in02</text>
      <rect x="901" y="450" clip-path="url(#clipPath49)" fill="rgb(194,239,255)" width="20" height="40" stroke="none" />
      <rect x="901" y="450" clip-path="url(#clipPath49)" fill="none" width="19" height="39" stroke="rgb(194,239,255)" />
      <text xml:space="preserve" x="922" y="472" clip-path="url(#clipPath50)" stroke="none">in04</text>
      <rect x="901" y="630" clip-path="url(#clipPath51)" fill="rgb(194,239,255)" width="20" height="40" stroke="none" />
      <rect x="901" y="630" clip-path="url(#clipPath51)" fill="none" width="19" height="39" stroke="rgb(194,239,255)" />
      <text xml:space="preserve" x="922" y="652" clip-path="url(#clipPath52)" stroke="none">in05</text>
      <rect x="901" y="930" clip-path="url(#clipPath53)" fill="rgb(194,239,255)" width="20" height="40" stroke="none" />
      <rect x="901" y="930" clip-path="url(#clipPath53)" fill="none" width="19" height="39" stroke="rgb(194,239,255)" />
      <text xml:space="preserve" x="922" y="952" clip-path="url(#clipPath54)" stroke="none">in07</text>
      <rect x="901" y="1050" clip-path="url(#clipPath55)" fill="rgb(194,239,255)" width="20" height="40" stroke="none" />
      <rect x="901" y="1050" clip-path="url(#clipPath55)" fill="none" width="19" height="39" stroke="rgb(194,239,255)" />
      <text xml:space="preserve" x="922" y="1072" clip-path="url(#clipPath56)" stroke="none">in08</text>
      <rect x="901" y="1170" clip-path="url(#clipPath57)" fill="rgb(194,239,255)" width="20" height="40" stroke="none" />
      <rect x="901" y="1170" clip-path="url(#clipPath57)" fill="none" width="19" height="39" stroke="rgb(194,239,255)" />
      <text xml:space="preserve" x="922" y="1192" clip-path="url(#clipPath58)" stroke="none">in09</text>
      <line clip-path="url(#clipPath59)" fill="none" x1="901" x2="244" y1="98" y2="98" stroke="rgb(136,136,136)" stroke-width="2.1" />
      <text x="151" y="92" clip-path="url(#clipPath60)" stroke="none" stroke-width="2.1" xml:space="preserve">oeLogin("steve","pwdMessirExcalibur2017")</text>
      <line clip-path="url(#clipPath61)" fill="none" x1="251" x2="244" y1="95" y2="98" stroke="rgb(136,136,136)" stroke-width="2.1" />
      <line clip-path="url(#clipPath61)" fill="none" x1="244" x2="251" y1="98" y2="101" stroke="rgb(136,136,136)" stroke-width="2.1" />
      <line clip-path="url(#clipPath59)" fill="none" x1="901" x2="244" y1="209" y2="209" stroke="rgb(136,136,136)" stroke-width="2.1" />
      <text x="192" y="203" clip-path="url(#clipPath62)" stroke="none" stroke-width="2.1" xml:space="preserve">oeGetCrisisSet("pending")</text>
      <line clip-path="url(#clipPath63)" fill="none" x1="251" x2="244" y1="206" y2="209" stroke="rgb(136,136,136)" stroke-width="2.1" />
      <line clip-path="url(#clipPath63)" fill="none" x1="244" x2="251" y1="209" y2="212" stroke="rgb(136,136,136)" stroke-width="2.1" />
      <line clip-path="url(#clipPath59)" fill="none" x1="901" x2="244" y1="329" y2="329" stroke="rgb(136,136,136)" stroke-width="2.1" />
      <text x="198" y="322" clip-path="url(#clipPath64)" stroke="none" stroke-width="2.1" xml:space="preserve">oeSetCrisisHandler("1")</text>
      <line clip-path="url(#clipPath65)" fill="none" x1="251" x2="244" y1="326" y2="329" stroke="rgb(136,136,136)" stroke-width="2.1" />
      <line clip-path="url(#clipPath65)" fill="none" x1="244" x2="251" y1="329" y2="332" stroke="rgb(136,136,136)" stroke-width="2.1" />
      <line clip-path="url(#clipPath59)" fill="none" x1="488" x2="244" y1="509" y2="509" stroke="rgb(136,136,136)" stroke-width="2.1" />
      <text x="174" y="504" clip-path="url(#clipPath66)" stroke="none" stroke-width="2.1" xml:space="preserve">oeSetClock("2017:11:26 - 10:45:00")</text>
      <line clip-path="url(#clipPath67)" fill="none" x1="251" x2="244" y1="506" y2="509" stroke="rgb(136,136,136)" stroke-width="2.1" />
      <line clip-path="url(#clipPath67)" fill="none" x1="244" x2="251" y1="509" y2="512" stroke="rgb(136,136,136)" stroke-width="2.1" />
      <line clip-path="url(#clipPath59)" fill="none" x1="901" x2="244" y1="569" y2="569" stroke="rgb(136,136,136)" stroke-width="2.1" />
      <text x="207" y="563" clip-path="url(#clipPath68)" stroke="none" stroke-width="2.1" xml:space="preserve">oeValidateAlert("1")</text>
      <line clip-path="url(#clipPath69)" fill="none" x1="251" x2="244" y1="566" y2="569" stroke="rgb(136,136,136)" stroke-width="2.1" />
      <line clip-path="url(#clipPath69)" fill="none" x1="244" x2="251" y1="569" y2="572" stroke="rgb(136,136,136)" stroke-width="2.1" />
      <line clip-path="url(#clipPath59)" fill="none" x1="764" x2="244" y1="689" y2="689" stroke="rgb(136,136,136)" stroke-width="2.1" />
      <text x="255" y="660" clip-path="url(#clipPath70)" stroke="none" stroke-width="2.1" xml:space="preserve">oeAlert("witness","2017:11:26","10:20:00","</text>
      <text x="256" y="686" clip-path="url(#clipPath71)" stroke="none" stroke-width="2.1" xml:space="preserve">+3524666445000","49.627095:6.16025...</text>
      <line clip-path="url(#clipPath72)" fill="none" x1="251" x2="244" y1="686" y2="689" stroke="rgb(136,136,136)" stroke-width="2.1" />
      <line clip-path="url(#clipPath72)" fill="none" x1="244" x2="251" y1="689" y2="692" stroke="rgb(136,136,136)" stroke-width="2.1" />
      <line clip-path="url(#clipPath59)" fill="none" x1="488" x2="244" y1="809" y2="809" stroke="rgb(136,136,136)" stroke-width="2.1" />
      <text x="175" y="803" clip-path="url(#clipPath73)" stroke="none" stroke-width="2.1" xml:space="preserve">oeSetClock("2017:11:26 - 12:45:00")</text>
      <line clip-path="url(#clipPath74)" fill="none" x1="251" x2="244" y1="806" y2="809" stroke="rgb(136,136,136)" stroke-width="2.1" />
      <line clip-path="url(#clipPath74)" fill="none" x1="244" x2="251" y1="809" y2="812" stroke="rgb(136,136,136)" stroke-width="2.1" />
      <line clip-path="url(#clipPath59)" fill="none" x1="901" x2="244" y1="869" y2="869" stroke="rgb(136,136,136)" stroke-width="2.1" />
      <text x="187" y="863" clip-path="url(#clipPath75)" stroke="none" stroke-width="2.1" xml:space="preserve">oeSetCrisisStatus("1","solved")</text>
      <line clip-path="url(#clipPath76)" fill="none" x1="251" x2="244" y1="866" y2="869" stroke="rgb(136,136,136)" stroke-width="2.1" />
      <line clip-path="url(#clipPath76)" fill="none" x1="244" x2="251" y1="869" y2="872" stroke="rgb(136,136,136)" stroke-width="2.1" />
      <line clip-path="url(#clipPath59)" fill="none" x1="901" x2="244" y1="989" y2="989" stroke="rgb(136,136,136)" stroke-width="2.1" />
      <text x="34" y="988" clip-path="url(#clipPath77)" stroke="none" stroke-width="2.1" xml:space="preserve">oeReportOnCrisis("1","3 victims sent to hospital, 2 cars evacuated and 4 rescue unit mobilized")</text>
      <line clip-path="url(#clipPath78)" fill="none" x1="251" x2="244" y1="986" y2="989" stroke="rgb(136,136,136)" stroke-width="2.1" />
      <line clip-path="url(#clipPath78)" fill="none" x1="244" x2="251" y1="989" y2="992" stroke="rgb(136,136,136)" stroke-width="2.1" />
      <line clip-path="url(#clipPath59)" fill="none" x1="901" x2="244" y1="1109" y2="1109" stroke="rgb(136,136,136)" stroke-width="2.1" />
      <text x="212" y="1103" clip-path="url(#clipPath79)" stroke="none" stroke-width="2.1" xml:space="preserve">oeCloseCrisis("1")</text>
      <line clip-path="url(#clipPath80)" fill="none" x1="251" x2="244" y1="1106" y2="1109" stroke="rgb(136,136,136)" stroke-width="2.1" />
      <line clip-path="url(#clipPath80)" fill="none" x1="244" x2="251" y1="1109" y2="1112" stroke="rgb(136,136,136)" stroke-width="2.1" />
    </g>
    <g stroke-linecap="butt" font-size="23" fill="rgb(136,136,136)" font-family="'Lucida Sans'" stroke-dasharray="5,5" stroke="rgb(136,136,136)" stroke-width="2.1">
      <line clip-path="url(#clipPath59)" fill="none" x1="901" x2="244" y1="149" y2="149" />
      <text x="160" y="144" clip-path="url(#clipPath81)" fill="black" stroke="none" xml:space="preserve">ieMessage(You are logged ! Welcome ...)</text>
      <line clip-path="url(#clipPath82)" fill="none" x1="894" x2="901" y1="152" y2="149" stroke-dasharray="none" />
      <line clip-path="url(#clipPath82)" fill="none" x1="901" x2="894" y1="149" y2="146" stroke-dasharray="none" />
      <line clip-path="url(#clipPath59)" fill="none" x1="901" x2="244" y1="262" y2="262" />
      <text x="167" y="258" clip-path="url(#clipPath83)" fill="black" stroke="none" xml:space="preserve">ieSendACrisis(crisis with ID 1 details)</text>
      <line clip-path="url(#clipPath84)" fill="none" x1="894" x2="901" y1="265" y2="262" stroke-dasharray="none" />
      <line clip-path="url(#clipPath84)" fill="none" x1="901" x2="894" y1="262" y2="259" stroke-dasharray="none" />
      <line clip-path="url(#clipPath59)" fill="none" x1="764" x2="244" y1="389" y2="389" />
      <text x="54" y="384" clip-path="url(#clipPath85)" fill="black" stroke="none" xml:space="preserve">ieSmsSend(+3524666445252,The handling of your alert by our services is in progress !)</text>
      <line clip-path="url(#clipPath86)" fill="none" x1="757" x2="764" y1="392" y2="389" stroke-dasharray="none" />
      <line clip-path="url(#clipPath86)" fill="none" x1="764" x2="757" y1="389" y2="386" stroke-dasharray="none" />
      <line clip-path="url(#clipPath59)" fill="none" x1="901" x2="244" y1="449" y2="449" />
      <text x="116" y="442" clip-path="url(#clipPath87)" fill="black" stroke="none" xml:space="preserve">ieMessage(You are now considered as handling the crisis !)</text>
      <line clip-path="url(#clipPath88)" fill="none" x1="894" x2="901" y1="452" y2="449" stroke-dasharray="none" />
      <line clip-path="url(#clipPath88)" fill="none" x1="901" x2="894" y1="449" y2="446" stroke-dasharray="none" />
      <line clip-path="url(#clipPath59)" fill="none" x1="901" x2="244" y1="629" y2="629" />
      <text x="148" y="623" clip-path="url(#clipPath89)" fill="black" stroke="none" xml:space="preserve">ieMessage(The Alert is now declared as valid !)</text>
      <line clip-path="url(#clipPath90)" fill="none" x1="894" x2="901" y1="632" y2="629" stroke-dasharray="none" />
      <line clip-path="url(#clipPath90)" fill="none" x1="901" x2="894" y1="629" y2="626" stroke-dasharray="none" />
      <line clip-path="url(#clipPath59)" fill="none" x1="764" x2="244" y1="749" y2="749" />
      <text x="24" y="746" clip-path="url(#clipPath91)" fill="black" stroke="none" xml:space="preserve">ieSmsSend(+3524666445000,Your alert has been registered. We will handle it and keep you informed)</text>
      <line clip-path="url(#clipPath92)" fill="none" x1="757" x2="764" y1="752" y2="749" stroke-dasharray="none" />
      <line clip-path="url(#clipPath92)" fill="none" x1="764" x2="757" y1="749" y2="746" stroke-dasharray="none" />
      <line clip-path="url(#clipPath59)" fill="none" x1="901" x2="244" y1="929" y2="929" />
      <text x="143" y="924" clip-path="url(#clipPath93)" fill="black" stroke="none" xml:space="preserve">ieMessage(The crisis status has been updated !)</text>
      <line clip-path="url(#clipPath94)" fill="none" x1="894" x2="901" y1="932" y2="929" stroke-dasharray="none" />
      <line clip-path="url(#clipPath94)" fill="none" x1="901" x2="894" y1="929" y2="926" stroke-dasharray="none" />
      <line clip-path="url(#clipPath59)" fill="none" x1="901" x2="244" y1="1049" y2="1049" />
      <text x="133" y="1043" clip-path="url(#clipPath95)" fill="black" stroke="none" xml:space="preserve">ieMessage(The crisis comment has been updated !)</text>
      <line clip-path="url(#clipPath96)" fill="none" x1="894" x2="901" y1="1052" y2="1049" stroke-dasharray="none" />
      <line clip-path="url(#clipPath96)" fill="none" x1="901" x2="894" y1="1049" y2="1046" stroke-dasharray="none" />
      <line clip-path="url(#clipPath59)" fill="none" x1="901" x2="244" y1="1169" y2="1169" />
      <text x="171" y="1162" clip-path="url(#clipPath97)" fill="black" stroke="none" xml:space="preserve">ieMessage(The crisis is now closed !)</text>
      <line clip-path="url(#clipPath98)" fill="none" x1="894" x2="901" y1="1172" y2="1169" stroke-dasharray="none" />
      <line clip-path="url(#clipPath98)" fill="none" x1="901" x2="894" y1="1169" y2="1166" stroke-dasharray="none" />
    </g>
  </g>
</svg>

