<?xml version="1.0" encoding="UTF-8"?>
<svg xmlns="http://www.w3.org/2000/svg" xmlns:xlink="http://www.w3.org/1999/xlink" stroke-dasharray="none" shape-rendering="auto" font-family="'Dialog'" width="1141" text-rendering="auto" fill-opacity="1" contentScriptType="text/ecmascript" color-interpolation="auto" color-rendering="auto" preserveAspectRatio="xMidYMid meet" font-size="12" viewBox="0 0 1141 1270" fill="black" stroke="black" image-rendering="auto" stroke-miterlimit="10" zoomAndPan="magnify" version="1.0" stroke-linecap="square" stroke-linejoin="miter" contentStyleType="text/css" font-style="normal" height="1270" stroke-width="1" stroke-dashoffset="0" font-weight="normal" stroke-opacity="1">
  <!--Generated by the Batik Graphics2D SVG Generator-->
  <defs id="genericDefs" />
  <g>
    <defs id="defs1">
      <clipPath clipPathUnits="userSpaceOnUse" id="clipPath1">
        <path d="M171 9 L243 9 L243 41 L171 41 L171 9 Z" />
      </clipPath>
      <clipPath clipPathUnits="userSpaceOnUse" id="clipPath2">
        <path d="M171 9 L247 9 L247 41 L171 41 L171 9 Z" />
      </clipPath>
      <clipPath clipPathUnits="userSpaceOnUse" id="clipPath3">
        <path d="M201 39 L213 39 L213 1261 L201 1261 L201 39 Z" />
      </clipPath>
      <clipPath clipPathUnits="userSpaceOnUse" id="clipPath4">
        <path d="M271 9 L393 9 L393 61 L271 61 L271 9 Z" />
      </clipPath>
      <clipPath clipPathUnits="userSpaceOnUse" id="clipPath5">
        <path d="M271 9 L397 9 L397 61 L271 61 L271 9 Z" />
      </clipPath>
      <clipPath clipPathUnits="userSpaceOnUse" id="clipPath6">
        <path d="M326 59 L338 59 L338 1261 L326 1261 L326 59 Z" />
      </clipPath>
      <clipPath clipPathUnits="userSpaceOnUse" id="clipPath7">
        <path d="M401 9 L522 9 L522 61 L401 61 L401 9 Z" />
      </clipPath>
      <clipPath clipPathUnits="userSpaceOnUse" id="clipPath8">
        <path d="M401 9 L527 9 L527 61 L401 61 L401 9 Z" />
      </clipPath>
      <clipPath clipPathUnits="userSpaceOnUse" id="clipPath9">
        <path d="M401 9 L526 9 L526 61 L401 61 L401 9 Z" />
      </clipPath>
      <clipPath clipPathUnits="userSpaceOnUse" id="clipPath10">
        <path d="M455 59 L467 59 L467 1261 L455 1261 L455 59 Z" />
      </clipPath>
      <clipPath clipPathUnits="userSpaceOnUse" id="clipPath11">
        <path d="M450 509 L472 509 L472 551 L450 551 L450 509 Z" />
      </clipPath>
      <clipPath clipPathUnits="userSpaceOnUse" id="clipPath12">
        <path d="M471 509 L537 509 L537 540 L471 540 L471 509 Z" />
      </clipPath>
      <clipPath clipPathUnits="userSpaceOnUse" id="clipPath13">
        <path d="M450 809 L472 809 L472 851 L450 851 L450 809 Z" />
      </clipPath>
      <clipPath clipPathUnits="userSpaceOnUse" id="clipPath14">
        <path d="M471 809 L537 809 L537 840 L471 840 L471 809 Z" />
      </clipPath>
      <clipPath clipPathUnits="userSpaceOnUse" id="clipPath15">
        <path d="M530 9 L662 9 L662 61 L530 61 L530 9 Z" />
      </clipPath>
      <clipPath clipPathUnits="userSpaceOnUse" id="clipPath16">
        <path d="M530 9 L666 9 L666 61 L530 61 L530 9 Z" />
      </clipPath>
      <clipPath clipPathUnits="userSpaceOnUse" id="clipPath17">
        <path d="M590 59 L602 59 L602 1261 L590 1261 L590 59 Z" />
      </clipPath>
      <clipPath clipPathUnits="userSpaceOnUse" id="clipPath18">
        <path d="M670 9 L804 9 L804 61 L670 61 L670 9 Z" />
      </clipPath>
      <clipPath clipPathUnits="userSpaceOnUse" id="clipPath19">
        <path d="M670 9 L810 9 L810 61 L670 61 L670 9 Z" />
      </clipPath>
      <clipPath clipPathUnits="userSpaceOnUse" id="clipPath20">
        <path d="M670 9 L809 9 L809 61 L670 61 L670 9 Z" />
      </clipPath>
      <clipPath clipPathUnits="userSpaceOnUse" id="clipPath21">
        <path d="M731 59 L743 59 L743 1261 L731 1261 L731 59 Z" />
      </clipPath>
      <clipPath clipPathUnits="userSpaceOnUse" id="clipPath22">
        <path d="M726 689 L748 689 L748 731 L726 731 L726 689 Z" />
      </clipPath>
      <clipPath clipPathUnits="userSpaceOnUse" id="clipPath23">
        <path d="M747 689 L813 689 L813 720 L747 720 L747 689 Z" />
      </clipPath>
      <clipPath clipPathUnits="userSpaceOnUse" id="clipPath24">
        <path d="M726 389 L748 389 L748 431 L726 431 L726 389 Z" />
      </clipPath>
      <clipPath clipPathUnits="userSpaceOnUse" id="clipPath25">
        <path d="M747 389 L799 389 L799 420 L747 420 L747 389 Z" />
      </clipPath>
      <clipPath clipPathUnits="userSpaceOnUse" id="clipPath26">
        <path d="M726 749 L748 749 L748 791 L726 791 L726 749 Z" />
      </clipPath>
      <clipPath clipPathUnits="userSpaceOnUse" id="clipPath27">
        <path d="M747 749 L799 749 L799 780 L747 780 L747 749 Z" />
      </clipPath>
      <clipPath clipPathUnits="userSpaceOnUse" id="clipPath28">
        <path d="M812 9 L936 9 L936 61 L812 61 L812 9 Z" />
      </clipPath>
      <clipPath clipPathUnits="userSpaceOnUse" id="clipPath29">
        <path d="M812 9 L941 9 L941 61 L812 61 L812 9 Z" />
      </clipPath>
      <clipPath clipPathUnits="userSpaceOnUse" id="clipPath30">
        <path d="M812 9 L940 9 L940 61 L812 61 L812 9 Z" />
      </clipPath>
      <clipPath clipPathUnits="userSpaceOnUse" id="clipPath31">
        <path d="M868 59 L880 59 L880 1261 L868 1261 L868 59 Z" />
      </clipPath>
      <clipPath clipPathUnits="userSpaceOnUse" id="clipPath32">
        <path d="M863 98 L885 98 L885 140 L863 140 L863 98 Z" />
      </clipPath>
      <clipPath clipPathUnits="userSpaceOnUse" id="clipPath33">
        <path d="M884 98 L950 98 L950 129 L884 129 L884 98 Z" />
      </clipPath>
      <clipPath clipPathUnits="userSpaceOnUse" id="clipPath34">
        <path d="M863 209 L885 209 L885 251 L863 251 L863 209 Z" />
      </clipPath>
      <clipPath clipPathUnits="userSpaceOnUse" id="clipPath35">
        <path d="M884 209 L950 209 L950 240 L884 240 L884 209 Z" />
      </clipPath>
      <clipPath clipPathUnits="userSpaceOnUse" id="clipPath36">
        <path d="M863 329 L885 329 L885 371 L863 371 L863 329 Z" />
      </clipPath>
      <clipPath clipPathUnits="userSpaceOnUse" id="clipPath37">
        <path d="M884 329 L950 329 L950 360 L884 360 L884 329 Z" />
      </clipPath>
      <clipPath clipPathUnits="userSpaceOnUse" id="clipPath38">
        <path d="M863 569 L885 569 L885 611 L863 611 L863 569 Z" />
      </clipPath>
      <clipPath clipPathUnits="userSpaceOnUse" id="clipPath39">
        <path d="M884 569 L950 569 L950 600 L884 600 L884 569 Z" />
      </clipPath>
      <clipPath clipPathUnits="userSpaceOnUse" id="clipPath40">
        <path d="M863 869 L885 869 L885 911 L863 911 L863 869 Z" />
      </clipPath>
      <clipPath clipPathUnits="userSpaceOnUse" id="clipPath41">
        <path d="M884 869 L950 869 L950 900 L884 900 L884 869 Z" />
      </clipPath>
      <clipPath clipPathUnits="userSpaceOnUse" id="clipPath42">
        <path d="M863 989 L885 989 L885 1031 L863 1031 L863 989 Z" />
      </clipPath>
      <clipPath clipPathUnits="userSpaceOnUse" id="clipPath43">
        <path d="M884 989 L950 989 L950 1020 L884 1020 L884 989 Z" />
      </clipPath>
      <clipPath clipPathUnits="userSpaceOnUse" id="clipPath44">
        <path d="M863 1109 L885 1109 L885 1151 L863 1151 L863 1109 Z" />
      </clipPath>
      <clipPath clipPathUnits="userSpaceOnUse" id="clipPath45">
        <path d="M884 1109 L950 1109 L950 1140 L884 1140 L884 1109 Z" />
      </clipPath>
      <clipPath clipPathUnits="userSpaceOnUse" id="clipPath46">
        <path d="M863 149 L885 149 L885 191 L863 191 L863 149 Z" />
      </clipPath>
      <clipPath clipPathUnits="userSpaceOnUse" id="clipPath47">
        <path d="M884 149 L936 149 L936 180 L884 180 L884 149 Z" />
      </clipPath>
      <clipPath clipPathUnits="userSpaceOnUse" id="clipPath48">
        <path d="M863 262 L885 262 L885 304 L863 304 L863 262 Z" />
      </clipPath>
      <clipPath clipPathUnits="userSpaceOnUse" id="clipPath49">
        <path d="M884 262 L936 262 L936 293 L884 293 L884 262 Z" />
      </clipPath>
      <clipPath clipPathUnits="userSpaceOnUse" id="clipPath50">
        <path d="M863 449 L885 449 L885 491 L863 491 L863 449 Z" />
      </clipPath>
      <clipPath clipPathUnits="userSpaceOnUse" id="clipPath51">
        <path d="M884 449 L936 449 L936 480 L884 480 L884 449 Z" />
      </clipPath>
      <clipPath clipPathUnits="userSpaceOnUse" id="clipPath52">
        <path d="M863 629 L885 629 L885 671 L863 671 L863 629 Z" />
      </clipPath>
      <clipPath clipPathUnits="userSpaceOnUse" id="clipPath53">
        <path d="M884 629 L936 629 L936 660 L884 660 L884 629 Z" />
      </clipPath>
      <clipPath clipPathUnits="userSpaceOnUse" id="clipPath54">
        <path d="M863 929 L885 929 L885 971 L863 971 L863 929 Z" />
      </clipPath>
      <clipPath clipPathUnits="userSpaceOnUse" id="clipPath55">
        <path d="M884 929 L936 929 L936 960 L884 960 L884 929 Z" />
      </clipPath>
      <clipPath clipPathUnits="userSpaceOnUse" id="clipPath56">
        <path d="M863 1049 L885 1049 L885 1091 L863 1091 L863 1049 Z" />
      </clipPath>
      <clipPath clipPathUnits="userSpaceOnUse" id="clipPath57">
        <path d="M884 1049 L936 1049 L936 1080 L884 1080 L884 1049 Z" />
      </clipPath>
      <clipPath clipPathUnits="userSpaceOnUse" id="clipPath58">
        <path d="M863 1169 L885 1169 L885 1211 L863 1211 L863 1169 Z" />
      </clipPath>
      <clipPath clipPathUnits="userSpaceOnUse" id="clipPath59">
        <path d="M884 1169 L936 1169 L936 1200 L884 1200 L884 1169 Z" />
      </clipPath>
      <clipPath clipPathUnits="userSpaceOnUse" id="clipPath60">
        <path d="M-1 -1 L1142 -1 L1142 1271 L-1 1271 L-1 -1 Z" />
      </clipPath>
      <clipPath clipPathUnits="userSpaceOnUse" id="clipPath61">
        <path d="M123 68 L598 68 L598 99 L123 99 L123 68 Z" />
      </clipPath>
      <clipPath clipPathUnits="userSpaceOnUse" id="clipPath62">
        <path d="M205 93 L217 93 L217 104 L205 104 L205 93 Z" />
      </clipPath>
      <clipPath clipPathUnits="userSpaceOnUse" id="clipPath63">
        <path d="M157 179 L447 179 L447 210 L157 210 L157 179 Z" />
      </clipPath>
      <clipPath clipPathUnits="userSpaceOnUse" id="clipPath64">
        <path d="M205 204 L217 204 L217 215 L205 215 L205 204 Z" />
      </clipPath>
      <clipPath clipPathUnits="userSpaceOnUse" id="clipPath65">
        <path d="M163 298 L425 298 L425 329 L163 329 L163 298 Z" />
      </clipPath>
      <clipPath clipPathUnits="userSpaceOnUse" id="clipPath66">
        <path d="M205 324 L217 324 L217 335 L205 335 L205 324 Z" />
      </clipPath>
      <clipPath clipPathUnits="userSpaceOnUse" id="clipPath67">
        <path d="M151 480 L541 480 L541 511 L151 511 L151 480 Z" />
      </clipPath>
      <clipPath clipPathUnits="userSpaceOnUse" id="clipPath68">
        <path d="M205 504 L217 504 L217 515 L205 515 L205 504 Z" />
      </clipPath>
      <clipPath clipPathUnits="userSpaceOnUse" id="clipPath69">
        <path d="M173 539 L389 539 L389 570 L173 570 L173 539 Z" />
      </clipPath>
      <clipPath clipPathUnits="userSpaceOnUse" id="clipPath70">
        <path d="M205 564 L217 564 L217 575 L205 575 L205 564 Z" />
      </clipPath>
      <clipPath clipPathUnits="userSpaceOnUse" id="clipPath71">
        <path d="M211 635 L717 635 L717 693 L211 693 L211 635 Z" />
      </clipPath>
      <clipPath clipPathUnits="userSpaceOnUse" id="clipPath72">
        <path d="M205 684 L217 684 L217 695 L205 695 L205 684 Z" />
      </clipPath>
      <clipPath clipPathUnits="userSpaceOnUse" id="clipPath73">
        <path d="M152 779 L542 779 L542 810 L152 810 L152 779 Z" />
      </clipPath>
      <clipPath clipPathUnits="userSpaceOnUse" id="clipPath74">
        <path d="M205 804 L217 804 L217 815 L205 815 L205 804 Z" />
      </clipPath>
      <clipPath clipPathUnits="userSpaceOnUse" id="clipPath75">
        <path d="M150 839 L486 839 L486 870 L150 870 L150 839 Z" />
      </clipPath>
      <clipPath clipPathUnits="userSpaceOnUse" id="clipPath76">
        <path d="M205 864 L217 864 L217 875 L205 875 L205 864 Z" />
      </clipPath>
      <clipPath clipPathUnits="userSpaceOnUse" id="clipPath77">
        <path d="M29 964 L1047 964 L1047 995 L29 995 L29 964 Z" />
      </clipPath>
      <clipPath clipPathUnits="userSpaceOnUse" id="clipPath78">
        <path d="M205 984 L217 984 L217 995 L205 995 L205 984 Z" />
      </clipPath>
      <clipPath clipPathUnits="userSpaceOnUse" id="clipPath79">
        <path d="M173 1079 L377 1079 L377 1110 L173 1110 L173 1079 Z" />
      </clipPath>
      <clipPath clipPathUnits="userSpaceOnUse" id="clipPath80">
        <path d="M205 1104 L217 1104 L217 1115 L205 1115 L205 1104 Z" />
      </clipPath>
      <clipPath clipPathUnits="userSpaceOnUse" id="clipPath81">
        <path d="M124 120 L576 120 L576 151 L124 151 L124 120 Z" />
      </clipPath>
      <clipPath clipPathUnits="userSpaceOnUse" id="clipPath82">
        <path d="M855 144 L867 144 L867 155 L855 155 L855 144 Z" />
      </clipPath>
      <clipPath clipPathUnits="userSpaceOnUse" id="clipPath83">
        <path d="M138 234 L544 234 L544 265 L138 265 L138 234 Z" />
      </clipPath>
      <clipPath clipPathUnits="userSpaceOnUse" id="clipPath84">
        <path d="M855 257 L867 257 L867 268 L855 268 L855 257 Z" />
      </clipPath>
      <clipPath clipPathUnits="userSpaceOnUse" id="clipPath85">
        <path d="M50 360 L989 360 L989 391 L50 391 L50 360 Z" />
      </clipPath>
      <clipPath clipPathUnits="userSpaceOnUse" id="clipPath86">
        <path d="M718 384 L730 384 L730 395 L718 395 L718 384 Z" />
      </clipPath>
      <clipPath clipPathUnits="userSpaceOnUse" id="clipPath87">
        <path d="M92 418 L738 418 L738 449 L92 449 L92 418 Z" />
      </clipPath>
      <clipPath clipPathUnits="userSpaceOnUse" id="clipPath88">
        <path d="M855 444 L867 444 L867 455 L855 455 L855 444 Z" />
      </clipPath>
      <clipPath clipPathUnits="userSpaceOnUse" id="clipPath89">
        <path d="M118 599 L633 599 L633 630 L118 630 L118 599 Z" />
      </clipPath>
      <clipPath clipPathUnits="userSpaceOnUse" id="clipPath90">
        <path d="M855 624 L867 624 L867 635 L855 635 L855 624 Z" />
      </clipPath>
      <clipPath clipPathUnits="userSpaceOnUse" id="clipPath91">
        <path d="M23 722 L1123 722 L1123 753 L23 753 L23 722 Z" />
      </clipPath>
      <clipPath clipPathUnits="userSpaceOnUse" id="clipPath92">
        <path d="M718 744 L730 744 L730 755 L718 755 L718 744 Z" />
      </clipPath>
      <clipPath clipPathUnits="userSpaceOnUse" id="clipPath93">
        <path d="M114 900 L640 900 L640 931 L114 931 L114 900 Z" />
      </clipPath>
      <clipPath clipPathUnits="userSpaceOnUse" id="clipPath94">
        <path d="M855 924 L867 924 L867 935 L855 935 L855 924 Z" />
      </clipPath>
      <clipPath clipPathUnits="userSpaceOnUse" id="clipPath95">
        <path d="M105 1019 L668 1019 L668 1050 L105 1050 L105 1019 Z" />
      </clipPath>
      <clipPath clipPathUnits="userSpaceOnUse" id="clipPath96">
        <path d="M855 1044 L867 1044 L867 1055 L855 1055 L855 1044 Z" />
      </clipPath>
      <clipPath clipPathUnits="userSpaceOnUse" id="clipPath97">
        <path d="M136 1138 L548 1138 L548 1169 L136 1169 L136 1138 Z" />
      </clipPath>
      <clipPath clipPathUnits="userSpaceOnUse" id="clipPath98">
        <path d="M855 1164 L867 1164 L867 1175 L855 1175 L855 1164 Z" />
      </clipPath>
    </defs>
    <g font-size="23" fill="rgb(238,201,142)" font-family="'Lucida Sans'" stroke-linejoin="round" stroke="rgb(238,201,142)" stroke-width="0" stroke-miterlimit="0">
      <rect x="172" y="10" clip-path="url(#clipPath1)" width="70" height="30" stroke="none" />
    </g>
    <g stroke-width="0.1" font-size="23" font-family="'Lucida Sans'" stroke-linecap="butt">
      <rect x="172" y="10" clip-path="url(#clipPath1)" fill="none" width="69" height="29" />
      <text xml:space="preserve" x="175" y="32" clip-path="url(#clipPath2)" stroke="none">Syst...</text>
      <line clip-path="url(#clipPath3)" fill="none" x1="206" x2="206" y1="40" y2="1260" stroke-dasharray="10,10" stroke-width="1.1" />
    </g>
    <g stroke-linecap="butt" font-size="23" fill="rgb(255,245,181)" font-family="'Lucida Sans'" stroke-dasharray="10,10" stroke="rgb(255,245,181)" stroke-width="1.1">
      <rect x="272" y="10" clip-path="url(#clipPath4)" width="120" height="50" stroke="none" />
    </g>
    <g stroke-width="0.1" font-size="23" font-family="'Lucida Sans'" stroke-linecap="butt">
      <rect x="272" y="10" clip-path="url(#clipPath4)" fill="none" width="119" height="49" />
      <text xml:space="preserve" x="277" y="28" clip-path="url(#clipPath5)" stroke="none">theCreat...</text>
      <line clip-path="url(#clipPath6)" fill="none" x1="331" x2="331" y1="60" y2="1260" stroke-dasharray="10,10" stroke-width="1.1" />
    </g>
    <g stroke-linecap="butt" font-size="23" fill="rgb(255,245,181)" font-family="'Lucida Sans'" stroke-dasharray="10,10" stroke="rgb(255,245,181)" stroke-width="1.1">
      <rect x="402" y="10" clip-path="url(#clipPath7)" width="119" height="50" stroke="none" />
    </g>
    <g stroke-width="0.1" font-size="23" font-family="'Lucida Sans'" stroke-linecap="butt">
      <rect x="402" y="10" clip-path="url(#clipPath7)" fill="none" width="118" height="49" />
      <text xml:space="preserve" x="414" y="28" clip-path="url(#clipPath8)" stroke="none">theClock</text>
      <text xml:space="preserve" x="406" y="57" clip-path="url(#clipPath9)" stroke="none">: actActiv...</text>
      <line clip-path="url(#clipPath10)" fill="none" x1="460" x2="460" y1="60" y2="1260" stroke-dasharray="10,10" stroke-width="1.1" />
    </g>
    <g stroke-linecap="butt" font-size="23" fill="rgb(39,76,114)" font-family="'Lucida Sans'" stroke-dasharray="10,10" stroke="rgb(39,76,114)" stroke-width="1.1">
      <rect x="451" y="510" clip-path="url(#clipPath11)" width="20" height="40" stroke="none" />
      <rect x="451" y="510" clip-path="url(#clipPath11)" fill="none" width="19" stroke-dasharray="none" height="39" stroke-width="0.1" />
    </g>
    <g stroke-width="0.1" font-size="23" font-family="'Lucida Sans'" stroke-linecap="butt">
      <text xml:space="preserve" x="472" y="532" clip-path="url(#clipPath12)" stroke="none">out04</text>
      <rect x="451" y="810" clip-path="url(#clipPath13)" fill="rgb(39,76,114)" width="20" height="40" stroke="none" />
      <rect x="451" y="810" clip-path="url(#clipPath13)" fill="none" width="19" height="39" stroke="rgb(39,76,114)" />
      <text xml:space="preserve" x="472" y="832" clip-path="url(#clipPath14)" stroke="none">out07</text>
      <rect x="531" y="10" clip-path="url(#clipPath15)" fill="rgb(255,245,181)" width="130" height="50" stroke="none" />
      <rect x="531" y="10" clip-path="url(#clipPath15)" fill="none" width="129" height="49" />
      <text xml:space="preserve" x="579" y="28" clip-path="url(#clipPath16)" stroke="none">bill</text>
      <text xml:space="preserve" x="531" y="57" clip-path="url(#clipPath16)" stroke="none">: actAdmin...</text>
      <line clip-path="url(#clipPath17)" fill="none" x1="595" x2="595" y1="60" y2="1260" stroke-dasharray="10,10" stroke-width="1.1" />
    </g>
    <g stroke-linecap="butt" font-size="23" fill="rgb(255,245,181)" font-family="'Lucida Sans'" stroke-dasharray="10,10" stroke="rgb(255,245,181)" stroke-width="1.1">
      <rect x="671" y="10" clip-path="url(#clipPath18)" width="132" height="50" stroke="none" />
    </g>
    <g stroke-width="0.1" font-size="23" font-family="'Lucida Sans'" stroke-linecap="butt">
      <rect x="671" y="10" clip-path="url(#clipPath18)" fill="none" width="131" height="49" />
      <text xml:space="preserve" x="706" y="28" clip-path="url(#clipPath19)" stroke="none">tango</text>
      <text xml:space="preserve" x="672" y="57" clip-path="url(#clipPath20)" stroke="none">: actComC...</text>
      <line clip-path="url(#clipPath21)" fill="none" x1="736" x2="736" y1="60" y2="1260" stroke-dasharray="10,10" stroke-width="1.1" />
    </g>
    <g stroke-linecap="butt" font-size="23" fill="rgb(39,76,114)" font-family="'Lucida Sans'" stroke-dasharray="10,10" stroke="rgb(39,76,114)" stroke-width="1.1">
      <rect x="727" y="690" clip-path="url(#clipPath22)" width="20" height="40" stroke="none" />
      <rect x="727" y="690" clip-path="url(#clipPath22)" fill="none" width="19" stroke-dasharray="none" height="39" stroke-width="0.1" />
    </g>
    <g stroke-width="0.1" font-size="23" font-family="'Lucida Sans'" stroke-linecap="butt">
      <text xml:space="preserve" x="748" y="712" clip-path="url(#clipPath23)" stroke="none">out06</text>
      <rect x="727" y="390" clip-path="url(#clipPath24)" fill="rgb(194,239,255)" width="20" height="40" stroke="none" />
      <rect x="727" y="390" clip-path="url(#clipPath24)" fill="none" width="19" height="39" stroke="rgb(194,239,255)" />
      <text xml:space="preserve" x="748" y="412" clip-path="url(#clipPath25)" stroke="none">in03</text>
      <rect x="727" y="750" clip-path="url(#clipPath26)" fill="rgb(194,239,255)" width="20" height="40" stroke="none" />
      <rect x="727" y="750" clip-path="url(#clipPath26)" fill="none" width="19" height="39" stroke="rgb(194,239,255)" />
      <text xml:space="preserve" x="748" y="772" clip-path="url(#clipPath27)" stroke="none">in06</text>
      <rect x="813" y="10" clip-path="url(#clipPath28)" fill="rgb(255,245,181)" width="122" height="50" stroke="none" />
      <rect x="813" y="10" clip-path="url(#clipPath28)" fill="none" width="121" height="49" />
      <text xml:space="preserve" x="845" y="28" clip-path="url(#clipPath29)" stroke="none">steve</text>
      <text xml:space="preserve" x="817" y="57" clip-path="url(#clipPath30)" stroke="none">: actCoor...</text>
      <line clip-path="url(#clipPath31)" fill="none" x1="873" x2="873" y1="60" y2="1260" stroke-dasharray="10,10" stroke-width="1.1" />
    </g>
    <g stroke-linecap="butt" font-size="23" fill="rgb(39,76,114)" font-family="'Lucida Sans'" stroke-dasharray="10,10" stroke="rgb(39,76,114)" stroke-width="1.1">
      <rect x="864" y="99" clip-path="url(#clipPath32)" width="20" height="40" stroke="none" />
      <rect x="864" y="99" clip-path="url(#clipPath32)" fill="none" width="19" stroke-dasharray="none" height="39" stroke-width="0.1" />
    </g>
    <g stroke-width="0.1" font-size="23" font-family="'Lucida Sans'" stroke-linecap="butt">
      <text xml:space="preserve" x="885" y="121" clip-path="url(#clipPath33)" stroke="none">out01</text>
      <rect x="864" y="210" clip-path="url(#clipPath34)" fill="rgb(39,76,114)" width="20" height="40" stroke="none" />
      <rect x="864" y="210" clip-path="url(#clipPath34)" fill="none" width="19" height="39" stroke="rgb(39,76,114)" />
      <text xml:space="preserve" x="885" y="232" clip-path="url(#clipPath35)" stroke="none">out02</text>
      <rect x="864" y="330" clip-path="url(#clipPath36)" fill="rgb(39,76,114)" width="20" height="40" stroke="none" />
      <rect x="864" y="330" clip-path="url(#clipPath36)" fill="none" width="19" height="39" stroke="rgb(39,76,114)" />
      <text xml:space="preserve" x="885" y="352" clip-path="url(#clipPath37)" stroke="none">out03</text>
      <rect x="864" y="570" clip-path="url(#clipPath38)" fill="rgb(39,76,114)" width="20" height="40" stroke="none" />
      <rect x="864" y="570" clip-path="url(#clipPath38)" fill="none" width="19" height="39" stroke="rgb(39,76,114)" />
      <text xml:space="preserve" x="885" y="592" clip-path="url(#clipPath39)" stroke="none">out05</text>
      <rect x="864" y="870" clip-path="url(#clipPath40)" fill="rgb(39,76,114)" width="20" height="40" stroke="none" />
      <rect x="864" y="870" clip-path="url(#clipPath40)" fill="none" width="19" height="39" stroke="rgb(39,76,114)" />
      <text xml:space="preserve" x="885" y="892" clip-path="url(#clipPath41)" stroke="none">out08</text>
      <rect x="864" y="990" clip-path="url(#clipPath42)" fill="rgb(39,76,114)" width="20" height="40" stroke="none" />
      <rect x="864" y="990" clip-path="url(#clipPath42)" fill="none" width="19" height="39" stroke="rgb(39,76,114)" />
      <text xml:space="preserve" x="885" y="1012" clip-path="url(#clipPath43)" stroke="none">out09</text>
      <rect x="864" y="1110" clip-path="url(#clipPath44)" fill="rgb(39,76,114)" width="20" height="40" stroke="none" />
      <rect x="864" y="1110" clip-path="url(#clipPath44)" fill="none" width="19" height="39" stroke="rgb(39,76,114)" />
      <text xml:space="preserve" x="885" y="1132" clip-path="url(#clipPath45)" stroke="none">out10</text>
      <rect x="864" y="150" clip-path="url(#clipPath46)" fill="rgb(194,239,255)" width="20" height="40" stroke="none" />
      <rect x="864" y="150" clip-path="url(#clipPath46)" fill="none" width="19" height="39" stroke="rgb(194,239,255)" />
      <text xml:space="preserve" x="885" y="172" clip-path="url(#clipPath47)" stroke="none">in01</text>
      <rect x="864" y="263" clip-path="url(#clipPath48)" fill="rgb(194,239,255)" width="20" height="40" stroke="none" />
      <rect x="864" y="263" clip-path="url(#clipPath48)" fill="none" width="19" height="39" stroke="rgb(194,239,255)" />
      <text xml:space="preserve" x="885" y="285" clip-path="url(#clipPath49)" stroke="none">in02</text>
      <rect x="864" y="450" clip-path="url(#clipPath50)" fill="rgb(194,239,255)" width="20" height="40" stroke="none" />
      <rect x="864" y="450" clip-path="url(#clipPath50)" fill="none" width="19" height="39" stroke="rgb(194,239,255)" />
      <text xml:space="preserve" x="885" y="472" clip-path="url(#clipPath51)" stroke="none">in04</text>
      <rect x="864" y="630" clip-path="url(#clipPath52)" fill="rgb(194,239,255)" width="20" height="40" stroke="none" />
      <rect x="864" y="630" clip-path="url(#clipPath52)" fill="none" width="19" height="39" stroke="rgb(194,239,255)" />
      <text xml:space="preserve" x="885" y="652" clip-path="url(#clipPath53)" stroke="none">in05</text>
      <rect x="864" y="930" clip-path="url(#clipPath54)" fill="rgb(194,239,255)" width="20" height="40" stroke="none" />
      <rect x="864" y="930" clip-path="url(#clipPath54)" fill="none" width="19" height="39" stroke="rgb(194,239,255)" />
      <text xml:space="preserve" x="885" y="952" clip-path="url(#clipPath55)" stroke="none">in07</text>
      <rect x="864" y="1050" clip-path="url(#clipPath56)" fill="rgb(194,239,255)" width="20" height="40" stroke="none" />
      <rect x="864" y="1050" clip-path="url(#clipPath56)" fill="none" width="19" height="39" stroke="rgb(194,239,255)" />
      <text xml:space="preserve" x="885" y="1072" clip-path="url(#clipPath57)" stroke="none">in08</text>
      <rect x="864" y="1170" clip-path="url(#clipPath58)" fill="rgb(194,239,255)" width="20" height="40" stroke="none" />
      <rect x="864" y="1170" clip-path="url(#clipPath58)" fill="none" width="19" height="39" stroke="rgb(194,239,255)" />
      <text xml:space="preserve" x="885" y="1192" clip-path="url(#clipPath59)" stroke="none">in09</text>
      <line clip-path="url(#clipPath60)" fill="none" x1="864" x2="207" y1="98" y2="98" stroke="rgb(136,136,136)" stroke-width="2.1" />
      <text x="124" y="91" clip-path="url(#clipPath61)" stroke="none" stroke-width="2.1" xml:space="preserve">oeLogin("steve","pwdMessirExcalibur2017")</text>
      <line clip-path="url(#clipPath62)" fill="none" x1="214" x2="207" y1="95" y2="98" stroke="rgb(136,136,136)" stroke-width="2.1" />
      <line clip-path="url(#clipPath62)" fill="none" x1="207" x2="214" y1="98" y2="101" stroke="rgb(136,136,136)" stroke-width="2.1" />
      <line clip-path="url(#clipPath60)" fill="none" x1="864" x2="207" y1="209" y2="209" stroke="rgb(136,136,136)" stroke-width="2.1" />
      <text x="158" y="202" clip-path="url(#clipPath63)" stroke="none" stroke-width="2.1" xml:space="preserve">oeGetCrisisSet("pending")</text>
      <line clip-path="url(#clipPath64)" fill="none" x1="214" x2="207" y1="206" y2="209" stroke="rgb(136,136,136)" stroke-width="2.1" />
      <line clip-path="url(#clipPath64)" fill="none" x1="207" x2="214" y1="209" y2="212" stroke="rgb(136,136,136)" stroke-width="2.1" />
      <line clip-path="url(#clipPath60)" fill="none" x1="864" x2="207" y1="329" y2="329" stroke="rgb(136,136,136)" stroke-width="2.1" />
      <text x="164" y="321" clip-path="url(#clipPath65)" stroke="none" stroke-width="2.1" xml:space="preserve">oeSetCrisisHandler("1")</text>
      <line clip-path="url(#clipPath66)" fill="none" x1="214" x2="207" y1="326" y2="329" stroke="rgb(136,136,136)" stroke-width="2.1" />
      <line clip-path="url(#clipPath66)" fill="none" x1="207" x2="214" y1="329" y2="332" stroke="rgb(136,136,136)" stroke-width="2.1" />
      <line clip-path="url(#clipPath60)" fill="none" x1="451" x2="207" y1="509" y2="509" stroke="rgb(136,136,136)" stroke-width="2.1" />
      <text x="152" y="503" clip-path="url(#clipPath67)" stroke="none" stroke-width="2.1" xml:space="preserve">oeSetClock("2017:11:26 - 10:45:00")</text>
      <line clip-path="url(#clipPath68)" fill="none" x1="214" x2="207" y1="506" y2="509" stroke="rgb(136,136,136)" stroke-width="2.1" />
      <line clip-path="url(#clipPath68)" fill="none" x1="207" x2="214" y1="509" y2="512" stroke="rgb(136,136,136)" stroke-width="2.1" />
      <line clip-path="url(#clipPath60)" fill="none" x1="864" x2="207" y1="569" y2="569" stroke="rgb(136,136,136)" stroke-width="2.1" />
      <text x="174" y="562" clip-path="url(#clipPath69)" stroke="none" stroke-width="2.1" xml:space="preserve">oeValidateAlert("1")</text>
      <line clip-path="url(#clipPath70)" fill="none" x1="214" x2="207" y1="566" y2="569" stroke="rgb(136,136,136)" stroke-width="2.1" />
      <line clip-path="url(#clipPath70)" fill="none" x1="207" x2="214" y1="569" y2="572" stroke="rgb(136,136,136)" stroke-width="2.1" />
      <line clip-path="url(#clipPath60)" fill="none" x1="727" x2="207" y1="689" y2="689" stroke="rgb(136,136,136)" stroke-width="2.1" />
      <text x="216" y="671" clip-path="url(#clipPath71)" stroke="none" stroke-width="2.1" xml:space="preserve">oeAlert("witness","2017:11:26","10:20:00","+3...</text>
      <line clip-path="url(#clipPath72)" fill="none" x1="214" x2="207" y1="686" y2="689" stroke="rgb(136,136,136)" stroke-width="2.1" />
      <line clip-path="url(#clipPath72)" fill="none" x1="207" x2="214" y1="689" y2="692" stroke="rgb(136,136,136)" stroke-width="2.1" />
      <line clip-path="url(#clipPath60)" fill="none" x1="451" x2="207" y1="809" y2="809" stroke="rgb(136,136,136)" stroke-width="2.1" />
      <text x="153" y="802" clip-path="url(#clipPath73)" stroke="none" stroke-width="2.1" xml:space="preserve">oeSetClock("2017:11:26 - 12:45:00")</text>
      <line clip-path="url(#clipPath74)" fill="none" x1="214" x2="207" y1="806" y2="809" stroke="rgb(136,136,136)" stroke-width="2.1" />
      <line clip-path="url(#clipPath74)" fill="none" x1="207" x2="214" y1="809" y2="812" stroke="rgb(136,136,136)" stroke-width="2.1" />
      <line clip-path="url(#clipPath60)" fill="none" x1="864" x2="207" y1="869" y2="869" stroke="rgb(136,136,136)" stroke-width="2.1" />
      <text x="151" y="862" clip-path="url(#clipPath75)" stroke="none" stroke-width="2.1" xml:space="preserve">oeSetCrisisStatus("1","solved")</text>
      <line clip-path="url(#clipPath76)" fill="none" x1="214" x2="207" y1="866" y2="869" stroke="rgb(136,136,136)" stroke-width="2.1" />
      <line clip-path="url(#clipPath76)" fill="none" x1="207" x2="214" y1="869" y2="872" stroke="rgb(136,136,136)" stroke-width="2.1" />
      <line clip-path="url(#clipPath60)" fill="none" x1="864" x2="207" y1="989" y2="989" stroke="rgb(136,136,136)" stroke-width="2.1" />
      <text x="30" y="987" clip-path="url(#clipPath77)" stroke="none" stroke-width="2.1" xml:space="preserve">oeReportOnCrisis("1","3 victims sent to hospital, 2 cars evacuated and 4 rescue unit mobilized")</text>
      <line clip-path="url(#clipPath78)" fill="none" x1="214" x2="207" y1="986" y2="989" stroke="rgb(136,136,136)" stroke-width="2.1" />
      <line clip-path="url(#clipPath78)" fill="none" x1="207" x2="214" y1="989" y2="992" stroke="rgb(136,136,136)" stroke-width="2.1" />
      <line clip-path="url(#clipPath60)" fill="none" x1="864" x2="207" y1="1109" y2="1109" stroke="rgb(136,136,136)" stroke-width="2.1" />
      <text x="174" y="1102" clip-path="url(#clipPath79)" stroke="none" stroke-width="2.1" xml:space="preserve">oeCloseCrisis("1")</text>
      <line clip-path="url(#clipPath80)" fill="none" x1="214" x2="207" y1="1106" y2="1109" stroke="rgb(136,136,136)" stroke-width="2.1" />
      <line clip-path="url(#clipPath80)" fill="none" x1="207" x2="214" y1="1109" y2="1112" stroke="rgb(136,136,136)" stroke-width="2.1" />
    </g>
    <g stroke-linecap="butt" font-size="23" fill="rgb(136,136,136)" font-family="'Lucida Sans'" stroke-dasharray="5,5" stroke="rgb(136,136,136)" stroke-width="2.1">
      <line clip-path="url(#clipPath60)" fill="none" x1="864" x2="207" y1="149" y2="149" />
      <text x="125" y="143" clip-path="url(#clipPath81)" fill="black" stroke="none" xml:space="preserve">ieMessage(You are logged ! Welcome ...)</text>
      <line clip-path="url(#clipPath82)" fill="none" x1="857" x2="864" y1="152" y2="149" stroke-dasharray="none" />
      <line clip-path="url(#clipPath82)" fill="none" x1="864" x2="857" y1="149" y2="146" stroke-dasharray="none" />
      <line clip-path="url(#clipPath60)" fill="none" x1="864" x2="207" y1="262" y2="262" />
      <text x="139" y="257" clip-path="url(#clipPath83)" fill="black" stroke="none" xml:space="preserve">ieSendACrisis(crisis with ID 1 details)</text>
      <line clip-path="url(#clipPath84)" fill="none" x1="857" x2="864" y1="265" y2="262" stroke-dasharray="none" />
      <line clip-path="url(#clipPath84)" fill="none" x1="864" x2="857" y1="262" y2="259" stroke-dasharray="none" />
      <line clip-path="url(#clipPath60)" fill="none" x1="727" x2="207" y1="389" y2="389" />
      <text x="51" y="383" clip-path="url(#clipPath85)" fill="black" stroke="none" xml:space="preserve">ieSmsSend(+3524666445252,The handling of your alert by our services is in progress !)</text>
      <line clip-path="url(#clipPath86)" fill="none" x1="720" x2="727" y1="392" y2="389" stroke-dasharray="none" />
      <line clip-path="url(#clipPath86)" fill="none" x1="727" x2="720" y1="389" y2="386" stroke-dasharray="none" />
      <line clip-path="url(#clipPath60)" fill="none" x1="864" x2="207" y1="449" y2="449" />
      <text x="93" y="441" clip-path="url(#clipPath87)" fill="black" stroke="none" xml:space="preserve">ieMessage(You are now considered as handling the crisis !)</text>
      <line clip-path="url(#clipPath88)" fill="none" x1="857" x2="864" y1="452" y2="449" stroke-dasharray="none" />
      <line clip-path="url(#clipPath88)" fill="none" x1="864" x2="857" y1="449" y2="446" stroke-dasharray="none" />
      <line clip-path="url(#clipPath60)" fill="none" x1="864" x2="207" y1="629" y2="629" />
      <text x="119" y="622" clip-path="url(#clipPath89)" fill="black" stroke="none" xml:space="preserve">ieMessage(The Alert is now declared as valid !)</text>
      <line clip-path="url(#clipPath90)" fill="none" x1="857" x2="864" y1="632" y2="629" stroke-dasharray="none" />
      <line clip-path="url(#clipPath90)" fill="none" x1="864" x2="857" y1="629" y2="626" stroke-dasharray="none" />
      <line clip-path="url(#clipPath60)" fill="none" x1="727" x2="207" y1="749" y2="749" />
      <text x="24" y="745" clip-path="url(#clipPath91)" fill="black" stroke="none" xml:space="preserve">ieSmsSend(+3524666445000,Your alert has been registered. We will handle it and keep you informed)</text>
      <line clip-path="url(#clipPath92)" fill="none" x1="720" x2="727" y1="752" y2="749" stroke-dasharray="none" />
      <line clip-path="url(#clipPath92)" fill="none" x1="727" x2="720" y1="749" y2="746" stroke-dasharray="none" />
      <line clip-path="url(#clipPath60)" fill="none" x1="864" x2="207" y1="929" y2="929" />
      <text x="115" y="923" clip-path="url(#clipPath93)" fill="black" stroke="none" xml:space="preserve">ieMessage(The crisis status has been updated !)</text>
      <line clip-path="url(#clipPath94)" fill="none" x1="857" x2="864" y1="932" y2="929" stroke-dasharray="none" />
      <line clip-path="url(#clipPath94)" fill="none" x1="864" x2="857" y1="929" y2="926" stroke-dasharray="none" />
      <line clip-path="url(#clipPath60)" fill="none" x1="864" x2="207" y1="1049" y2="1049" />
      <text x="106" y="1042" clip-path="url(#clipPath95)" fill="black" stroke="none" xml:space="preserve">ieMessage(The crisis comment has been updated !)</text>
      <line clip-path="url(#clipPath96)" fill="none" x1="857" x2="864" y1="1052" y2="1049" stroke-dasharray="none" />
      <line clip-path="url(#clipPath96)" fill="none" x1="864" x2="857" y1="1049" y2="1046" stroke-dasharray="none" />
      <line clip-path="url(#clipPath60)" fill="none" x1="864" x2="207" y1="1169" y2="1169" />
      <text x="137" y="1161" clip-path="url(#clipPath97)" fill="black" stroke="none" xml:space="preserve">ieMessage(The crisis is now closed !)</text>
      <line clip-path="url(#clipPath98)" fill="none" x1="857" x2="864" y1="1172" y2="1169" stroke-dasharray="none" />
      <line clip-path="url(#clipPath98)" fill="none" x1="864" x2="857" y1="1169" y2="1166" stroke-dasharray="none" />
    </g>
  </g>
</svg>

