<?xml version="1.0" encoding="UTF-8"?>
<svg xmlns="http://www.w3.org/2000/svg" xmlns:xlink="http://www.w3.org/1999/xlink" stroke-dasharray="none" shape-rendering="auto" font-family="'Dialog'" width="1215" text-rendering="auto" fill-opacity="1" contentScriptType="text/ecmascript" color-interpolation="auto" color-rendering="auto" preserveAspectRatio="xMidYMid meet" font-size="12" viewBox="0 0 1215 1085" fill="black" stroke="black" image-rendering="auto" stroke-miterlimit="10" zoomAndPan="magnify" version="1.0" stroke-linecap="square" stroke-linejoin="miter" contentStyleType="text/css" font-style="normal" height="1085" stroke-width="1" stroke-dashoffset="0" font-weight="normal" stroke-opacity="1">
  <!--Generated by the Batik Graphics2D SVG Generator-->
  <defs id="genericDefs" />
  <g>
    <defs id="defs1">
      <clipPath clipPathUnits="userSpaceOnUse" id="clipPath1">
        <path d="M217 9 L289 9 L289 41 L217 41 L217 9 Z" />
      </clipPath>
      <clipPath clipPathUnits="userSpaceOnUse" id="clipPath2">
        <path d="M217 9 L293 9 L293 41 L217 41 L217 9 Z" />
      </clipPath>
      <clipPath clipPathUnits="userSpaceOnUse" id="clipPath3">
        <path d="M247 39 L259 39 L259 1076 L247 1076 L247 39 Z" />
      </clipPath>
      <clipPath clipPathUnits="userSpaceOnUse" id="clipPath4">
        <path d="M376 9 L494 9 L494 61 L376 61 L376 9 Z" />
      </clipPath>
      <clipPath clipPathUnits="userSpaceOnUse" id="clipPath5">
        <path d="M376 9 L499 9 L499 61 L376 61 L376 9 Z" />
      </clipPath>
      <clipPath clipPathUnits="userSpaceOnUse" id="clipPath6">
        <path d="M429 59 L441 59 L441 1076 L429 1076 L429 59 Z" />
      </clipPath>
      <clipPath clipPathUnits="userSpaceOnUse" id="clipPath7">
        <path d="M424 89 L446 89 L446 131 L424 131 L424 89 Z" />
      </clipPath>
      <clipPath clipPathUnits="userSpaceOnUse" id="clipPath8">
        <path d="M445 89 L520 89 L520 117 L445 117 L445 89 Z" />
      </clipPath>
      <clipPath clipPathUnits="userSpaceOnUse" id="clipPath9">
        <path d="M502 9 L603 9 L603 61 L502 61 L502 9 Z" />
      </clipPath>
      <clipPath clipPathUnits="userSpaceOnUse" id="clipPath10">
        <path d="M502 9 L608 9 L608 61 L502 61 L502 9 Z" />
      </clipPath>
      <clipPath clipPathUnits="userSpaceOnUse" id="clipPath11">
        <path d="M546 59 L558 59 L558 1076 L546 1076 L546 59 Z" />
      </clipPath>
      <clipPath clipPathUnits="userSpaceOnUse" id="clipPath12">
        <path d="M541 149 L563 149 L563 191 L541 191 L541 149 Z" />
      </clipPath>
      <clipPath clipPathUnits="userSpaceOnUse" id="clipPath13">
        <path d="M562 149 L637 149 L637 177 L562 177 L562 149 Z" />
      </clipPath>
      <clipPath clipPathUnits="userSpaceOnUse" id="clipPath14">
        <path d="M541 569 L563 569 L563 611 L541 611 L541 569 Z" />
      </clipPath>
      <clipPath clipPathUnits="userSpaceOnUse" id="clipPath15">
        <path d="M562 569 L637 569 L637 597 L562 597 L562 569 Z" />
      </clipPath>
      <clipPath clipPathUnits="userSpaceOnUse" id="clipPath16">
        <path d="M541 789 L563 789 L563 831 L541 831 L541 789 Z" />
      </clipPath>
      <clipPath clipPathUnits="userSpaceOnUse" id="clipPath17">
        <path d="M562 789 L637 789 L637 817 L562 817 L562 789 Z" />
      </clipPath>
      <clipPath clipPathUnits="userSpaceOnUse" id="clipPath18">
        <path d="M541 849 L563 849 L563 891 L541 891 L541 849 Z" />
      </clipPath>
      <clipPath clipPathUnits="userSpaceOnUse" id="clipPath19">
        <path d="M562 849 L637 849 L637 877 L562 877 L562 849 Z" />
      </clipPath>
      <clipPath clipPathUnits="userSpaceOnUse" id="clipPath20">
        <path d="M611 9 L742 9 L742 61 L611 61 L611 9 Z" />
      </clipPath>
      <clipPath clipPathUnits="userSpaceOnUse" id="clipPath21">
        <path d="M611 9 L746 9 L746 61 L611 61 L611 9 Z" />
      </clipPath>
      <clipPath clipPathUnits="userSpaceOnUse" id="clipPath22">
        <path d="M611 9 L747 9 L747 61 L611 61 L611 9 Z" />
      </clipPath>
      <clipPath clipPathUnits="userSpaceOnUse" id="clipPath23">
        <path d="M670 59 L682 59 L682 1076 L670 1076 L670 59 Z" />
      </clipPath>
      <clipPath clipPathUnits="userSpaceOnUse" id="clipPath24">
        <path d="M665 209 L687 209 L687 251 L665 251 L665 209 Z" />
      </clipPath>
      <clipPath clipPathUnits="userSpaceOnUse" id="clipPath25">
        <path d="M686 209 L761 209 L761 237 L686 237 L686 209 Z" />
      </clipPath>
      <clipPath clipPathUnits="userSpaceOnUse" id="clipPath26">
        <path d="M665 329 L687 329 L687 371 L665 371 L665 329 Z" />
      </clipPath>
      <clipPath clipPathUnits="userSpaceOnUse" id="clipPath27">
        <path d="M686 329 L761 329 L761 357 L686 357 L686 329 Z" />
      </clipPath>
      <clipPath clipPathUnits="userSpaceOnUse" id="clipPath28">
        <path d="M665 449 L687 449 L687 491 L665 491 L665 449 Z" />
      </clipPath>
      <clipPath clipPathUnits="userSpaceOnUse" id="clipPath29">
        <path d="M686 449 L761 449 L761 477 L686 477 L686 449 Z" />
      </clipPath>
      <clipPath clipPathUnits="userSpaceOnUse" id="clipPath30">
        <path d="M665 258 L687 258 L687 300 L665 300 L665 258 Z" />
      </clipPath>
      <clipPath clipPathUnits="userSpaceOnUse" id="clipPath31">
        <path d="M686 258 L747 258 L747 286 L686 286 L686 258 Z" />
      </clipPath>
      <clipPath clipPathUnits="userSpaceOnUse" id="clipPath32">
        <path d="M665 381 L687 381 L687 423 L665 423 L665 381 Z" />
      </clipPath>
      <clipPath clipPathUnits="userSpaceOnUse" id="clipPath33">
        <path d="M686 381 L747 381 L747 409 L686 409 L686 381 Z" />
      </clipPath>
      <clipPath clipPathUnits="userSpaceOnUse" id="clipPath34">
        <path d="M665 499 L687 499 L687 541 L665 541 L665 499 Z" />
      </clipPath>
      <clipPath clipPathUnits="userSpaceOnUse" id="clipPath35">
        <path d="M686 499 L747 499 L747 527 L686 527 L686 499 Z" />
      </clipPath>
      <clipPath clipPathUnits="userSpaceOnUse" id="clipPath36">
        <path d="M665 915 L687 915 L687 957 L665 957 L665 915 Z" />
      </clipPath>
      <clipPath clipPathUnits="userSpaceOnUse" id="clipPath37">
        <path d="M686 915 L747 915 L747 943 L686 943 L686 915 Z" />
      </clipPath>
      <clipPath clipPathUnits="userSpaceOnUse" id="clipPath38">
        <path d="M750 9 L886 9 L886 61 L750 61 L750 9 Z" />
      </clipPath>
      <clipPath clipPathUnits="userSpaceOnUse" id="clipPath39">
        <path d="M750 9 L892 9 L892 61 L750 61 L750 9 Z" />
      </clipPath>
      <clipPath clipPathUnits="userSpaceOnUse" id="clipPath40">
        <path d="M750 9 L891 9 L891 61 L750 61 L750 9 Z" />
      </clipPath>
      <clipPath clipPathUnits="userSpaceOnUse" id="clipPath41">
        <path d="M812 59 L824 59 L824 1076 L812 1076 L812 59 Z" />
      </clipPath>
      <clipPath clipPathUnits="userSpaceOnUse" id="clipPath42">
        <path d="M807 664 L829 664 L829 706 L807 706 L807 664 Z" />
      </clipPath>
      <clipPath clipPathUnits="userSpaceOnUse" id="clipPath43">
        <path d="M828 664 L903 664 L903 692 L828 692 L828 664 Z" />
      </clipPath>
      <clipPath clipPathUnits="userSpaceOnUse" id="clipPath44">
        <path d="M807 729 L829 729 L829 771 L807 771 L807 729 Z" />
      </clipPath>
      <clipPath clipPathUnits="userSpaceOnUse" id="clipPath45">
        <path d="M828 729 L889 729 L889 757 L828 757 L828 729 Z" />
      </clipPath>
      <clipPath clipPathUnits="userSpaceOnUse" id="clipPath46">
        <path d="M894 9 L1024 9 L1024 61 L894 61 L894 9 Z" />
      </clipPath>
      <clipPath clipPathUnits="userSpaceOnUse" id="clipPath47">
        <path d="M894 9 L1029 9 L1029 61 L894 61 L894 9 Z" />
      </clipPath>
      <clipPath clipPathUnits="userSpaceOnUse" id="clipPath48">
        <path d="M953 59 L965 59 L965 1076 L953 1076 L953 59 Z" />
      </clipPath>
      <clipPath clipPathUnits="userSpaceOnUse" id="clipPath49">
        <path d="M948 984 L970 984 L970 1026 L948 1026 L948 984 Z" />
      </clipPath>
      <clipPath clipPathUnits="userSpaceOnUse" id="clipPath50">
        <path d="M969 984 L1030 984 L1030 1012 L969 1012 L969 984 Z" />
      </clipPath>
      <clipPath clipPathUnits="userSpaceOnUse" id="clipPath51">
        <path d="M-1 -1 L1216 -1 L1216 1086 L-1 1086 L-1 -1 Z" />
      </clipPath>
      <clipPath clipPathUnits="userSpaceOnUse" id="clipPath52">
        <path d="M175 62 L604 62 L604 90 L175 90 L175 62 Z" />
      </clipPath>
      <clipPath clipPathUnits="userSpaceOnUse" id="clipPath53">
        <path d="M251 85 L263 85 L263 96 L251 96 L251 85 Z" />
      </clipPath>
      <clipPath clipPathUnits="userSpaceOnUse" id="clipPath54">
        <path d="M179 123 L598 123 L598 151 L179 151 L179 123 Z" />
      </clipPath>
      <clipPath clipPathUnits="userSpaceOnUse" id="clipPath55">
        <path d="M251 145 L263 145 L263 156 L251 156 L251 145 Z" />
      </clipPath>
      <clipPath clipPathUnits="userSpaceOnUse" id="clipPath56">
        <path d="M174 180 L590 180 L590 208 L174 208 L174 180 Z" />
      </clipPath>
      <clipPath clipPathUnits="userSpaceOnUse" id="clipPath57">
        <path d="M251 205 L263 205 L263 216 L251 216 L251 205 Z" />
      </clipPath>
      <clipPath clipPathUnits="userSpaceOnUse" id="clipPath58">
        <path d="M134 299 L782 299 L782 327 L134 327 L134 299 Z" />
      </clipPath>
      <clipPath clipPathUnits="userSpaceOnUse" id="clipPath59">
        <path d="M251 325 L263 325 L263 336 L251 336 L251 325 Z" />
      </clipPath>
      <clipPath clipPathUnits="userSpaceOnUse" id="clipPath60">
        <path d="M234 420 L362 420 L362 448 L234 448 L234 420 Z" />
      </clipPath>
      <clipPath clipPathUnits="userSpaceOnUse" id="clipPath61">
        <path d="M251 445 L263 445 L263 456 L251 456 L251 445 Z" />
      </clipPath>
      <clipPath clipPathUnits="userSpaceOnUse" id="clipPath62">
        <path d="M180 542 L599 542 L599 570 L180 570 L180 542 Z" />
      </clipPath>
      <clipPath clipPathUnits="userSpaceOnUse" id="clipPath63">
        <path d="M251 565 L263 565 L263 576 L251 576 L251 565 Z" />
      </clipPath>
      <clipPath clipPathUnits="userSpaceOnUse" id="clipPath64">
        <path d="M242 604 L747 604 L747 683 L242 683 L242 604 Z" />
      </clipPath>
      <clipPath clipPathUnits="userSpaceOnUse" id="clipPath65">
        <path d="M242 604 L748 604 L748 683 L242 683 L242 604 Z" />
      </clipPath>
      <clipPath clipPathUnits="userSpaceOnUse" id="clipPath66">
        <path d="M251 660 L263 660 L263 671 L251 671 L251 660 Z" />
      </clipPath>
      <clipPath clipPathUnits="userSpaceOnUse" id="clipPath67">
        <path d="M177 757 L596 757 L596 785 L177 785 L177 757 Z" />
      </clipPath>
      <clipPath clipPathUnits="userSpaceOnUse" id="clipPath68">
        <path d="M251 785 L263 785 L263 796 L251 796 L251 785 Z" />
      </clipPath>
      <clipPath clipPathUnits="userSpaceOnUse" id="clipPath69">
        <path d="M193 819 L519 819 L519 847 L193 847 L193 819 Z" />
      </clipPath>
      <clipPath clipPathUnits="userSpaceOnUse" id="clipPath70">
        <path d="M251 845 L263 845 L263 856 L251 856 L251 845 Z" />
      </clipPath>
      <clipPath clipPathUnits="userSpaceOnUse" id="clipPath71">
        <path d="M172 230 L628 230 L628 258 L172 258 L172 230 Z" />
      </clipPath>
      <clipPath clipPathUnits="userSpaceOnUse" id="clipPath72">
        <path d="M657 254 L669 254 L669 265 L657 265 L657 254 Z" />
      </clipPath>
      <clipPath clipPathUnits="userSpaceOnUse" id="clipPath73">
        <path d="M192 354 L540 354 L540 382 L192 382 L192 354 Z" />
      </clipPath>
      <clipPath clipPathUnits="userSpaceOnUse" id="clipPath74">
        <path d="M657 377 L669 377 L669 388 L657 388 L657 377 Z" />
      </clipPath>
      <clipPath clipPathUnits="userSpaceOnUse" id="clipPath75">
        <path d="M160 472 L667 472 L667 500 L160 500 L160 472 Z" />
      </clipPath>
      <clipPath clipPathUnits="userSpaceOnUse" id="clipPath76">
        <path d="M657 495 L669 495 L669 506 L657 506 L657 495 Z" />
      </clipPath>
      <clipPath clipPathUnits="userSpaceOnUse" id="clipPath77">
        <path d="M23 703 L1198 703 L1198 731 L23 731 L23 703 Z" />
      </clipPath>
      <clipPath clipPathUnits="userSpaceOnUse" id="clipPath78">
        <path d="M799 725 L811 725 L811 736 L799 736 L799 725 Z" />
      </clipPath>
      <clipPath clipPathUnits="userSpaceOnUse" id="clipPath79">
        <path d="M67 889 L1063 889 L1063 917 L67 917 L67 889 Z" />
      </clipPath>
      <clipPath clipPathUnits="userSpaceOnUse" id="clipPath80">
        <path d="M657 911 L669 911 L669 922 L657 922 L657 911 Z" />
      </clipPath>
      <clipPath clipPathUnits="userSpaceOnUse" id="clipPath81">
        <path d="M63 957 L1059 957 L1059 985 L63 985 L63 957 Z" />
      </clipPath>
      <clipPath clipPathUnits="userSpaceOnUse" id="clipPath82">
        <path d="M940 980 L952 980 L952 991 L940 991 L940 980 Z" />
      </clipPath>
    </defs>
    <g font-size="23" fill="rgb(238,201,142)" font-family="'Lucida Sans'" stroke-linejoin="round" stroke="rgb(238,201,142)" stroke-width="0" stroke-miterlimit="0">
      <rect x="218" y="10" clip-path="url(#clipPath1)" width="70" height="30" stroke="none" />
    </g>
    <g stroke-width="0.1" font-size="23" font-family="'Lucida Sans'" stroke-linecap="butt">
      <rect x="218" y="10" clip-path="url(#clipPath1)" fill="none" width="69" height="29" />
      <text xml:space="preserve" x="220" y="34" clip-path="url(#clipPath2)" stroke="none">Syst...</text>
      <line clip-path="url(#clipPath3)" fill="none" x1="252" x2="252" y1="40" y2="1075" stroke-dasharray="10,10" stroke-width="1.1" />
    </g>
    <g stroke-linecap="butt" font-size="23" fill="rgb(255,245,181)" font-family="'Lucida Sans'" stroke-dasharray="10,10" stroke="rgb(255,245,181)" stroke-width="1.1">
      <rect x="377" y="10" clip-path="url(#clipPath4)" width="116" height="50" stroke="none" />
    </g>
    <g stroke-width="0.1" font-size="23" font-family="'Lucida Sans'" stroke-linecap="butt">
      <rect x="377" y="10" clip-path="url(#clipPath4)" fill="none" width="115" height="49" />
      <text xml:space="preserve" x="379" y="44" clip-path="url(#clipPath5)" stroke="none">theCrea...</text>
      <line clip-path="url(#clipPath6)" fill="none" x1="434" x2="434" y1="60" y2="1075" stroke-dasharray="10,10" stroke-width="1.1" />
    </g>
    <g stroke-linecap="butt" font-size="23" fill="rgb(39,76,114)" font-family="'Lucida Sans'" stroke-dasharray="10,10" stroke="rgb(39,76,114)" stroke-width="1.1">
      <rect x="425" y="90" clip-path="url(#clipPath7)" width="20" height="40" stroke="none" />
      <rect x="425" y="90" clip-path="url(#clipPath7)" fill="none" width="19" stroke-dasharray="none" height="39" stroke-width="0.1" />
    </g>
    <g stroke-width="0.1" font-size="23" font-family="'Lucida Sans'" stroke-linecap="butt">
      <text xml:space="preserve" x="446" y="112" clip-path="url(#clipPath8)" stroke="none">out01</text>
      <rect x="503" y="10" clip-path="url(#clipPath9)" fill="rgb(255,245,181)" width="99" height="50" stroke="none" />
      <rect x="503" y="10" clip-path="url(#clipPath9)" fill="none" width="98" height="49" />
      <text xml:space="preserve" x="504" y="44" clip-path="url(#clipPath10)" stroke="none">theClo...</text>
      <line clip-path="url(#clipPath11)" fill="none" x1="551" x2="551" y1="60" y2="1075" stroke-dasharray="10,10" stroke-width="1.1" />
    </g>
    <g stroke-linecap="butt" font-size="23" fill="rgb(39,76,114)" font-family="'Lucida Sans'" stroke-dasharray="10,10" stroke="rgb(39,76,114)" stroke-width="1.1">
      <rect x="542" y="150" clip-path="url(#clipPath12)" width="20" height="40" stroke="none" />
      <rect x="542" y="150" clip-path="url(#clipPath12)" fill="none" width="19" stroke-dasharray="none" height="39" stroke-width="0.1" />
    </g>
    <g stroke-width="0.1" font-size="23" font-family="'Lucida Sans'" stroke-linecap="butt">
      <text xml:space="preserve" x="563" y="172" clip-path="url(#clipPath13)" stroke="none">out02</text>
      <rect x="542" y="570" clip-path="url(#clipPath14)" fill="rgb(39,76,114)" width="20" height="40" stroke="none" />
      <rect x="542" y="570" clip-path="url(#clipPath14)" fill="none" width="19" height="39" stroke="rgb(39,76,114)" />
      <text xml:space="preserve" x="563" y="592" clip-path="url(#clipPath15)" stroke="none">out06</text>
      <rect x="542" y="790" clip-path="url(#clipPath16)" fill="rgb(39,76,114)" width="20" height="40" stroke="none" />
      <rect x="542" y="790" clip-path="url(#clipPath16)" fill="none" width="19" height="39" stroke="rgb(39,76,114)" />
      <text xml:space="preserve" x="563" y="812" clip-path="url(#clipPath17)" stroke="none">out08</text>
      <rect x="542" y="850" clip-path="url(#clipPath18)" fill="rgb(39,76,114)" width="20" height="40" stroke="none" />
      <rect x="542" y="850" clip-path="url(#clipPath18)" fill="none" width="19" height="39" stroke="rgb(39,76,114)" />
      <text xml:space="preserve" x="563" y="872" clip-path="url(#clipPath19)" stroke="none">out09</text>
      <rect x="612" y="10" clip-path="url(#clipPath20)" fill="rgb(255,245,181)" width="129" height="50" stroke="none" />
      <rect x="612" y="10" clip-path="url(#clipPath20)" fill="none" width="128" height="49" />
      <text xml:space="preserve" x="658" y="31" clip-path="url(#clipPath21)" stroke="none">bill</text>
      <text xml:space="preserve" x="613" y="57" clip-path="url(#clipPath22)" stroke="none">: actAdmi...</text>
      <line clip-path="url(#clipPath23)" fill="none" x1="675" x2="675" y1="60" y2="1075" stroke-dasharray="10,10" stroke-width="1.1" />
    </g>
    <g stroke-linecap="butt" font-size="23" fill="rgb(39,76,114)" font-family="'Lucida Sans'" stroke-dasharray="10,10" stroke="rgb(39,76,114)" stroke-width="1.1">
      <rect x="666" y="210" clip-path="url(#clipPath24)" width="20" height="40" stroke="none" />
      <rect x="666" y="210" clip-path="url(#clipPath24)" fill="none" width="19" stroke-dasharray="none" height="39" stroke-width="0.1" />
    </g>
    <g stroke-width="0.1" font-size="23" font-family="'Lucida Sans'" stroke-linecap="butt">
      <text xml:space="preserve" x="687" y="232" clip-path="url(#clipPath25)" stroke="none">out03</text>
      <rect x="666" y="330" clip-path="url(#clipPath26)" fill="rgb(39,76,114)" width="20" height="40" stroke="none" />
      <rect x="666" y="330" clip-path="url(#clipPath26)" fill="none" width="19" height="39" stroke="rgb(39,76,114)" />
      <text xml:space="preserve" x="687" y="352" clip-path="url(#clipPath27)" stroke="none">out04</text>
      <rect x="666" y="450" clip-path="url(#clipPath28)" fill="rgb(39,76,114)" width="20" height="40" stroke="none" />
      <rect x="666" y="450" clip-path="url(#clipPath28)" fill="none" width="19" height="39" stroke="rgb(39,76,114)" />
      <text xml:space="preserve" x="687" y="472" clip-path="url(#clipPath29)" stroke="none">out05</text>
      <rect x="666" y="259" clip-path="url(#clipPath30)" fill="rgb(194,239,255)" width="20" height="40" stroke="none" />
      <rect x="666" y="259" clip-path="url(#clipPath30)" fill="none" width="19" height="39" stroke="rgb(194,239,255)" />
      <text xml:space="preserve" x="687" y="281" clip-path="url(#clipPath31)" stroke="none">in01</text>
      <rect x="666" y="382" clip-path="url(#clipPath32)" fill="rgb(194,239,255)" width="20" height="40" stroke="none" />
      <rect x="666" y="382" clip-path="url(#clipPath32)" fill="none" width="19" height="39" stroke="rgb(194,239,255)" />
      <text xml:space="preserve" x="687" y="404" clip-path="url(#clipPath33)" stroke="none">in02</text>
      <rect x="666" y="500" clip-path="url(#clipPath34)" fill="rgb(194,239,255)" width="20" height="40" stroke="none" />
      <rect x="666" y="500" clip-path="url(#clipPath34)" fill="none" width="19" height="39" stroke="rgb(194,239,255)" />
      <text xml:space="preserve" x="687" y="522" clip-path="url(#clipPath35)" stroke="none">in03</text>
      <rect x="666" y="916" clip-path="url(#clipPath36)" fill="rgb(194,239,255)" width="20" height="40" stroke="none" />
      <rect x="666" y="916" clip-path="url(#clipPath36)" fill="none" width="19" height="39" stroke="rgb(194,239,255)" />
      <text xml:space="preserve" x="687" y="938" clip-path="url(#clipPath37)" stroke="none">in05</text>
      <rect x="751" y="10" clip-path="url(#clipPath38)" fill="rgb(255,245,181)" width="134" height="50" stroke="none" />
      <rect x="751" y="10" clip-path="url(#clipPath38)" fill="none" width="133" height="49" />
      <text xml:space="preserve" x="784" y="31" clip-path="url(#clipPath39)" stroke="none">tango</text>
      <text xml:space="preserve" x="758" y="57" clip-path="url(#clipPath40)" stroke="none">: actCom...</text>
      <line clip-path="url(#clipPath41)" fill="none" x1="817" x2="817" y1="60" y2="1075" stroke-dasharray="10,10" stroke-width="1.1" />
    </g>
    <g stroke-linecap="butt" font-size="23" fill="rgb(39,76,114)" font-family="'Lucida Sans'" stroke-dasharray="10,10" stroke="rgb(39,76,114)" stroke-width="1.1">
      <rect x="808" y="665" clip-path="url(#clipPath42)" width="20" height="40" stroke="none" />
      <rect x="808" y="665" clip-path="url(#clipPath42)" fill="none" width="19" stroke-dasharray="none" height="39" stroke-width="0.1" />
    </g>
    <g stroke-width="0.1" font-size="23" font-family="'Lucida Sans'" stroke-linecap="butt">
      <text xml:space="preserve" x="829" y="687" clip-path="url(#clipPath43)" stroke="none">out07</text>
      <rect x="808" y="730" clip-path="url(#clipPath44)" fill="rgb(194,239,255)" width="20" height="40" stroke="none" />
      <rect x="808" y="730" clip-path="url(#clipPath44)" fill="none" width="19" height="39" stroke="rgb(194,239,255)" />
      <text xml:space="preserve" x="829" y="752" clip-path="url(#clipPath45)" stroke="none">in04</text>
      <rect x="895" y="10" clip-path="url(#clipPath46)" fill="rgb(255,245,181)" width="128" height="50" stroke="none" />
      <rect x="895" y="10" clip-path="url(#clipPath46)" fill="none" width="127" height="49" />
      <text xml:space="preserve" x="929" y="31" clip-path="url(#clipPath47)" stroke="none">steve</text>
      <text xml:space="preserve" x="898" y="57" clip-path="url(#clipPath47)" stroke="none">: actCoor...</text>
      <line clip-path="url(#clipPath48)" fill="none" x1="958" x2="958" y1="60" y2="1075" stroke-dasharray="10,10" stroke-width="1.1" />
    </g>
    <g stroke-linecap="butt" font-size="23" fill="rgb(194,239,255)" font-family="'Lucida Sans'" stroke-dasharray="10,10" stroke="rgb(194,239,255)" stroke-width="1.1">
      <rect x="949" y="985" clip-path="url(#clipPath49)" width="20" height="40" stroke="none" />
      <rect x="949" y="985" clip-path="url(#clipPath49)" fill="none" width="19" stroke-dasharray="none" height="39" stroke-width="0.1" />
    </g>
    <g stroke-width="0.1" font-size="23" font-family="'Lucida Sans'" stroke-linecap="butt">
      <text xml:space="preserve" x="970" y="1007" clip-path="url(#clipPath50)" stroke="none">in06</text>
      <line clip-path="url(#clipPath51)" fill="none" x1="425" x2="253" y1="90" y2="90" stroke="rgb(136,136,136)" stroke-width="2.1" />
      <text x="176" y="85" clip-path="url(#clipPath52)" stroke="none" stroke-width="2.1" xml:space="preserve">oeCreateSystemAndEnvironment("4")</text>
      <line clip-path="url(#clipPath53)" fill="none" x1="260" x2="253" y1="87" y2="90" stroke="rgb(136,136,136)" stroke-width="2.1" />
      <line clip-path="url(#clipPath53)" fill="none" x1="253" x2="260" y1="90" y2="93" stroke="rgb(136,136,136)" stroke-width="2.1" />
      <line clip-path="url(#clipPath51)" fill="none" x1="542" x2="253" y1="150" y2="150" stroke="rgb(136,136,136)" stroke-width="2.1" />
      <text x="180" y="146" clip-path="url(#clipPath54)" stroke="none" stroke-width="2.1" xml:space="preserve">oeSetClock("2017:11:24 - 03:20:00")</text>
      <line clip-path="url(#clipPath55)" fill="none" x1="260" x2="253" y1="147" y2="150" stroke="rgb(136,136,136)" stroke-width="2.1" />
      <line clip-path="url(#clipPath55)" fill="none" x1="253" x2="260" y1="150" y2="153" stroke="rgb(136,136,136)" stroke-width="2.1" />
      <line clip-path="url(#clipPath51)" fill="none" x1="666" x2="253" y1="210" y2="210" stroke="rgb(136,136,136)" stroke-width="2.1" />
      <text x="175" y="203" clip-path="url(#clipPath56)" stroke="none" stroke-width="2.1" xml:space="preserve">oeLogin("icrashadmin","7WXC1359")</text>
      <line clip-path="url(#clipPath57)" fill="none" x1="260" x2="253" y1="207" y2="210" stroke="rgb(136,136,136)" stroke-width="2.1" />
      <line clip-path="url(#clipPath57)" fill="none" x1="253" x2="260" y1="210" y2="213" stroke="rgb(136,136,136)" stroke-width="2.1" />
      <line clip-path="url(#clipPath51)" fill="none" x1="666" x2="253" y1="330" y2="330" stroke="rgb(136,136,136)" stroke-width="2.1" />
      <text x="135" y="322" clip-path="url(#clipPath58)" stroke="none" stroke-width="2.1" xml:space="preserve">oeAddCoordinator("1","steve","pwdMessirExcalibur2017")</text>
      <line clip-path="url(#clipPath59)" fill="none" x1="260" x2="253" y1="327" y2="330" stroke="rgb(136,136,136)" stroke-width="2.1" />
      <line clip-path="url(#clipPath59)" fill="none" x1="253" x2="260" y1="330" y2="333" stroke="rgb(136,136,136)" stroke-width="2.1" />
      <line clip-path="url(#clipPath51)" fill="none" x1="666" x2="253" y1="450" y2="450" stroke="rgb(136,136,136)" stroke-width="2.1" />
      <text x="235" y="443" clip-path="url(#clipPath60)" stroke="none" stroke-width="2.1" xml:space="preserve">oeLogout()</text>
      <line clip-path="url(#clipPath61)" fill="none" x1="260" x2="253" y1="447" y2="450" stroke="rgb(136,136,136)" stroke-width="2.1" />
      <line clip-path="url(#clipPath61)" fill="none" x1="253" x2="260" y1="450" y2="453" stroke="rgb(136,136,136)" stroke-width="2.1" />
      <line clip-path="url(#clipPath51)" fill="none" x1="542" x2="253" y1="570" y2="570" stroke="rgb(136,136,136)" stroke-width="2.1" />
      <text x="181" y="565" clip-path="url(#clipPath62)" stroke="none" stroke-width="2.1" xml:space="preserve">oeSetClock("2017:11:26 - 10:15:00")</text>
      <line clip-path="url(#clipPath63)" fill="none" x1="260" x2="253" y1="567" y2="570" stroke="rgb(136,136,136)" stroke-width="2.1" />
      <line clip-path="url(#clipPath63)" fill="none" x1="253" x2="260" y1="570" y2="573" stroke="rgb(136,136,136)" stroke-width="2.1" />
      <line clip-path="url(#clipPath51)" fill="none" x1="808" x2="253" y1="665" y2="665" stroke="rgb(136,136,136)" stroke-width="2.1" />
      <text x="249" y="639" clip-path="url(#clipPath64)" stroke="none" stroke-width="2.1" xml:space="preserve">oeAlert("witness","2017:11:26","10:10:16","</text>
      <text x="250" y="665" clip-path="url(#clipPath65)" stroke="none" stroke-width="2.1" xml:space="preserve">+3524666445252","49.627675:6.15959...</text>
      <line clip-path="url(#clipPath66)" fill="none" x1="260" x2="253" y1="662" y2="665" stroke="rgb(136,136,136)" stroke-width="2.1" />
      <line clip-path="url(#clipPath66)" fill="none" x1="253" x2="260" y1="665" y2="668" stroke="rgb(136,136,136)" stroke-width="2.1" />
      <line clip-path="url(#clipPath51)" fill="none" x1="542" x2="253" y1="790" y2="790" stroke="rgb(136,136,136)" stroke-width="2.1" />
      <text x="178" y="780" clip-path="url(#clipPath67)" stroke="none" stroke-width="2.1" xml:space="preserve">oeSetClock("2017:11:26 - 10:30:00")</text>
      <line clip-path="url(#clipPath68)" fill="none" x1="260" x2="253" y1="787" y2="790" stroke="rgb(136,136,136)" stroke-width="2.1" />
      <line clip-path="url(#clipPath68)" fill="none" x1="253" x2="260" y1="790" y2="793" stroke="rgb(136,136,136)" stroke-width="2.1" />
      <line clip-path="url(#clipPath51)" fill="none" x1="542" x2="253" y1="850" y2="850" stroke="rgb(136,136,136)" stroke-width="2.1" />
      <text x="194" y="842" clip-path="url(#clipPath69)" stroke="none" stroke-width="2.1" xml:space="preserve">oeSollicitateCrisisHandling()</text>
      <line clip-path="url(#clipPath70)" fill="none" x1="260" x2="253" y1="847" y2="850" stroke="rgb(136,136,136)" stroke-width="2.1" />
      <line clip-path="url(#clipPath70)" fill="none" x1="253" x2="260" y1="850" y2="853" stroke="rgb(136,136,136)" stroke-width="2.1" />
    </g>
    <g stroke-linecap="butt" font-size="23" fill="rgb(136,136,136)" font-family="'Lucida Sans'" stroke-dasharray="5,5" stroke="rgb(136,136,136)" stroke-width="2.1">
      <line clip-path="url(#clipPath51)" fill="none" x1="666" x2="253" y1="259" y2="259" />
      <text x="173" y="253" clip-path="url(#clipPath71)" fill="black" stroke="none" xml:space="preserve">ieMessage(You are logged ! Welcome ...)</text>
      <line clip-path="url(#clipPath72)" fill="none" x1="659" x2="666" y1="262" y2="259" stroke-dasharray="none" />
      <line clip-path="url(#clipPath72)" fill="none" x1="666" x2="659" y1="259" y2="256" stroke-dasharray="none" />
      <line clip-path="url(#clipPath51)" fill="none" x1="666" x2="253" y1="382" y2="382" />
      <text x="193" y="377" clip-path="url(#clipPath73)" fill="black" stroke="none" xml:space="preserve">ieCoordinatorAddedreturned()</text>
      <line clip-path="url(#clipPath74)" fill="none" x1="659" x2="666" y1="385" y2="382" stroke-dasharray="none" />
      <line clip-path="url(#clipPath74)" fill="none" x1="666" x2="659" y1="382" y2="379" stroke-dasharray="none" />
      <line clip-path="url(#clipPath51)" fill="none" x1="666" x2="253" y1="500" y2="500" />
      <text x="161" y="495" clip-path="url(#clipPath75)" fill="black" stroke="none" xml:space="preserve">ieMessage(You are logged out ! Good Bye ...)</text>
      <line clip-path="url(#clipPath76)" fill="none" x1="659" x2="666" y1="503" y2="500" stroke-dasharray="none" />
      <line clip-path="url(#clipPath76)" fill="none" x1="666" x2="659" y1="500" y2="497" stroke-dasharray="none" />
      <line clip-path="url(#clipPath51)" fill="none" x1="808" x2="253" y1="730" y2="730" />
      <text x="24" y="726" clip-path="url(#clipPath77)" fill="black" stroke="none" xml:space="preserve">ieSmsSend(+3524666445252,Your alert has been registered. We will handle it and keep you informed)</text>
      <line clip-path="url(#clipPath78)" fill="none" x1="801" x2="808" y1="733" y2="730" stroke-dasharray="none" />
      <line clip-path="url(#clipPath78)" fill="none" x1="808" x2="801" y1="730" y2="727" stroke-dasharray="none" />
      <line clip-path="url(#clipPath51)" fill="none" x1="666" x2="253" y1="916" y2="916" />
      <text x="68" y="912" clip-path="url(#clipPath79)" fill="black" stroke="none" xml:space="preserve">ieMessage(There are alerts pending since more than the defined delay. Please REACT !)</text>
      <line clip-path="url(#clipPath80)" fill="none" x1="659" x2="666" y1="919" y2="916" stroke-dasharray="none" />
      <line clip-path="url(#clipPath80)" fill="none" x1="666" x2="659" y1="916" y2="913" stroke-dasharray="none" />
      <line clip-path="url(#clipPath51)" fill="none" x1="949" x2="253" y1="985" y2="985" />
      <text x="64" y="980" clip-path="url(#clipPath81)" fill="black" stroke="none" xml:space="preserve">ieMessage(There are alerts pending since more than the defined delay. Please REACT !)</text>
      <line clip-path="url(#clipPath82)" fill="none" x1="942" x2="949" y1="988" y2="985" stroke-dasharray="none" />
      <line clip-path="url(#clipPath82)" fill="none" x1="949" x2="942" y1="985" y2="982" stroke-dasharray="none" />
    </g>
  </g>
</svg>

