<?xml version="1.0" encoding="UTF-8"?>
<svg xmlns="http://www.w3.org/2000/svg" xmlns:xlink="http://www.w3.org/1999/xlink" stroke-dasharray="none" shape-rendering="auto" font-family="'Dialog'" width="1141" text-rendering="auto" fill-opacity="1" contentScriptType="text/ecmascript" color-interpolation="auto" color-rendering="auto" preserveAspectRatio="xMidYMid meet" font-size="12" viewBox="0 0 1141 1085" fill="black" stroke="black" image-rendering="auto" stroke-miterlimit="10" zoomAndPan="magnify" version="1.0" stroke-linecap="square" stroke-linejoin="miter" contentStyleType="text/css" font-style="normal" height="1085" stroke-width="1" stroke-dashoffset="0" font-weight="normal" stroke-opacity="1">
  <!--Generated by the Batik Graphics2D SVG Generator-->
  <defs id="genericDefs" />
  <g>
    <defs id="defs1">
      <clipPath clipPathUnits="userSpaceOnUse" id="clipPath1">
        <path d="M180 9 L252 9 L252 41 L180 41 L180 9 Z" />
      </clipPath>
      <clipPath clipPathUnits="userSpaceOnUse" id="clipPath2">
        <path d="M180 9 L256 9 L256 41 L180 41 L180 9 Z" />
      </clipPath>
      <clipPath clipPathUnits="userSpaceOnUse" id="clipPath3">
        <path d="M210 39 L222 39 L222 1076 L210 1076 L210 39 Z" />
      </clipPath>
      <clipPath clipPathUnits="userSpaceOnUse" id="clipPath4">
        <path d="M339 9 L457 9 L457 61 L339 61 L339 9 Z" />
      </clipPath>
      <clipPath clipPathUnits="userSpaceOnUse" id="clipPath5">
        <path d="M339 9 L461 9 L461 61 L339 61 L339 9 Z" />
      </clipPath>
      <clipPath clipPathUnits="userSpaceOnUse" id="clipPath6">
        <path d="M392 59 L404 59 L404 1076 L392 1076 L392 59 Z" />
      </clipPath>
      <clipPath clipPathUnits="userSpaceOnUse" id="clipPath7">
        <path d="M387 89 L409 89 L409 131 L387 131 L387 89 Z" />
      </clipPath>
      <clipPath clipPathUnits="userSpaceOnUse" id="clipPath8">
        <path d="M408 89 L474 89 L474 120 L408 120 L408 89 Z" />
      </clipPath>
      <clipPath clipPathUnits="userSpaceOnUse" id="clipPath9">
        <path d="M465 9 L566 9 L566 61 L465 61 L465 9 Z" />
      </clipPath>
      <clipPath clipPathUnits="userSpaceOnUse" id="clipPath10">
        <path d="M465 9 L570 9 L570 61 L465 61 L465 9 Z" />
      </clipPath>
      <clipPath clipPathUnits="userSpaceOnUse" id="clipPath11">
        <path d="M509 59 L521 59 L521 1076 L509 1076 L509 59 Z" />
      </clipPath>
      <clipPath clipPathUnits="userSpaceOnUse" id="clipPath12">
        <path d="M504 149 L526 149 L526 191 L504 191 L504 149 Z" />
      </clipPath>
      <clipPath clipPathUnits="userSpaceOnUse" id="clipPath13">
        <path d="M525 149 L591 149 L591 180 L525 180 L525 149 Z" />
      </clipPath>
      <clipPath clipPathUnits="userSpaceOnUse" id="clipPath14">
        <path d="M504 569 L526 569 L526 611 L504 611 L504 569 Z" />
      </clipPath>
      <clipPath clipPathUnits="userSpaceOnUse" id="clipPath15">
        <path d="M525 569 L591 569 L591 600 L525 600 L525 569 Z" />
      </clipPath>
      <clipPath clipPathUnits="userSpaceOnUse" id="clipPath16">
        <path d="M504 789 L526 789 L526 831 L504 831 L504 789 Z" />
      </clipPath>
      <clipPath clipPathUnits="userSpaceOnUse" id="clipPath17">
        <path d="M525 789 L591 789 L591 820 L525 820 L525 789 Z" />
      </clipPath>
      <clipPath clipPathUnits="userSpaceOnUse" id="clipPath18">
        <path d="M504 849 L526 849 L526 891 L504 891 L504 849 Z" />
      </clipPath>
      <clipPath clipPathUnits="userSpaceOnUse" id="clipPath19">
        <path d="M525 849 L591 849 L591 880 L525 880 L525 849 Z" />
      </clipPath>
      <clipPath clipPathUnits="userSpaceOnUse" id="clipPath20">
        <path d="M574 9 L705 9 L705 61 L574 61 L574 9 Z" />
      </clipPath>
      <clipPath clipPathUnits="userSpaceOnUse" id="clipPath21">
        <path d="M574 9 L709 9 L709 61 L574 61 L574 9 Z" />
      </clipPath>
      <clipPath clipPathUnits="userSpaceOnUse" id="clipPath22">
        <path d="M633 59 L645 59 L645 1076 L633 1076 L633 59 Z" />
      </clipPath>
      <clipPath clipPathUnits="userSpaceOnUse" id="clipPath23">
        <path d="M628 209 L650 209 L650 251 L628 251 L628 209 Z" />
      </clipPath>
      <clipPath clipPathUnits="userSpaceOnUse" id="clipPath24">
        <path d="M649 209 L715 209 L715 240 L649 240 L649 209 Z" />
      </clipPath>
      <clipPath clipPathUnits="userSpaceOnUse" id="clipPath25">
        <path d="M628 329 L650 329 L650 371 L628 371 L628 329 Z" />
      </clipPath>
      <clipPath clipPathUnits="userSpaceOnUse" id="clipPath26">
        <path d="M649 329 L715 329 L715 360 L649 360 L649 329 Z" />
      </clipPath>
      <clipPath clipPathUnits="userSpaceOnUse" id="clipPath27">
        <path d="M628 449 L650 449 L650 491 L628 491 L628 449 Z" />
      </clipPath>
      <clipPath clipPathUnits="userSpaceOnUse" id="clipPath28">
        <path d="M649 449 L715 449 L715 480 L649 480 L649 449 Z" />
      </clipPath>
      <clipPath clipPathUnits="userSpaceOnUse" id="clipPath29">
        <path d="M628 258 L650 258 L650 300 L628 300 L628 258 Z" />
      </clipPath>
      <clipPath clipPathUnits="userSpaceOnUse" id="clipPath30">
        <path d="M649 258 L701 258 L701 289 L649 289 L649 258 Z" />
      </clipPath>
      <clipPath clipPathUnits="userSpaceOnUse" id="clipPath31">
        <path d="M628 381 L650 381 L650 423 L628 423 L628 381 Z" />
      </clipPath>
      <clipPath clipPathUnits="userSpaceOnUse" id="clipPath32">
        <path d="M649 381 L701 381 L701 412 L649 412 L649 381 Z" />
      </clipPath>
      <clipPath clipPathUnits="userSpaceOnUse" id="clipPath33">
        <path d="M628 499 L650 499 L650 541 L628 541 L628 499 Z" />
      </clipPath>
      <clipPath clipPathUnits="userSpaceOnUse" id="clipPath34">
        <path d="M649 499 L701 499 L701 530 L649 530 L649 499 Z" />
      </clipPath>
      <clipPath clipPathUnits="userSpaceOnUse" id="clipPath35">
        <path d="M628 915 L650 915 L650 957 L628 957 L628 915 Z" />
      </clipPath>
      <clipPath clipPathUnits="userSpaceOnUse" id="clipPath36">
        <path d="M649 915 L701 915 L701 946 L649 946 L649 915 Z" />
      </clipPath>
      <clipPath clipPathUnits="userSpaceOnUse" id="clipPath37">
        <path d="M713 9 L849 9 L849 61 L713 61 L713 9 Z" />
      </clipPath>
      <clipPath clipPathUnits="userSpaceOnUse" id="clipPath38">
        <path d="M713 9 L855 9 L855 61 L713 61 L713 9 Z" />
      </clipPath>
      <clipPath clipPathUnits="userSpaceOnUse" id="clipPath39">
        <path d="M713 9 L854 9 L854 61 L713 61 L713 9 Z" />
      </clipPath>
      <clipPath clipPathUnits="userSpaceOnUse" id="clipPath40">
        <path d="M775 59 L787 59 L787 1076 L775 1076 L775 59 Z" />
      </clipPath>
      <clipPath clipPathUnits="userSpaceOnUse" id="clipPath41">
        <path d="M770 664 L792 664 L792 706 L770 706 L770 664 Z" />
      </clipPath>
      <clipPath clipPathUnits="userSpaceOnUse" id="clipPath42">
        <path d="M791 664 L857 664 L857 695 L791 695 L791 664 Z" />
      </clipPath>
      <clipPath clipPathUnits="userSpaceOnUse" id="clipPath43">
        <path d="M770 729 L792 729 L792 771 L770 771 L770 729 Z" />
      </clipPath>
      <clipPath clipPathUnits="userSpaceOnUse" id="clipPath44">
        <path d="M791 729 L843 729 L843 760 L791 760 L791 729 Z" />
      </clipPath>
      <clipPath clipPathUnits="userSpaceOnUse" id="clipPath45">
        <path d="M857 9 L987 9 L987 61 L857 61 L857 9 Z" />
      </clipPath>
      <clipPath clipPathUnits="userSpaceOnUse" id="clipPath46">
        <path d="M857 9 L992 9 L992 61 L857 61 L857 9 Z" />
      </clipPath>
      <clipPath clipPathUnits="userSpaceOnUse" id="clipPath47">
        <path d="M857 9 L991 9 L991 61 L857 61 L857 9 Z" />
      </clipPath>
      <clipPath clipPathUnits="userSpaceOnUse" id="clipPath48">
        <path d="M916 59 L928 59 L928 1076 L916 1076 L916 59 Z" />
      </clipPath>
      <clipPath clipPathUnits="userSpaceOnUse" id="clipPath49">
        <path d="M911 984 L933 984 L933 1026 L911 1026 L911 984 Z" />
      </clipPath>
      <clipPath clipPathUnits="userSpaceOnUse" id="clipPath50">
        <path d="M932 984 L984 984 L984 1015 L932 1015 L932 984 Z" />
      </clipPath>
      <clipPath clipPathUnits="userSpaceOnUse" id="clipPath51">
        <path d="M-1 -1 L1142 -1 L1142 1086 L-1 1086 L-1 -1 Z" />
      </clipPath>
      <clipPath clipPathUnits="userSpaceOnUse" id="clipPath52">
        <path d="M148 61 L556 61 L556 92 L148 92 L148 61 Z" />
      </clipPath>
      <clipPath clipPathUnits="userSpaceOnUse" id="clipPath53">
        <path d="M214 85 L226 85 L226 96 L214 96 L214 85 Z" />
      </clipPath>
      <clipPath clipPathUnits="userSpaceOnUse" id="clipPath54">
        <path d="M157 122 L547 122 L547 153 L157 153 L157 122 Z" />
      </clipPath>
      <clipPath clipPathUnits="userSpaceOnUse" id="clipPath55">
        <path d="M214 145 L226 145 L226 156 L214 156 L214 145 Z" />
      </clipPath>
      <clipPath clipPathUnits="userSpaceOnUse" id="clipPath56">
        <path d="M145 179 L545 179 L545 210 L145 210 L145 179 Z" />
      </clipPath>
      <clipPath clipPathUnits="userSpaceOnUse" id="clipPath57">
        <path d="M214 205 L226 205 L226 216 L214 216 L214 205 Z" />
      </clipPath>
      <clipPath clipPathUnits="userSpaceOnUse" id="clipPath58">
        <path d="M111 298 L731 298 L731 329 L111 329 L111 298 Z" />
      </clipPath>
      <clipPath clipPathUnits="userSpaceOnUse" id="clipPath59">
        <path d="M214 325 L226 325 L226 336 L214 336 L214 325 Z" />
      </clipPath>
      <clipPath clipPathUnits="userSpaceOnUse" id="clipPath60">
        <path d="M198 419 L323 419 L323 450 L198 450 L198 419 Z" />
      </clipPath>
      <clipPath clipPathUnits="userSpaceOnUse" id="clipPath61">
        <path d="M214 445 L226 445 L226 456 L214 456 L214 445 Z" />
      </clipPath>
      <clipPath clipPathUnits="userSpaceOnUse" id="clipPath62">
        <path d="M158 541 L548 541 L548 572 L158 572 L158 541 Z" />
      </clipPath>
      <clipPath clipPathUnits="userSpaceOnUse" id="clipPath63">
        <path d="M214 565 L226 565 L226 576 L214 576 L214 565 Z" />
      </clipPath>
      <clipPath clipPathUnits="userSpaceOnUse" id="clipPath64">
        <path d="M205 604 L710 604 L710 683 L205 683 L205 604 Z" />
      </clipPath>
      <clipPath clipPathUnits="userSpaceOnUse" id="clipPath65">
        <path d="M214 660 L226 660 L226 671 L214 671 L214 660 Z" />
      </clipPath>
      <clipPath clipPathUnits="userSpaceOnUse" id="clipPath66">
        <path d="M155 756 L545 756 L545 787 L155 787 L155 756 Z" />
      </clipPath>
      <clipPath clipPathUnits="userSpaceOnUse" id="clipPath67">
        <path d="M214 785 L226 785 L226 796 L214 796 L214 785 Z" />
      </clipPath>
      <clipPath clipPathUnits="userSpaceOnUse" id="clipPath68">
        <path d="M162 818 L475 818 L475 849 L162 849 L162 818 Z" />
      </clipPath>
      <clipPath clipPathUnits="userSpaceOnUse" id="clipPath69">
        <path d="M214 845 L226 845 L226 856 L214 856 L214 845 Z" />
      </clipPath>
      <clipPath clipPathUnits="userSpaceOnUse" id="clipPath70">
        <path d="M137 229 L589 229 L589 260 L137 260 L137 229 Z" />
      </clipPath>
      <clipPath clipPathUnits="userSpaceOnUse" id="clipPath71">
        <path d="M620 254 L632 254 L632 265 L620 265 L620 254 Z" />
      </clipPath>
      <clipPath clipPathUnits="userSpaceOnUse" id="clipPath72">
        <path d="M163 353 L494 353 L494 384 L163 384 L163 353 Z" />
      </clipPath>
      <clipPath clipPathUnits="userSpaceOnUse" id="clipPath73">
        <path d="M620 377 L632 377 L632 388 L620 388 L620 377 Z" />
      </clipPath>
      <clipPath clipPathUnits="userSpaceOnUse" id="clipPath74">
        <path d="M129 471 L625 471 L625 502 L129 502 L129 471 Z" />
      </clipPath>
      <clipPath clipPathUnits="userSpaceOnUse" id="clipPath75">
        <path d="M620 495 L632 495 L632 506 L620 506 L620 495 Z" />
      </clipPath>
      <clipPath clipPathUnits="userSpaceOnUse" id="clipPath76">
        <path d="M23 702 L1123 702 L1123 733 L23 733 L23 702 Z" />
      </clipPath>
      <clipPath clipPathUnits="userSpaceOnUse" id="clipPath77">
        <path d="M762 725 L774 725 L774 736 L762 736 L762 725 Z" />
      </clipPath>
      <clipPath clipPathUnits="userSpaceOnUse" id="clipPath78">
        <path d="M48 888 L1007 888 L1007 919 L48 919 L48 888 Z" />
      </clipPath>
      <clipPath clipPathUnits="userSpaceOnUse" id="clipPath79">
        <path d="M620 911 L632 911 L632 922 L620 922 L620 911 Z" />
      </clipPath>
      <clipPath clipPathUnits="userSpaceOnUse" id="clipPath80">
        <path d="M44 956 L1003 956 L1003 987 L44 987 L44 956 Z" />
      </clipPath>
      <clipPath clipPathUnits="userSpaceOnUse" id="clipPath81">
        <path d="M903 980 L915 980 L915 991 L903 991 L903 980 Z" />
      </clipPath>
    </defs>
    <g font-size="23" fill="rgb(238,201,142)" font-family="'Lucida Sans'" stroke-linejoin="round" stroke="rgb(238,201,142)" stroke-width="0" stroke-miterlimit="0">
      <rect x="181" y="10" clip-path="url(#clipPath1)" width="70" height="30" stroke="none" />
    </g>
    <g stroke-width="0.1" font-size="23" font-family="'Lucida Sans'" stroke-linecap="butt">
      <rect x="181" y="10" clip-path="url(#clipPath1)" fill="none" width="69" height="29" />
      <text xml:space="preserve" x="184" y="32" clip-path="url(#clipPath2)" stroke="none">Syst...</text>
      <line clip-path="url(#clipPath3)" fill="none" x1="215" x2="215" y1="40" y2="1075" stroke-dasharray="10,10" stroke-width="1.1" />
    </g>
    <g stroke-linecap="butt" font-size="23" fill="rgb(255,245,181)" font-family="'Lucida Sans'" stroke-dasharray="10,10" stroke="rgb(255,245,181)" stroke-width="1.1">
      <rect x="340" y="10" clip-path="url(#clipPath4)" width="116" height="50" stroke="none" />
    </g>
    <g stroke-width="0.1" font-size="23" font-family="'Lucida Sans'" stroke-linecap="butt">
      <rect x="340" y="10" clip-path="url(#clipPath4)" fill="none" width="115" height="49" />
      <text xml:space="preserve" x="343" y="28" clip-path="url(#clipPath5)" stroke="none">theCreat...</text>
      <line clip-path="url(#clipPath6)" fill="none" x1="397" x2="397" y1="60" y2="1075" stroke-dasharray="10,10" stroke-width="1.1" />
    </g>
    <g stroke-linecap="butt" font-size="23" fill="rgb(39,76,114)" font-family="'Lucida Sans'" stroke-dasharray="10,10" stroke="rgb(39,76,114)" stroke-width="1.1">
      <rect x="388" y="90" clip-path="url(#clipPath7)" width="20" height="40" stroke="none" />
      <rect x="388" y="90" clip-path="url(#clipPath7)" fill="none" width="19" stroke-dasharray="none" height="39" stroke-width="0.1" />
    </g>
    <g stroke-width="0.1" font-size="23" font-family="'Lucida Sans'" stroke-linecap="butt">
      <text xml:space="preserve" x="409" y="112" clip-path="url(#clipPath8)" stroke="none">out01</text>
      <rect x="466" y="10" clip-path="url(#clipPath9)" fill="rgb(255,245,181)" width="99" height="50" stroke="none" />
      <rect x="466" y="10" clip-path="url(#clipPath9)" fill="none" width="98" height="49" />
      <text xml:space="preserve" x="471" y="28" clip-path="url(#clipPath10)" stroke="none">theClo...</text>
      <line clip-path="url(#clipPath11)" fill="none" x1="514" x2="514" y1="60" y2="1075" stroke-dasharray="10,10" stroke-width="1.1" />
    </g>
    <g stroke-linecap="butt" font-size="23" fill="rgb(39,76,114)" font-family="'Lucida Sans'" stroke-dasharray="10,10" stroke="rgb(39,76,114)" stroke-width="1.1">
      <rect x="505" y="150" clip-path="url(#clipPath12)" width="20" height="40" stroke="none" />
      <rect x="505" y="150" clip-path="url(#clipPath12)" fill="none" width="19" stroke-dasharray="none" height="39" stroke-width="0.1" />
    </g>
    <g stroke-width="0.1" font-size="23" font-family="'Lucida Sans'" stroke-linecap="butt">
      <text xml:space="preserve" x="526" y="172" clip-path="url(#clipPath13)" stroke="none">out02</text>
      <rect x="505" y="570" clip-path="url(#clipPath14)" fill="rgb(39,76,114)" width="20" height="40" stroke="none" />
      <rect x="505" y="570" clip-path="url(#clipPath14)" fill="none" width="19" height="39" stroke="rgb(39,76,114)" />
      <text xml:space="preserve" x="526" y="592" clip-path="url(#clipPath15)" stroke="none">out06</text>
      <rect x="505" y="790" clip-path="url(#clipPath16)" fill="rgb(39,76,114)" width="20" height="40" stroke="none" />
      <rect x="505" y="790" clip-path="url(#clipPath16)" fill="none" width="19" height="39" stroke="rgb(39,76,114)" />
      <text xml:space="preserve" x="526" y="812" clip-path="url(#clipPath17)" stroke="none">out08</text>
      <rect x="505" y="850" clip-path="url(#clipPath18)" fill="rgb(39,76,114)" width="20" height="40" stroke="none" />
      <rect x="505" y="850" clip-path="url(#clipPath18)" fill="none" width="19" height="39" stroke="rgb(39,76,114)" />
      <text xml:space="preserve" x="526" y="872" clip-path="url(#clipPath19)" stroke="none">out09</text>
      <rect x="575" y="10" clip-path="url(#clipPath20)" fill="rgb(255,245,181)" width="129" height="50" stroke="none" />
      <rect x="575" y="10" clip-path="url(#clipPath20)" fill="none" width="128" height="49" />
      <text xml:space="preserve" x="623" y="28" clip-path="url(#clipPath21)" stroke="none">bill</text>
      <text xml:space="preserve" x="581" y="57" clip-path="url(#clipPath21)" stroke="none">: actAdmi...</text>
      <line clip-path="url(#clipPath22)" fill="none" x1="638" x2="638" y1="60" y2="1075" stroke-dasharray="10,10" stroke-width="1.1" />
    </g>
    <g stroke-linecap="butt" font-size="23" fill="rgb(39,76,114)" font-family="'Lucida Sans'" stroke-dasharray="10,10" stroke="rgb(39,76,114)" stroke-width="1.1">
      <rect x="629" y="210" clip-path="url(#clipPath23)" width="20" height="40" stroke="none" />
      <rect x="629" y="210" clip-path="url(#clipPath23)" fill="none" width="19" stroke-dasharray="none" height="39" stroke-width="0.1" />
    </g>
    <g stroke-width="0.1" font-size="23" font-family="'Lucida Sans'" stroke-linecap="butt">
      <text xml:space="preserve" x="650" y="232" clip-path="url(#clipPath24)" stroke="none">out03</text>
      <rect x="629" y="330" clip-path="url(#clipPath25)" fill="rgb(39,76,114)" width="20" height="40" stroke="none" />
      <rect x="629" y="330" clip-path="url(#clipPath25)" fill="none" width="19" height="39" stroke="rgb(39,76,114)" />
      <text xml:space="preserve" x="650" y="352" clip-path="url(#clipPath26)" stroke="none">out04</text>
      <rect x="629" y="450" clip-path="url(#clipPath27)" fill="rgb(39,76,114)" width="20" height="40" stroke="none" />
      <rect x="629" y="450" clip-path="url(#clipPath27)" fill="none" width="19" height="39" stroke="rgb(39,76,114)" />
      <text xml:space="preserve" x="650" y="472" clip-path="url(#clipPath28)" stroke="none">out05</text>
      <rect x="629" y="259" clip-path="url(#clipPath29)" fill="rgb(194,239,255)" width="20" height="40" stroke="none" />
      <rect x="629" y="259" clip-path="url(#clipPath29)" fill="none" width="19" height="39" stroke="rgb(194,239,255)" />
      <text xml:space="preserve" x="650" y="281" clip-path="url(#clipPath30)" stroke="none">in01</text>
      <rect x="629" y="382" clip-path="url(#clipPath31)" fill="rgb(194,239,255)" width="20" height="40" stroke="none" />
      <rect x="629" y="382" clip-path="url(#clipPath31)" fill="none" width="19" height="39" stroke="rgb(194,239,255)" />
      <text xml:space="preserve" x="650" y="404" clip-path="url(#clipPath32)" stroke="none">in02</text>
      <rect x="629" y="500" clip-path="url(#clipPath33)" fill="rgb(194,239,255)" width="20" height="40" stroke="none" />
      <rect x="629" y="500" clip-path="url(#clipPath33)" fill="none" width="19" height="39" stroke="rgb(194,239,255)" />
      <text xml:space="preserve" x="650" y="522" clip-path="url(#clipPath34)" stroke="none">in03</text>
      <rect x="629" y="916" clip-path="url(#clipPath35)" fill="rgb(194,239,255)" width="20" height="40" stroke="none" />
      <rect x="629" y="916" clip-path="url(#clipPath35)" fill="none" width="19" height="39" stroke="rgb(194,239,255)" />
      <text xml:space="preserve" x="650" y="938" clip-path="url(#clipPath36)" stroke="none">in05</text>
      <rect x="714" y="10" clip-path="url(#clipPath37)" fill="rgb(255,245,181)" width="134" height="50" stroke="none" />
      <rect x="714" y="10" clip-path="url(#clipPath37)" fill="none" width="133" height="49" />
      <text xml:space="preserve" x="750" y="28" clip-path="url(#clipPath38)" stroke="none">tango</text>
      <text xml:space="preserve" x="716" y="57" clip-path="url(#clipPath39)" stroke="none">: actComC...</text>
      <line clip-path="url(#clipPath40)" fill="none" x1="780" x2="780" y1="60" y2="1075" stroke-dasharray="10,10" stroke-width="1.1" />
    </g>
    <g stroke-linecap="butt" font-size="23" fill="rgb(39,76,114)" font-family="'Lucida Sans'" stroke-dasharray="10,10" stroke="rgb(39,76,114)" stroke-width="1.1">
      <rect x="771" y="665" clip-path="url(#clipPath41)" width="20" height="40" stroke="none" />
      <rect x="771" y="665" clip-path="url(#clipPath41)" fill="none" width="19" stroke-dasharray="none" height="39" stroke-width="0.1" />
    </g>
    <g stroke-width="0.1" font-size="23" font-family="'Lucida Sans'" stroke-linecap="butt">
      <text xml:space="preserve" x="792" y="687" clip-path="url(#clipPath42)" stroke="none">out07</text>
      <rect x="771" y="730" clip-path="url(#clipPath43)" fill="rgb(194,239,255)" width="20" height="40" stroke="none" />
      <rect x="771" y="730" clip-path="url(#clipPath43)" fill="none" width="19" height="39" stroke="rgb(194,239,255)" />
      <text xml:space="preserve" x="792" y="752" clip-path="url(#clipPath44)" stroke="none">in04</text>
      <rect x="858" y="10" clip-path="url(#clipPath45)" fill="rgb(255,245,181)" width="128" height="50" stroke="none" />
      <rect x="858" y="10" clip-path="url(#clipPath45)" fill="none" width="127" height="49" />
      <text xml:space="preserve" x="893" y="28" clip-path="url(#clipPath46)" stroke="none">steve</text>
      <text xml:space="preserve" x="865" y="57" clip-path="url(#clipPath47)" stroke="none">: actCoor...</text>
      <line clip-path="url(#clipPath48)" fill="none" x1="921" x2="921" y1="60" y2="1075" stroke-dasharray="10,10" stroke-width="1.1" />
    </g>
    <g stroke-linecap="butt" font-size="23" fill="rgb(194,239,255)" font-family="'Lucida Sans'" stroke-dasharray="10,10" stroke="rgb(194,239,255)" stroke-width="1.1">
      <rect x="912" y="985" clip-path="url(#clipPath49)" width="20" height="40" stroke="none" />
      <rect x="912" y="985" clip-path="url(#clipPath49)" fill="none" width="19" stroke-dasharray="none" height="39" stroke-width="0.1" />
    </g>
    <g stroke-width="0.1" font-size="23" font-family="'Lucida Sans'" stroke-linecap="butt">
      <text xml:space="preserve" x="933" y="1007" clip-path="url(#clipPath50)" stroke="none">in06</text>
      <line clip-path="url(#clipPath51)" fill="none" x1="388" x2="216" y1="90" y2="90" stroke="rgb(136,136,136)" stroke-width="2.1" />
      <text x="149" y="84" clip-path="url(#clipPath52)" stroke="none" stroke-width="2.1" xml:space="preserve">oeCreateSystemAndEnvironment("4")</text>
      <line clip-path="url(#clipPath53)" fill="none" x1="223" x2="216" y1="87" y2="90" stroke="rgb(136,136,136)" stroke-width="2.1" />
      <line clip-path="url(#clipPath53)" fill="none" x1="216" x2="223" y1="90" y2="93" stroke="rgb(136,136,136)" stroke-width="2.1" />
      <line clip-path="url(#clipPath51)" fill="none" x1="505" x2="216" y1="150" y2="150" stroke="rgb(136,136,136)" stroke-width="2.1" />
      <text x="158" y="145" clip-path="url(#clipPath54)" stroke="none" stroke-width="2.1" xml:space="preserve">oeSetClock("2017:11:24 - 03:20:00")</text>
      <line clip-path="url(#clipPath55)" fill="none" x1="223" x2="216" y1="147" y2="150" stroke="rgb(136,136,136)" stroke-width="2.1" />
      <line clip-path="url(#clipPath55)" fill="none" x1="216" x2="223" y1="150" y2="153" stroke="rgb(136,136,136)" stroke-width="2.1" />
      <line clip-path="url(#clipPath51)" fill="none" x1="629" x2="216" y1="210" y2="210" stroke="rgb(136,136,136)" stroke-width="2.1" />
      <text x="146" y="202" clip-path="url(#clipPath56)" stroke="none" stroke-width="2.1" xml:space="preserve">oeLogin("icrashadmin","7WXC1359")</text>
      <line clip-path="url(#clipPath57)" fill="none" x1="223" x2="216" y1="207" y2="210" stroke="rgb(136,136,136)" stroke-width="2.1" />
      <line clip-path="url(#clipPath57)" fill="none" x1="216" x2="223" y1="210" y2="213" stroke="rgb(136,136,136)" stroke-width="2.1" />
      <line clip-path="url(#clipPath51)" fill="none" x1="629" x2="216" y1="330" y2="330" stroke="rgb(136,136,136)" stroke-width="2.1" />
      <text x="112" y="321" clip-path="url(#clipPath58)" stroke="none" stroke-width="2.1" xml:space="preserve">oeAddCoordinator("1","steve","pwdMessirExcalibur2017")</text>
      <line clip-path="url(#clipPath59)" fill="none" x1="223" x2="216" y1="327" y2="330" stroke="rgb(136,136,136)" stroke-width="2.1" />
      <line clip-path="url(#clipPath59)" fill="none" x1="216" x2="223" y1="330" y2="333" stroke="rgb(136,136,136)" stroke-width="2.1" />
      <line clip-path="url(#clipPath51)" fill="none" x1="629" x2="216" y1="450" y2="450" stroke="rgb(136,136,136)" stroke-width="2.1" />
      <text x="199" y="442" clip-path="url(#clipPath60)" stroke="none" stroke-width="2.1" xml:space="preserve">oeLogout()</text>
      <line clip-path="url(#clipPath61)" fill="none" x1="223" x2="216" y1="447" y2="450" stroke="rgb(136,136,136)" stroke-width="2.1" />
      <line clip-path="url(#clipPath61)" fill="none" x1="216" x2="223" y1="450" y2="453" stroke="rgb(136,136,136)" stroke-width="2.1" />
      <line clip-path="url(#clipPath51)" fill="none" x1="505" x2="216" y1="570" y2="570" stroke="rgb(136,136,136)" stroke-width="2.1" />
      <text x="159" y="564" clip-path="url(#clipPath62)" stroke="none" stroke-width="2.1" xml:space="preserve">oeSetClock("2017:11:26 - 10:15:00")</text>
      <line clip-path="url(#clipPath63)" fill="none" x1="223" x2="216" y1="567" y2="570" stroke="rgb(136,136,136)" stroke-width="2.1" />
      <line clip-path="url(#clipPath63)" fill="none" x1="216" x2="223" y1="570" y2="573" stroke="rgb(136,136,136)" stroke-width="2.1" />
      <line clip-path="url(#clipPath51)" fill="none" x1="771" x2="216" y1="665" y2="665" stroke="rgb(136,136,136)" stroke-width="2.1" />
      <text x="231" y="636" clip-path="url(#clipPath64)" stroke="none" stroke-width="2.1" xml:space="preserve">oeAlert("witness","2017:11:26","10:10:16","</text>
      <text x="210" y="665" clip-path="url(#clipPath64)" stroke="none" stroke-width="2.1" xml:space="preserve">+3524666445252","49.627675:6.159590","3 c...</text>
      <line clip-path="url(#clipPath65)" fill="none" x1="223" x2="216" y1="662" y2="665" stroke="rgb(136,136,136)" stroke-width="2.1" />
      <line clip-path="url(#clipPath65)" fill="none" x1="216" x2="223" y1="665" y2="668" stroke="rgb(136,136,136)" stroke-width="2.1" />
      <line clip-path="url(#clipPath51)" fill="none" x1="505" x2="216" y1="790" y2="790" stroke="rgb(136,136,136)" stroke-width="2.1" />
      <text x="156" y="779" clip-path="url(#clipPath66)" stroke="none" stroke-width="2.1" xml:space="preserve">oeSetClock("2017:11:26 - 10:30:00")</text>
      <line clip-path="url(#clipPath67)" fill="none" x1="223" x2="216" y1="787" y2="790" stroke="rgb(136,136,136)" stroke-width="2.1" />
      <line clip-path="url(#clipPath67)" fill="none" x1="216" x2="223" y1="790" y2="793" stroke="rgb(136,136,136)" stroke-width="2.1" />
      <line clip-path="url(#clipPath51)" fill="none" x1="505" x2="216" y1="850" y2="850" stroke="rgb(136,136,136)" stroke-width="2.1" />
      <text x="163" y="841" clip-path="url(#clipPath68)" stroke="none" stroke-width="2.1" xml:space="preserve">oeSollicitateCrisisHandling()</text>
      <line clip-path="url(#clipPath69)" fill="none" x1="223" x2="216" y1="847" y2="850" stroke="rgb(136,136,136)" stroke-width="2.1" />
      <line clip-path="url(#clipPath69)" fill="none" x1="216" x2="223" y1="850" y2="853" stroke="rgb(136,136,136)" stroke-width="2.1" />
    </g>
    <g stroke-linecap="butt" font-size="23" fill="rgb(136,136,136)" font-family="'Lucida Sans'" stroke-dasharray="5,5" stroke="rgb(136,136,136)" stroke-width="2.1">
      <line clip-path="url(#clipPath51)" fill="none" x1="629" x2="216" y1="259" y2="259" />
      <text x="138" y="252" clip-path="url(#clipPath70)" fill="black" stroke="none" xml:space="preserve">ieMessage(You are logged ! Welcome ...)</text>
      <line clip-path="url(#clipPath71)" fill="none" x1="622" x2="629" y1="262" y2="259" stroke-dasharray="none" />
      <line clip-path="url(#clipPath71)" fill="none" x1="629" x2="622" y1="259" y2="256" stroke-dasharray="none" />
      <line clip-path="url(#clipPath51)" fill="none" x1="629" x2="216" y1="382" y2="382" />
      <text x="164" y="376" clip-path="url(#clipPath72)" fill="black" stroke="none" xml:space="preserve">ieCoordinatorAddedreturned()</text>
      <line clip-path="url(#clipPath73)" fill="none" x1="622" x2="629" y1="385" y2="382" stroke-dasharray="none" />
      <line clip-path="url(#clipPath73)" fill="none" x1="629" x2="622" y1="382" y2="379" stroke-dasharray="none" />
      <line clip-path="url(#clipPath51)" fill="none" x1="629" x2="216" y1="500" y2="500" />
      <text x="130" y="494" clip-path="url(#clipPath74)" fill="black" stroke="none" xml:space="preserve">ieMessage(You are logged out ! Good Bye ...)</text>
      <line clip-path="url(#clipPath75)" fill="none" x1="622" x2="629" y1="503" y2="500" stroke-dasharray="none" />
      <line clip-path="url(#clipPath75)" fill="none" x1="629" x2="622" y1="500" y2="497" stroke-dasharray="none" />
      <line clip-path="url(#clipPath51)" fill="none" x1="771" x2="216" y1="730" y2="730" />
      <text x="24" y="725" clip-path="url(#clipPath76)" fill="black" stroke="none" xml:space="preserve">ieSmsSend(+3524666445252,Your alert has been registered. We will handle it and keep you informed)</text>
      <line clip-path="url(#clipPath77)" fill="none" x1="764" x2="771" y1="733" y2="730" stroke-dasharray="none" />
      <line clip-path="url(#clipPath77)" fill="none" x1="771" x2="764" y1="730" y2="727" stroke-dasharray="none" />
      <line clip-path="url(#clipPath51)" fill="none" x1="629" x2="216" y1="916" y2="916" />
      <text x="49" y="911" clip-path="url(#clipPath78)" fill="black" stroke="none" xml:space="preserve">ieMessage(There are alerts pending since more than the defined delay. Please REACT !)</text>
      <line clip-path="url(#clipPath79)" fill="none" x1="622" x2="629" y1="919" y2="916" stroke-dasharray="none" />
      <line clip-path="url(#clipPath79)" fill="none" x1="629" x2="622" y1="916" y2="913" stroke-dasharray="none" />
      <line clip-path="url(#clipPath51)" fill="none" x1="912" x2="216" y1="985" y2="985" />
      <text x="45" y="979" clip-path="url(#clipPath80)" fill="black" stroke="none" xml:space="preserve">ieMessage(There are alerts pending since more than the defined delay. Please REACT !)</text>
      <line clip-path="url(#clipPath81)" fill="none" x1="905" x2="912" y1="988" y2="985" stroke-dasharray="none" />
      <line clip-path="url(#clipPath81)" fill="none" x1="912" x2="905" y1="985" y2="982" stroke-dasharray="none" />
    </g>
  </g>
</svg>

