<?xml version="1.0" encoding="UTF-8"?>
<svg xmlns="http://www.w3.org/2000/svg" xmlns:xlink="http://www.w3.org/1999/xlink" stroke-dasharray="none" shape-rendering="auto" font-family="'Dialog'" width="786" text-rendering="auto" fill-opacity="1" contentScriptType="text/ecmascript" color-interpolation="auto" color-rendering="auto" preserveAspectRatio="xMidYMid meet" font-size="12" viewBox="0 0 786 1311" fill="black" stroke="black" image-rendering="auto" stroke-miterlimit="10" zoomAndPan="magnify" version="1.0" stroke-linecap="square" stroke-linejoin="miter" contentStyleType="text/css" font-style="normal" height="1311" stroke-width="1" stroke-dashoffset="0" font-weight="normal" stroke-opacity="1">
  <!--Generated by the Batik Graphics2D SVG Generator-->
  <defs id="genericDefs" />
  <g>
    <defs id="defs1">
      <clipPath clipPathUnits="userSpaceOnUse" id="clipPath1">
        <path d="M295 9 L414 9 L414 61 L295 61 L295 9 Z" />
      </clipPath>
      <clipPath clipPathUnits="userSpaceOnUse" id="clipPath2">
        <path d="M295 9 L417 9 L417 61 L295 61 L295 9 Z" />
      </clipPath>
      <clipPath clipPathUnits="userSpaceOnUse" id="clipPath3">
        <path d="M348 59 L360 59 L360 1302 L348 1302 L348 59 Z" />
      </clipPath>
      <clipPath clipPathUnits="userSpaceOnUse" id="clipPath4">
        <path d="M343 89 L365 89 L365 131 L343 131 L343 89 Z" />
      </clipPath>
      <clipPath clipPathUnits="userSpaceOnUse" id="clipPath5">
        <path d="M364 89 L403 89 L403 108 L364 108 L364 89 Z" />
      </clipPath>
      <clipPath clipPathUnits="userSpaceOnUse" id="clipPath6">
        <path d="M343 209 L365 209 L365 251 L343 251 L343 209 Z" />
      </clipPath>
      <clipPath clipPathUnits="userSpaceOnUse" id="clipPath7">
        <path d="M364 209 L403 209 L403 228 L364 228 L364 209 Z" />
      </clipPath>
      <clipPath clipPathUnits="userSpaceOnUse" id="clipPath8">
        <path d="M343 329 L365 329 L365 371 L343 371 L343 329 Z" />
      </clipPath>
      <clipPath clipPathUnits="userSpaceOnUse" id="clipPath9">
        <path d="M364 329 L403 329 L403 348 L364 348 L364 329 Z" />
      </clipPath>
      <clipPath clipPathUnits="userSpaceOnUse" id="clipPath10">
        <path d="M343 570 L365 570 L365 612 L343 612 L343 570 Z" />
      </clipPath>
      <clipPath clipPathUnits="userSpaceOnUse" id="clipPath11">
        <path d="M364 570 L403 570 L403 589 L364 589 L364 570 Z" />
      </clipPath>
      <clipPath clipPathUnits="userSpaceOnUse" id="clipPath12">
        <path d="M343 910 L365 910 L365 952 L343 952 L343 910 Z" />
      </clipPath>
      <clipPath clipPathUnits="userSpaceOnUse" id="clipPath13">
        <path d="M364 910 L403 910 L403 929 L364 929 L364 910 Z" />
      </clipPath>
      <clipPath clipPathUnits="userSpaceOnUse" id="clipPath14">
        <path d="M343 1030 L365 1030 L365 1072 L343 1072 L343 1030 Z" />
      </clipPath>
      <clipPath clipPathUnits="userSpaceOnUse" id="clipPath15">
        <path d="M364 1030 L403 1030 L403 1049 L364 1049 L364 1030 Z" />
      </clipPath>
      <clipPath clipPathUnits="userSpaceOnUse" id="clipPath16">
        <path d="M343 1150 L365 1150 L365 1192 L343 1192 L343 1150 Z" />
      </clipPath>
      <clipPath clipPathUnits="userSpaceOnUse" id="clipPath17">
        <path d="M364 1150 L403 1150 L403 1169 L364 1169 L364 1150 Z" />
      </clipPath>
      <clipPath clipPathUnits="userSpaceOnUse" id="clipPath18">
        <path d="M343 139 L365 139 L365 181 L343 181 L343 139 Z" />
      </clipPath>
      <clipPath clipPathUnits="userSpaceOnUse" id="clipPath19">
        <path d="M364 139 L403 139 L403 158 L364 158 L364 139 Z" />
      </clipPath>
      <clipPath clipPathUnits="userSpaceOnUse" id="clipPath20">
        <path d="M343 257 L365 257 L365 299 L343 299 L343 257 Z" />
      </clipPath>
      <clipPath clipPathUnits="userSpaceOnUse" id="clipPath21">
        <path d="M364 257 L403 257 L403 276 L364 276 L364 257 Z" />
      </clipPath>
      <clipPath clipPathUnits="userSpaceOnUse" id="clipPath22">
        <path d="M343 443 L365 443 L365 485 L343 485 L343 443 Z" />
      </clipPath>
      <clipPath clipPathUnits="userSpaceOnUse" id="clipPath23">
        <path d="M364 443 L403 443 L403 462 L364 462 L364 443 Z" />
      </clipPath>
      <clipPath clipPathUnits="userSpaceOnUse" id="clipPath24">
        <path d="M343 630 L365 630 L365 672 L343 672 L343 630 Z" />
      </clipPath>
      <clipPath clipPathUnits="userSpaceOnUse" id="clipPath25">
        <path d="M364 630 L403 630 L403 649 L364 649 L364 630 Z" />
      </clipPath>
      <clipPath clipPathUnits="userSpaceOnUse" id="clipPath26">
        <path d="M343 970 L365 970 L365 1012 L343 1012 L343 970 Z" />
      </clipPath>
      <clipPath clipPathUnits="userSpaceOnUse" id="clipPath27">
        <path d="M364 970 L403 970 L403 989 L364 989 L364 970 Z" />
      </clipPath>
      <clipPath clipPathUnits="userSpaceOnUse" id="clipPath28">
        <path d="M343 1090 L365 1090 L365 1132 L343 1132 L343 1090 Z" />
      </clipPath>
      <clipPath clipPathUnits="userSpaceOnUse" id="clipPath29">
        <path d="M364 1090 L403 1090 L403 1109 L364 1109 L364 1090 Z" />
      </clipPath>
      <clipPath clipPathUnits="userSpaceOnUse" id="clipPath30">
        <path d="M343 1210 L365 1210 L365 1252 L343 1252 L343 1210 Z" />
      </clipPath>
      <clipPath clipPathUnits="userSpaceOnUse" id="clipPath31">
        <path d="M364 1210 L403 1210 L403 1229 L364 1229 L364 1210 Z" />
      </clipPath>
      <clipPath clipPathUnits="userSpaceOnUse" id="clipPath32">
        <path d="M422 9 L552 9 L552 61 L422 61 L422 9 Z" />
      </clipPath>
      <clipPath clipPathUnits="userSpaceOnUse" id="clipPath33">
        <path d="M422 9 L556 9 L556 61 L422 61 L422 9 Z" />
      </clipPath>
      <clipPath clipPathUnits="userSpaceOnUse" id="clipPath34">
        <path d="M481 59 L493 59 L493 1302 L481 1302 L481 59 Z" />
      </clipPath>
      <clipPath clipPathUnits="userSpaceOnUse" id="clipPath35">
        <path d="M476 714 L498 714 L498 756 L476 756 L476 714 Z" />
      </clipPath>
      <clipPath clipPathUnits="userSpaceOnUse" id="clipPath36">
        <path d="M497 714 L536 714 L536 733 L497 733 L497 714 Z" />
      </clipPath>
      <clipPath clipPathUnits="userSpaceOnUse" id="clipPath37">
        <path d="M476 398 L498 398 L498 440 L476 440 L476 398 Z" />
      </clipPath>
      <clipPath clipPathUnits="userSpaceOnUse" id="clipPath38">
        <path d="M497 398 L536 398 L536 417 L497 417 L497 398 Z" />
      </clipPath>
      <clipPath clipPathUnits="userSpaceOnUse" id="clipPath39">
        <path d="M476 790 L498 790 L498 832 L476 832 L476 790 Z" />
      </clipPath>
      <clipPath clipPathUnits="userSpaceOnUse" id="clipPath40">
        <path d="M497 790 L536 790 L536 809 L497 809 L497 790 Z" />
      </clipPath>
      <clipPath clipPathUnits="userSpaceOnUse" id="clipPath41">
        <path d="M560 9 L679 9 L679 61 L560 61 L560 9 Z" />
      </clipPath>
      <clipPath clipPathUnits="userSpaceOnUse" id="clipPath42">
        <path d="M560 9 L682 9 L682 61 L560 61 L560 9 Z" />
      </clipPath>
      <clipPath clipPathUnits="userSpaceOnUse" id="clipPath43">
        <path d="M613 59 L625 59 L625 1302 L613 1302 L613 59 Z" />
      </clipPath>
      <clipPath clipPathUnits="userSpaceOnUse" id="clipPath44">
        <path d="M608 518 L630 518 L630 560 L608 560 L608 518 Z" />
      </clipPath>
      <clipPath clipPathUnits="userSpaceOnUse" id="clipPath45">
        <path d="M629 518 L668 518 L668 537 L629 537 L629 518 Z" />
      </clipPath>
      <clipPath clipPathUnits="userSpaceOnUse" id="clipPath46">
        <path d="M608 850 L630 850 L630 892 L608 892 L608 850 Z" />
      </clipPath>
      <clipPath clipPathUnits="userSpaceOnUse" id="clipPath47">
        <path d="M629 850 L668 850 L668 869 L629 869 L629 850 Z" />
      </clipPath>
      <clipPath clipPathUnits="userSpaceOnUse" id="clipPath48">
        <path d="M9 9 L81 9 L81 41 L9 41 L9 9 Z" />
      </clipPath>
      <clipPath clipPathUnits="userSpaceOnUse" id="clipPath49">
        <path d="M9 9 L85 9 L85 41 L9 41 L9 9 Z" />
      </clipPath>
      <clipPath clipPathUnits="userSpaceOnUse" id="clipPath50">
        <path d="M39 39 L51 39 L51 1302 L39 1302 L39 39 Z" />
      </clipPath>
      <clipPath clipPathUnits="userSpaceOnUse" id="clipPath51">
        <path d="M-1 -1 L787 -1 L787 1312 L-1 1312 L-1 -1 Z" />
      </clipPath>
      <clipPath clipPathUnits="userSpaceOnUse" id="clipPath52">
        <path d="M55 71 L337 71 L337 90 L55 90 L55 71 Z" />
      </clipPath>
      <clipPath clipPathUnits="userSpaceOnUse" id="clipPath53">
        <path d="M43 85 L55 85 L55 96 L43 96 L43 85 Z" />
      </clipPath>
      <clipPath clipPathUnits="userSpaceOnUse" id="clipPath54">
        <path d="M54 187 L225 187 L225 206 L54 206 L54 187 Z" />
      </clipPath>
      <clipPath clipPathUnits="userSpaceOnUse" id="clipPath55">
        <path d="M43 205 L55 205 L55 216 L43 216 L43 205 Z" />
      </clipPath>
      <clipPath clipPathUnits="userSpaceOnUse" id="clipPath56">
        <path d="M54 306 L208 306 L208 325 L54 325 L54 306 Z" />
      </clipPath>
      <clipPath clipPathUnits="userSpaceOnUse" id="clipPath57">
        <path d="M43 325 L55 325 L55 336 L43 336 L43 325 Z" />
      </clipPath>
      <clipPath clipPathUnits="userSpaceOnUse" id="clipPath58">
        <path d="M55 493 L301 493 L301 512 L55 512 L55 493 Z" />
      </clipPath>
      <clipPath clipPathUnits="userSpaceOnUse" id="clipPath59">
        <path d="M43 514 L55 514 L55 525 L43 525 L43 514 Z" />
      </clipPath>
      <clipPath clipPathUnits="userSpaceOnUse" id="clipPath60">
        <path d="M54 547 L183 547 L183 566 L54 566 L54 547 Z" />
      </clipPath>
      <clipPath clipPathUnits="userSpaceOnUse" id="clipPath61">
        <path d="M43 566 L55 566 L55 577 L43 577 L43 566 Z" />
      </clipPath>
      <clipPath clipPathUnits="userSpaceOnUse" id="clipPath62">
        <path d="M41 663 L452 663 L452 726 L41 726 L41 663 Z" />
      </clipPath>
      <clipPath clipPathUnits="userSpaceOnUse" id="clipPath63">
        <path d="M43 710 L55 710 L55 721 L43 721 L43 710 Z" />
      </clipPath>
      <clipPath clipPathUnits="userSpaceOnUse" id="clipPath64">
        <path d="M50 825 L296 825 L296 844 L50 844 L50 825 Z" />
      </clipPath>
      <clipPath clipPathUnits="userSpaceOnUse" id="clipPath65">
        <path d="M43 846 L55 846 L55 857 L43 857 L43 846 Z" />
      </clipPath>
      <clipPath clipPathUnits="userSpaceOnUse" id="clipPath66">
        <path d="M54 887 L244 887 L244 906 L54 906 L54 887 Z" />
      </clipPath>
      <clipPath clipPathUnits="userSpaceOnUse" id="clipPath67">
        <path d="M43 906 L55 906 L55 917 L43 917 L43 906 Z" />
      </clipPath>
      <clipPath clipPathUnits="userSpaceOnUse" id="clipPath68">
        <path d="M46 1010 L682 1010 L682 1029 L46 1029 L46 1010 Z" />
      </clipPath>
      <clipPath clipPathUnits="userSpaceOnUse" id="clipPath69">
        <path d="M43 1026 L55 1026 L55 1037 L43 1037 L43 1026 Z" />
      </clipPath>
      <clipPath clipPathUnits="userSpaceOnUse" id="clipPath70">
        <path d="M47 1127 L164 1127 L164 1146 L47 1146 L47 1127 Z" />
      </clipPath>
      <clipPath clipPathUnits="userSpaceOnUse" id="clipPath71">
        <path d="M43 1146 L55 1146 L55 1157 L43 1157 L43 1146 Z" />
      </clipPath>
      <clipPath clipPathUnits="userSpaceOnUse" id="clipPath72">
        <path d="M48 116 L328 116 L328 135 L48 135 L48 116 Z" />
      </clipPath>
      <clipPath clipPathUnits="userSpaceOnUse" id="clipPath73">
        <path d="M335 135 L347 135 L347 146 L335 146 L335 135 Z" />
      </clipPath>
      <clipPath clipPathUnits="userSpaceOnUse" id="clipPath74">
        <path d="M47 236 L304 236 L304 255 L47 255 L47 236 Z" />
      </clipPath>
      <clipPath clipPathUnits="userSpaceOnUse" id="clipPath75">
        <path d="M335 253 L347 253 L347 264 L335 264 L335 253 Z" />
      </clipPath>
      <clipPath clipPathUnits="userSpaceOnUse" id="clipPath76">
        <path d="M44 375 L653 375 L653 394 L44 394 L44 375 Z" />
      </clipPath>
      <clipPath clipPathUnits="userSpaceOnUse" id="clipPath77">
        <path d="M468 394 L480 394 L480 405 L468 405 L468 394 Z" />
      </clipPath>
      <clipPath clipPathUnits="userSpaceOnUse" id="clipPath78">
        <path d="M50 416 L459 416 L459 435 L50 435 L50 416 Z" />
      </clipPath>
      <clipPath clipPathUnits="userSpaceOnUse" id="clipPath79">
        <path d="M335 439 L347 439 L347 450 L335 450 L335 439 Z" />
      </clipPath>
      <clipPath clipPathUnits="userSpaceOnUse" id="clipPath80">
        <path d="M49 611 L372 611 L372 630 L49 630 L49 611 Z" />
      </clipPath>
      <clipPath clipPathUnits="userSpaceOnUse" id="clipPath81">
        <path d="M335 626 L347 626 L347 637 L335 637 L335 626 Z" />
      </clipPath>
      <clipPath clipPathUnits="userSpaceOnUse" id="clipPath82">
        <path d="M47 765 L766 765 L766 784 L47 784 L47 765 Z" />
      </clipPath>
      <clipPath clipPathUnits="userSpaceOnUse" id="clipPath83">
        <path d="M468 786 L480 786 L480 797 L468 797 L468 786 Z" />
      </clipPath>
      <clipPath clipPathUnits="userSpaceOnUse" id="clipPath84">
        <path d="M50 945 L381 945 L381 964 L50 964 L50 945 Z" />
      </clipPath>
      <clipPath clipPathUnits="userSpaceOnUse" id="clipPath85">
        <path d="M335 966 L347 966 L347 977 L335 977 L335 966 Z" />
      </clipPath>
      <clipPath clipPathUnits="userSpaceOnUse" id="clipPath86">
        <path d="M49 1068 L403 1068 L403 1087 L49 1087 L49 1068 Z" />
      </clipPath>
      <clipPath clipPathUnits="userSpaceOnUse" id="clipPath87">
        <path d="M335 1086 L347 1086 L347 1097 L335 1097 L335 1086 Z" />
      </clipPath>
      <clipPath clipPathUnits="userSpaceOnUse" id="clipPath88">
        <path d="M48 1190 L303 1190 L303 1209 L48 1209 L48 1190 Z" />
      </clipPath>
      <clipPath clipPathUnits="userSpaceOnUse" id="clipPath89">
        <path d="M335 1206 L347 1206 L347 1217 L335 1217 L335 1206 Z" />
      </clipPath>
    </defs>
    <g font-size="14" fill="rgb(255,245,181)" font-family="'Lucida Sans'" stroke-linejoin="round" stroke="rgb(255,245,181)" stroke-width="0" stroke-miterlimit="0">
      <rect x="296" y="10" clip-path="url(#clipPath1)" width="117" height="50" stroke="none" />
    </g>
    <g stroke-width="0.1" font-size="14" font-family="'Lucida Sans'" stroke-linecap="butt">
      <rect x="296" y="10" clip-path="url(#clipPath1)" fill="none" width="116" height="49" />
      <text xml:space="preserve" x="336" y="32" clip-path="url(#clipPath2)" stroke="none">steve</text>
      <text xml:space="preserve" x="298" y="49" clip-path="url(#clipPath2)" stroke="none">: actCoordinator</text>
      <line clip-path="url(#clipPath3)" fill="none" x1="353" x2="353" y1="60" y2="1301" stroke-dasharray="10,10" stroke-width="1.1" />
    </g>
    <g stroke-linecap="butt" font-size="14" fill="rgb(77,137,20)" font-family="'Lucida Sans'" stroke-dasharray="10,10" stroke="rgb(77,137,20)" stroke-width="1.1">
      <rect x="344" y="90" clip-path="url(#clipPath4)" width="20" height="40" stroke="none" />
      <rect x="345" y="91" clip-path="url(#clipPath4)" fill="none" width="18" stroke-dasharray="none" height="38" stroke-width="2.1" />
      <text x="365" y="104" clip-path="url(#clipPath5)" stroke-dasharray="none" stroke="none" stroke-width="2.1" xml:space="preserve">tsi10</text>
      <rect x="344" y="210" clip-path="url(#clipPath6)" width="20" stroke-dasharray="none" height="40" stroke="none" stroke-width="2.1" />
      <rect x="345" y="211" clip-path="url(#clipPath6)" fill="none" width="18" stroke-dasharray="none" height="38" stroke-width="2.1" />
      <text x="365" y="224" clip-path="url(#clipPath7)" stroke-dasharray="none" stroke="none" stroke-width="2.1" xml:space="preserve">tsi11</text>
      <rect x="344" y="330" clip-path="url(#clipPath8)" width="20" stroke-dasharray="none" height="40" stroke="none" stroke-width="2.1" />
      <rect x="345" y="331" clip-path="url(#clipPath8)" fill="none" width="18" stroke-dasharray="none" height="38" stroke-width="2.1" />
      <text x="365" y="344" clip-path="url(#clipPath9)" stroke-dasharray="none" stroke="none" stroke-width="2.1" xml:space="preserve">tsi12</text>
      <rect x="344" y="571" clip-path="url(#clipPath10)" width="20" stroke-dasharray="none" height="40" stroke="none" stroke-width="2.1" />
      <rect x="345" y="572" clip-path="url(#clipPath10)" fill="none" width="18" stroke-dasharray="none" height="38" stroke-width="2.1" />
      <text x="365" y="585" clip-path="url(#clipPath11)" stroke-dasharray="none" stroke="none" stroke-width="2.1" xml:space="preserve">tsi14</text>
      <rect x="344" y="911" clip-path="url(#clipPath12)" width="20" stroke-dasharray="none" height="40" stroke="none" stroke-width="2.1" />
      <rect x="345" y="912" clip-path="url(#clipPath12)" fill="none" width="18" stroke-dasharray="none" height="38" stroke-width="2.1" />
      <text x="365" y="925" clip-path="url(#clipPath13)" stroke-dasharray="none" stroke="none" stroke-width="2.1" xml:space="preserve">tsi17</text>
      <rect x="344" y="1031" clip-path="url(#clipPath14)" width="20" stroke-dasharray="none" height="40" stroke="none" stroke-width="2.1" />
      <rect x="345" y="1032" clip-path="url(#clipPath14)" fill="none" width="18" stroke-dasharray="none" height="38" stroke-width="2.1" />
      <text x="365" y="1045" clip-path="url(#clipPath15)" stroke-dasharray="none" stroke="none" stroke-width="2.1" xml:space="preserve">tsi18</text>
      <rect x="344" y="1151" clip-path="url(#clipPath16)" width="20" stroke-dasharray="none" height="40" stroke="none" stroke-width="2.1" />
      <rect x="345" y="1152" clip-path="url(#clipPath16)" fill="none" width="18" stroke-dasharray="none" height="38" stroke-width="2.1" />
      <text x="365" y="1165" clip-path="url(#clipPath17)" stroke-dasharray="none" stroke="none" stroke-width="2.1" xml:space="preserve">tsi19</text>
    </g>
    <g stroke-linecap="butt" font-size="14" fill="rgb(204,242,166)" font-family="'Lucida Sans'" stroke="rgb(204,242,166)" stroke-width="2.1">
      <rect x="344" y="140" clip-path="url(#clipPath18)" width="20" height="40" stroke="none" />
      <rect x="344" y="140" clip-path="url(#clipPath18)" fill="none" width="19" height="39" stroke="rgb(209,209,209)" stroke-width="0.1" />
      <text x="365" y="154" clip-path="url(#clipPath19)" fill="rgb(77,137,20)" stroke="none" stroke-width="0.1" xml:space="preserve">tsi10</text>
      <rect x="344" y="258" clip-path="url(#clipPath20)" width="20" height="40" stroke="none" stroke-width="0.1" />
      <rect x="344" y="258" clip-path="url(#clipPath20)" fill="none" width="19" height="39" stroke="rgb(209,209,209)" stroke-width="0.1" />
      <text x="365" y="272" clip-path="url(#clipPath21)" fill="rgb(77,137,20)" stroke="none" stroke-width="0.1" xml:space="preserve">tsi11</text>
      <rect x="344" y="444" clip-path="url(#clipPath22)" width="20" height="40" stroke="none" stroke-width="0.1" />
      <rect x="344" y="444" clip-path="url(#clipPath22)" fill="none" width="19" height="39" stroke="rgb(209,209,209)" stroke-width="0.1" />
      <text x="365" y="458" clip-path="url(#clipPath23)" fill="rgb(77,137,20)" stroke="none" stroke-width="0.1" xml:space="preserve">tsi12</text>
      <rect x="344" y="631" clip-path="url(#clipPath24)" width="20" height="40" stroke="none" stroke-width="0.1" />
      <rect x="344" y="631" clip-path="url(#clipPath24)" fill="none" width="19" height="39" stroke="rgb(209,209,209)" stroke-width="0.1" />
      <text x="365" y="645" clip-path="url(#clipPath25)" fill="rgb(77,137,20)" stroke="none" stroke-width="0.1" xml:space="preserve">tsi14</text>
      <rect x="344" y="971" clip-path="url(#clipPath26)" width="20" height="40" stroke="none" stroke-width="0.1" />
      <rect x="344" y="971" clip-path="url(#clipPath26)" fill="none" width="19" height="39" stroke="rgb(209,209,209)" stroke-width="0.1" />
      <text x="365" y="985" clip-path="url(#clipPath27)" fill="rgb(77,137,20)" stroke="none" stroke-width="0.1" xml:space="preserve">tsi17</text>
      <rect x="344" y="1091" clip-path="url(#clipPath28)" width="20" height="40" stroke="none" stroke-width="0.1" />
      <rect x="344" y="1091" clip-path="url(#clipPath28)" fill="none" width="19" height="39" stroke="rgb(209,209,209)" stroke-width="0.1" />
      <text x="365" y="1105" clip-path="url(#clipPath29)" fill="rgb(77,137,20)" stroke="none" stroke-width="0.1" xml:space="preserve">tsi18</text>
      <rect x="344" y="1211" clip-path="url(#clipPath30)" width="20" height="40" stroke="none" stroke-width="0.1" />
      <rect x="344" y="1211" clip-path="url(#clipPath30)" fill="none" width="19" height="39" stroke="rgb(209,209,209)" stroke-width="0.1" />
      <text x="365" y="1225" clip-path="url(#clipPath31)" fill="rgb(77,137,20)" stroke="none" stroke-width="0.1" xml:space="preserve">tsi19</text>
      <rect x="423" y="10" clip-path="url(#clipPath32)" fill="rgb(255,245,181)" width="128" height="50" stroke="none" stroke-width="0.1" />
      <rect x="423" y="10" clip-path="url(#clipPath32)" fill="none" width="127" height="49" stroke="black" stroke-width="0.1" />
      <text x="466" y="32" clip-path="url(#clipPath33)" fill="black" stroke="none" stroke-width="0.1" xml:space="preserve">tango</text>
      <text x="424" y="49" clip-path="url(#clipPath33)" fill="black" stroke="none" stroke-width="0.1" xml:space="preserve">: actComCompany</text>
    </g>
    <g stroke-width="1.1" font-size="14" stroke-dasharray="10,10" font-family="'Lucida Sans'" stroke-linecap="butt">
      <line clip-path="url(#clipPath34)" fill="none" x1="486" x2="486" y1="60" y2="1301" />
      <rect x="477" y="715" clip-path="url(#clipPath35)" fill="rgb(77,137,20)" width="20" height="40" stroke="none" />
    </g>
    <g stroke-linecap="butt" font-size="14" fill="rgb(77,137,20)" font-family="'Lucida Sans'" stroke="rgb(77,137,20)" stroke-width="2.1">
      <rect x="478" y="716" clip-path="url(#clipPath35)" fill="none" width="18" height="38" />
      <text xml:space="preserve" x="498" y="729" clip-path="url(#clipPath36)" stroke="none">tsi15</text>
      <rect x="477" y="399" clip-path="url(#clipPath37)" fill="rgb(204,242,166)" width="20" height="40" stroke="none" />
      <rect x="477" y="399" clip-path="url(#clipPath37)" fill="none" width="19" height="39" stroke="rgb(209,209,209)" stroke-width="0.1" />
      <text x="498" y="413" clip-path="url(#clipPath38)" stroke="none" stroke-width="0.1" xml:space="preserve">tsi12</text>
      <rect x="477" y="791" clip-path="url(#clipPath39)" fill="rgb(204,242,166)" width="20" height="40" stroke="none" stroke-width="0.1" />
      <rect x="477" y="791" clip-path="url(#clipPath39)" fill="none" width="19" height="39" stroke="rgb(209,209,209)" stroke-width="0.1" />
      <text x="498" y="805" clip-path="url(#clipPath40)" stroke="none" stroke-width="0.1" xml:space="preserve">tsi15</text>
      <rect x="561" y="10" clip-path="url(#clipPath41)" fill="rgb(255,245,181)" width="117" height="50" stroke="none" stroke-width="0.1" />
      <rect x="561" y="10" clip-path="url(#clipPath41)" fill="none" width="116" height="49" stroke="black" stroke-width="0.1" />
      <text x="589" y="32" clip-path="url(#clipPath42)" fill="black" stroke="none" stroke-width="0.1" xml:space="preserve">theClock</text>
      <text x="575" y="49" clip-path="url(#clipPath42)" fill="black" stroke="none" stroke-width="0.1" xml:space="preserve">: actActivator</text>
    </g>
    <g stroke-width="1.1" font-size="14" stroke-dasharray="10,10" font-family="'Lucida Sans'" stroke-linecap="butt">
      <line clip-path="url(#clipPath43)" fill="none" x1="618" x2="618" y1="60" y2="1301" />
      <rect x="609" y="519" clip-path="url(#clipPath44)" fill="rgb(77,137,20)" width="20" height="40" stroke="none" />
    </g>
    <g stroke-linecap="butt" font-size="14" fill="rgb(77,137,20)" font-family="'Lucida Sans'" stroke="rgb(77,137,20)" stroke-width="2.1">
      <rect x="610" y="520" clip-path="url(#clipPath44)" fill="none" width="18" height="38" />
      <text xml:space="preserve" x="630" y="533" clip-path="url(#clipPath45)" stroke="none">tsi13</text>
      <rect x="609" y="851" clip-path="url(#clipPath46)" width="20" height="40" stroke="none" />
      <rect x="610" y="852" clip-path="url(#clipPath46)" fill="none" width="18" height="38" />
      <text xml:space="preserve" x="630" y="865" clip-path="url(#clipPath47)" stroke="none">tsi16</text>
      <rect x="10" y="10" clip-path="url(#clipPath48)" fill="rgb(238,201,142)" width="70" height="30" stroke="none" />
      <rect x="10" y="10" clip-path="url(#clipPath48)" fill="none" width="69" height="29" stroke="black" stroke-width="0.1" />
      <text x="21" y="30" clip-path="url(#clipPath49)" fill="black" stroke="none" stroke-width="0.1" xml:space="preserve">System</text>
    </g>
    <g stroke-width="1.1" font-size="14" stroke-dasharray="10,10" font-family="'Lucida Sans'" stroke-linecap="butt">
      <line clip-path="url(#clipPath50)" fill="none" x1="44" x2="44" y1="40" y2="1301" />
    </g>
    <g stroke-linecap="butt" font-size="14" fill="rgb(136,136,136)" font-family="'Lucida Sans'" stroke="rgb(136,136,136)" stroke-width="2.1">
      <line clip-path="url(#clipPath51)" fill="none" x1="344" x2="45" y1="90" y2="90" />
      <text x="56" y="86" clip-path="url(#clipPath52)" fill="black" stroke="none" xml:space="preserve">oeLogin(steve,pwdMessirExcalibur2017)</text>
      <line clip-path="url(#clipPath53)" fill="none" x1="52" x2="45" y1="87" y2="90" />
      <line clip-path="url(#clipPath53)" fill="none" x1="45" x2="52" y1="90" y2="93" />
      <line clip-path="url(#clipPath51)" fill="none" x1="344" x2="45" y1="210" y2="210" />
      <text x="55" y="202" clip-path="url(#clipPath54)" fill="black" stroke="none" xml:space="preserve">oeGetCrisisSet(pending)</text>
      <line clip-path="url(#clipPath55)" fill="none" x1="52" x2="45" y1="207" y2="210" />
      <line clip-path="url(#clipPath55)" fill="none" x1="45" x2="52" y1="210" y2="213" />
      <line clip-path="url(#clipPath51)" fill="none" x1="344" x2="45" y1="330" y2="330" />
      <text x="55" y="321" clip-path="url(#clipPath56)" fill="black" stroke="none" xml:space="preserve">oeSetCrisisHandler(1)</text>
      <line clip-path="url(#clipPath57)" fill="none" x1="52" x2="45" y1="327" y2="330" />
      <line clip-path="url(#clipPath57)" fill="none" x1="45" x2="52" y1="330" y2="333" />
      <line clip-path="url(#clipPath51)" fill="none" x1="609" x2="45" y1="519" y2="519" />
      <text x="56" y="508" clip-path="url(#clipPath58)" fill="black" stroke="none" xml:space="preserve">oeSetClock(2017:11:26 - 10:45:00)</text>
      <line clip-path="url(#clipPath59)" fill="none" x1="52" x2="45" y1="516" y2="519" />
      <line clip-path="url(#clipPath59)" fill="none" x1="45" x2="52" y1="519" y2="522" />
      <line clip-path="url(#clipPath51)" fill="none" x1="344" x2="45" y1="571" y2="571" />
      <text x="55" y="562" clip-path="url(#clipPath60)" fill="black" stroke="none" xml:space="preserve">oeValidateAlert(1)</text>
      <line clip-path="url(#clipPath61)" fill="none" x1="52" x2="45" y1="568" y2="571" />
      <line clip-path="url(#clipPath61)" fill="none" x1="45" x2="52" y1="571" y2="574" />
      <line clip-path="url(#clipPath51)" fill="none" x1="477" x2="45" y1="715" y2="715" />
      <text x="50" y="691" clip-path="url(#clipPath62)" fill="black" stroke="none" xml:space="preserve">oeAlert(witness,2017:11:26,10:20:00,+3524666445000,</text>
      <text x="76" y="708" clip-path="url(#clipPath62)" fill="black" stroke="none" xml:space="preserve">49.627095:6.160251,A car crash just happened.)</text>
      <line clip-path="url(#clipPath63)" fill="none" x1="52" x2="45" y1="712" y2="715" />
      <line clip-path="url(#clipPath63)" fill="none" x1="45" x2="52" y1="715" y2="718" />
      <line clip-path="url(#clipPath51)" fill="none" x1="609" x2="45" y1="851" y2="851" />
      <text x="51" y="840" clip-path="url(#clipPath64)" fill="black" stroke="none" xml:space="preserve">oeSetClock(2017:11:26 - 12:45:00)</text>
      <line clip-path="url(#clipPath65)" fill="none" x1="52" x2="45" y1="848" y2="851" />
      <line clip-path="url(#clipPath65)" fill="none" x1="45" x2="52" y1="851" y2="854" />
      <line clip-path="url(#clipPath51)" fill="none" x1="344" x2="45" y1="911" y2="911" />
      <text x="55" y="902" clip-path="url(#clipPath66)" fill="black" stroke="none" xml:space="preserve">oeSetCrisisStatus(1,solved)</text>
      <line clip-path="url(#clipPath67)" fill="none" x1="52" x2="45" y1="908" y2="911" />
      <line clip-path="url(#clipPath67)" fill="none" x1="45" x2="52" y1="911" y2="914" />
      <line clip-path="url(#clipPath51)" fill="none" x1="344" x2="45" y1="1031" y2="1031" />
      <text x="47" y="1025" clip-path="url(#clipPath68)" fill="black" stroke="none" xml:space="preserve">oeReportOnCrisis(1,3 victims sent to hospital, 2 cars evacuated and 4 rescue unit mobilized)</text>
      <line clip-path="url(#clipPath69)" fill="none" x1="52" x2="45" y1="1028" y2="1031" />
      <line clip-path="url(#clipPath69)" fill="none" x1="45" x2="52" y1="1031" y2="1034" />
      <line clip-path="url(#clipPath51)" fill="none" x1="344" x2="45" y1="1151" y2="1151" />
      <text x="48" y="1142" clip-path="url(#clipPath70)" fill="black" stroke="none" xml:space="preserve">oeCloseCrisis(1)</text>
      <line clip-path="url(#clipPath71)" fill="none" x1="52" x2="45" y1="1148" y2="1151" />
      <line clip-path="url(#clipPath71)" fill="none" x1="45" x2="52" y1="1151" y2="1154" />
      <line clip-path="url(#clipPath51)" fill="none" x1="344" x2="45" y1="140" y2="140" stroke-dasharray="5,5" />
      <text x="49" y="131" clip-path="url(#clipPath72)" fill="black" stroke-dasharray="5,5" stroke="none" xml:space="preserve">ieMessage(You are logged ! Welcome ...)</text>
      <line clip-path="url(#clipPath73)" fill="none" x1="337" x2="344" y1="143" y2="140" />
      <line clip-path="url(#clipPath73)" fill="none" x1="344" x2="337" y1="140" y2="137" />
      <line clip-path="url(#clipPath51)" fill="none" x1="344" x2="45" y1="258" y2="258" stroke-dasharray="5,5" />
      <text x="48" y="251" clip-path="url(#clipPath74)" fill="black" stroke-dasharray="5,5" stroke="none" xml:space="preserve">ieSendACrisis(crisis with ID 1 details)</text>
      <line clip-path="url(#clipPath75)" fill="none" x1="337" x2="344" y1="261" y2="258" />
      <line clip-path="url(#clipPath75)" fill="none" x1="344" x2="337" y1="258" y2="255" />
      <line clip-path="url(#clipPath51)" fill="none" x1="477" x2="45" y1="399" y2="399" stroke-dasharray="5,5" />
      <text x="45" y="390" clip-path="url(#clipPath76)" fill="black" stroke-dasharray="5,5" stroke="none" xml:space="preserve">ieSmsSend(+3524666445252,The handling of your alert by our services is in progress !)</text>
      <line clip-path="url(#clipPath77)" fill="none" x1="470" x2="477" y1="402" y2="399" />
      <line clip-path="url(#clipPath77)" fill="none" x1="477" x2="470" y1="399" y2="396" />
      <line clip-path="url(#clipPath51)" fill="none" x1="344" x2="45" y1="444" y2="444" stroke-dasharray="5,5" />
      <text x="51" y="431" clip-path="url(#clipPath78)" fill="black" stroke-dasharray="5,5" stroke="none" xml:space="preserve">ieMessage(You are now considered as handling the crisis !)</text>
      <line clip-path="url(#clipPath79)" fill="none" x1="337" x2="344" y1="447" y2="444" />
      <line clip-path="url(#clipPath79)" fill="none" x1="344" x2="337" y1="444" y2="441" />
      <line clip-path="url(#clipPath51)" fill="none" x1="344" x2="45" y1="631" y2="631" stroke-dasharray="5,5" />
      <text x="50" y="626" clip-path="url(#clipPath80)" fill="black" stroke-dasharray="5,5" stroke="none" xml:space="preserve">ieMessage(The Alert is now declared as valid !)</text>
      <line clip-path="url(#clipPath81)" fill="none" x1="337" x2="344" y1="634" y2="631" />
      <line clip-path="url(#clipPath81)" fill="none" x1="344" x2="337" y1="631" y2="628" />
      <line clip-path="url(#clipPath51)" fill="none" x1="477" x2="45" y1="791" y2="791" stroke-dasharray="5,5" />
      <text x="53" y="780" clip-path="url(#clipPath82)" fill="black" stroke-dasharray="5,5" stroke="none" xml:space="preserve">ieSmsSend(+3524666445000,Your alert has been registered. We will handle it and keep you informed)</text>
      <line clip-path="url(#clipPath83)" fill="none" x1="470" x2="477" y1="794" y2="791" />
      <line clip-path="url(#clipPath83)" fill="none" x1="477" x2="470" y1="791" y2="788" />
      <line clip-path="url(#clipPath51)" fill="none" x1="344" x2="45" y1="971" y2="971" stroke-dasharray="5,5" />
      <text x="51" y="960" clip-path="url(#clipPath84)" fill="black" stroke-dasharray="5,5" stroke="none" xml:space="preserve">ieMessage(The crisis status has been updated !)</text>
      <line clip-path="url(#clipPath85)" fill="none" x1="337" x2="344" y1="974" y2="971" />
      <line clip-path="url(#clipPath85)" fill="none" x1="344" x2="337" y1="971" y2="968" />
      <line clip-path="url(#clipPath51)" fill="none" x1="344" x2="45" y1="1091" y2="1091" stroke-dasharray="5,5" />
      <text x="50" y="1083" clip-path="url(#clipPath86)" fill="black" stroke-dasharray="5,5" stroke="none" xml:space="preserve">ieMessage(The crisis comment has been updated !)</text>
      <line clip-path="url(#clipPath87)" fill="none" x1="337" x2="344" y1="1094" y2="1091" />
      <line clip-path="url(#clipPath87)" fill="none" x1="344" x2="337" y1="1091" y2="1088" />
      <line clip-path="url(#clipPath51)" fill="none" x1="344" x2="45" y1="1211" y2="1211" stroke-dasharray="5,5" />
      <text x="49" y="1205" clip-path="url(#clipPath88)" fill="black" stroke-dasharray="5,5" stroke="none" xml:space="preserve">ieMessage(The crisis is now closed !)</text>
      <line clip-path="url(#clipPath89)" fill="none" x1="337" x2="344" y1="1214" y2="1211" />
      <line clip-path="url(#clipPath89)" fill="none" x1="344" x2="337" y1="1211" y2="1208" />
    </g>
  </g>
</svg>

