<?xml version="1.0" encoding="UTF-8"?>
<svg xmlns="http://www.w3.org/2000/svg" xmlns:xlink="http://www.w3.org/1999/xlink" stroke-dasharray="none" shape-rendering="auto" font-family="'Dialog'" width="825" text-rendering="auto" fill-opacity="1" contentScriptType="text/ecmascript" color-interpolation="auto" color-rendering="auto" preserveAspectRatio="xMidYMid meet" font-size="12" viewBox="0 0 825 1085" fill="black" stroke="black" image-rendering="auto" stroke-miterlimit="10" zoomAndPan="magnify" version="1.0" stroke-linecap="square" stroke-linejoin="miter" contentStyleType="text/css" font-style="normal" height="1085" stroke-width="1" stroke-dashoffset="0" font-weight="normal" stroke-opacity="1">
  <!--Generated by the Batik Graphics2D SVG Generator-->
  <defs id="genericDefs" />
  <g>
    <defs id="defs1">
      <clipPath clipPathUnits="userSpaceOnUse" id="clipPath1">
        <path d="M9 9 L81 9 L81 41 L9 41 L9 9 Z" />
      </clipPath>
      <clipPath clipPathUnits="userSpaceOnUse" id="clipPath2">
        <path d="M9 9 L85 9 L85 41 L9 41 L9 9 Z" />
      </clipPath>
      <clipPath clipPathUnits="userSpaceOnUse" id="clipPath3">
        <path d="M39 39 L51 39 L51 1076 L39 1076 L39 39 Z" />
      </clipPath>
      <clipPath clipPathUnits="userSpaceOnUse" id="clipPath4">
        <path d="M168 9 L286 9 L286 61 L168 61 L168 9 Z" />
      </clipPath>
      <clipPath clipPathUnits="userSpaceOnUse" id="clipPath5">
        <path d="M168 9 L289 9 L289 61 L168 61 L168 9 Z" />
      </clipPath>
      <clipPath clipPathUnits="userSpaceOnUse" id="clipPath6">
        <path d="M221 59 L233 59 L233 1076 L221 1076 L221 59 Z" />
      </clipPath>
      <clipPath clipPathUnits="userSpaceOnUse" id="clipPath7">
        <path d="M216 89 L238 89 L238 131 L216 131 L216 89 Z" />
      </clipPath>
      <clipPath clipPathUnits="userSpaceOnUse" id="clipPath8">
        <path d="M237 89 L284 89 L284 108 L237 108 L237 89 Z" />
      </clipPath>
      <clipPath clipPathUnits="userSpaceOnUse" id="clipPath9">
        <path d="M294 9 L395 9 L395 61 L294 61 L294 9 Z" />
      </clipPath>
      <clipPath clipPathUnits="userSpaceOnUse" id="clipPath10">
        <path d="M294 9 L398 9 L398 61 L294 61 L294 9 Z" />
      </clipPath>
      <clipPath clipPathUnits="userSpaceOnUse" id="clipPath11">
        <path d="M338 59 L350 59 L350 1076 L338 1076 L338 59 Z" />
      </clipPath>
      <clipPath clipPathUnits="userSpaceOnUse" id="clipPath12">
        <path d="M333 149 L355 149 L355 191 L333 191 L333 149 Z" />
      </clipPath>
      <clipPath clipPathUnits="userSpaceOnUse" id="clipPath13">
        <path d="M354 149 L401 149 L401 168 L354 168 L354 149 Z" />
      </clipPath>
      <clipPath clipPathUnits="userSpaceOnUse" id="clipPath14">
        <path d="M333 569 L355 569 L355 611 L333 611 L333 569 Z" />
      </clipPath>
      <clipPath clipPathUnits="userSpaceOnUse" id="clipPath15">
        <path d="M354 569 L401 569 L401 588 L354 588 L354 569 Z" />
      </clipPath>
      <clipPath clipPathUnits="userSpaceOnUse" id="clipPath16">
        <path d="M333 789 L355 789 L355 831 L333 831 L333 789 Z" />
      </clipPath>
      <clipPath clipPathUnits="userSpaceOnUse" id="clipPath17">
        <path d="M354 789 L401 789 L401 808 L354 808 L354 789 Z" />
      </clipPath>
      <clipPath clipPathUnits="userSpaceOnUse" id="clipPath18">
        <path d="M333 849 L355 849 L355 891 L333 891 L333 849 Z" />
      </clipPath>
      <clipPath clipPathUnits="userSpaceOnUse" id="clipPath19">
        <path d="M354 849 L401 849 L401 868 L354 868 L354 849 Z" />
      </clipPath>
      <clipPath clipPathUnits="userSpaceOnUse" id="clipPath20">
        <path d="M403 9 L534 9 L534 61 L403 61 L403 9 Z" />
      </clipPath>
      <clipPath clipPathUnits="userSpaceOnUse" id="clipPath21">
        <path d="M403 9 L536 9 L536 61 L403 61 L403 9 Z" />
      </clipPath>
      <clipPath clipPathUnits="userSpaceOnUse" id="clipPath22">
        <path d="M403 9 L537 9 L537 61 L403 61 L403 9 Z" />
      </clipPath>
      <clipPath clipPathUnits="userSpaceOnUse" id="clipPath23">
        <path d="M462 59 L474 59 L474 1076 L462 1076 L462 59 Z" />
      </clipPath>
      <clipPath clipPathUnits="userSpaceOnUse" id="clipPath24">
        <path d="M457 209 L479 209 L479 251 L457 251 L457 209 Z" />
      </clipPath>
      <clipPath clipPathUnits="userSpaceOnUse" id="clipPath25">
        <path d="M478 209 L525 209 L525 228 L478 228 L478 209 Z" />
      </clipPath>
      <clipPath clipPathUnits="userSpaceOnUse" id="clipPath26">
        <path d="M457 329 L479 329 L479 371 L457 371 L457 329 Z" />
      </clipPath>
      <clipPath clipPathUnits="userSpaceOnUse" id="clipPath27">
        <path d="M478 329 L525 329 L525 348 L478 348 L478 329 Z" />
      </clipPath>
      <clipPath clipPathUnits="userSpaceOnUse" id="clipPath28">
        <path d="M457 449 L479 449 L479 491 L457 491 L457 449 Z" />
      </clipPath>
      <clipPath clipPathUnits="userSpaceOnUse" id="clipPath29">
        <path d="M478 449 L525 449 L525 468 L478 468 L478 449 Z" />
      </clipPath>
      <clipPath clipPathUnits="userSpaceOnUse" id="clipPath30">
        <path d="M457 258 L479 258 L479 300 L457 300 L457 258 Z" />
      </clipPath>
      <clipPath clipPathUnits="userSpaceOnUse" id="clipPath31">
        <path d="M478 258 L514 258 L514 277 L478 277 L478 258 Z" />
      </clipPath>
      <clipPath clipPathUnits="userSpaceOnUse" id="clipPath32">
        <path d="M457 381 L479 381 L479 423 L457 423 L457 381 Z" />
      </clipPath>
      <clipPath clipPathUnits="userSpaceOnUse" id="clipPath33">
        <path d="M478 381 L514 381 L514 400 L478 400 L478 381 Z" />
      </clipPath>
      <clipPath clipPathUnits="userSpaceOnUse" id="clipPath34">
        <path d="M457 499 L479 499 L479 541 L457 541 L457 499 Z" />
      </clipPath>
      <clipPath clipPathUnits="userSpaceOnUse" id="clipPath35">
        <path d="M478 499 L514 499 L514 518 L478 518 L478 499 Z" />
      </clipPath>
      <clipPath clipPathUnits="userSpaceOnUse" id="clipPath36">
        <path d="M457 915 L479 915 L479 957 L457 957 L457 915 Z" />
      </clipPath>
      <clipPath clipPathUnits="userSpaceOnUse" id="clipPath37">
        <path d="M478 915 L514 915 L514 934 L478 934 L478 915 Z" />
      </clipPath>
      <clipPath clipPathUnits="userSpaceOnUse" id="clipPath38">
        <path d="M542 9 L678 9 L678 61 L542 61 L542 9 Z" />
      </clipPath>
      <clipPath clipPathUnits="userSpaceOnUse" id="clipPath39">
        <path d="M542 9 L682 9 L682 61 L542 61 L542 9 Z" />
      </clipPath>
      <clipPath clipPathUnits="userSpaceOnUse" id="clipPath40">
        <path d="M604 59 L616 59 L616 1076 L604 1076 L604 59 Z" />
      </clipPath>
      <clipPath clipPathUnits="userSpaceOnUse" id="clipPath41">
        <path d="M599 664 L621 664 L621 706 L599 706 L599 664 Z" />
      </clipPath>
      <clipPath clipPathUnits="userSpaceOnUse" id="clipPath42">
        <path d="M620 664 L667 664 L667 683 L620 683 L620 664 Z" />
      </clipPath>
      <clipPath clipPathUnits="userSpaceOnUse" id="clipPath43">
        <path d="M599 729 L621 729 L621 771 L599 771 L599 729 Z" />
      </clipPath>
      <clipPath clipPathUnits="userSpaceOnUse" id="clipPath44">
        <path d="M620 729 L656 729 L656 748 L620 748 L620 729 Z" />
      </clipPath>
      <clipPath clipPathUnits="userSpaceOnUse" id="clipPath45">
        <path d="M686 9 L816 9 L816 61 L686 61 L686 9 Z" />
      </clipPath>
      <clipPath clipPathUnits="userSpaceOnUse" id="clipPath46">
        <path d="M686 9 L819 9 L819 61 L686 61 L686 9 Z" />
      </clipPath>
      <clipPath clipPathUnits="userSpaceOnUse" id="clipPath47">
        <path d="M745 59 L757 59 L757 1076 L745 1076 L745 59 Z" />
      </clipPath>
      <clipPath clipPathUnits="userSpaceOnUse" id="clipPath48">
        <path d="M740 984 L762 984 L762 1026 L740 1026 L740 984 Z" />
      </clipPath>
      <clipPath clipPathUnits="userSpaceOnUse" id="clipPath49">
        <path d="M761 984 L797 984 L797 1003 L761 1003 L761 984 Z" />
      </clipPath>
      <clipPath clipPathUnits="userSpaceOnUse" id="clipPath50">
        <path d="M-1 -1 L826 -1 L826 1086 L-1 1086 L-1 -1 Z" />
      </clipPath>
      <clipPath clipPathUnits="userSpaceOnUse" id="clipPath51">
        <path d="M50 67 L309 67 L309 86 L50 86 L50 67 Z" />
      </clipPath>
      <clipPath clipPathUnits="userSpaceOnUse" id="clipPath52">
        <path d="M43 85 L55 85 L55 96 L43 96 L43 85 Z" />
      </clipPath>
      <clipPath clipPathUnits="userSpaceOnUse" id="clipPath53">
        <path d="M52 128 L308 128 L308 147 L52 147 L52 128 Z" />
      </clipPath>
      <clipPath clipPathUnits="userSpaceOnUse" id="clipPath54">
        <path d="M43 145 L55 145 L55 156 L43 156 L43 145 Z" />
      </clipPath>
      <clipPath clipPathUnits="userSpaceOnUse" id="clipPath55">
        <path d="M46 185 L300 185 L300 204 L46 204 L46 185 Z" />
      </clipPath>
      <clipPath clipPathUnits="userSpaceOnUse" id="clipPath56">
        <path d="M43 205 L55 205 L55 216 L43 216 L43 205 Z" />
      </clipPath>
      <clipPath clipPathUnits="userSpaceOnUse" id="clipPath57">
        <path d="M49 304 L448 304 L448 323 L49 323 L49 304 Z" />
      </clipPath>
      <clipPath clipPathUnits="userSpaceOnUse" id="clipPath58">
        <path d="M43 325 L55 325 L55 336 L43 336 L43 325 Z" />
      </clipPath>
      <clipPath clipPathUnits="userSpaceOnUse" id="clipPath59">
        <path d="M49 425 L129 425 L129 444 L49 444 L49 425 Z" />
      </clipPath>
      <clipPath clipPathUnits="userSpaceOnUse" id="clipPath60">
        <path d="M43 445 L55 445 L55 456 L43 456 L43 445 Z" />
      </clipPath>
      <clipPath clipPathUnits="userSpaceOnUse" id="clipPath61">
        <path d="M53 547 L309 547 L309 566 L53 566 L53 547 Z" />
      </clipPath>
      <clipPath clipPathUnits="userSpaceOnUse" id="clipPath62">
        <path d="M43 565 L55 565 L55 576 L43 576 L43 565 Z" />
      </clipPath>
      <clipPath clipPathUnits="userSpaceOnUse" id="clipPath63">
        <path d="M34 604 L537 604 L537 683 L34 683 L34 604 Z" />
      </clipPath>
      <clipPath clipPathUnits="userSpaceOnUse" id="clipPath64">
        <path d="M43 660 L55 660 L55 671 L43 671 L43 660 Z" />
      </clipPath>
      <clipPath clipPathUnits="userSpaceOnUse" id="clipPath65">
        <path d="M50 762 L306 762 L306 781 L50 781 L50 762 Z" />
      </clipPath>
      <clipPath clipPathUnits="userSpaceOnUse" id="clipPath66">
        <path d="M43 785 L55 785 L55 796 L43 796 L43 785 Z" />
      </clipPath>
      <clipPath clipPathUnits="userSpaceOnUse" id="clipPath67">
        <path d="M48 824 L246 824 L246 843 L48 843 L48 824 Z" />
      </clipPath>
      <clipPath clipPathUnits="userSpaceOnUse" id="clipPath68">
        <path d="M43 845 L55 845 L55 856 L43 856 L43 845 Z" />
      </clipPath>
      <clipPath clipPathUnits="userSpaceOnUse" id="clipPath69">
        <path d="M51 235 L331 235 L331 254 L51 254 L51 235 Z" />
      </clipPath>
      <clipPath clipPathUnits="userSpaceOnUse" id="clipPath70">
        <path d="M449 254 L461 254 L461 265 L449 265 L449 254 Z" />
      </clipPath>
      <clipPath clipPathUnits="userSpaceOnUse" id="clipPath71">
        <path d="M49 359 L265 359 L265 378 L49 378 L49 359 Z" />
      </clipPath>
      <clipPath clipPathUnits="userSpaceOnUse" id="clipPath72">
        <path d="M449 377 L461 377 L461 388 L449 388 L449 377 Z" />
      </clipPath>
      <clipPath clipPathUnits="userSpaceOnUse" id="clipPath73">
        <path d="M50 477 L360 477 L360 496 L50 496 L50 477 Z" />
      </clipPath>
      <clipPath clipPathUnits="userSpaceOnUse" id="clipPath74">
        <path d="M449 495 L461 495 L461 506 L449 506 L449 495 Z" />
      </clipPath>
      <clipPath clipPathUnits="userSpaceOnUse" id="clipPath75">
        <path d="M46 708 L755 708 L755 727 L46 727 L46 708 Z" />
      </clipPath>
      <clipPath clipPathUnits="userSpaceOnUse" id="clipPath76">
        <path d="M591 725 L603 725 L603 736 L591 736 L591 725 Z" />
      </clipPath>
      <clipPath clipPathUnits="userSpaceOnUse" id="clipPath77">
        <path d="M56 894 L656 894 L656 913 L56 913 L56 894 Z" />
      </clipPath>
      <clipPath clipPathUnits="userSpaceOnUse" id="clipPath78">
        <path d="M449 911 L461 911 L461 922 L449 922 L449 911 Z" />
      </clipPath>
      <clipPath clipPathUnits="userSpaceOnUse" id="clipPath79">
        <path d="M52 962 L652 962 L652 981 L52 981 L52 962 Z" />
      </clipPath>
      <clipPath clipPathUnits="userSpaceOnUse" id="clipPath80">
        <path d="M732 980 L744 980 L744 991 L732 991 L732 980 Z" />
      </clipPath>
    </defs>
    <g font-size="14" fill="rgb(238,201,142)" font-family="'Lucida Sans'" stroke-linejoin="round" stroke="rgb(238,201,142)" stroke-width="0" stroke-miterlimit="0">
      <rect x="10" y="10" clip-path="url(#clipPath1)" width="70" height="30" stroke="none" />
    </g>
    <g stroke-width="0.1" font-size="14" font-family="'Lucida Sans'" stroke-linecap="butt">
      <rect x="10" y="10" clip-path="url(#clipPath1)" fill="none" width="69" height="29" />
      <text xml:space="preserve" x="21" y="30" clip-path="url(#clipPath2)" stroke="none">System</text>
      <line clip-path="url(#clipPath3)" fill="none" x1="44" x2="44" y1="40" y2="1075" stroke-dasharray="10,10" stroke-width="1.1" />
    </g>
    <g stroke-linecap="butt" font-size="14" fill="rgb(255,245,181)" font-family="'Lucida Sans'" stroke-dasharray="10,10" stroke="rgb(255,245,181)" stroke-width="1.1">
      <rect x="169" y="10" clip-path="url(#clipPath4)" width="116" height="50" stroke="none" />
    </g>
    <g stroke-width="0.1" font-size="14" font-family="'Lucida Sans'" stroke-linecap="butt">
      <rect x="169" y="10" clip-path="url(#clipPath4)" fill="none" width="115" height="49" />
      <text xml:space="preserve" x="189" y="32" clip-path="url(#clipPath5)" stroke="none">theCreator</text>
      <text xml:space="preserve" x="174" y="49" clip-path="url(#clipPath5)" stroke="none">: actMsrCreator</text>
      <line clip-path="url(#clipPath6)" fill="none" x1="226" x2="226" y1="60" y2="1075" stroke-dasharray="10,10" stroke-width="1.1" />
    </g>
    <g stroke-linecap="butt" font-size="14" fill="rgb(39,76,114)" font-family="'Lucida Sans'" stroke-dasharray="10,10" stroke="rgb(39,76,114)" stroke-width="1.1">
      <rect x="217" y="90" clip-path="url(#clipPath7)" width="20" height="40" stroke="none" />
      <rect x="217" y="90" clip-path="url(#clipPath7)" fill="none" width="19" stroke-dasharray="none" height="39" stroke-width="0.1" />
    </g>
    <g stroke-width="0.1" font-size="14" font-family="'Lucida Sans'" stroke-linecap="butt">
      <text xml:space="preserve" x="238" y="104" clip-path="url(#clipPath8)" stroke="none">out01</text>
      <rect x="295" y="10" clip-path="url(#clipPath9)" fill="rgb(255,245,181)" width="99" height="50" stroke="none" />
      <rect x="295" y="10" clip-path="url(#clipPath9)" fill="none" width="98" height="49" />
      <text xml:space="preserve" x="314" y="32" clip-path="url(#clipPath10)" stroke="none">theClock</text>
      <text xml:space="preserve" x="300" y="49" clip-path="url(#clipPath10)" stroke="none">: actActivator</text>
      <line clip-path="url(#clipPath11)" fill="none" x1="343" x2="343" y1="60" y2="1075" stroke-dasharray="10,10" stroke-width="1.1" />
    </g>
    <g stroke-linecap="butt" font-size="14" fill="rgb(39,76,114)" font-family="'Lucida Sans'" stroke-dasharray="10,10" stroke="rgb(39,76,114)" stroke-width="1.1">
      <rect x="334" y="150" clip-path="url(#clipPath12)" width="20" height="40" stroke="none" />
      <rect x="334" y="150" clip-path="url(#clipPath12)" fill="none" width="19" stroke-dasharray="none" height="39" stroke-width="0.1" />
    </g>
    <g stroke-width="0.1" font-size="14" font-family="'Lucida Sans'" stroke-linecap="butt">
      <text xml:space="preserve" x="355" y="164" clip-path="url(#clipPath13)" stroke="none">out02</text>
      <rect x="334" y="570" clip-path="url(#clipPath14)" fill="rgb(39,76,114)" width="20" height="40" stroke="none" />
      <rect x="334" y="570" clip-path="url(#clipPath14)" fill="none" width="19" height="39" stroke="rgb(39,76,114)" />
      <text xml:space="preserve" x="355" y="584" clip-path="url(#clipPath15)" stroke="none">out06</text>
      <rect x="334" y="790" clip-path="url(#clipPath16)" fill="rgb(39,76,114)" width="20" height="40" stroke="none" />
      <rect x="334" y="790" clip-path="url(#clipPath16)" fill="none" width="19" height="39" stroke="rgb(39,76,114)" />
      <text xml:space="preserve" x="355" y="804" clip-path="url(#clipPath17)" stroke="none">out08</text>
      <rect x="334" y="850" clip-path="url(#clipPath18)" fill="rgb(39,76,114)" width="20" height="40" stroke="none" />
      <rect x="334" y="850" clip-path="url(#clipPath18)" fill="none" width="19" height="39" stroke="rgb(39,76,114)" />
      <text xml:space="preserve" x="355" y="864" clip-path="url(#clipPath19)" stroke="none">out09</text>
      <rect x="404" y="10" clip-path="url(#clipPath20)" fill="rgb(255,245,181)" width="129" height="50" stroke="none" />
      <rect x="404" y="10" clip-path="url(#clipPath20)" fill="none" width="128" height="49" />
      <text xml:space="preserve" x="458" y="32" clip-path="url(#clipPath21)" stroke="none">bill</text>
      <text xml:space="preserve" x="407" y="49" clip-path="url(#clipPath22)" stroke="none">: actAdministrator</text>
      <line clip-path="url(#clipPath23)" fill="none" x1="467" x2="467" y1="60" y2="1075" stroke-dasharray="10,10" stroke-width="1.1" />
    </g>
    <g stroke-linecap="butt" font-size="14" fill="rgb(39,76,114)" font-family="'Lucida Sans'" stroke-dasharray="10,10" stroke="rgb(39,76,114)" stroke-width="1.1">
      <rect x="458" y="210" clip-path="url(#clipPath24)" width="20" height="40" stroke="none" />
      <rect x="458" y="210" clip-path="url(#clipPath24)" fill="none" width="19" stroke-dasharray="none" height="39" stroke-width="0.1" />
    </g>
    <g stroke-width="0.1" font-size="14" font-family="'Lucida Sans'" stroke-linecap="butt">
      <text xml:space="preserve" x="479" y="224" clip-path="url(#clipPath25)" stroke="none">out03</text>
      <rect x="458" y="330" clip-path="url(#clipPath26)" fill="rgb(39,76,114)" width="20" height="40" stroke="none" />
      <rect x="458" y="330" clip-path="url(#clipPath26)" fill="none" width="19" height="39" stroke="rgb(39,76,114)" />
      <text xml:space="preserve" x="479" y="344" clip-path="url(#clipPath27)" stroke="none">out04</text>
      <rect x="458" y="450" clip-path="url(#clipPath28)" fill="rgb(39,76,114)" width="20" height="40" stroke="none" />
      <rect x="458" y="450" clip-path="url(#clipPath28)" fill="none" width="19" height="39" stroke="rgb(39,76,114)" />
      <text xml:space="preserve" x="479" y="464" clip-path="url(#clipPath29)" stroke="none">out05</text>
      <rect x="458" y="259" clip-path="url(#clipPath30)" fill="rgb(194,239,255)" width="20" height="40" stroke="none" />
      <rect x="458" y="259" clip-path="url(#clipPath30)" fill="none" width="19" height="39" stroke="rgb(194,239,255)" />
      <text xml:space="preserve" x="479" y="273" clip-path="url(#clipPath31)" stroke="none">in01</text>
      <rect x="458" y="382" clip-path="url(#clipPath32)" fill="rgb(194,239,255)" width="20" height="40" stroke="none" />
      <rect x="458" y="382" clip-path="url(#clipPath32)" fill="none" width="19" height="39" stroke="rgb(194,239,255)" />
      <text xml:space="preserve" x="479" y="396" clip-path="url(#clipPath33)" stroke="none">in02</text>
      <rect x="458" y="500" clip-path="url(#clipPath34)" fill="rgb(194,239,255)" width="20" height="40" stroke="none" />
      <rect x="458" y="500" clip-path="url(#clipPath34)" fill="none" width="19" height="39" stroke="rgb(194,239,255)" />
      <text xml:space="preserve" x="479" y="514" clip-path="url(#clipPath35)" stroke="none">in03</text>
      <rect x="458" y="916" clip-path="url(#clipPath36)" fill="rgb(194,239,255)" width="20" height="40" stroke="none" />
      <rect x="458" y="916" clip-path="url(#clipPath36)" fill="none" width="19" height="39" stroke="rgb(194,239,255)" />
      <text xml:space="preserve" x="479" y="930" clip-path="url(#clipPath37)" stroke="none">in05</text>
      <rect x="543" y="10" clip-path="url(#clipPath38)" fill="rgb(255,245,181)" width="134" height="50" stroke="none" />
      <rect x="543" y="10" clip-path="url(#clipPath38)" fill="none" width="133" height="49" />
      <text xml:space="preserve" x="589" y="32" clip-path="url(#clipPath39)" stroke="none">tango</text>
      <text xml:space="preserve" x="547" y="49" clip-path="url(#clipPath39)" stroke="none">: actComCompany</text>
      <line clip-path="url(#clipPath40)" fill="none" x1="609" x2="609" y1="60" y2="1075" stroke-dasharray="10,10" stroke-width="1.1" />
    </g>
    <g stroke-linecap="butt" font-size="14" fill="rgb(39,76,114)" font-family="'Lucida Sans'" stroke-dasharray="10,10" stroke="rgb(39,76,114)" stroke-width="1.1">
      <rect x="600" y="665" clip-path="url(#clipPath41)" width="20" height="40" stroke="none" />
      <rect x="600" y="665" clip-path="url(#clipPath41)" fill="none" width="19" stroke-dasharray="none" height="39" stroke-width="0.1" />
    </g>
    <g stroke-width="0.1" font-size="14" font-family="'Lucida Sans'" stroke-linecap="butt">
      <text xml:space="preserve" x="621" y="679" clip-path="url(#clipPath42)" stroke="none">out07</text>
      <rect x="600" y="730" clip-path="url(#clipPath43)" fill="rgb(194,239,255)" width="20" height="40" stroke="none" />
      <rect x="600" y="730" clip-path="url(#clipPath43)" fill="none" width="19" height="39" stroke="rgb(194,239,255)" />
      <text xml:space="preserve" x="621" y="744" clip-path="url(#clipPath44)" stroke="none">in04</text>
      <rect x="687" y="10" clip-path="url(#clipPath45)" fill="rgb(255,245,181)" width="128" height="50" stroke="none" />
      <rect x="687" y="10" clip-path="url(#clipPath45)" fill="none" width="127" height="49" />
      <text xml:space="preserve" x="733" y="32" clip-path="url(#clipPath46)" stroke="none">steve</text>
      <text xml:space="preserve" x="695" y="49" clip-path="url(#clipPath46)" stroke="none">: actCoordinator</text>
      <line clip-path="url(#clipPath47)" fill="none" x1="750" x2="750" y1="60" y2="1075" stroke-dasharray="10,10" stroke-width="1.1" />
    </g>
    <g stroke-linecap="butt" font-size="14" fill="rgb(194,239,255)" font-family="'Lucida Sans'" stroke-dasharray="10,10" stroke="rgb(194,239,255)" stroke-width="1.1">
      <rect x="741" y="985" clip-path="url(#clipPath48)" width="20" height="40" stroke="none" />
      <rect x="741" y="985" clip-path="url(#clipPath48)" fill="none" width="19" stroke-dasharray="none" height="39" stroke-width="0.1" />
    </g>
    <g stroke-width="0.1" font-size="14" font-family="'Lucida Sans'" stroke-linecap="butt">
      <text xml:space="preserve" x="762" y="999" clip-path="url(#clipPath49)" stroke="none">in06</text>
      <line clip-path="url(#clipPath50)" fill="none" x1="217" x2="45" y1="90" y2="90" stroke="rgb(136,136,136)" stroke-width="2.1" />
      <text x="51" y="82" clip-path="url(#clipPath51)" stroke="none" stroke-width="2.1" xml:space="preserve">oeCreateSystemAndEnvironment("4")</text>
      <line clip-path="url(#clipPath52)" fill="none" x1="52" x2="45" y1="87" y2="90" stroke="rgb(136,136,136)" stroke-width="2.1" />
      <line clip-path="url(#clipPath52)" fill="none" x1="45" x2="52" y1="90" y2="93" stroke="rgb(136,136,136)" stroke-width="2.1" />
      <line clip-path="url(#clipPath50)" fill="none" x1="334" x2="45" y1="150" y2="150" stroke="rgb(136,136,136)" stroke-width="2.1" />
      <text x="53" y="143" clip-path="url(#clipPath53)" stroke="none" stroke-width="2.1" xml:space="preserve">oeSetClock("2017:11:24 - 03:20:00")</text>
      <line clip-path="url(#clipPath54)" fill="none" x1="52" x2="45" y1="147" y2="150" stroke="rgb(136,136,136)" stroke-width="2.1" />
      <line clip-path="url(#clipPath54)" fill="none" x1="45" x2="52" y1="150" y2="153" stroke="rgb(136,136,136)" stroke-width="2.1" />
      <line clip-path="url(#clipPath50)" fill="none" x1="458" x2="45" y1="210" y2="210" stroke="rgb(136,136,136)" stroke-width="2.1" />
      <text x="47" y="200" clip-path="url(#clipPath55)" stroke="none" stroke-width="2.1" xml:space="preserve">oeLogin("icrashadmin","7WXC1359")</text>
      <line clip-path="url(#clipPath56)" fill="none" x1="52" x2="45" y1="207" y2="210" stroke="rgb(136,136,136)" stroke-width="2.1" />
      <line clip-path="url(#clipPath56)" fill="none" x1="45" x2="52" y1="210" y2="213" stroke="rgb(136,136,136)" stroke-width="2.1" />
      <line clip-path="url(#clipPath50)" fill="none" x1="458" x2="45" y1="330" y2="330" stroke="rgb(136,136,136)" stroke-width="2.1" />
      <text x="50" y="319" clip-path="url(#clipPath57)" stroke="none" stroke-width="2.1" xml:space="preserve">oeAddCoordinator("1","steve","pwdMessirExcalibur2017")</text>
      <line clip-path="url(#clipPath58)" fill="none" x1="52" x2="45" y1="327" y2="330" stroke="rgb(136,136,136)" stroke-width="2.1" />
      <line clip-path="url(#clipPath58)" fill="none" x1="45" x2="52" y1="330" y2="333" stroke="rgb(136,136,136)" stroke-width="2.1" />
      <line clip-path="url(#clipPath50)" fill="none" x1="458" x2="45" y1="450" y2="450" stroke="rgb(136,136,136)" stroke-width="2.1" />
      <text x="50" y="440" clip-path="url(#clipPath59)" stroke="none" stroke-width="2.1" xml:space="preserve">oeLogout()</text>
      <line clip-path="url(#clipPath60)" fill="none" x1="52" x2="45" y1="447" y2="450" stroke="rgb(136,136,136)" stroke-width="2.1" />
      <line clip-path="url(#clipPath60)" fill="none" x1="45" x2="52" y1="450" y2="453" stroke="rgb(136,136,136)" stroke-width="2.1" />
      <line clip-path="url(#clipPath50)" fill="none" x1="334" x2="45" y1="570" y2="570" stroke="rgb(136,136,136)" stroke-width="2.1" />
      <text x="54" y="562" clip-path="url(#clipPath61)" stroke="none" stroke-width="2.1" xml:space="preserve">oeSetClock("2017:11:26 - 10:15:00")</text>
      <line clip-path="url(#clipPath62)" fill="none" x1="52" x2="45" y1="567" y2="570" stroke="rgb(136,136,136)" stroke-width="2.1" />
      <line clip-path="url(#clipPath62)" fill="none" x1="45" x2="52" y1="570" y2="573" stroke="rgb(136,136,136)" stroke-width="2.1" />
      <line clip-path="url(#clipPath50)" fill="none" x1="600" x2="45" y1="665" y2="665" stroke="rgb(136,136,136)" stroke-width="2.1" />
      <text x="66" y="640" clip-path="url(#clipPath63)" stroke="none" stroke-width="2.1" xml:space="preserve">oeAlert("witness","2017:11:26","10:10:16","+3524666445252","</text>
      <text x="95" y="657" clip-path="url(#clipPath63)" stroke="none" stroke-width="2.1" xml:space="preserve">49.627675:6.159590","3 cars involved in an accident.")</text>
      <line clip-path="url(#clipPath64)" fill="none" x1="52" x2="45" y1="662" y2="665" stroke="rgb(136,136,136)" stroke-width="2.1" />
      <line clip-path="url(#clipPath64)" fill="none" x1="45" x2="52" y1="665" y2="668" stroke="rgb(136,136,136)" stroke-width="2.1" />
      <line clip-path="url(#clipPath50)" fill="none" x1="334" x2="45" y1="790" y2="790" stroke="rgb(136,136,136)" stroke-width="2.1" />
      <text x="51" y="777" clip-path="url(#clipPath65)" stroke="none" stroke-width="2.1" xml:space="preserve">oeSetClock("2017:11:26 - 10:30:00")</text>
      <line clip-path="url(#clipPath66)" fill="none" x1="52" x2="45" y1="787" y2="790" stroke="rgb(136,136,136)" stroke-width="2.1" />
      <line clip-path="url(#clipPath66)" fill="none" x1="45" x2="52" y1="790" y2="793" stroke="rgb(136,136,136)" stroke-width="2.1" />
      <line clip-path="url(#clipPath50)" fill="none" x1="334" x2="45" y1="850" y2="850" stroke="rgb(136,136,136)" stroke-width="2.1" />
      <text x="49" y="839" clip-path="url(#clipPath67)" stroke="none" stroke-width="2.1" xml:space="preserve">oeSollicitateCrisisHandling()</text>
      <line clip-path="url(#clipPath68)" fill="none" x1="52" x2="45" y1="847" y2="850" stroke="rgb(136,136,136)" stroke-width="2.1" />
      <line clip-path="url(#clipPath68)" fill="none" x1="45" x2="52" y1="850" y2="853" stroke="rgb(136,136,136)" stroke-width="2.1" />
    </g>
    <g stroke-linecap="butt" font-size="14" fill="rgb(136,136,136)" font-family="'Lucida Sans'" stroke-dasharray="5,5" stroke="rgb(136,136,136)" stroke-width="2.1">
      <line clip-path="url(#clipPath50)" fill="none" x1="458" x2="45" y1="259" y2="259" />
      <text x="52" y="250" clip-path="url(#clipPath69)" fill="black" stroke="none" xml:space="preserve">ieMessage(You are logged ! Welcome ...)</text>
      <line clip-path="url(#clipPath70)" fill="none" x1="451" x2="458" y1="262" y2="259" stroke-dasharray="none" />
      <line clip-path="url(#clipPath70)" fill="none" x1="458" x2="451" y1="259" y2="256" stroke-dasharray="none" />
      <line clip-path="url(#clipPath50)" fill="none" x1="458" x2="45" y1="382" y2="382" />
      <text x="50" y="374" clip-path="url(#clipPath71)" fill="black" stroke="none" xml:space="preserve">ieCoordinatorAddedreturned()</text>
      <line clip-path="url(#clipPath72)" fill="none" x1="451" x2="458" y1="385" y2="382" stroke-dasharray="none" />
      <line clip-path="url(#clipPath72)" fill="none" x1="458" x2="451" y1="382" y2="379" stroke-dasharray="none" />
      <line clip-path="url(#clipPath50)" fill="none" x1="458" x2="45" y1="500" y2="500" />
      <text x="51" y="492" clip-path="url(#clipPath73)" fill="black" stroke="none" xml:space="preserve">ieMessage(You are logged out ! Good Bye ...)</text>
      <line clip-path="url(#clipPath74)" fill="none" x1="451" x2="458" y1="503" y2="500" stroke-dasharray="none" />
      <line clip-path="url(#clipPath74)" fill="none" x1="458" x2="451" y1="500" y2="497" stroke-dasharray="none" />
      <line clip-path="url(#clipPath50)" fill="none" x1="600" x2="45" y1="730" y2="730" />
      <text x="47" y="723" clip-path="url(#clipPath75)" fill="black" stroke="none" xml:space="preserve">ieSmsSend(+3524666445252,Your alert has been registered. We will handle it and keep you informed)</text>
      <line clip-path="url(#clipPath76)" fill="none" x1="593" x2="600" y1="733" y2="730" stroke-dasharray="none" />
      <line clip-path="url(#clipPath76)" fill="none" x1="600" x2="593" y1="730" y2="727" stroke-dasharray="none" />
      <line clip-path="url(#clipPath50)" fill="none" x1="458" x2="45" y1="916" y2="916" />
      <text x="57" y="909" clip-path="url(#clipPath77)" fill="black" stroke="none" xml:space="preserve">ieMessage(There are alerts pending since more than the defined delay. Please REACT !)</text>
      <line clip-path="url(#clipPath78)" fill="none" x1="451" x2="458" y1="919" y2="916" stroke-dasharray="none" />
      <line clip-path="url(#clipPath78)" fill="none" x1="458" x2="451" y1="916" y2="913" stroke-dasharray="none" />
      <line clip-path="url(#clipPath50)" fill="none" x1="741" x2="45" y1="985" y2="985" />
      <text x="53" y="977" clip-path="url(#clipPath79)" fill="black" stroke="none" xml:space="preserve">ieMessage(There are alerts pending since more than the defined delay. Please REACT !)</text>
      <line clip-path="url(#clipPath80)" fill="none" x1="734" x2="741" y1="988" y2="985" stroke-dasharray="none" />
      <line clip-path="url(#clipPath80)" fill="none" x1="741" x2="734" y1="985" y2="982" stroke-dasharray="none" />
    </g>
  </g>
</svg>

