<?xml version="1.0" encoding="UTF-8"?>
<svg xmlns="http://www.w3.org/2000/svg" xmlns:xlink="http://www.w3.org/1999/xlink" stroke-dasharray="none" shape-rendering="auto" font-family="'Dialog'" width="862" text-rendering="auto" fill-opacity="1" contentScriptType="text/ecmascript" color-interpolation="auto" color-rendering="auto" preserveAspectRatio="xMidYMid meet" font-size="12" viewBox="0 0 862 370" fill="black" stroke="black" image-rendering="auto" stroke-miterlimit="10" zoomAndPan="magnify" version="1.0" stroke-linecap="square" stroke-linejoin="miter" contentStyleType="text/css" font-style="normal" height="370" stroke-width="1" stroke-dashoffset="0" font-weight="normal" stroke-opacity="1">
  <!--Generated by the Batik Graphics2D SVG Generator-->
  <defs id="genericDefs" />
  <g>
    <defs id="defs1">
      <clipPath clipPathUnits="userSpaceOnUse" id="clipPath1">
        <path d="M9 9 L81 9 L81 41 L9 41 L9 9 Z" />
      </clipPath>
      <clipPath clipPathUnits="userSpaceOnUse" id="clipPath2">
        <path d="M39 39 L51 39 L51 361 L39 361 L39 39 Z" />
      </clipPath>
      <clipPath clipPathUnits="userSpaceOnUse" id="clipPath3">
        <path d="M495 9 L693 9 L693 61 L495 61 L495 9 Z" />
      </clipPath>
      <clipPath clipPathUnits="userSpaceOnUse" id="clipPath4">
        <path d="M495 9 L698 9 L698 61 L495 61 L495 9 Z" />
      </clipPath>
      <clipPath clipPathUnits="userSpaceOnUse" id="clipPath5">
        <path d="M588 59 L600 59 L600 361 L588 361 L588 59 Z" />
      </clipPath>
      <clipPath clipPathUnits="userSpaceOnUse" id="clipPath6">
        <path d="M583 89 L605 89 L605 131 L583 131 L583 89 Z" />
      </clipPath>
      <clipPath clipPathUnits="userSpaceOnUse" id="clipPath7">
        <path d="M604 89 L669 89 L669 122 L604 122 L604 89 Z" />
      </clipPath>
      <clipPath clipPathUnits="userSpaceOnUse" id="clipPath8">
        <path d="M583 269 L605 269 L605 311 L583 311 L583 269 Z" />
      </clipPath>
      <clipPath clipPathUnits="userSpaceOnUse" id="clipPath9">
        <path d="M604 269 L654 269 L654 302 L604 302 L604 269 Z" />
      </clipPath>
      <clipPath clipPathUnits="userSpaceOnUse" id="clipPath10">
        <path d="M701 9 L853 9 L853 61 L701 61 L701 9 Z" />
      </clipPath>
      <clipPath clipPathUnits="userSpaceOnUse" id="clipPath11">
        <path d="M701 9 L859 9 L859 61 L701 61 L701 9 Z" />
      </clipPath>
      <clipPath clipPathUnits="userSpaceOnUse" id="clipPath12">
        <path d="M701 9 L858 9 L858 61 L701 61 L701 9 Z" />
      </clipPath>
      <clipPath clipPathUnits="userSpaceOnUse" id="clipPath13">
        <path d="M771 59 L783 59 L783 361 L771 361 L771 59 Z" />
      </clipPath>
      <clipPath clipPathUnits="userSpaceOnUse" id="clipPath14">
        <path d="M766 209 L788 209 L788 251 L766 251 L766 209 Z" />
      </clipPath>
      <clipPath clipPathUnits="userSpaceOnUse" id="clipPath15">
        <path d="M787 209 L852 209 L852 242 L787 242 L787 209 Z" />
      </clipPath>
      <clipPath clipPathUnits="userSpaceOnUse" id="clipPath16">
        <path d="M766 149 L788 149 L788 191 L766 191 L766 149 Z" />
      </clipPath>
      <clipPath clipPathUnits="userSpaceOnUse" id="clipPath17">
        <path d="M787 149 L837 149 L837 182 L787 182 L787 149 Z" />
      </clipPath>
      <clipPath clipPathUnits="userSpaceOnUse" id="clipPath18">
        <path d="M-1 -1 L863 -1 L863 371 L-1 371 L-1 -1 Z" />
      </clipPath>
      <clipPath clipPathUnits="userSpaceOnUse" id="clipPath19">
        <path d="M254 64 L379 64 L379 97 L254 97 L254 64 Z" />
      </clipPath>
      <clipPath clipPathUnits="userSpaceOnUse" id="clipPath20">
        <path d="M43 85 L55 85 L55 96 L43 96 L43 85 Z" />
      </clipPath>
      <clipPath clipPathUnits="userSpaceOnUse" id="clipPath21">
        <path d="M53 184 L763 184 L763 217 L53 217 L53 184 Z" />
      </clipPath>
      <clipPath clipPathUnits="userSpaceOnUse" id="clipPath22">
        <path d="M43 205 L55 205 L55 216 L43 216 L43 205 Z" />
      </clipPath>
      <clipPath clipPathUnits="userSpaceOnUse" id="clipPath23">
        <path d="M255 124 L562 124 L562 157 L255 157 L255 124 Z" />
      </clipPath>
      <clipPath clipPathUnits="userSpaceOnUse" id="clipPath24">
        <path d="M758 145 L770 145 L770 156 L758 156 L758 145 Z" />
      </clipPath>
      <clipPath clipPathUnits="userSpaceOnUse" id="clipPath25">
        <path d="M163 244 L471 244 L471 277 L163 277 L163 244 Z" />
      </clipPath>
      <clipPath clipPathUnits="userSpaceOnUse" id="clipPath26">
        <path d="M575 265 L587 265 L587 276 L575 276 L575 265 Z" />
      </clipPath>
    </defs>
    <g font-size="15" fill="rgb(238,201,142)" font-family="'Segoe UI'" stroke-linejoin="round" stroke="rgb(238,201,142)" stroke-width="0" stroke-miterlimit="0">
      <rect x="10" y="10" clip-path="url(#clipPath1)" width="70" height="30" stroke="none" />
    </g>
    <g stroke-width="0.1" font-size="15" font-family="'Segoe UI'" stroke-linecap="butt">
      <rect x="10" y="10" clip-path="url(#clipPath1)" fill="none" width="69" height="29" />
      <line clip-path="url(#clipPath2)" fill="none" x1="44" x2="44" y1="40" y2="360" stroke-dasharray="10,10" stroke-width="1.1" />
    </g>
    <g stroke-linecap="butt" font-size="15" fill="rgb(255,245,181)" font-family="'Segoe UI'" stroke-dasharray="10,10" stroke="rgb(255,245,181)" stroke-width="1.1">
      <rect x="496" y="10" clip-path="url(#clipPath3)" width="196" height="50" stroke="none" />
    </g>
    <g stroke-width="0.1" font-size="15" font-family="'Segoe UI'" stroke-linecap="butt">
      <rect x="496" y="10" clip-path="url(#clipPath3)" fill="none" width="195" height="49" />
      <text x="570" font-size="23" y="29" clip-path="url(#clipPath4)" stroke="none" xml:space="preserve">User</text>
      <text x="502" font-size="23" y="60" clip-path="url(#clipPath4)" stroke="none" xml:space="preserve">: actAdministrator</text>
      <line clip-path="url(#clipPath5)" fill="none" x1="593" x2="593" y1="60" y2="360" stroke-dasharray="10,10" stroke-width="1.1" />
    </g>
    <g stroke-linecap="butt" font-size="15" fill="rgb(39,76,114)" font-family="'Segoe UI'" stroke-dasharray="10,10" stroke="rgb(39,76,114)" stroke-width="1.1">
      <rect x="584" y="90" clip-path="url(#clipPath6)" width="20" height="40" stroke="none" />
      <rect x="584" y="90" clip-path="url(#clipPath6)" fill="none" width="19" stroke-dasharray="none" height="39" stroke-width="0.1" />
    </g>
    <g stroke-width="0.1" font-size="23" font-family="'Segoe UI'" stroke-linecap="butt">
      <text xml:space="preserve" x="605" y="115" clip-path="url(#clipPath7)" stroke="none">out01</text>
      <rect x="584" y="270" clip-path="url(#clipPath8)" fill="rgb(194,239,255)" width="20" height="40" stroke="none" />
      <rect x="584" y="270" clip-path="url(#clipPath8)" fill="none" width="19" height="39" stroke="rgb(194,239,255)" />
      <text xml:space="preserve" x="605" y="295" clip-path="url(#clipPath9)" stroke="none">in02</text>
      <rect x="702" y="10" clip-path="url(#clipPath10)" fill="rgb(255,245,181)" width="150" height="50" stroke="none" />
      <rect x="702" y="10" clip-path="url(#clipPath10)" fill="none" width="149" height="49" />
      <text xml:space="preserve" x="729" y="29" clip-path="url(#clipPath11)" stroke="none">Database</text>
      <text xml:space="preserve" x="708" y="60" clip-path="url(#clipPath12)" stroke="none">: actDatabase</text>
      <line clip-path="url(#clipPath13)" fill="none" x1="776" x2="776" y1="60" y2="360" stroke-dasharray="10,10" stroke-width="1.1" />
    </g>
    <g stroke-linecap="butt" font-size="15" fill="rgb(39,76,114)" font-family="'Segoe UI'" stroke-dasharray="10,10" stroke="rgb(39,76,114)" stroke-width="1.1">
      <rect x="767" y="210" clip-path="url(#clipPath14)" width="20" height="40" stroke="none" />
      <rect x="767" y="210" clip-path="url(#clipPath14)" fill="none" width="19" stroke-dasharray="none" height="39" stroke-width="0.1" />
    </g>
    <g stroke-width="0.1" font-size="23" font-family="'Segoe UI'" stroke-linecap="butt">
      <text xml:space="preserve" x="788" y="235" clip-path="url(#clipPath15)" stroke="none">out02</text>
      <rect x="767" y="150" clip-path="url(#clipPath16)" fill="rgb(194,239,255)" width="20" height="40" stroke="none" />
      <rect x="767" y="150" clip-path="url(#clipPath16)" fill="none" width="19" height="39" stroke="rgb(194,239,255)" />
      <text xml:space="preserve" x="788" y="175" clip-path="url(#clipPath17)" stroke="none">in01</text>
      <line clip-path="url(#clipPath18)" fill="none" x1="584" x2="45" y1="90" y2="90" stroke="rgb(136,136,136)" stroke-width="2.1" />
      <text x="255" y="90" clip-path="url(#clipPath19)" stroke="none" stroke-width="2.1" xml:space="preserve">oeStatistic()</text>
      <line clip-path="url(#clipPath20)" fill="none" x1="52" x2="45" y1="87" y2="90" stroke="rgb(136,136,136)" stroke-width="2.1" />
      <line clip-path="url(#clipPath20)" fill="none" x1="45" x2="52" y1="90" y2="93" stroke="rgb(136,136,136)" stroke-width="2.1" />
      <line clip-path="url(#clipPath18)" fill="none" x1="767" x2="45" y1="210" y2="210" stroke="rgb(136,136,136)" stroke-width="2.1" />
      <text x="54" y="210" clip-path="url(#clipPath21)" stroke="none" stroke-width="2.1" xml:space="preserve">oeSendStatistic("For the average time for the different type of crises")</text>
      <line clip-path="url(#clipPath22)" fill="none" x1="52" x2="45" y1="207" y2="210" stroke="rgb(136,136,136)" stroke-width="2.1" />
      <line clip-path="url(#clipPath22)" fill="none" x1="45" x2="52" y1="210" y2="213" stroke="rgb(136,136,136)" stroke-width="2.1" />
    </g>
    <g stroke-linecap="butt" font-size="23" fill="rgb(136,136,136)" font-family="'Segoe UI'" stroke-dasharray="5,5" stroke="rgb(136,136,136)" stroke-width="2.1">
      <line clip-path="url(#clipPath18)" fill="none" x1="767" x2="45" y1="150" y2="150" />
      <text x="256" y="150" clip-path="url(#clipPath23)" fill="black" stroke="none" xml:space="preserve">ieCallTypeWithTimeAverage()</text>
      <line clip-path="url(#clipPath24)" fill="none" x1="760" x2="767" y1="153" y2="150" stroke-dasharray="none" />
      <line clip-path="url(#clipPath24)" fill="none" x1="767" x2="760" y1="150" y2="147" stroke-dasharray="none" />
      <line clip-path="url(#clipPath18)" fill="none" x1="584" x2="45" y1="270" y2="270" />
      <text x="164" y="270" clip-path="url(#clipPath25)" fill="black" stroke="none" xml:space="preserve">ieShowStatisticTimeAverage()</text>
      <line clip-path="url(#clipPath26)" fill="none" x1="577" x2="584" y1="273" y2="270" stroke-dasharray="none" />
      <line clip-path="url(#clipPath26)" fill="none" x1="584" x2="577" y1="270" y2="267" stroke-dasharray="none" />
    </g>
  </g>
</svg>

