<?xml version="1.0" encoding="UTF-8"?>
<svg xmlns="http://www.w3.org/2000/svg" xmlns:xlink="http://www.w3.org/1999/xlink" stroke-dasharray="none" shape-rendering="auto" font-family="'Dialog'" width="1094" text-rendering="auto" fill-opacity="1" contentScriptType="text/ecmascript" color-interpolation="auto" color-rendering="auto" preserveAspectRatio="xMidYMid meet" font-size="12" viewBox="0 0 1094 640" fill="black" stroke="black" image-rendering="auto" stroke-miterlimit="10" zoomAndPan="magnify" version="1.0" stroke-linecap="square" stroke-linejoin="miter" contentStyleType="text/css" font-style="normal" height="640" stroke-width="1" stroke-dashoffset="0" font-weight="normal" stroke-opacity="1">
  <!--Generated by the Batik Graphics2D SVG Generator-->
  <defs id="genericDefs" />
  <g>
    <defs id="defs1">
      <clipPath clipPathUnits="userSpaceOnUse" id="clipPath1">
        <path d="M9 9 L81 9 L81 41 L9 41 L9 9 Z" />
      </clipPath>
      <clipPath clipPathUnits="userSpaceOnUse" id="clipPath2">
        <path d="M39 39 L51 39 L51 631 L39 631 L39 39 Z" />
      </clipPath>
      <clipPath clipPathUnits="userSpaceOnUse" id="clipPath3">
        <path d="M663 9 L860 9 L860 61 L663 61 L663 9 Z" />
      </clipPath>
      <clipPath clipPathUnits="userSpaceOnUse" id="clipPath4">
        <path d="M663 9 L866 9 L866 61 L663 61 L663 9 Z" />
      </clipPath>
      <clipPath clipPathUnits="userSpaceOnUse" id="clipPath5">
        <path d="M663 9 L865 9 L865 61 L663 61 L663 9 Z" />
      </clipPath>
      <clipPath clipPathUnits="userSpaceOnUse" id="clipPath6">
        <path d="M755 59 L767 59 L767 631 L755 631 L755 59 Z" />
      </clipPath>
      <clipPath clipPathUnits="userSpaceOnUse" id="clipPath7">
        <path d="M750 89 L772 89 L772 131 L750 131 L750 89 Z" />
      </clipPath>
      <clipPath clipPathUnits="userSpaceOnUse" id="clipPath8">
        <path d="M771 89 L836 89 L836 122 L771 122 L771 89 Z" />
      </clipPath>
      <clipPath clipPathUnits="userSpaceOnUse" id="clipPath9">
        <path d="M750 321 L772 321 L772 363 L750 363 L750 321 Z" />
      </clipPath>
      <clipPath clipPathUnits="userSpaceOnUse" id="clipPath10">
        <path d="M771 321 L836 321 L836 354 L771 354 L771 321 Z" />
      </clipPath>
      <clipPath clipPathUnits="userSpaceOnUse" id="clipPath11">
        <path d="M750 488 L772 488 L772 530 L750 530 L750 488 Z" />
      </clipPath>
      <clipPath clipPathUnits="userSpaceOnUse" id="clipPath12">
        <path d="M771 488 L821 488 L821 521 L771 521 L771 488 Z" />
      </clipPath>
      <clipPath clipPathUnits="userSpaceOnUse" id="clipPath13">
        <path d="M750 269 L772 269 L772 311 L750 311 L750 269 Z" />
      </clipPath>
      <clipPath clipPathUnits="userSpaceOnUse" id="clipPath14">
        <path d="M771 269 L821 269 L821 302 L771 302 L771 269 Z" />
      </clipPath>
      <clipPath clipPathUnits="userSpaceOnUse" id="clipPath15">
        <path d="M868 9 L1085 9 L1085 61 L868 61 L868 9 Z" />
      </clipPath>
      <clipPath clipPathUnits="userSpaceOnUse" id="clipPath16">
        <path d="M868 9 L1090 9 L1090 61 L868 61 L868 9 Z" />
      </clipPath>
      <clipPath clipPathUnits="userSpaceOnUse" id="clipPath17">
        <path d="M970 59 L982 59 L982 631 L970 631 L970 59 Z" />
      </clipPath>
      <clipPath clipPathUnits="userSpaceOnUse" id="clipPath18">
        <path d="M965 209 L987 209 L987 251 L965 251 L965 209 Z" />
      </clipPath>
      <clipPath clipPathUnits="userSpaceOnUse" id="clipPath19">
        <path d="M986 209 L1051 209 L1051 242 L986 242 L986 209 Z" />
      </clipPath>
      <clipPath clipPathUnits="userSpaceOnUse" id="clipPath20">
        <path d="M965 431 L987 431 L987 473 L965 473 L965 431 Z" />
      </clipPath>
      <clipPath clipPathUnits="userSpaceOnUse" id="clipPath21">
        <path d="M986 431 L1051 431 L1051 464 L986 464 L986 431 Z" />
      </clipPath>
      <clipPath clipPathUnits="userSpaceOnUse" id="clipPath22">
        <path d="M965 149 L987 149 L987 191 L965 191 L965 149 Z" />
      </clipPath>
      <clipPath clipPathUnits="userSpaceOnUse" id="clipPath23">
        <path d="M986 149 L1036 149 L1036 182 L986 182 L986 149 Z" />
      </clipPath>
      <clipPath clipPathUnits="userSpaceOnUse" id="clipPath24">
        <path d="M965 382 L987 382 L987 424 L965 424 L965 382 Z" />
      </clipPath>
      <clipPath clipPathUnits="userSpaceOnUse" id="clipPath25">
        <path d="M986 382 L1036 382 L1036 415 L986 415 L986 382 Z" />
      </clipPath>
      <clipPath clipPathUnits="userSpaceOnUse" id="clipPath26">
        <path d="M-1 -1 L1095 -1 L1095 641 L-1 641 L-1 -1 Z" />
      </clipPath>
      <clipPath clipPathUnits="userSpaceOnUse" id="clipPath27">
        <path d="M213 64 L589 64 L589 97 L213 97 L213 64 Z" />
      </clipPath>
      <clipPath clipPathUnits="userSpaceOnUse" id="clipPath28">
        <path d="M43 85 L55 85 L55 96 L43 96 L43 85 Z" />
      </clipPath>
      <clipPath clipPathUnits="userSpaceOnUse" id="clipPath29">
        <path d="M175 296 L627 296 L627 329 L175 329 L175 296 Z" />
      </clipPath>
      <clipPath clipPathUnits="userSpaceOnUse" id="clipPath30">
        <path d="M43 317 L55 317 L55 328 L43 328 L43 317 Z" />
      </clipPath>
      <clipPath clipPathUnits="userSpaceOnUse" id="clipPath31">
        <path d="M63 463 L738 463 L738 496 L63 496 L63 463 Z" />
      </clipPath>
      <clipPath clipPathUnits="userSpaceOnUse" id="clipPath32">
        <path d="M742 484 L754 484 L754 495 L742 495 L742 484 Z" />
      </clipPath>
      <clipPath clipPathUnits="userSpaceOnUse" id="clipPath33">
        <path d="M252 184 L764 184 L764 217 L252 217 L252 184 Z" />
      </clipPath>
      <clipPath clipPathUnits="userSpaceOnUse" id="clipPath34">
        <path d="M43 205 L55 205 L55 216 L43 216 L43 205 Z" />
      </clipPath>
      <clipPath clipPathUnits="userSpaceOnUse" id="clipPath35">
        <path d="M345 406 L671 406 L671 439 L345 439 L345 406 Z" />
      </clipPath>
      <clipPath clipPathUnits="userSpaceOnUse" id="clipPath36">
        <path d="M43 427 L55 427 L55 438 L43 438 L43 427 Z" />
      </clipPath>
      <clipPath clipPathUnits="userSpaceOnUse" id="clipPath37">
        <path d="M400 124 L616 124 L616 157 L400 157 L400 124 Z" />
      </clipPath>
      <clipPath clipPathUnits="userSpaceOnUse" id="clipPath38">
        <path d="M957 145 L969 145 L969 156 L957 156 L957 145 Z" />
      </clipPath>
      <clipPath clipPathUnits="userSpaceOnUse" id="clipPath39">
        <path d="M235 244 L567 244 L567 277 L235 277 L235 244 Z" />
      </clipPath>
      <clipPath clipPathUnits="userSpaceOnUse" id="clipPath40">
        <path d="M742 265 L754 265 L754 276 L742 276 L742 265 Z" />
      </clipPath>
      <clipPath clipPathUnits="userSpaceOnUse" id="clipPath41">
        <path d="M302 357 L713 357 L713 390 L302 390 L302 357 Z" />
      </clipPath>
      <clipPath clipPathUnits="userSpaceOnUse" id="clipPath42">
        <path d="M957 378 L969 378 L969 389 L957 389 L957 378 Z" />
      </clipPath>
    </defs>
    <g font-size="15" fill="rgb(238,201,142)" font-family="'Segoe UI'" stroke-linejoin="round" stroke="rgb(238,201,142)" stroke-width="0" stroke-miterlimit="0">
      <rect x="10" y="10" clip-path="url(#clipPath1)" width="70" height="30" stroke="none" />
    </g>
    <g stroke-width="0.1" font-size="15" font-family="'Segoe UI'" stroke-linecap="butt">
      <rect x="10" y="10" clip-path="url(#clipPath1)" fill="none" width="69" height="29" />
      <line clip-path="url(#clipPath2)" fill="none" x1="44" x2="44" y1="40" y2="630" stroke-dasharray="10,10" stroke-width="1.1" />
    </g>
    <g stroke-linecap="butt" font-size="15" fill="rgb(255,245,181)" font-family="'Segoe UI'" stroke-dasharray="10,10" stroke="rgb(255,245,181)" stroke-width="1.1">
      <rect x="664" y="10" clip-path="url(#clipPath3)" width="195" height="50" stroke="none" />
    </g>
    <g stroke-width="0.1" font-size="15" font-family="'Segoe UI'" stroke-linecap="butt">
      <rect x="664" y="10" clip-path="url(#clipPath3)" fill="none" width="194" height="49" />
      <text x="714" font-size="23" y="29" clip-path="url(#clipPath4)" stroke="none" xml:space="preserve">MKremer</text>
      <text x="668" font-size="23" y="60" clip-path="url(#clipPath5)" stroke="none" xml:space="preserve">: actAuthenticated</text>
      <line clip-path="url(#clipPath6)" fill="none" x1="760" x2="760" y1="60" y2="630" stroke-dasharray="10,10" stroke-width="1.1" />
    </g>
    <g stroke-linecap="butt" font-size="15" fill="rgb(39,76,114)" font-family="'Segoe UI'" stroke-dasharray="10,10" stroke="rgb(39,76,114)" stroke-width="1.1">
      <rect x="751" y="90" clip-path="url(#clipPath7)" width="20" height="40" stroke="none" />
      <rect x="751" y="90" clip-path="url(#clipPath7)" fill="none" width="19" stroke-dasharray="none" height="39" stroke-width="0.1" />
    </g>
    <g stroke-width="0.1" font-size="23" font-family="'Segoe UI'" stroke-linecap="butt">
      <text xml:space="preserve" x="772" y="115" clip-path="url(#clipPath8)" stroke="none">out01</text>
      <rect x="751" y="322" clip-path="url(#clipPath9)" fill="rgb(39,76,114)" width="20" height="40" stroke="none" />
      <rect x="751" y="322" clip-path="url(#clipPath9)" fill="none" width="19" height="39" stroke="rgb(39,76,114)" />
      <text xml:space="preserve" x="772" y="347" clip-path="url(#clipPath10)" stroke="none">out03</text>
      <rect x="751" y="489" clip-path="url(#clipPath11)" fill="rgb(194,239,255)" width="20" height="40" stroke="none" />
      <rect x="751" y="489" clip-path="url(#clipPath11)" fill="none" width="19" height="39" stroke="rgb(194,239,255)" />
      <text xml:space="preserve" x="772" y="514" clip-path="url(#clipPath12)" stroke="none">in04</text>
      <rect x="751" y="270" clip-path="url(#clipPath13)" fill="rgb(194,239,255)" width="20" height="40" stroke="none" />
      <rect x="751" y="270" clip-path="url(#clipPath13)" fill="none" width="19" height="39" stroke="rgb(194,239,255)" />
      <text xml:space="preserve" x="772" y="295" clip-path="url(#clipPath14)" stroke="none">in02</text>
      <rect x="869" y="10" clip-path="url(#clipPath15)" fill="rgb(255,245,181)" width="215" height="50" stroke="none" />
      <rect x="869" y="10" clip-path="url(#clipPath15)" fill="none" width="214" height="49" />
      <text xml:space="preserve" x="898" y="29" clip-path="url(#clipPath16)" stroke="none">CaptchaService</text>
      <text xml:space="preserve" x="877" y="60" clip-path="url(#clipPath16)" stroke="none">: actCaptchaService</text>
      <line clip-path="url(#clipPath17)" fill="none" x1="975" x2="975" y1="60" y2="630" stroke-dasharray="10,10" stroke-width="1.1" />
    </g>
    <g stroke-linecap="butt" font-size="15" fill="rgb(39,76,114)" font-family="'Segoe UI'" stroke-dasharray="10,10" stroke="rgb(39,76,114)" stroke-width="1.1">
      <rect x="966" y="210" clip-path="url(#clipPath18)" width="20" height="40" stroke="none" />
      <rect x="966" y="210" clip-path="url(#clipPath18)" fill="none" width="19" stroke-dasharray="none" height="39" stroke-width="0.1" />
    </g>
    <g stroke-width="0.1" font-size="23" font-family="'Segoe UI'" stroke-linecap="butt">
      <text xml:space="preserve" x="987" y="235" clip-path="url(#clipPath19)" stroke="none">out02</text>
      <rect x="966" y="432" clip-path="url(#clipPath20)" fill="rgb(39,76,114)" width="20" height="40" stroke="none" />
      <rect x="966" y="432" clip-path="url(#clipPath20)" fill="none" width="19" height="39" stroke="rgb(39,76,114)" />
      <text xml:space="preserve" x="987" y="457" clip-path="url(#clipPath21)" stroke="none">out04</text>
      <rect x="966" y="150" clip-path="url(#clipPath22)" fill="rgb(194,239,255)" width="20" height="40" stroke="none" />
      <rect x="966" y="150" clip-path="url(#clipPath22)" fill="none" width="19" height="39" stroke="rgb(194,239,255)" />
      <text xml:space="preserve" x="987" y="175" clip-path="url(#clipPath23)" stroke="none">in01</text>
      <rect x="966" y="383" clip-path="url(#clipPath24)" fill="rgb(194,239,255)" width="20" height="40" stroke="none" />
      <rect x="966" y="383" clip-path="url(#clipPath24)" fill="none" width="19" height="39" stroke="rgb(194,239,255)" />
      <text xml:space="preserve" x="987" y="408" clip-path="url(#clipPath25)" stroke="none">in03</text>
      <line clip-path="url(#clipPath26)" fill="none" x1="751" x2="45" y1="90" y2="90" stroke="rgb(136,136,136)" stroke-width="2.1" />
      <text x="214" y="90" clip-path="url(#clipPath27)" stroke="none" stroke-width="2.1" xml:space="preserve">oeLogin("mkremer003","Raichu124")</text>
      <line clip-path="url(#clipPath28)" fill="none" x1="52" x2="45" y1="87" y2="90" stroke="rgb(136,136,136)" stroke-width="2.1" />
      <line clip-path="url(#clipPath28)" fill="none" x1="45" x2="52" y1="90" y2="93" stroke="rgb(136,136,136)" stroke-width="2.1" />
      <line clip-path="url(#clipPath26)" fill="none" x1="751" x2="45" y1="322" y2="322" stroke="rgb(136,136,136)" stroke-width="2.1" />
      <text x="176" y="322" clip-path="url(#clipPath29)" stroke="none" stroke-width="2.1" xml:space="preserve">oeSubmitCaptcha("Captcha user response")</text>
      <line clip-path="url(#clipPath30)" fill="none" x1="52" x2="45" y1="319" y2="322" stroke="rgb(136,136,136)" stroke-width="2.1" />
      <line clip-path="url(#clipPath30)" fill="none" x1="45" x2="52" y1="322" y2="325" stroke="rgb(136,136,136)" stroke-width="2.1" />
    </g>
    <g stroke-linecap="butt" font-size="23" fill="rgb(136,136,136)" font-family="'Segoe UI'" stroke-dasharray="5,5" stroke="rgb(136,136,136)" stroke-width="2.1">
      <line clip-path="url(#clipPath26)" fill="none" x1="751" x2="45" y1="489" y2="489" />
      <text x="64" y="489" clip-path="url(#clipPath31)" fill="black" stroke="none" xml:space="preserve">ieMessage(Your submitted captcha response is invalid. Try again.)</text>
      <line clip-path="url(#clipPath32)" fill="none" x1="744" x2="751" y1="492" y2="489" stroke-dasharray="none" />
      <line clip-path="url(#clipPath32)" fill="none" x1="751" x2="744" y1="489" y2="486" stroke-dasharray="none" />
      <line clip-path="url(#clipPath26)" fill="none" x1="966" x2="45" y1="210" y2="210" stroke-dasharray="none" />
      <text x="253" y="210" clip-path="url(#clipPath33)" fill="black" stroke-dasharray="none" stroke="none" xml:space="preserve">oeSendCaptcha("Captcha test","Captcha answer")</text>
      <line clip-path="url(#clipPath34)" fill="none" x1="52" x2="45" y1="207" y2="210" stroke-dasharray="none" />
      <line clip-path="url(#clipPath34)" fill="none" x1="45" x2="52" y1="210" y2="213" stroke-dasharray="none" />
      <line clip-path="url(#clipPath26)" fill="none" x1="966" x2="45" y1="432" y2="432" stroke-dasharray="none" />
      <text x="346" y="432" clip-path="url(#clipPath35)" fill="black" stroke-dasharray="none" stroke="none" xml:space="preserve">oeCaptchaInvalid("Captcha id")</text>
      <line clip-path="url(#clipPath36)" fill="none" x1="52" x2="45" y1="429" y2="432" stroke-dasharray="none" />
      <line clip-path="url(#clipPath36)" fill="none" x1="45" x2="52" y1="432" y2="435" stroke-dasharray="none" />
      <line clip-path="url(#clipPath26)" fill="none" x1="966" x2="45" y1="150" y2="150" />
      <text x="401" y="150" clip-path="url(#clipPath37)" fill="black" stroke="none" xml:space="preserve">ieGenerateCaptcha()</text>
      <line clip-path="url(#clipPath38)" fill="none" x1="959" x2="966" y1="153" y2="150" stroke-dasharray="none" />
      <line clip-path="url(#clipPath38)" fill="none" x1="966" x2="959" y1="150" y2="147" stroke-dasharray="none" />
      <line clip-path="url(#clipPath26)" fill="none" x1="751" x2="45" y1="270" y2="270" />
      <text x="236" y="270" clip-path="url(#clipPath39)" fill="black" stroke="none" xml:space="preserve">ieConfirmCaptcha(Captcha test)</text>
      <line clip-path="url(#clipPath40)" fill="none" x1="744" x2="751" y1="273" y2="270" stroke-dasharray="none" />
      <line clip-path="url(#clipPath40)" fill="none" x1="751" x2="744" y1="270" y2="267" stroke-dasharray="none" />
      <line clip-path="url(#clipPath26)" fill="none" x1="966" x2="45" y1="383" y2="383" />
      <text x="303" y="383" clip-path="url(#clipPath41)" fill="black" stroke="none" xml:space="preserve">ieVerifyCaptcha(Captcha user response)</text>
      <line clip-path="url(#clipPath42)" fill="none" x1="959" x2="966" y1="386" y2="383" stroke-dasharray="none" />
      <line clip-path="url(#clipPath42)" fill="none" x1="966" x2="959" y1="383" y2="380" stroke-dasharray="none" />
    </g>
  </g>
</svg>

