<?xml version="1.0" encoding="UTF-8"?>
<svg xmlns="http://www.w3.org/2000/svg" xmlns:xlink="http://www.w3.org/1999/xlink" stroke-dasharray="none" shape-rendering="auto" font-family="'Dialog'" width="1137" text-rendering="auto" fill-opacity="1" contentScriptType="text/ecmascript" color-interpolation="auto" color-rendering="auto" preserveAspectRatio="xMidYMid meet" font-size="12" viewBox="0 0 1137 430" fill="black" stroke="black" image-rendering="auto" stroke-miterlimit="10" zoomAndPan="magnify" version="1.0" stroke-linecap="square" stroke-linejoin="miter" contentStyleType="text/css" font-style="normal" height="430" stroke-width="1" stroke-dashoffset="0" font-weight="normal" stroke-opacity="1">
  <!--Generated by the Batik Graphics2D SVG Generator-->
  <defs id="genericDefs" />
  <g>
    <defs id="defs1">
      <clipPath clipPathUnits="userSpaceOnUse" id="clipPath1">
        <path d="M9 9 L81 9 L81 41 L9 41 L9 9 Z" />
      </clipPath>
      <clipPath clipPathUnits="userSpaceOnUse" id="clipPath2">
        <path d="M39 39 L51 39 L51 421 L39 421 L39 39 Z" />
      </clipPath>
      <clipPath clipPathUnits="userSpaceOnUse" id="clipPath3">
        <path d="M567 9 L765 9 L765 61 L567 61 L567 9 Z" />
      </clipPath>
      <clipPath clipPathUnits="userSpaceOnUse" id="clipPath4">
        <path d="M567 9 L770 9 L770 61 L567 61 L567 9 Z" />
      </clipPath>
      <clipPath clipPathUnits="userSpaceOnUse" id="clipPath5">
        <path d="M660 59 L672 59 L672 421 L660 421 L660 59 Z" />
      </clipPath>
      <clipPath clipPathUnits="userSpaceOnUse" id="clipPath6">
        <path d="M655 89 L677 89 L677 131 L655 131 L655 89 Z" />
      </clipPath>
      <clipPath clipPathUnits="userSpaceOnUse" id="clipPath7">
        <path d="M676 89 L741 89 L741 122 L676 122 L676 89 Z" />
      </clipPath>
      <clipPath clipPathUnits="userSpaceOnUse" id="clipPath8">
        <path d="M773 9 L968 9 L968 61 L773 61 L773 9 Z" />
      </clipPath>
      <clipPath clipPathUnits="userSpaceOnUse" id="clipPath9">
        <path d="M773 9 L973 9 L973 61 L773 61 L773 9 Z" />
      </clipPath>
      <clipPath clipPathUnits="userSpaceOnUse" id="clipPath10">
        <path d="M864 59 L876 59 L876 421 L864 421 L864 59 Z" />
      </clipPath>
      <clipPath clipPathUnits="userSpaceOnUse" id="clipPath11">
        <path d="M859 149 L881 149 L881 191 L859 191 L859 149 Z" />
      </clipPath>
      <clipPath clipPathUnits="userSpaceOnUse" id="clipPath12">
        <path d="M880 149 L945 149 L945 182 L880 182 L880 149 Z" />
      </clipPath>
      <clipPath clipPathUnits="userSpaceOnUse" id="clipPath13">
        <path d="M859 209 L881 209 L881 251 L859 251 L859 209 Z" />
      </clipPath>
      <clipPath clipPathUnits="userSpaceOnUse" id="clipPath14">
        <path d="M880 209 L945 209 L945 242 L880 242 L880 209 Z" />
      </clipPath>
      <clipPath clipPathUnits="userSpaceOnUse" id="clipPath15">
        <path d="M859 269 L881 269 L881 311 L859 311 L859 269 Z" />
      </clipPath>
      <clipPath clipPathUnits="userSpaceOnUse" id="clipPath16">
        <path d="M880 269 L945 269 L945 302 L880 302 L880 269 Z" />
      </clipPath>
      <clipPath clipPathUnits="userSpaceOnUse" id="clipPath17">
        <path d="M976 9 L1128 9 L1128 61 L976 61 L976 9 Z" />
      </clipPath>
      <clipPath clipPathUnits="userSpaceOnUse" id="clipPath18">
        <path d="M976 9 L1134 9 L1134 61 L976 61 L976 9 Z" />
      </clipPath>
      <clipPath clipPathUnits="userSpaceOnUse" id="clipPath19">
        <path d="M976 9 L1133 9 L1133 61 L976 61 L976 9 Z" />
      </clipPath>
      <clipPath clipPathUnits="userSpaceOnUse" id="clipPath20">
        <path d="M1046 59 L1058 59 L1058 421 L1046 421 L1046 59 Z" />
      </clipPath>
      <clipPath clipPathUnits="userSpaceOnUse" id="clipPath21">
        <path d="M1041 329 L1063 329 L1063 371 L1041 371 L1041 329 Z" />
      </clipPath>
      <clipPath clipPathUnits="userSpaceOnUse" id="clipPath22">
        <path d="M1062 329 L1127 329 L1127 362 L1062 362 L1062 329 Z" />
      </clipPath>
      <clipPath clipPathUnits="userSpaceOnUse" id="clipPath23">
        <path d="M-1 -1 L1138 -1 L1138 431 L-1 431 L-1 -1 Z" />
      </clipPath>
      <clipPath clipPathUnits="userSpaceOnUse" id="clipPath24">
        <path d="M74 64 L631 64 L631 97 L74 97 L74 64 Z" />
      </clipPath>
      <clipPath clipPathUnits="userSpaceOnUse" id="clipPath25">
        <path d="M43 85 L55 85 L55 96 L43 96 L43 85 Z" />
      </clipPath>
      <clipPath clipPathUnits="userSpaceOnUse" id="clipPath26">
        <path d="M374 124 L535 124 L535 157 L374 157 L374 124 Z" />
      </clipPath>
      <clipPath clipPathUnits="userSpaceOnUse" id="clipPath27">
        <path d="M43 145 L55 145 L55 156 L43 156 L43 145 Z" />
      </clipPath>
      <clipPath clipPathUnits="userSpaceOnUse" id="clipPath28">
        <path d="M372 184 L537 184 L537 217 L372 217 L372 184 Z" />
      </clipPath>
      <clipPath clipPathUnits="userSpaceOnUse" id="clipPath29">
        <path d="M43 205 L55 205 L55 216 L43 216 L43 205 Z" />
      </clipPath>
      <clipPath clipPathUnits="userSpaceOnUse" id="clipPath30">
        <path d="M367 244 L543 244 L543 277 L367 277 L367 244 Z" />
      </clipPath>
      <clipPath clipPathUnits="userSpaceOnUse" id="clipPath31">
        <path d="M43 265 L55 265 L55 276 L43 276 L43 265 Z" />
      </clipPath>
      <clipPath clipPathUnits="userSpaceOnUse" id="clipPath32">
        <path d="M438 304 L655 304 L655 337 L438 337 L438 304 Z" />
      </clipPath>
      <clipPath clipPathUnits="userSpaceOnUse" id="clipPath33">
        <path d="M43 325 L55 325 L55 336 L43 336 L43 325 Z" />
      </clipPath>
    </defs>
    <g font-size="15" fill="rgb(238,201,142)" font-family="'Segoe UI'" stroke-linejoin="round" stroke="rgb(238,201,142)" stroke-width="0" stroke-miterlimit="0">
      <rect x="10" y="10" clip-path="url(#clipPath1)" width="70" height="30" stroke="none" />
    </g>
    <g stroke-width="0.1" font-size="15" font-family="'Segoe UI'" stroke-linecap="butt">
      <rect x="10" y="10" clip-path="url(#clipPath1)" fill="none" width="69" height="29" />
      <line clip-path="url(#clipPath2)" fill="none" x1="44" x2="44" y1="40" y2="420" stroke-dasharray="10,10" stroke-width="1.1" />
    </g>
    <g stroke-linecap="butt" font-size="15" fill="rgb(255,245,181)" font-family="'Segoe UI'" stroke-dasharray="10,10" stroke="rgb(255,245,181)" stroke-width="1.1">
      <rect x="568" y="10" clip-path="url(#clipPath3)" width="196" height="50" stroke="none" />
    </g>
    <g stroke-width="0.1" font-size="15" font-family="'Segoe UI'" stroke-linecap="butt">
      <rect x="568" y="10" clip-path="url(#clipPath3)" fill="none" width="195" height="49" />
      <text x="642" font-size="23" y="29" clip-path="url(#clipPath4)" stroke="none" xml:space="preserve">User</text>
      <text x="572" font-size="23" y="60" clip-path="url(#clipPath4)" stroke="none" xml:space="preserve">: actAuthenticated</text>
      <line clip-path="url(#clipPath5)" fill="none" x1="665" x2="665" y1="60" y2="420" stroke-dasharray="10,10" stroke-width="1.1" />
    </g>
    <g stroke-linecap="butt" font-size="15" fill="rgb(39,76,114)" font-family="'Segoe UI'" stroke-dasharray="10,10" stroke="rgb(39,76,114)" stroke-width="1.1">
      <rect x="656" y="90" clip-path="url(#clipPath6)" width="20" height="40" stroke="none" />
      <rect x="656" y="90" clip-path="url(#clipPath6)" fill="none" width="19" stroke-dasharray="none" height="39" stroke-width="0.1" />
    </g>
    <g stroke-width="0.1" font-size="23" font-family="'Segoe UI'" stroke-linecap="butt">
      <text xml:space="preserve" x="677" y="115" clip-path="url(#clipPath7)" stroke="none">out01</text>
      <rect x="774" y="10" clip-path="url(#clipPath8)" fill="rgb(255,245,181)" width="193" height="50" stroke="none" />
      <rect x="774" y="10" clip-path="url(#clipPath8)" fill="none" width="192" height="49" />
      <text xml:space="preserve" x="809" y="29" clip-path="url(#clipPath9)" stroke="none">Coordinator</text>
      <text xml:space="preserve" x="788" y="60" clip-path="url(#clipPath9)" stroke="none">: actCoordinator</text>
      <line clip-path="url(#clipPath10)" fill="none" x1="869" x2="869" y1="60" y2="420" stroke-dasharray="10,10" stroke-width="1.1" />
    </g>
    <g stroke-linecap="butt" font-size="15" fill="rgb(39,76,114)" font-family="'Segoe UI'" stroke-dasharray="10,10" stroke="rgb(39,76,114)" stroke-width="1.1">
      <rect x="860" y="150" clip-path="url(#clipPath11)" width="20" height="40" stroke="none" />
      <rect x="860" y="150" clip-path="url(#clipPath11)" fill="none" width="19" stroke-dasharray="none" height="39" stroke-width="0.1" />
    </g>
    <g stroke-width="0.1" font-size="23" font-family="'Segoe UI'" stroke-linecap="butt">
      <text xml:space="preserve" x="881" y="175" clip-path="url(#clipPath12)" stroke="none">out02</text>
      <rect x="860" y="210" clip-path="url(#clipPath13)" fill="rgb(39,76,114)" width="20" height="40" stroke="none" />
      <rect x="860" y="210" clip-path="url(#clipPath13)" fill="none" width="19" height="39" stroke="rgb(39,76,114)" />
      <text xml:space="preserve" x="881" y="235" clip-path="url(#clipPath14)" stroke="none">out03</text>
      <rect x="860" y="270" clip-path="url(#clipPath15)" fill="rgb(39,76,114)" width="20" height="40" stroke="none" />
      <rect x="860" y="270" clip-path="url(#clipPath15)" fill="none" width="19" height="39" stroke="rgb(39,76,114)" />
      <text xml:space="preserve" x="881" y="295" clip-path="url(#clipPath16)" stroke="none">out04</text>
      <rect x="977" y="10" clip-path="url(#clipPath17)" fill="rgb(255,245,181)" width="150" height="50" stroke="none" />
      <rect x="977" y="10" clip-path="url(#clipPath17)" fill="none" width="149" height="49" />
      <text xml:space="preserve" x="1016" y="29" clip-path="url(#clipPath18)" stroke="none">System</text>
      <text xml:space="preserve" x="995" y="60" clip-path="url(#clipPath19)" stroke="none">: actSystem</text>
      <line clip-path="url(#clipPath20)" fill="none" x1="1051" x2="1051" y1="60" y2="420" stroke-dasharray="10,10" stroke-width="1.1" />
    </g>
    <g stroke-linecap="butt" font-size="15" fill="rgb(39,76,114)" font-family="'Segoe UI'" stroke-dasharray="10,10" stroke="rgb(39,76,114)" stroke-width="1.1">
      <rect x="1042" y="330" clip-path="url(#clipPath21)" width="20" height="40" stroke="none" />
      <rect x="1042" y="330" clip-path="url(#clipPath21)" fill="none" width="19" stroke-dasharray="none" height="39" stroke-width="0.1" />
    </g>
    <g stroke-width="0.1" font-size="23" font-family="'Segoe UI'" stroke-linecap="butt">
      <text xml:space="preserve" x="1063" y="355" clip-path="url(#clipPath22)" stroke="none">out05</text>
      <line clip-path="url(#clipPath23)" fill="none" x1="656" x2="45" y1="90" y2="90" stroke="rgb(136,136,136)" stroke-width="2.1" />
      <text x="75" y="90" clip-path="url(#clipPath24)" stroke="none" stroke-width="2.1" xml:space="preserve">oeCreateAlert("Add name and surname of the victim")</text>
      <line clip-path="url(#clipPath25)" fill="none" x1="52" x2="45" y1="87" y2="90" stroke="rgb(136,136,136)" stroke-width="2.1" />
      <line clip-path="url(#clipPath25)" fill="none" x1="45" x2="52" y1="90" y2="93" stroke="rgb(136,136,136)" stroke-width="2.1" />
      <line clip-path="url(#clipPath23)" fill="none" x1="860" x2="45" y1="150" y2="150" stroke="rgb(136,136,136)" stroke-width="2.1" />
      <text x="375" y="150" clip-path="url(#clipPath26)" stroke="none" stroke-width="2.1" xml:space="preserve">oeCreateAlert()</text>
      <line clip-path="url(#clipPath27)" fill="none" x1="52" x2="45" y1="147" y2="150" stroke="rgb(136,136,136)" stroke-width="2.1" />
      <line clip-path="url(#clipPath27)" fill="none" x1="45" x2="52" y1="150" y2="153" stroke="rgb(136,136,136)" stroke-width="2.1" />
      <line clip-path="url(#clipPath23)" fill="none" x1="860" x2="45" y1="210" y2="210" stroke="rgb(136,136,136)" stroke-width="2.1" />
      <text x="373" y="210" clip-path="url(#clipPath28)" stroke="none" stroke-width="2.1" xml:space="preserve">oeCreateCrisis()</text>
      <line clip-path="url(#clipPath29)" fill="none" x1="52" x2="45" y1="207" y2="210" stroke="rgb(136,136,136)" stroke-width="2.1" />
      <line clip-path="url(#clipPath29)" fill="none" x1="45" x2="52" y1="210" y2="213" stroke="rgb(136,136,136)" stroke-width="2.1" />
      <line clip-path="url(#clipPath23)" fill="none" x1="860" x2="45" y1="270" y2="270" stroke="rgb(136,136,136)" stroke-width="2.1" />
      <text x="368" y="270" clip-path="url(#clipPath30)" stroke="none" stroke-width="2.1" xml:space="preserve">oeUpdateCrisis()</text>
      <line clip-path="url(#clipPath31)" fill="none" x1="52" x2="45" y1="267" y2="270" stroke="rgb(136,136,136)" stroke-width="2.1" />
      <line clip-path="url(#clipPath31)" fill="none" x1="45" x2="52" y1="270" y2="273" stroke="rgb(136,136,136)" stroke-width="2.1" />
      <line clip-path="url(#clipPath23)" fill="none" x1="1042" x2="45" y1="330" y2="330" stroke="rgb(136,136,136)" stroke-width="2.1" />
      <text x="439" y="330" clip-path="url(#clipPath32)" stroke="none" stroke-width="2.1" xml:space="preserve">oeSendNotification()</text>
      <line clip-path="url(#clipPath33)" fill="none" x1="52" x2="45" y1="327" y2="330" stroke="rgb(136,136,136)" stroke-width="2.1" />
      <line clip-path="url(#clipPath33)" fill="none" x1="45" x2="52" y1="330" y2="333" stroke="rgb(136,136,136)" stroke-width="2.1" />
    </g>
  </g>
</svg>

