<?xml version="1.0" encoding="UTF-8"?>
<svg xmlns="http://www.w3.org/2000/svg" xmlns:xlink="http://www.w3.org/1999/xlink" stroke-dasharray="none" shape-rendering="auto" font-family="'Dialog'" width="1161" text-rendering="auto" fill-opacity="1" contentScriptType="text/ecmascript" color-interpolation="auto" color-rendering="auto" preserveAspectRatio="xMidYMid meet" font-size="12" viewBox="0 0 1161 430" fill="black" stroke="black" image-rendering="auto" stroke-miterlimit="10" zoomAndPan="magnify" version="1.0" stroke-linecap="square" stroke-linejoin="miter" contentStyleType="text/css" font-style="normal" height="430" stroke-width="1" stroke-dashoffset="0" font-weight="normal" stroke-opacity="1">
  <!--Generated by the Batik Graphics2D SVG Generator-->
  <defs id="genericDefs" />
  <g>
    <defs id="defs1">
      <clipPath clipPathUnits="userSpaceOnUse" id="clipPath1">
        <path d="M9 9 L81 9 L81 41 L9 41 L9 9 Z" />
      </clipPath>
      <clipPath clipPathUnits="userSpaceOnUse" id="clipPath2">
        <path d="M39 39 L51 39 L51 421 L39 421 L39 39 Z" />
      </clipPath>
      <clipPath clipPathUnits="userSpaceOnUse" id="clipPath3">
        <path d="M594 9 L789 9 L789 61 L594 61 L594 9 Z" />
      </clipPath>
      <clipPath clipPathUnits="userSpaceOnUse" id="clipPath4">
        <path d="M594 9 L794 9 L794 61 L594 61 L594 9 Z" />
      </clipPath>
      <clipPath clipPathUnits="userSpaceOnUse" id="clipPath5">
        <path d="M685 59 L697 59 L697 421 L685 421 L685 59 Z" />
      </clipPath>
      <clipPath clipPathUnits="userSpaceOnUse" id="clipPath6">
        <path d="M680 89 L702 89 L702 131 L680 131 L680 89 Z" />
      </clipPath>
      <clipPath clipPathUnits="userSpaceOnUse" id="clipPath7">
        <path d="M701 89 L766 89 L766 122 L701 122 L701 89 Z" />
      </clipPath>
      <clipPath clipPathUnits="userSpaceOnUse" id="clipPath8">
        <path d="M797 9 L992 9 L992 61 L797 61 L797 9 Z" />
      </clipPath>
      <clipPath clipPathUnits="userSpaceOnUse" id="clipPath9">
        <path d="M797 9 L997 9 L997 61 L797 61 L797 9 Z" />
      </clipPath>
      <clipPath clipPathUnits="userSpaceOnUse" id="clipPath10">
        <path d="M888 59 L900 59 L900 421 L888 421 L888 59 Z" />
      </clipPath>
      <clipPath clipPathUnits="userSpaceOnUse" id="clipPath11">
        <path d="M883 149 L905 149 L905 191 L883 191 L883 149 Z" />
      </clipPath>
      <clipPath clipPathUnits="userSpaceOnUse" id="clipPath12">
        <path d="M904 149 L969 149 L969 182 L904 182 L904 149 Z" />
      </clipPath>
      <clipPath clipPathUnits="userSpaceOnUse" id="clipPath13">
        <path d="M883 209 L905 209 L905 251 L883 251 L883 209 Z" />
      </clipPath>
      <clipPath clipPathUnits="userSpaceOnUse" id="clipPath14">
        <path d="M904 209 L969 209 L969 242 L904 242 L904 209 Z" />
      </clipPath>
      <clipPath clipPathUnits="userSpaceOnUse" id="clipPath15">
        <path d="M883 269 L905 269 L905 311 L883 311 L883 269 Z" />
      </clipPath>
      <clipPath clipPathUnits="userSpaceOnUse" id="clipPath16">
        <path d="M904 269 L969 269 L969 302 L904 302 L904 269 Z" />
      </clipPath>
      <clipPath clipPathUnits="userSpaceOnUse" id="clipPath17">
        <path d="M1000 9 L1152 9 L1152 61 L1000 61 L1000 9 Z" />
      </clipPath>
      <clipPath clipPathUnits="userSpaceOnUse" id="clipPath18">
        <path d="M1000 9 L1158 9 L1158 61 L1000 61 L1000 9 Z" />
      </clipPath>
      <clipPath clipPathUnits="userSpaceOnUse" id="clipPath19">
        <path d="M1000 9 L1157 9 L1157 61 L1000 61 L1000 9 Z" />
      </clipPath>
      <clipPath clipPathUnits="userSpaceOnUse" id="clipPath20">
        <path d="M1070 59 L1082 59 L1082 421 L1070 421 L1070 59 Z" />
      </clipPath>
      <clipPath clipPathUnits="userSpaceOnUse" id="clipPath21">
        <path d="M1065 329 L1087 329 L1087 371 L1065 371 L1065 329 Z" />
      </clipPath>
      <clipPath clipPathUnits="userSpaceOnUse" id="clipPath22">
        <path d="M1086 329 L1151 329 L1151 362 L1086 362 L1086 329 Z" />
      </clipPath>
      <clipPath clipPathUnits="userSpaceOnUse" id="clipPath23">
        <path d="M-1 -1 L1162 -1 L1162 431 L-1 431 L-1 -1 Z" />
      </clipPath>
      <clipPath clipPathUnits="userSpaceOnUse" id="clipPath24">
        <path d="M66 64 L664 64 L664 97 L66 97 L66 64 Z" />
      </clipPath>
      <clipPath clipPathUnits="userSpaceOnUse" id="clipPath25">
        <path d="M43 85 L55 85 L55 96 L43 96 L43 85 Z" />
      </clipPath>
      <clipPath clipPathUnits="userSpaceOnUse" id="clipPath26">
        <path d="M386 124 L547 124 L547 157 L386 157 L386 124 Z" />
      </clipPath>
      <clipPath clipPathUnits="userSpaceOnUse" id="clipPath27">
        <path d="M43 145 L55 145 L55 156 L43 156 L43 145 Z" />
      </clipPath>
      <clipPath clipPathUnits="userSpaceOnUse" id="clipPath28">
        <path d="M384 184 L549 184 L549 217 L384 217 L384 184 Z" />
      </clipPath>
      <clipPath clipPathUnits="userSpaceOnUse" id="clipPath29">
        <path d="M43 205 L55 205 L55 216 L43 216 L43 205 Z" />
      </clipPath>
      <clipPath clipPathUnits="userSpaceOnUse" id="clipPath30">
        <path d="M379 244 L555 244 L555 277 L379 277 L379 244 Z" />
      </clipPath>
      <clipPath clipPathUnits="userSpaceOnUse" id="clipPath31">
        <path d="M43 265 L55 265 L55 276 L43 276 L43 265 Z" />
      </clipPath>
      <clipPath clipPathUnits="userSpaceOnUse" id="clipPath32">
        <path d="M449 304 L666 304 L666 337 L449 337 L449 304 Z" />
      </clipPath>
      <clipPath clipPathUnits="userSpaceOnUse" id="clipPath33">
        <path d="M43 325 L55 325 L55 336 L43 336 L43 325 Z" />
      </clipPath>
    </defs>
    <g font-size="15" fill="rgb(238,201,142)" font-family="'Segoe UI'" stroke-linejoin="round" stroke="rgb(238,201,142)" stroke-width="0" stroke-miterlimit="0">
      <rect x="10" y="10" clip-path="url(#clipPath1)" width="70" height="30" stroke="none" />
    </g>
    <g stroke-width="0.1" font-size="15" font-family="'Segoe UI'" stroke-linecap="butt">
      <rect x="10" y="10" clip-path="url(#clipPath1)" fill="none" width="69" height="29" />
      <line clip-path="url(#clipPath2)" fill="none" x1="44" x2="44" y1="40" y2="420" stroke-dasharray="10,10" stroke-width="1.1" />
    </g>
    <g stroke-linecap="butt" font-size="15" fill="rgb(255,245,181)" font-family="'Segoe UI'" stroke-dasharray="10,10" stroke="rgb(255,245,181)" stroke-width="1.1">
      <rect x="595" y="10" clip-path="url(#clipPath3)" width="193" height="50" stroke="none" />
    </g>
    <g stroke-width="0.1" font-size="15" font-family="'Segoe UI'" stroke-linecap="butt">
      <rect x="595" y="10" clip-path="url(#clipPath3)" fill="none" width="192" height="49" />
      <text x="668" font-size="23" y="29" clip-path="url(#clipPath4)" stroke="none" xml:space="preserve">User</text>
      <text x="598" font-size="23" y="60" clip-path="url(#clipPath4)" stroke="none" xml:space="preserve">: actAuthenticated</text>
      <line clip-path="url(#clipPath5)" fill="none" x1="690" x2="690" y1="60" y2="420" stroke-dasharray="10,10" stroke-width="1.1" />
    </g>
    <g stroke-linecap="butt" font-size="15" fill="rgb(39,76,114)" font-family="'Segoe UI'" stroke-dasharray="10,10" stroke="rgb(39,76,114)" stroke-width="1.1">
      <rect x="681" y="90" clip-path="url(#clipPath6)" width="20" height="40" stroke="none" />
      <rect x="681" y="90" clip-path="url(#clipPath6)" fill="none" width="19" stroke-dasharray="none" height="39" stroke-width="0.1" />
    </g>
    <g stroke-width="0.1" font-size="23" font-family="'Segoe UI'" stroke-linecap="butt">
      <text xml:space="preserve" x="702" y="115" clip-path="url(#clipPath7)" stroke="none">out01</text>
      <rect x="798" y="10" clip-path="url(#clipPath8)" fill="rgb(255,245,181)" width="193" height="50" stroke="none" />
      <rect x="798" y="10" clip-path="url(#clipPath8)" fill="none" width="192" height="49" />
      <text xml:space="preserve" x="833" y="29" clip-path="url(#clipPath9)" stroke="none">Coordinator</text>
      <text xml:space="preserve" x="812" y="60" clip-path="url(#clipPath9)" stroke="none">: actCoordinator</text>
      <line clip-path="url(#clipPath10)" fill="none" x1="893" x2="893" y1="60" y2="420" stroke-dasharray="10,10" stroke-width="1.1" />
    </g>
    <g stroke-linecap="butt" font-size="15" fill="rgb(39,76,114)" font-family="'Segoe UI'" stroke-dasharray="10,10" stroke="rgb(39,76,114)" stroke-width="1.1">
      <rect x="884" y="150" clip-path="url(#clipPath11)" width="20" height="40" stroke="none" />
      <rect x="884" y="150" clip-path="url(#clipPath11)" fill="none" width="19" stroke-dasharray="none" height="39" stroke-width="0.1" />
    </g>
    <g stroke-width="0.1" font-size="23" font-family="'Segoe UI'" stroke-linecap="butt">
      <text xml:space="preserve" x="905" y="175" clip-path="url(#clipPath12)" stroke="none">out02</text>
      <rect x="884" y="210" clip-path="url(#clipPath13)" fill="rgb(39,76,114)" width="20" height="40" stroke="none" />
      <rect x="884" y="210" clip-path="url(#clipPath13)" fill="none" width="19" height="39" stroke="rgb(39,76,114)" />
      <text xml:space="preserve" x="905" y="235" clip-path="url(#clipPath14)" stroke="none">out03</text>
      <rect x="884" y="270" clip-path="url(#clipPath15)" fill="rgb(39,76,114)" width="20" height="40" stroke="none" />
      <rect x="884" y="270" clip-path="url(#clipPath15)" fill="none" width="19" height="39" stroke="rgb(39,76,114)" />
      <text xml:space="preserve" x="905" y="295" clip-path="url(#clipPath16)" stroke="none">out04</text>
      <rect x="1001" y="10" clip-path="url(#clipPath17)" fill="rgb(255,245,181)" width="150" height="50" stroke="none" />
      <rect x="1001" y="10" clip-path="url(#clipPath17)" fill="none" width="149" height="49" />
      <text xml:space="preserve" x="1040" y="29" clip-path="url(#clipPath18)" stroke="none">System</text>
      <text xml:space="preserve" x="1019" y="60" clip-path="url(#clipPath19)" stroke="none">: actSystem</text>
      <line clip-path="url(#clipPath20)" fill="none" x1="1075" x2="1075" y1="60" y2="420" stroke-dasharray="10,10" stroke-width="1.1" />
    </g>
    <g stroke-linecap="butt" font-size="15" fill="rgb(39,76,114)" font-family="'Segoe UI'" stroke-dasharray="10,10" stroke="rgb(39,76,114)" stroke-width="1.1">
      <rect x="1066" y="330" clip-path="url(#clipPath21)" width="20" height="40" stroke="none" />
      <rect x="1066" y="330" clip-path="url(#clipPath21)" fill="none" width="19" stroke-dasharray="none" height="39" stroke-width="0.1" />
    </g>
    <g stroke-width="0.1" font-size="23" font-family="'Segoe UI'" stroke-linecap="butt">
      <text xml:space="preserve" x="1087" y="355" clip-path="url(#clipPath22)" stroke="none">out05</text>
      <line clip-path="url(#clipPath23)" fill="none" x1="681" x2="45" y1="90" y2="90" stroke="rgb(136,136,136)" stroke-width="2.1" />
      <text x="67" y="90" clip-path="url(#clipPath24)" stroke="none" stroke-width="2.1" xml:space="preserve">oeCreateAlert("Chose if an alert will be sent to the family")</text>
      <line clip-path="url(#clipPath25)" fill="none" x1="52" x2="45" y1="87" y2="90" stroke="rgb(136,136,136)" stroke-width="2.1" />
      <line clip-path="url(#clipPath25)" fill="none" x1="45" x2="52" y1="90" y2="93" stroke="rgb(136,136,136)" stroke-width="2.1" />
      <line clip-path="url(#clipPath23)" fill="none" x1="884" x2="45" y1="150" y2="150" stroke="rgb(136,136,136)" stroke-width="2.1" />
      <text x="387" y="150" clip-path="url(#clipPath26)" stroke="none" stroke-width="2.1" xml:space="preserve">oeCreateAlert()</text>
      <line clip-path="url(#clipPath27)" fill="none" x1="52" x2="45" y1="147" y2="150" stroke="rgb(136,136,136)" stroke-width="2.1" />
      <line clip-path="url(#clipPath27)" fill="none" x1="45" x2="52" y1="150" y2="153" stroke="rgb(136,136,136)" stroke-width="2.1" />
      <line clip-path="url(#clipPath23)" fill="none" x1="884" x2="45" y1="210" y2="210" stroke="rgb(136,136,136)" stroke-width="2.1" />
      <text x="385" y="210" clip-path="url(#clipPath28)" stroke="none" stroke-width="2.1" xml:space="preserve">oeCreateCrisis()</text>
      <line clip-path="url(#clipPath29)" fill="none" x1="52" x2="45" y1="207" y2="210" stroke="rgb(136,136,136)" stroke-width="2.1" />
      <line clip-path="url(#clipPath29)" fill="none" x1="45" x2="52" y1="210" y2="213" stroke="rgb(136,136,136)" stroke-width="2.1" />
      <line clip-path="url(#clipPath23)" fill="none" x1="884" x2="45" y1="270" y2="270" stroke="rgb(136,136,136)" stroke-width="2.1" />
      <text x="380" y="270" clip-path="url(#clipPath30)" stroke="none" stroke-width="2.1" xml:space="preserve">oeUpdateCrisis()</text>
      <line clip-path="url(#clipPath31)" fill="none" x1="52" x2="45" y1="267" y2="270" stroke="rgb(136,136,136)" stroke-width="2.1" />
      <line clip-path="url(#clipPath31)" fill="none" x1="45" x2="52" y1="270" y2="273" stroke="rgb(136,136,136)" stroke-width="2.1" />
      <line clip-path="url(#clipPath23)" fill="none" x1="1066" x2="45" y1="330" y2="330" stroke="rgb(136,136,136)" stroke-width="2.1" />
      <text x="450" y="330" clip-path="url(#clipPath32)" stroke="none" stroke-width="2.1" xml:space="preserve">oeSendNotification()</text>
      <line clip-path="url(#clipPath33)" fill="none" x1="52" x2="45" y1="327" y2="330" stroke="rgb(136,136,136)" stroke-width="2.1" />
      <line clip-path="url(#clipPath33)" fill="none" x1="45" x2="52" y1="330" y2="333" stroke="rgb(136,136,136)" stroke-width="2.1" />
    </g>
  </g>
</svg>

