<?xml version="1.0" encoding="UTF-8"?>
<svg xmlns="http://www.w3.org/2000/svg" xmlns:xlink="http://www.w3.org/1999/xlink" stroke-dasharray="none" shape-rendering="auto" font-family="'Dialog'" width="1354" text-rendering="auto" fill-opacity="1" contentScriptType="text/ecmascript" color-interpolation="auto" color-rendering="auto" preserveAspectRatio="xMidYMid meet" font-size="12" viewBox="0 0 1354 610" fill="black" stroke="black" image-rendering="auto" stroke-miterlimit="10" zoomAndPan="magnify" version="1.0" stroke-linecap="square" stroke-linejoin="miter" contentStyleType="text/css" font-style="normal" height="610" stroke-width="1" stroke-dashoffset="0" font-weight="normal" stroke-opacity="1">
  <!--Generated by the Batik Graphics2D SVG Generator-->
  <defs id="genericDefs" />
  <g>
    <defs id="defs1">
      <clipPath clipPathUnits="userSpaceOnUse" id="clipPath1">
        <path d="M9 9 L81 9 L81 41 L9 41 L9 9 Z" />
      </clipPath>
      <clipPath clipPathUnits="userSpaceOnUse" id="clipPath2">
        <path d="M39 39 L51 39 L51 601 L39 601 L39 39 Z" />
      </clipPath>
      <clipPath clipPathUnits="userSpaceOnUse" id="clipPath3">
        <path d="M663 9 L860 9 L860 61 L663 61 L663 9 Z" />
      </clipPath>
      <clipPath clipPathUnits="userSpaceOnUse" id="clipPath4">
        <path d="M663 9 L866 9 L866 61 L663 61 L663 9 Z" />
      </clipPath>
      <clipPath clipPathUnits="userSpaceOnUse" id="clipPath5">
        <path d="M663 9 L865 9 L865 61 L663 61 L663 9 Z" />
      </clipPath>
      <clipPath clipPathUnits="userSpaceOnUse" id="clipPath6">
        <path d="M755 59 L767 59 L767 601 L755 601 L755 59 Z" />
      </clipPath>
      <clipPath clipPathUnits="userSpaceOnUse" id="clipPath7">
        <path d="M750 89 L772 89 L772 131 L750 131 L750 89 Z" />
      </clipPath>
      <clipPath clipPathUnits="userSpaceOnUse" id="clipPath8">
        <path d="M771 89 L836 89 L836 122 L771 122 L771 89 Z" />
      </clipPath>
      <clipPath clipPathUnits="userSpaceOnUse" id="clipPath9">
        <path d="M750 329 L772 329 L772 371 L750 371 L750 329 Z" />
      </clipPath>
      <clipPath clipPathUnits="userSpaceOnUse" id="clipPath10">
        <path d="M771 329 L836 329 L836 362 L771 362 L771 329 Z" />
      </clipPath>
      <clipPath clipPathUnits="userSpaceOnUse" id="clipPath11">
        <path d="M750 269 L772 269 L772 311 L750 311 L750 269 Z" />
      </clipPath>
      <clipPath clipPathUnits="userSpaceOnUse" id="clipPath12">
        <path d="M771 269 L821 269 L821 302 L771 302 L771 269 Z" />
      </clipPath>
      <clipPath clipPathUnits="userSpaceOnUse" id="clipPath13">
        <path d="M750 509 L772 509 L772 551 L750 551 L750 509 Z" />
      </clipPath>
      <clipPath clipPathUnits="userSpaceOnUse" id="clipPath14">
        <path d="M771 509 L821 509 L821 542 L771 542 L771 509 Z" />
      </clipPath>
      <clipPath clipPathUnits="userSpaceOnUse" id="clipPath15">
        <path d="M868 9 L1113 9 L1113 61 L868 61 L868 9 Z" />
      </clipPath>
      <clipPath clipPathUnits="userSpaceOnUse" id="clipPath16">
        <path d="M868 9 L1118 9 L1118 61 L868 61 L868 9 Z" />
      </clipPath>
      <clipPath clipPathUnits="userSpaceOnUse" id="clipPath17">
        <path d="M984 59 L996 59 L996 601 L984 601 L984 59 Z" />
      </clipPath>
      <clipPath clipPathUnits="userSpaceOnUse" id="clipPath18">
        <path d="M979 209 L1001 209 L1001 251 L979 251 L979 209 Z" />
      </clipPath>
      <clipPath clipPathUnits="userSpaceOnUse" id="clipPath19">
        <path d="M1000 209 L1065 209 L1065 242 L1000 242 L1000 209 Z" />
      </clipPath>
      <clipPath clipPathUnits="userSpaceOnUse" id="clipPath20">
        <path d="M979 149 L1001 149 L1001 191 L979 191 L979 149 Z" />
      </clipPath>
      <clipPath clipPathUnits="userSpaceOnUse" id="clipPath21">
        <path d="M1000 149 L1050 149 L1050 182 L1000 182 L1000 149 Z" />
      </clipPath>
      <clipPath clipPathUnits="userSpaceOnUse" id="clipPath22">
        <path d="M1121 9 L1345 9 L1345 61 L1121 61 L1121 9 Z" />
      </clipPath>
      <clipPath clipPathUnits="userSpaceOnUse" id="clipPath23">
        <path d="M1121 9 L1350 9 L1350 61 L1121 61 L1121 9 Z" />
      </clipPath>
      <clipPath clipPathUnits="userSpaceOnUse" id="clipPath24">
        <path d="M1227 59 L1239 59 L1239 601 L1227 601 L1227 59 Z" />
      </clipPath>
      <clipPath clipPathUnits="userSpaceOnUse" id="clipPath25">
        <path d="M1222 449 L1244 449 L1244 491 L1222 491 L1222 449 Z" />
      </clipPath>
      <clipPath clipPathUnits="userSpaceOnUse" id="clipPath26">
        <path d="M1243 449 L1308 449 L1308 482 L1243 482 L1243 449 Z" />
      </clipPath>
      <clipPath clipPathUnits="userSpaceOnUse" id="clipPath27">
        <path d="M1222 389 L1244 389 L1244 431 L1222 431 L1222 389 Z" />
      </clipPath>
      <clipPath clipPathUnits="userSpaceOnUse" id="clipPath28">
        <path d="M1243 389 L1293 389 L1293 422 L1243 422 L1243 389 Z" />
      </clipPath>
      <clipPath clipPathUnits="userSpaceOnUse" id="clipPath29">
        <path d="M-1 -1 L1355 -1 L1355 611 L-1 611 L-1 -1 Z" />
      </clipPath>
      <clipPath clipPathUnits="userSpaceOnUse" id="clipPath30">
        <path d="M213 64 L589 64 L589 97 L213 97 L213 64 Z" />
      </clipPath>
      <clipPath clipPathUnits="userSpaceOnUse" id="clipPath31">
        <path d="M43 85 L55 85 L55 96 L43 96 L43 85 Z" />
      </clipPath>
      <clipPath clipPathUnits="userSpaceOnUse" id="clipPath32">
        <path d="M352 184 L679 184 L679 217 L352 217 L352 184 Z" />
      </clipPath>
      <clipPath clipPathUnits="userSpaceOnUse" id="clipPath33">
        <path d="M43 205 L55 205 L55 216 L43 216 L43 205 Z" />
      </clipPath>
      <clipPath clipPathUnits="userSpaceOnUse" id="clipPath34">
        <path d="M175 304 L627 304 L627 337 L175 337 L175 304 Z" />
      </clipPath>
      <clipPath clipPathUnits="userSpaceOnUse" id="clipPath35">
        <path d="M43 325 L55 325 L55 336 L43 336 L43 325 Z" />
      </clipPath>
      <clipPath clipPathUnits="userSpaceOnUse" id="clipPath36">
        <path d="M474 424 L800 424 L800 457 L474 457 L474 424 Z" />
      </clipPath>
      <clipPath clipPathUnits="userSpaceOnUse" id="clipPath37">
        <path d="M43 445 L55 445 L55 456 L43 456 L43 445 Z" />
      </clipPath>
      <clipPath clipPathUnits="userSpaceOnUse" id="clipPath38">
        <path d="M408 124 L624 124 L624 157 L408 157 L408 124 Z" />
      </clipPath>
      <clipPath clipPathUnits="userSpaceOnUse" id="clipPath39">
        <path d="M971 145 L983 145 L983 156 L971 156 L971 145 Z" />
      </clipPath>
      <clipPath clipPathUnits="userSpaceOnUse" id="clipPath40">
        <path d="M235 244 L567 244 L567 277 L235 277 L235 244 Z" />
      </clipPath>
      <clipPath clipPathUnits="userSpaceOnUse" id="clipPath41">
        <path d="M742 265 L754 265 L754 276 L742 276 L742 265 Z" />
      </clipPath>
      <clipPath clipPathUnits="userSpaceOnUse" id="clipPath42">
        <path d="M431 364 L842 364 L842 397 L431 397 L431 364 Z" />
      </clipPath>
      <clipPath clipPathUnits="userSpaceOnUse" id="clipPath43">
        <path d="M1214 385 L1226 385 L1226 396 L1214 396 L1214 385 Z" />
      </clipPath>
      <clipPath clipPathUnits="userSpaceOnUse" id="clipPath44">
        <path d="M63 484 L738 484 L738 517 L63 517 L63 484 Z" />
      </clipPath>
      <clipPath clipPathUnits="userSpaceOnUse" id="clipPath45">
        <path d="M742 505 L754 505 L754 516 L742 516 L742 505 Z" />
      </clipPath>
    </defs>
    <g font-size="15" fill="rgb(238,201,142)" font-family="'Segoe UI'" stroke-linejoin="round" stroke="rgb(238,201,142)" stroke-width="0" stroke-miterlimit="0">
      <rect x="10" y="10" clip-path="url(#clipPath1)" width="70" height="30" stroke="none" />
    </g>
    <g stroke-width="0.1" font-size="15" font-family="'Segoe UI'" stroke-linecap="butt">
      <rect x="10" y="10" clip-path="url(#clipPath1)" fill="none" width="69" height="29" />
      <line clip-path="url(#clipPath2)" fill="none" x1="44" x2="44" y1="40" y2="600" stroke-dasharray="10,10" stroke-width="1.1" />
    </g>
    <g stroke-linecap="butt" font-size="15" fill="rgb(255,245,181)" font-family="'Segoe UI'" stroke-dasharray="10,10" stroke="rgb(255,245,181)" stroke-width="1.1">
      <rect x="664" y="10" clip-path="url(#clipPath3)" width="195" height="50" stroke="none" />
    </g>
    <g stroke-width="0.1" font-size="15" font-family="'Segoe UI'" stroke-linecap="butt">
      <rect x="664" y="10" clip-path="url(#clipPath3)" fill="none" width="194" height="49" />
      <text x="714" font-size="23" y="29" clip-path="url(#clipPath4)" stroke="none" xml:space="preserve">MKremer</text>
      <text x="668" font-size="23" y="60" clip-path="url(#clipPath5)" stroke="none" xml:space="preserve">: actAuthenticated</text>
      <line clip-path="url(#clipPath6)" fill="none" x1="760" x2="760" y1="60" y2="600" stroke-dasharray="10,10" stroke-width="1.1" />
    </g>
    <g stroke-linecap="butt" font-size="15" fill="rgb(39,76,114)" font-family="'Segoe UI'" stroke-dasharray="10,10" stroke="rgb(39,76,114)" stroke-width="1.1">
      <rect x="751" y="90" clip-path="url(#clipPath7)" width="20" height="40" stroke="none" />
      <rect x="751" y="90" clip-path="url(#clipPath7)" fill="none" width="19" stroke-dasharray="none" height="39" stroke-width="0.1" />
    </g>
    <g stroke-width="0.1" font-size="23" font-family="'Segoe UI'" stroke-linecap="butt">
      <text xml:space="preserve" x="772" y="115" clip-path="url(#clipPath8)" stroke="none">out01</text>
      <rect x="751" y="330" clip-path="url(#clipPath9)" fill="rgb(39,76,114)" width="20" height="40" stroke="none" />
      <rect x="751" y="330" clip-path="url(#clipPath9)" fill="none" width="19" height="39" stroke="rgb(39,76,114)" />
      <text xml:space="preserve" x="772" y="355" clip-path="url(#clipPath10)" stroke="none">out03</text>
      <rect x="751" y="270" clip-path="url(#clipPath11)" fill="rgb(194,239,255)" width="20" height="40" stroke="none" />
      <rect x="751" y="270" clip-path="url(#clipPath11)" fill="none" width="19" height="39" stroke="rgb(194,239,255)" />
      <text xml:space="preserve" x="772" y="295" clip-path="url(#clipPath12)" stroke="none">in02</text>
      <rect x="751" y="510" clip-path="url(#clipPath13)" fill="rgb(194,239,255)" width="20" height="40" stroke="none" />
      <rect x="751" y="510" clip-path="url(#clipPath13)" fill="none" width="19" height="39" stroke="rgb(194,239,255)" />
      <text xml:space="preserve" x="772" y="535" clip-path="url(#clipPath14)" stroke="none">in04</text>
      <rect x="869" y="10" clip-path="url(#clipPath15)" fill="rgb(255,245,181)" width="243" height="50" stroke="none" />
      <rect x="869" y="10" clip-path="url(#clipPath15)" fill="none" width="242" height="49" />
      <text xml:space="preserve" x="897" y="29" clip-path="url(#clipPath16)" stroke="none">CaptchaGenerator</text>
      <text xml:space="preserve" x="876" y="60" clip-path="url(#clipPath16)" stroke="none">: actCaptchaGenerator</text>
      <line clip-path="url(#clipPath17)" fill="none" x1="989" x2="989" y1="60" y2="600" stroke-dasharray="10,10" stroke-width="1.1" />
    </g>
    <g stroke-linecap="butt" font-size="15" fill="rgb(39,76,114)" font-family="'Segoe UI'" stroke-dasharray="10,10" stroke="rgb(39,76,114)" stroke-width="1.1">
      <rect x="980" y="210" clip-path="url(#clipPath18)" width="20" height="40" stroke="none" />
      <rect x="980" y="210" clip-path="url(#clipPath18)" fill="none" width="19" stroke-dasharray="none" height="39" stroke-width="0.1" />
    </g>
    <g stroke-width="0.1" font-size="23" font-family="'Segoe UI'" stroke-linecap="butt">
      <text xml:space="preserve" x="1001" y="235" clip-path="url(#clipPath19)" stroke="none">out02</text>
      <rect x="980" y="150" clip-path="url(#clipPath20)" fill="rgb(194,239,255)" width="20" height="40" stroke="none" />
      <rect x="980" y="150" clip-path="url(#clipPath20)" fill="none" width="19" height="39" stroke="rgb(194,239,255)" />
      <text xml:space="preserve" x="1001" y="175" clip-path="url(#clipPath21)" stroke="none">in01</text>
      <rect x="1122" y="10" clip-path="url(#clipPath22)" fill="rgb(255,245,181)" width="222" height="50" stroke="none" />
      <rect x="1122" y="10" clip-path="url(#clipPath22)" fill="none" width="221" height="49" />
      <text xml:space="preserve" x="1145" y="29" clip-path="url(#clipPath23)" stroke="none">CaptchaValidator</text>
      <text xml:space="preserve" x="1124" y="60" clip-path="url(#clipPath23)" stroke="none">: actCaptchaValidator</text>
      <line clip-path="url(#clipPath24)" fill="none" x1="1232" x2="1232" y1="60" y2="600" stroke-dasharray="10,10" stroke-width="1.1" />
    </g>
    <g stroke-linecap="butt" font-size="15" fill="rgb(39,76,114)" font-family="'Segoe UI'" stroke-dasharray="10,10" stroke="rgb(39,76,114)" stroke-width="1.1">
      <rect x="1223" y="450" clip-path="url(#clipPath25)" width="20" height="40" stroke="none" />
      <rect x="1223" y="450" clip-path="url(#clipPath25)" fill="none" width="19" stroke-dasharray="none" height="39" stroke-width="0.1" />
    </g>
    <g stroke-width="0.1" font-size="23" font-family="'Segoe UI'" stroke-linecap="butt">
      <text xml:space="preserve" x="1244" y="475" clip-path="url(#clipPath26)" stroke="none">out04</text>
      <rect x="1223" y="390" clip-path="url(#clipPath27)" fill="rgb(194,239,255)" width="20" height="40" stroke="none" />
      <rect x="1223" y="390" clip-path="url(#clipPath27)" fill="none" width="19" height="39" stroke="rgb(194,239,255)" />
      <text xml:space="preserve" x="1244" y="415" clip-path="url(#clipPath28)" stroke="none">in03</text>
      <line clip-path="url(#clipPath29)" fill="none" x1="751" x2="45" y1="90" y2="90" stroke="rgb(136,136,136)" stroke-width="2.1" />
      <text x="214" y="90" clip-path="url(#clipPath30)" stroke="none" stroke-width="2.1" xml:space="preserve">oeLogin("mkremer003","Raichu124")</text>
      <line clip-path="url(#clipPath31)" fill="none" x1="52" x2="45" y1="87" y2="90" stroke="rgb(136,136,136)" stroke-width="2.1" />
      <line clip-path="url(#clipPath31)" fill="none" x1="45" x2="52" y1="90" y2="93" stroke="rgb(136,136,136)" stroke-width="2.1" />
      <line clip-path="url(#clipPath29)" fill="none" x1="980" x2="45" y1="210" y2="210" stroke="rgb(136,136,136)" stroke-width="2.1" />
      <text x="353" y="210" clip-path="url(#clipPath32)" stroke="none" stroke-width="2.1" xml:space="preserve">oeSendCaptcha("Captcha test")</text>
      <line clip-path="url(#clipPath33)" fill="none" x1="52" x2="45" y1="207" y2="210" stroke="rgb(136,136,136)" stroke-width="2.1" />
      <line clip-path="url(#clipPath33)" fill="none" x1="45" x2="52" y1="210" y2="213" stroke="rgb(136,136,136)" stroke-width="2.1" />
      <line clip-path="url(#clipPath29)" fill="none" x1="751" x2="45" y1="330" y2="330" stroke="rgb(136,136,136)" stroke-width="2.1" />
      <text x="176" y="330" clip-path="url(#clipPath34)" stroke="none" stroke-width="2.1" xml:space="preserve">oeSubmitCaptcha("Captcha user response")</text>
      <line clip-path="url(#clipPath35)" fill="none" x1="52" x2="45" y1="327" y2="330" stroke="rgb(136,136,136)" stroke-width="2.1" />
      <line clip-path="url(#clipPath35)" fill="none" x1="45" x2="52" y1="330" y2="333" stroke="rgb(136,136,136)" stroke-width="2.1" />
      <line clip-path="url(#clipPath29)" fill="none" x1="1223" x2="45" y1="450" y2="450" stroke="rgb(136,136,136)" stroke-width="2.1" />
      <text x="475" y="450" clip-path="url(#clipPath36)" stroke="none" stroke-width="2.1" xml:space="preserve">oeCaptchaInvalid("Captcha id")</text>
      <line clip-path="url(#clipPath37)" fill="none" x1="52" x2="45" y1="447" y2="450" stroke="rgb(136,136,136)" stroke-width="2.1" />
      <line clip-path="url(#clipPath37)" fill="none" x1="45" x2="52" y1="450" y2="453" stroke="rgb(136,136,136)" stroke-width="2.1" />
    </g>
    <g stroke-linecap="butt" font-size="23" fill="rgb(136,136,136)" font-family="'Segoe UI'" stroke-dasharray="5,5" stroke="rgb(136,136,136)" stroke-width="2.1">
      <line clip-path="url(#clipPath29)" fill="none" x1="980" x2="45" y1="150" y2="150" />
      <text x="409" y="150" clip-path="url(#clipPath38)" fill="black" stroke="none" xml:space="preserve">ieGenerateCaptcha()</text>
      <line clip-path="url(#clipPath39)" fill="none" x1="973" x2="980" y1="153" y2="150" stroke-dasharray="none" />
      <line clip-path="url(#clipPath39)" fill="none" x1="980" x2="973" y1="150" y2="147" stroke-dasharray="none" />
      <line clip-path="url(#clipPath29)" fill="none" x1="751" x2="45" y1="270" y2="270" />
      <text x="236" y="270" clip-path="url(#clipPath40)" fill="black" stroke="none" xml:space="preserve">ieConfirmCaptcha(Captcha test)</text>
      <line clip-path="url(#clipPath41)" fill="none" x1="744" x2="751" y1="273" y2="270" stroke-dasharray="none" />
      <line clip-path="url(#clipPath41)" fill="none" x1="751" x2="744" y1="270" y2="267" stroke-dasharray="none" />
      <line clip-path="url(#clipPath29)" fill="none" x1="1223" x2="45" y1="390" y2="390" />
      <text x="432" y="390" clip-path="url(#clipPath42)" fill="black" stroke="none" xml:space="preserve">ieVerifyCaptcha(Captcha user response)</text>
      <line clip-path="url(#clipPath43)" fill="none" x1="1216" x2="1223" y1="393" y2="390" stroke-dasharray="none" />
      <line clip-path="url(#clipPath43)" fill="none" x1="1223" x2="1216" y1="390" y2="387" stroke-dasharray="none" />
      <line clip-path="url(#clipPath29)" fill="none" x1="751" x2="45" y1="510" y2="510" />
      <text x="64" y="510" clip-path="url(#clipPath44)" fill="black" stroke="none" xml:space="preserve">ieMessage(Your submitted captcha response is invalid. Try again.)</text>
      <line clip-path="url(#clipPath45)" fill="none" x1="744" x2="751" y1="513" y2="510" stroke-dasharray="none" />
      <line clip-path="url(#clipPath45)" fill="none" x1="751" x2="744" y1="510" y2="507" stroke-dasharray="none" />
    </g>
  </g>
</svg>

