<?xml version="1.0" encoding="UTF-8"?>
<svg xmlns="http://www.w3.org/2000/svg" xmlns:xlink="http://www.w3.org/1999/xlink" stroke-dasharray="none" shape-rendering="auto" font-family="'Dialog'" width="1651" text-rendering="auto" fill-opacity="1" contentScriptType="text/ecmascript" color-interpolation="auto" color-rendering="auto" preserveAspectRatio="xMidYMid meet" font-size="12" viewBox="0 0 1651 785" fill="black" stroke="black" image-rendering="auto" stroke-miterlimit="10" zoomAndPan="magnify" version="1.0" stroke-linecap="square" stroke-linejoin="miter" contentStyleType="text/css" font-style="normal" height="785" stroke-width="1" stroke-dashoffset="0" font-weight="normal" stroke-opacity="1">
  <!--Generated by the Batik Graphics2D SVG Generator-->
  <defs id="genericDefs" />
  <g>
    <defs id="defs1">
      <clipPath clipPathUnits="userSpaceOnUse" id="clipPath1">
        <path d="M9 9 L81 9 L81 41 L9 41 L9 9 Z" />
      </clipPath>
      <clipPath clipPathUnits="userSpaceOnUse" id="clipPath2">
        <path d="M39 39 L51 39 L51 776 L39 776 L39 39 Z" />
      </clipPath>
      <clipPath clipPathUnits="userSpaceOnUse" id="clipPath3">
        <path d="M722 9 L924 9 L924 61 L722 61 L722 9 Z" />
      </clipPath>
      <clipPath clipPathUnits="userSpaceOnUse" id="clipPath4">
        <path d="M722 9 L930 9 L930 61 L722 61 L722 9 Z" />
      </clipPath>
      <clipPath clipPathUnits="userSpaceOnUse" id="clipPath5">
        <path d="M722 9 L929 9 L929 61 L722 61 L722 9 Z" />
      </clipPath>
      <clipPath clipPathUnits="userSpaceOnUse" id="clipPath6">
        <path d="M817 59 L829 59 L829 776 L817 776 L817 59 Z" />
      </clipPath>
      <clipPath clipPathUnits="userSpaceOnUse" id="clipPath7">
        <path d="M812 89 L834 89 L834 131 L812 131 L812 89 Z" />
      </clipPath>
      <clipPath clipPathUnits="userSpaceOnUse" id="clipPath8">
        <path d="M833 89 L898 89 L898 122 L833 122 L833 89 Z" />
      </clipPath>
      <clipPath clipPathUnits="userSpaceOnUse" id="clipPath9">
        <path d="M812 329 L834 329 L834 371 L812 371 L812 329 Z" />
      </clipPath>
      <clipPath clipPathUnits="userSpaceOnUse" id="clipPath10">
        <path d="M833 329 L898 329 L898 362 L833 362 L833 329 Z" />
      </clipPath>
      <clipPath clipPathUnits="userSpaceOnUse" id="clipPath11">
        <path d="M812 269 L834 269 L834 311 L812 311 L812 269 Z" />
      </clipPath>
      <clipPath clipPathUnits="userSpaceOnUse" id="clipPath12">
        <path d="M833 269 L883 269 L883 302 L833 302 L833 269 Z" />
      </clipPath>
      <clipPath clipPathUnits="userSpaceOnUse" id="clipPath13">
        <path d="M812 684 L834 684 L834 726 L812 726 L812 684 Z" />
      </clipPath>
      <clipPath clipPathUnits="userSpaceOnUse" id="clipPath14">
        <path d="M833 684 L883 684 L883 717 L833 717 L833 684 Z" />
      </clipPath>
      <clipPath clipPathUnits="userSpaceOnUse" id="clipPath15">
        <path d="M932 9 L1175 9 L1175 61 L932 61 L932 9 Z" />
      </clipPath>
      <clipPath clipPathUnits="userSpaceOnUse" id="clipPath16">
        <path d="M932 9 L1180 9 L1180 61 L932 61 L932 9 Z" />
      </clipPath>
      <clipPath clipPathUnits="userSpaceOnUse" id="clipPath17">
        <path d="M1047 59 L1059 59 L1059 776 L1047 776 L1047 59 Z" />
      </clipPath>
      <clipPath clipPathUnits="userSpaceOnUse" id="clipPath18">
        <path d="M1042 209 L1064 209 L1064 251 L1042 251 L1042 209 Z" />
      </clipPath>
      <clipPath clipPathUnits="userSpaceOnUse" id="clipPath19">
        <path d="M1063 209 L1128 209 L1128 242 L1063 242 L1063 209 Z" />
      </clipPath>
      <clipPath clipPathUnits="userSpaceOnUse" id="clipPath20">
        <path d="M1042 149 L1064 149 L1064 191 L1042 191 L1042 149 Z" />
      </clipPath>
      <clipPath clipPathUnits="userSpaceOnUse" id="clipPath21">
        <path d="M1063 149 L1113 149 L1113 182 L1063 182 L1063 149 Z" />
      </clipPath>
      <clipPath clipPathUnits="userSpaceOnUse" id="clipPath22">
        <path d="M1183 9 L1420 9 L1420 61 L1183 61 L1183 9 Z" />
      </clipPath>
      <clipPath clipPathUnits="userSpaceOnUse" id="clipPath23">
        <path d="M1183 9 L1425 9 L1425 61 L1183 61 L1183 9 Z" />
      </clipPath>
      <clipPath clipPathUnits="userSpaceOnUse" id="clipPath24">
        <path d="M1295 59 L1307 59 L1307 776 L1295 776 L1295 59 Z" />
      </clipPath>
      <clipPath clipPathUnits="userSpaceOnUse" id="clipPath25">
        <path d="M1290 449 L1312 449 L1312 491 L1290 491 L1290 449 Z" />
      </clipPath>
      <clipPath clipPathUnits="userSpaceOnUse" id="clipPath26">
        <path d="M1311 449 L1376 449 L1376 482 L1311 482 L1311 449 Z" />
      </clipPath>
      <clipPath clipPathUnits="userSpaceOnUse" id="clipPath27">
        <path d="M1290 389 L1312 389 L1312 431 L1290 431 L1290 389 Z" />
      </clipPath>
      <clipPath clipPathUnits="userSpaceOnUse" id="clipPath28">
        <path d="M1311 389 L1361 389 L1361 422 L1311 422 L1311 389 Z" />
      </clipPath>
      <clipPath clipPathUnits="userSpaceOnUse" id="clipPath29">
        <path d="M1428 9 L1642 9 L1642 61 L1428 61 L1428 9 Z" />
      </clipPath>
      <clipPath clipPathUnits="userSpaceOnUse" id="clipPath30">
        <path d="M1428 9 L1648 9 L1648 61 L1428 61 L1428 9 Z" />
      </clipPath>
      <clipPath clipPathUnits="userSpaceOnUse" id="clipPath31">
        <path d="M1428 9 L1647 9 L1647 61 L1428 61 L1428 9 Z" />
      </clipPath>
      <clipPath clipPathUnits="userSpaceOnUse" id="clipPath32">
        <path d="M1529 59 L1541 59 L1541 776 L1529 776 L1529 59 Z" />
      </clipPath>
      <clipPath clipPathUnits="userSpaceOnUse" id="clipPath33">
        <path d="M1524 576 L1546 576 L1546 618 L1524 618 L1524 576 Z" />
      </clipPath>
      <clipPath clipPathUnits="userSpaceOnUse" id="clipPath34">
        <path d="M1545 576 L1595 576 L1595 609 L1545 609 L1545 576 Z" />
      </clipPath>
      <clipPath clipPathUnits="userSpaceOnUse" id="clipPath35">
        <path d="M-1 -1 L1652 -1 L1652 786 L-1 786 L-1 -1 Z" />
      </clipPath>
      <clipPath clipPathUnits="userSpaceOnUse" id="clipPath36">
        <path d="M244 64 L620 64 L620 97 L244 97 L244 64 Z" />
      </clipPath>
      <clipPath clipPathUnits="userSpaceOnUse" id="clipPath37">
        <path d="M43 85 L55 85 L55 96 L43 96 L43 85 Z" />
      </clipPath>
      <clipPath clipPathUnits="userSpaceOnUse" id="clipPath38">
        <path d="M383 184 L710 184 L710 217 L383 217 L383 184 Z" />
      </clipPath>
      <clipPath clipPathUnits="userSpaceOnUse" id="clipPath39">
        <path d="M43 205 L55 205 L55 216 L43 216 L43 205 Z" />
      </clipPath>
      <clipPath clipPathUnits="userSpaceOnUse" id="clipPath40">
        <path d="M206 304 L658 304 L658 337 L206 337 L206 304 Z" />
      </clipPath>
      <clipPath clipPathUnits="userSpaceOnUse" id="clipPath41">
        <path d="M43 325 L55 325 L55 336 L43 336 L43 325 Z" />
      </clipPath>
      <clipPath clipPathUnits="userSpaceOnUse" id="clipPath42">
        <path d="M508 424 L834 424 L834 457 L508 457 L508 424 Z" />
      </clipPath>
      <clipPath clipPathUnits="userSpaceOnUse" id="clipPath43">
        <path d="M43 445 L55 445 L55 456 L43 456 L43 445 Z" />
      </clipPath>
      <clipPath clipPathUnits="userSpaceOnUse" id="clipPath44">
        <path d="M439 124 L655 124 L655 157 L439 157 L439 124 Z" />
      </clipPath>
      <clipPath clipPathUnits="userSpaceOnUse" id="clipPath45">
        <path d="M1034 145 L1046 145 L1046 156 L1034 156 L1034 145 Z" />
      </clipPath>
      <clipPath clipPathUnits="userSpaceOnUse" id="clipPath46">
        <path d="M266 244 L598 244 L598 277 L266 277 L266 244 Z" />
      </clipPath>
      <clipPath clipPathUnits="userSpaceOnUse" id="clipPath47">
        <path d="M804 265 L816 265 L816 276 L804 276 L804 265 Z" />
      </clipPath>
      <clipPath clipPathUnits="userSpaceOnUse" id="clipPath48">
        <path d="M465 364 L876 364 L876 397 L465 397 L465 364 Z" />
      </clipPath>
      <clipPath clipPathUnits="userSpaceOnUse" id="clipPath49">
        <path d="M1282 385 L1294 385 L1294 396 L1282 396 L1282 385 Z" />
      </clipPath>
      <clipPath clipPathUnits="userSpaceOnUse" id="clipPath50">
        <path d="M52 493 L1350 493 L1350 577 L52 577 L52 493 Z" />
      </clipPath>
      <clipPath clipPathUnits="userSpaceOnUse" id="clipPath51">
        <path d="M52 493 L1349 493 L1349 577 L52 577 L52 493 Z" />
      </clipPath>
      <clipPath clipPathUnits="userSpaceOnUse" id="clipPath52">
        <path d="M1516 572 L1528 572 L1528 583 L1516 583 L1516 572 Z" />
      </clipPath>
      <clipPath clipPathUnits="userSpaceOnUse" id="clipPath53">
        <path d="M34 614 L856 614 L856 687 L34 687 L34 614 Z" />
      </clipPath>
      <clipPath clipPathUnits="userSpaceOnUse" id="clipPath54">
        <path d="M804 680 L816 680 L816 691 L804 691 L804 680 Z" />
      </clipPath>
    </defs>
    <g font-size="15" fill="rgb(238,201,142)" font-family="'Segoe UI'" stroke-linejoin="round" stroke="rgb(238,201,142)" stroke-width="0" stroke-miterlimit="0">
      <rect x="10" y="10" clip-path="url(#clipPath1)" width="70" height="30" stroke="none" />
    </g>
    <g stroke-width="0.1" font-size="15" font-family="'Segoe UI'" stroke-linecap="butt">
      <rect x="10" y="10" clip-path="url(#clipPath1)" fill="none" width="69" height="29" />
      <line clip-path="url(#clipPath2)" fill="none" x1="44" x2="44" y1="40" y2="775" stroke-dasharray="10,10" stroke-width="1.1" />
    </g>
    <g stroke-linecap="butt" font-size="15" fill="rgb(255,245,181)" font-family="'Segoe UI'" stroke-dasharray="10,10" stroke="rgb(255,245,181)" stroke-width="1.1">
      <rect x="723" y="10" clip-path="url(#clipPath3)" width="200" height="50" stroke="none" />
    </g>
    <g stroke-width="0.1" font-size="15" font-family="'Segoe UI'" stroke-linecap="butt">
      <rect x="723" y="10" clip-path="url(#clipPath3)" fill="none" width="199" height="49" />
      <text x="775" font-size="23" y="29" clip-path="url(#clipPath4)" stroke="none" xml:space="preserve">MKremer</text>
      <text x="729" font-size="23" y="60" clip-path="url(#clipPath5)" stroke="none" xml:space="preserve">: actAuthenticated</text>
      <line clip-path="url(#clipPath6)" fill="none" x1="822" x2="822" y1="60" y2="775" stroke-dasharray="10,10" stroke-width="1.1" />
    </g>
    <g stroke-linecap="butt" font-size="15" fill="rgb(39,76,114)" font-family="'Segoe UI'" stroke-dasharray="10,10" stroke="rgb(39,76,114)" stroke-width="1.1">
      <rect x="813" y="90" clip-path="url(#clipPath7)" width="20" height="40" stroke="none" />
      <rect x="813" y="90" clip-path="url(#clipPath7)" fill="none" width="19" stroke-dasharray="none" height="39" stroke-width="0.1" />
    </g>
    <g stroke-width="0.1" font-size="23" font-family="'Segoe UI'" stroke-linecap="butt">
      <text xml:space="preserve" x="834" y="115" clip-path="url(#clipPath8)" stroke="none">out01</text>
      <rect x="813" y="330" clip-path="url(#clipPath9)" fill="rgb(39,76,114)" width="20" height="40" stroke="none" />
      <rect x="813" y="330" clip-path="url(#clipPath9)" fill="none" width="19" height="39" stroke="rgb(39,76,114)" />
      <text xml:space="preserve" x="834" y="355" clip-path="url(#clipPath10)" stroke="none">out03</text>
      <rect x="813" y="270" clip-path="url(#clipPath11)" fill="rgb(194,239,255)" width="20" height="40" stroke="none" />
      <rect x="813" y="270" clip-path="url(#clipPath11)" fill="none" width="19" height="39" stroke="rgb(194,239,255)" />
      <text xml:space="preserve" x="834" y="295" clip-path="url(#clipPath12)" stroke="none">in02</text>
      <rect x="813" y="685" clip-path="url(#clipPath13)" fill="rgb(194,239,255)" width="20" height="40" stroke="none" />
      <rect x="813" y="685" clip-path="url(#clipPath13)" fill="none" width="19" height="39" stroke="rgb(194,239,255)" />
      <text xml:space="preserve" x="834" y="710" clip-path="url(#clipPath14)" stroke="none">in05</text>
      <rect x="933" y="10" clip-path="url(#clipPath15)" fill="rgb(255,245,181)" width="241" height="50" stroke="none" />
      <rect x="933" y="10" clip-path="url(#clipPath15)" fill="none" width="240" height="49" />
      <text xml:space="preserve" x="960" y="29" clip-path="url(#clipPath16)" stroke="none">CaptchaGenerator</text>
      <text xml:space="preserve" x="939" y="60" clip-path="url(#clipPath16)" stroke="none">: actCaptchaGenerator</text>
      <line clip-path="url(#clipPath17)" fill="none" x1="1052" x2="1052" y1="60" y2="775" stroke-dasharray="10,10" stroke-width="1.1" />
    </g>
    <g stroke-linecap="butt" font-size="15" fill="rgb(39,76,114)" font-family="'Segoe UI'" stroke-dasharray="10,10" stroke="rgb(39,76,114)" stroke-width="1.1">
      <rect x="1043" y="210" clip-path="url(#clipPath18)" width="20" height="40" stroke="none" />
      <rect x="1043" y="210" clip-path="url(#clipPath18)" fill="none" width="19" stroke-dasharray="none" height="39" stroke-width="0.1" />
    </g>
    <g stroke-width="0.1" font-size="23" font-family="'Segoe UI'" stroke-linecap="butt">
      <text xml:space="preserve" x="1064" y="235" clip-path="url(#clipPath19)" stroke="none">out02</text>
      <rect x="1043" y="150" clip-path="url(#clipPath20)" fill="rgb(194,239,255)" width="20" height="40" stroke="none" />
      <rect x="1043" y="150" clip-path="url(#clipPath20)" fill="none" width="19" height="39" stroke="rgb(194,239,255)" />
      <text xml:space="preserve" x="1064" y="175" clip-path="url(#clipPath21)" stroke="none">in01</text>
      <rect x="1184" y="10" clip-path="url(#clipPath22)" fill="rgb(255,245,181)" width="235" height="50" stroke="none" />
      <rect x="1184" y="10" clip-path="url(#clipPath22)" fill="none" width="234" height="49" />
      <text xml:space="preserve" x="1214" y="29" clip-path="url(#clipPath23)" stroke="none">CaptchaValidator</text>
      <text xml:space="preserve" x="1193" y="60" clip-path="url(#clipPath23)" stroke="none">: actCaptchaValidator</text>
      <line clip-path="url(#clipPath24)" fill="none" x1="1300" x2="1300" y1="60" y2="775" stroke-dasharray="10,10" stroke-width="1.1" />
    </g>
    <g stroke-linecap="butt" font-size="15" fill="rgb(39,76,114)" font-family="'Segoe UI'" stroke-dasharray="10,10" stroke="rgb(39,76,114)" stroke-width="1.1">
      <rect x="1291" y="450" clip-path="url(#clipPath25)" width="20" height="40" stroke="none" />
      <rect x="1291" y="450" clip-path="url(#clipPath25)" fill="none" width="19" stroke-dasharray="none" height="39" stroke-width="0.1" />
    </g>
    <g stroke-width="0.1" font-size="23" font-family="'Segoe UI'" stroke-linecap="butt">
      <text xml:space="preserve" x="1312" y="475" clip-path="url(#clipPath26)" stroke="none">out04</text>
      <rect x="1291" y="390" clip-path="url(#clipPath27)" fill="rgb(194,239,255)" width="20" height="40" stroke="none" />
      <rect x="1291" y="390" clip-path="url(#clipPath27)" fill="none" width="19" height="39" stroke="rgb(194,239,255)" />
      <text xml:space="preserve" x="1312" y="415" clip-path="url(#clipPath28)" stroke="none">in03</text>
      <rect x="1429" y="10" clip-path="url(#clipPath29)" fill="rgb(255,245,181)" width="212" height="50" stroke="none" />
      <rect x="1429" y="10" clip-path="url(#clipPath29)" fill="none" width="211" height="49" />
      <text xml:space="preserve" x="1504" y="29" clip-path="url(#clipPath30)" stroke="none">GMail</text>
      <text xml:space="preserve" x="1439" y="60" clip-path="url(#clipPath31)" stroke="none">: actMailingService</text>
      <line clip-path="url(#clipPath32)" fill="none" x1="1534" x2="1534" y1="60" y2="775" stroke-dasharray="10,10" stroke-width="1.1" />
    </g>
    <g stroke-linecap="butt" font-size="15" fill="rgb(194,239,255)" font-family="'Segoe UI'" stroke-dasharray="10,10" stroke="rgb(194,239,255)" stroke-width="1.1">
      <rect x="1525" y="577" clip-path="url(#clipPath33)" width="20" height="40" stroke="none" />
      <rect x="1525" y="577" clip-path="url(#clipPath33)" fill="none" width="19" stroke-dasharray="none" height="39" stroke-width="0.1" />
    </g>
    <g stroke-width="0.1" font-size="23" font-family="'Segoe UI'" stroke-linecap="butt">
      <text xml:space="preserve" x="1546" y="602" clip-path="url(#clipPath34)" stroke="none">in04</text>
      <line clip-path="url(#clipPath35)" fill="none" x1="813" x2="45" y1="90" y2="90" stroke="rgb(136,136,136)" stroke-width="2.1" />
      <text x="245" y="90" clip-path="url(#clipPath36)" stroke="none" stroke-width="2.1" xml:space="preserve">oeLogin("mkremer003","Raichu124")</text>
      <line clip-path="url(#clipPath37)" fill="none" x1="52" x2="45" y1="87" y2="90" stroke="rgb(136,136,136)" stroke-width="2.1" />
      <line clip-path="url(#clipPath37)" fill="none" x1="45" x2="52" y1="90" y2="93" stroke="rgb(136,136,136)" stroke-width="2.1" />
      <line clip-path="url(#clipPath35)" fill="none" x1="1043" x2="45" y1="210" y2="210" stroke="rgb(136,136,136)" stroke-width="2.1" />
      <text x="384" y="210" clip-path="url(#clipPath38)" stroke="none" stroke-width="2.1" xml:space="preserve">oeSendCaptcha("Captcha test")</text>
      <line clip-path="url(#clipPath39)" fill="none" x1="52" x2="45" y1="207" y2="210" stroke="rgb(136,136,136)" stroke-width="2.1" />
      <line clip-path="url(#clipPath39)" fill="none" x1="45" x2="52" y1="210" y2="213" stroke="rgb(136,136,136)" stroke-width="2.1" />
      <line clip-path="url(#clipPath35)" fill="none" x1="813" x2="45" y1="330" y2="330" stroke="rgb(136,136,136)" stroke-width="2.1" />
      <text x="207" y="330" clip-path="url(#clipPath40)" stroke="none" stroke-width="2.1" xml:space="preserve">oeSubmitCaptcha("Captcha user response")</text>
      <line clip-path="url(#clipPath41)" fill="none" x1="52" x2="45" y1="327" y2="330" stroke="rgb(136,136,136)" stroke-width="2.1" />
      <line clip-path="url(#clipPath41)" fill="none" x1="45" x2="52" y1="330" y2="333" stroke="rgb(136,136,136)" stroke-width="2.1" />
      <line clip-path="url(#clipPath35)" fill="none" x1="1291" x2="45" y1="450" y2="450" stroke="rgb(136,136,136)" stroke-width="2.1" />
      <text x="509" y="450" clip-path="url(#clipPath42)" stroke="none" stroke-width="2.1" xml:space="preserve">oeCaptchaInvalid("Captcha id")</text>
      <line clip-path="url(#clipPath43)" fill="none" x1="52" x2="45" y1="447" y2="450" stroke="rgb(136,136,136)" stroke-width="2.1" />
      <line clip-path="url(#clipPath43)" fill="none" x1="45" x2="52" y1="450" y2="453" stroke="rgb(136,136,136)" stroke-width="2.1" />
    </g>
    <g stroke-linecap="butt" font-size="23" fill="rgb(136,136,136)" font-family="'Segoe UI'" stroke-dasharray="5,5" stroke="rgb(136,136,136)" stroke-width="2.1">
      <line clip-path="url(#clipPath35)" fill="none" x1="1043" x2="45" y1="150" y2="150" />
      <text x="440" y="150" clip-path="url(#clipPath44)" fill="black" stroke="none" xml:space="preserve">ieGenerateCaptcha()</text>
      <line clip-path="url(#clipPath45)" fill="none" x1="1036" x2="1043" y1="153" y2="150" stroke-dasharray="none" />
      <line clip-path="url(#clipPath45)" fill="none" x1="1043" x2="1036" y1="150" y2="147" stroke-dasharray="none" />
      <line clip-path="url(#clipPath35)" fill="none" x1="813" x2="45" y1="270" y2="270" />
      <text x="267" y="270" clip-path="url(#clipPath46)" fill="black" stroke="none" xml:space="preserve">ieConfirmCaptcha(Captcha test)</text>
      <line clip-path="url(#clipPath47)" fill="none" x1="806" x2="813" y1="273" y2="270" stroke-dasharray="none" />
      <line clip-path="url(#clipPath47)" fill="none" x1="813" x2="806" y1="270" y2="267" stroke-dasharray="none" />
      <line clip-path="url(#clipPath35)" fill="none" x1="1291" x2="45" y1="390" y2="390" />
      <text x="466" y="390" clip-path="url(#clipPath48)" fill="black" stroke="none" xml:space="preserve">ieVerifyCaptcha(Captcha user response)</text>
      <line clip-path="url(#clipPath49)" fill="none" x1="1284" x2="1291" y1="393" y2="390" stroke-dasharray="none" />
      <line clip-path="url(#clipPath49)" fill="none" x1="1291" x2="1284" y1="390" y2="387" stroke-dasharray="none" />
      <line clip-path="url(#clipPath35)" fill="none" x1="1525" x2="45" y1="577" y2="577" />
      <text x="71" y="529" clip-path="url(#clipPath50)" fill="black" stroke="none" xml:space="preserve">ieSendMail(michel.kremer.003@student.uni.lu,Your account has been locked,Notification and unblocking instructions (a bit </text>
      <text x="573" y="560" clip-path="url(#clipPath51)" fill="black" stroke="none" xml:space="preserve">too long to write here...))</text>
      <line clip-path="url(#clipPath52)" fill="none" x1="1518" x2="1525" y1="580" y2="577" stroke-dasharray="none" />
      <line clip-path="url(#clipPath52)" fill="none" x1="1525" x2="1518" y1="577" y2="574" stroke-dasharray="none" />
      <line clip-path="url(#clipPath35)" fill="none" x1="813" x2="45" y1="685" y2="685" />
      <text x="56" y="644" clip-path="url(#clipPath53)" fill="black" stroke="none" xml:space="preserve">ieMessage(Your user name will be blocked for logging in. Please contact an </text>
      <text x="367" y="675" clip-path="url(#clipPath53)" fill="black" stroke="none" xml:space="preserve">administrator.)</text>
      <line clip-path="url(#clipPath54)" fill="none" x1="806" x2="813" y1="688" y2="685" stroke-dasharray="none" />
      <line clip-path="url(#clipPath54)" fill="none" x1="813" x2="806" y1="685" y2="682" stroke-dasharray="none" />
    </g>
  </g>
</svg>

