<?xml version="1.0" encoding="UTF-8"?>
<svg xmlns="http://www.w3.org/2000/svg" xmlns:xlink="http://www.w3.org/1999/xlink" stroke-dasharray="none" shape-rendering="auto" font-family="'Dialog'" width="1354" text-rendering="auto" fill-opacity="1" contentScriptType="text/ecmascript" color-interpolation="auto" color-rendering="auto" preserveAspectRatio="xMidYMid meet" font-size="12" viewBox="0 0 1354 640" fill="black" stroke="black" image-rendering="auto" stroke-miterlimit="10" zoomAndPan="magnify" version="1.0" stroke-linecap="square" stroke-linejoin="miter" contentStyleType="text/css" font-style="normal" height="640" stroke-width="1" stroke-dashoffset="0" font-weight="normal" stroke-opacity="1">
  <!--Generated by the Batik Graphics2D SVG Generator-->
  <defs id="genericDefs" />
  <g>
    <defs id="defs1">
      <clipPath clipPathUnits="userSpaceOnUse" id="clipPath1">
        <path d="M9 9 L81 9 L81 41 L9 41 L9 9 Z" />
      </clipPath>
      <clipPath clipPathUnits="userSpaceOnUse" id="clipPath2">
        <path d="M39 39 L51 39 L51 631 L39 631 L39 39 Z" />
      </clipPath>
      <clipPath clipPathUnits="userSpaceOnUse" id="clipPath3">
        <path d="M663 9 L860 9 L860 61 L663 61 L663 9 Z" />
      </clipPath>
      <clipPath clipPathUnits="userSpaceOnUse" id="clipPath4">
        <path d="M663 9 L866 9 L866 61 L663 61 L663 9 Z" />
      </clipPath>
      <clipPath clipPathUnits="userSpaceOnUse" id="clipPath5">
        <path d="M663 9 L865 9 L865 61 L663 61 L663 9 Z" />
      </clipPath>
      <clipPath clipPathUnits="userSpaceOnUse" id="clipPath6">
        <path d="M755 59 L767 59 L767 631 L755 631 L755 59 Z" />
      </clipPath>
      <clipPath clipPathUnits="userSpaceOnUse" id="clipPath7">
        <path d="M750 89 L772 89 L772 131 L750 131 L750 89 Z" />
      </clipPath>
      <clipPath clipPathUnits="userSpaceOnUse" id="clipPath8">
        <path d="M771 89 L836 89 L836 122 L771 122 L771 89 Z" />
      </clipPath>
      <clipPath clipPathUnits="userSpaceOnUse" id="clipPath9">
        <path d="M750 359 L772 359 L772 401 L750 401 L750 359 Z" />
      </clipPath>
      <clipPath clipPathUnits="userSpaceOnUse" id="clipPath10">
        <path d="M771 359 L836 359 L836 392 L771 392 L771 359 Z" />
      </clipPath>
      <clipPath clipPathUnits="userSpaceOnUse" id="clipPath11">
        <path d="M750 539 L772 539 L772 581 L750 581 L750 539 Z" />
      </clipPath>
      <clipPath clipPathUnits="userSpaceOnUse" id="clipPath12">
        <path d="M771 539 L821 539 L821 572 L771 572 L771 539 Z" />
      </clipPath>
      <clipPath clipPathUnits="userSpaceOnUse" id="clipPath13">
        <path d="M750 314 L772 314 L772 356 L750 356 L750 314 Z" />
      </clipPath>
      <clipPath clipPathUnits="userSpaceOnUse" id="clipPath14">
        <path d="M771 314 L821 314 L821 347 L771 347 L771 314 Z" />
      </clipPath>
      <clipPath clipPathUnits="userSpaceOnUse" id="clipPath15">
        <path d="M868 9 L1113 9 L1113 61 L868 61 L868 9 Z" />
      </clipPath>
      <clipPath clipPathUnits="userSpaceOnUse" id="clipPath16">
        <path d="M868 9 L1118 9 L1118 61 L868 61 L868 9 Z" />
      </clipPath>
      <clipPath clipPathUnits="userSpaceOnUse" id="clipPath17">
        <path d="M984 59 L996 59 L996 631 L984 631 L984 59 Z" />
      </clipPath>
      <clipPath clipPathUnits="userSpaceOnUse" id="clipPath18">
        <path d="M979 209 L1001 209 L1001 251 L979 251 L979 209 Z" />
      </clipPath>
      <clipPath clipPathUnits="userSpaceOnUse" id="clipPath19">
        <path d="M1000 209 L1065 209 L1065 242 L1000 242 L1000 209 Z" />
      </clipPath>
      <clipPath clipPathUnits="userSpaceOnUse" id="clipPath20">
        <path d="M979 149 L1001 149 L1001 191 L979 191 L979 149 Z" />
      </clipPath>
      <clipPath clipPathUnits="userSpaceOnUse" id="clipPath21">
        <path d="M1000 149 L1050 149 L1050 182 L1000 182 L1000 149 Z" />
      </clipPath>
      <clipPath clipPathUnits="userSpaceOnUse" id="clipPath22">
        <path d="M1121 9 L1345 9 L1345 61 L1121 61 L1121 9 Z" />
      </clipPath>
      <clipPath clipPathUnits="userSpaceOnUse" id="clipPath23">
        <path d="M1121 9 L1350 9 L1350 61 L1121 61 L1121 9 Z" />
      </clipPath>
      <clipPath clipPathUnits="userSpaceOnUse" id="clipPath24">
        <path d="M1227 59 L1239 59 L1239 631 L1227 631 L1227 59 Z" />
      </clipPath>
      <clipPath clipPathUnits="userSpaceOnUse" id="clipPath25">
        <path d="M1222 479 L1244 479 L1244 521 L1222 521 L1222 479 Z" />
      </clipPath>
      <clipPath clipPathUnits="userSpaceOnUse" id="clipPath26">
        <path d="M1243 479 L1308 479 L1308 512 L1243 512 L1243 479 Z" />
      </clipPath>
      <clipPath clipPathUnits="userSpaceOnUse" id="clipPath27">
        <path d="M1222 419 L1244 419 L1244 461 L1222 461 L1222 419 Z" />
      </clipPath>
      <clipPath clipPathUnits="userSpaceOnUse" id="clipPath28">
        <path d="M1243 419 L1293 419 L1293 452 L1243 452 L1243 419 Z" />
      </clipPath>
      <clipPath clipPathUnits="userSpaceOnUse" id="clipPath29">
        <path d="M1222 269 L1244 269 L1244 311 L1222 311 L1222 269 Z" />
      </clipPath>
      <clipPath clipPathUnits="userSpaceOnUse" id="clipPath30">
        <path d="M1243 269 L1293 269 L1293 302 L1243 302 L1243 269 Z" />
      </clipPath>
      <clipPath clipPathUnits="userSpaceOnUse" id="clipPath31">
        <path d="M-1 -1 L1355 -1 L1355 641 L-1 641 L-1 -1 Z" />
      </clipPath>
      <clipPath clipPathUnits="userSpaceOnUse" id="clipPath32">
        <path d="M213 64 L589 64 L589 97 L213 97 L213 64 Z" />
      </clipPath>
      <clipPath clipPathUnits="userSpaceOnUse" id="clipPath33">
        <path d="M43 85 L55 85 L55 96 L43 96 L43 85 Z" />
      </clipPath>
      <clipPath clipPathUnits="userSpaceOnUse" id="clipPath34">
        <path d="M260 184 L772 184 L772 217 L260 217 L260 184 Z" />
      </clipPath>
      <clipPath clipPathUnits="userSpaceOnUse" id="clipPath35">
        <path d="M43 205 L55 205 L55 216 L43 216 L43 205 Z" />
      </clipPath>
      <clipPath clipPathUnits="userSpaceOnUse" id="clipPath36">
        <path d="M175 334 L627 334 L627 367 L175 367 L175 334 Z" />
      </clipPath>
      <clipPath clipPathUnits="userSpaceOnUse" id="clipPath37">
        <path d="M43 355 L55 355 L55 366 L43 366 L43 355 Z" />
      </clipPath>
      <clipPath clipPathUnits="userSpaceOnUse" id="clipPath38">
        <path d="M474 454 L800 454 L800 487 L474 487 L474 454 Z" />
      </clipPath>
      <clipPath clipPathUnits="userSpaceOnUse" id="clipPath39">
        <path d="M43 475 L55 475 L55 486 L43 486 L43 475 Z" />
      </clipPath>
      <clipPath clipPathUnits="userSpaceOnUse" id="clipPath40">
        <path d="M408 124 L624 124 L624 157 L408 157 L408 124 Z" />
      </clipPath>
      <clipPath clipPathUnits="userSpaceOnUse" id="clipPath41">
        <path d="M971 145 L983 145 L983 156 L971 156 L971 145 Z" />
      </clipPath>
      <clipPath clipPathUnits="userSpaceOnUse" id="clipPath42">
        <path d="M431 394 L842 394 L842 427 L431 427 L431 394 Z" />
      </clipPath>
      <clipPath clipPathUnits="userSpaceOnUse" id="clipPath43">
        <path d="M1214 415 L1226 415 L1226 426 L1214 426 L1214 415 Z" />
      </clipPath>
      <clipPath clipPathUnits="userSpaceOnUse" id="clipPath44">
        <path d="M63 514 L738 514 L738 547 L63 547 L63 514 Z" />
      </clipPath>
      <clipPath clipPathUnits="userSpaceOnUse" id="clipPath45">
        <path d="M742 535 L754 535 L754 546 L742 546 L742 535 Z" />
      </clipPath>
      <clipPath clipPathUnits="userSpaceOnUse" id="clipPath46">
        <path d="M457 244 L816 244 L816 277 L457 277 L457 244 Z" />
      </clipPath>
      <clipPath clipPathUnits="userSpaceOnUse" id="clipPath47">
        <path d="M1214 265 L1226 265 L1226 276 L1214 276 L1214 265 Z" />
      </clipPath>
      <clipPath clipPathUnits="userSpaceOnUse" id="clipPath48">
        <path d="M235 289 L567 289 L567 322 L235 322 L235 289 Z" />
      </clipPath>
      <clipPath clipPathUnits="userSpaceOnUse" id="clipPath49">
        <path d="M742 310 L754 310 L754 321 L742 321 L742 310 Z" />
      </clipPath>
    </defs>
    <g font-size="15" fill="rgb(238,201,142)" font-family="'Segoe UI'" stroke-linejoin="round" stroke="rgb(238,201,142)" stroke-width="0" stroke-miterlimit="0">
      <rect x="10" y="10" clip-path="url(#clipPath1)" width="70" height="30" stroke="none" />
    </g>
    <g stroke-width="0.1" font-size="15" font-family="'Segoe UI'" stroke-linecap="butt">
      <rect x="10" y="10" clip-path="url(#clipPath1)" fill="none" width="69" height="29" />
      <line clip-path="url(#clipPath2)" fill="none" x1="44" x2="44" y1="40" y2="630" stroke-dasharray="10,10" stroke-width="1.1" />
    </g>
    <g stroke-linecap="butt" font-size="15" fill="rgb(255,245,181)" font-family="'Segoe UI'" stroke-dasharray="10,10" stroke="rgb(255,245,181)" stroke-width="1.1">
      <rect x="664" y="10" clip-path="url(#clipPath3)" width="195" height="50" stroke="none" />
    </g>
    <g stroke-width="0.1" font-size="15" font-family="'Segoe UI'" stroke-linecap="butt">
      <rect x="664" y="10" clip-path="url(#clipPath3)" fill="none" width="194" height="49" />
      <text x="714" font-size="23" y="29" clip-path="url(#clipPath4)" stroke="none" xml:space="preserve">MKremer</text>
      <text x="668" font-size="23" y="60" clip-path="url(#clipPath5)" stroke="none" xml:space="preserve">: actAuthenticated</text>
      <line clip-path="url(#clipPath6)" fill="none" x1="760" x2="760" y1="60" y2="630" stroke-dasharray="10,10" stroke-width="1.1" />
    </g>
    <g stroke-linecap="butt" font-size="15" fill="rgb(39,76,114)" font-family="'Segoe UI'" stroke-dasharray="10,10" stroke="rgb(39,76,114)" stroke-width="1.1">
      <rect x="751" y="90" clip-path="url(#clipPath7)" width="20" height="40" stroke="none" />
      <rect x="751" y="90" clip-path="url(#clipPath7)" fill="none" width="19" stroke-dasharray="none" height="39" stroke-width="0.1" />
    </g>
    <g stroke-width="0.1" font-size="23" font-family="'Segoe UI'" stroke-linecap="butt">
      <text xml:space="preserve" x="772" y="115" clip-path="url(#clipPath8)" stroke="none">out01</text>
      <rect x="751" y="360" clip-path="url(#clipPath9)" fill="rgb(39,76,114)" width="20" height="40" stroke="none" />
      <rect x="751" y="360" clip-path="url(#clipPath9)" fill="none" width="19" height="39" stroke="rgb(39,76,114)" />
      <text xml:space="preserve" x="772" y="385" clip-path="url(#clipPath10)" stroke="none">out03</text>
      <rect x="751" y="540" clip-path="url(#clipPath11)" fill="rgb(194,239,255)" width="20" height="40" stroke="none" />
      <rect x="751" y="540" clip-path="url(#clipPath11)" fill="none" width="19" height="39" stroke="rgb(194,239,255)" />
      <text xml:space="preserve" x="772" y="565" clip-path="url(#clipPath12)" stroke="none">in05</text>
      <rect x="751" y="315" clip-path="url(#clipPath13)" fill="rgb(194,239,255)" width="20" height="40" stroke="none" />
      <rect x="751" y="315" clip-path="url(#clipPath13)" fill="none" width="19" height="39" stroke="rgb(194,239,255)" />
      <text xml:space="preserve" x="772" y="340" clip-path="url(#clipPath14)" stroke="none">in03</text>
      <rect x="869" y="10" clip-path="url(#clipPath15)" fill="rgb(255,245,181)" width="243" height="50" stroke="none" />
      <rect x="869" y="10" clip-path="url(#clipPath15)" fill="none" width="242" height="49" />
      <text xml:space="preserve" x="897" y="29" clip-path="url(#clipPath16)" stroke="none">CaptchaGenerator</text>
      <text xml:space="preserve" x="876" y="60" clip-path="url(#clipPath16)" stroke="none">: actCaptchaGenerator</text>
      <line clip-path="url(#clipPath17)" fill="none" x1="989" x2="989" y1="60" y2="630" stroke-dasharray="10,10" stroke-width="1.1" />
    </g>
    <g stroke-linecap="butt" font-size="15" fill="rgb(39,76,114)" font-family="'Segoe UI'" stroke-dasharray="10,10" stroke="rgb(39,76,114)" stroke-width="1.1">
      <rect x="980" y="210" clip-path="url(#clipPath18)" width="20" height="40" stroke="none" />
      <rect x="980" y="210" clip-path="url(#clipPath18)" fill="none" width="19" stroke-dasharray="none" height="39" stroke-width="0.1" />
    </g>
    <g stroke-width="0.1" font-size="23" font-family="'Segoe UI'" stroke-linecap="butt">
      <text xml:space="preserve" x="1001" y="235" clip-path="url(#clipPath19)" stroke="none">out02</text>
      <rect x="980" y="150" clip-path="url(#clipPath20)" fill="rgb(194,239,255)" width="20" height="40" stroke="none" />
      <rect x="980" y="150" clip-path="url(#clipPath20)" fill="none" width="19" height="39" stroke="rgb(194,239,255)" />
      <text xml:space="preserve" x="1001" y="175" clip-path="url(#clipPath21)" stroke="none">in01</text>
      <rect x="1122" y="10" clip-path="url(#clipPath22)" fill="rgb(255,245,181)" width="222" height="50" stroke="none" />
      <rect x="1122" y="10" clip-path="url(#clipPath22)" fill="none" width="221" height="49" />
      <text xml:space="preserve" x="1145" y="29" clip-path="url(#clipPath23)" stroke="none">CaptchaValidator</text>
      <text xml:space="preserve" x="1124" y="60" clip-path="url(#clipPath23)" stroke="none">: actCaptchaValidator</text>
      <line clip-path="url(#clipPath24)" fill="none" x1="1232" x2="1232" y1="60" y2="630" stroke-dasharray="10,10" stroke-width="1.1" />
    </g>
    <g stroke-linecap="butt" font-size="15" fill="rgb(39,76,114)" font-family="'Segoe UI'" stroke-dasharray="10,10" stroke="rgb(39,76,114)" stroke-width="1.1">
      <rect x="1223" y="480" clip-path="url(#clipPath25)" width="20" height="40" stroke="none" />
      <rect x="1223" y="480" clip-path="url(#clipPath25)" fill="none" width="19" stroke-dasharray="none" height="39" stroke-width="0.1" />
    </g>
    <g stroke-width="0.1" font-size="23" font-family="'Segoe UI'" stroke-linecap="butt">
      <text xml:space="preserve" x="1244" y="505" clip-path="url(#clipPath26)" stroke="none">out04</text>
      <rect x="1223" y="420" clip-path="url(#clipPath27)" fill="rgb(194,239,255)" width="20" height="40" stroke="none" />
      <rect x="1223" y="420" clip-path="url(#clipPath27)" fill="none" width="19" height="39" stroke="rgb(194,239,255)" />
      <text xml:space="preserve" x="1244" y="445" clip-path="url(#clipPath28)" stroke="none">in04</text>
      <rect x="1223" y="270" clip-path="url(#clipPath29)" fill="rgb(194,239,255)" width="20" height="40" stroke="none" />
      <rect x="1223" y="270" clip-path="url(#clipPath29)" fill="none" width="19" height="39" stroke="rgb(194,239,255)" />
      <text xml:space="preserve" x="1244" y="295" clip-path="url(#clipPath30)" stroke="none">in02</text>
      <line clip-path="url(#clipPath31)" fill="none" x1="751" x2="45" y1="90" y2="90" stroke="rgb(136,136,136)" stroke-width="2.1" />
      <text x="214" y="90" clip-path="url(#clipPath32)" stroke="none" stroke-width="2.1" xml:space="preserve">oeLogin("mkremer003","Raichu124")</text>
      <line clip-path="url(#clipPath33)" fill="none" x1="52" x2="45" y1="87" y2="90" stroke="rgb(136,136,136)" stroke-width="2.1" />
      <line clip-path="url(#clipPath33)" fill="none" x1="45" x2="52" y1="90" y2="93" stroke="rgb(136,136,136)" stroke-width="2.1" />
      <line clip-path="url(#clipPath31)" fill="none" x1="980" x2="45" y1="210" y2="210" stroke="rgb(136,136,136)" stroke-width="2.1" />
      <text x="261" y="210" clip-path="url(#clipPath34)" stroke="none" stroke-width="2.1" xml:space="preserve">oeSendCaptcha("Captcha test","Captcha answer")</text>
      <line clip-path="url(#clipPath35)" fill="none" x1="52" x2="45" y1="207" y2="210" stroke="rgb(136,136,136)" stroke-width="2.1" />
      <line clip-path="url(#clipPath35)" fill="none" x1="45" x2="52" y1="210" y2="213" stroke="rgb(136,136,136)" stroke-width="2.1" />
      <line clip-path="url(#clipPath31)" fill="none" x1="751" x2="45" y1="360" y2="360" stroke="rgb(136,136,136)" stroke-width="2.1" />
      <text x="176" y="360" clip-path="url(#clipPath36)" stroke="none" stroke-width="2.1" xml:space="preserve">oeSubmitCaptcha("Captcha user response")</text>
      <line clip-path="url(#clipPath37)" fill="none" x1="52" x2="45" y1="357" y2="360" stroke="rgb(136,136,136)" stroke-width="2.1" />
      <line clip-path="url(#clipPath37)" fill="none" x1="45" x2="52" y1="360" y2="363" stroke="rgb(136,136,136)" stroke-width="2.1" />
      <line clip-path="url(#clipPath31)" fill="none" x1="1223" x2="45" y1="480" y2="480" stroke="rgb(136,136,136)" stroke-width="2.1" />
      <text x="475" y="480" clip-path="url(#clipPath38)" stroke="none" stroke-width="2.1" xml:space="preserve">oeCaptchaInvalid("Captcha id")</text>
      <line clip-path="url(#clipPath39)" fill="none" x1="52" x2="45" y1="477" y2="480" stroke="rgb(136,136,136)" stroke-width="2.1" />
      <line clip-path="url(#clipPath39)" fill="none" x1="45" x2="52" y1="480" y2="483" stroke="rgb(136,136,136)" stroke-width="2.1" />
    </g>
    <g stroke-linecap="butt" font-size="23" fill="rgb(136,136,136)" font-family="'Segoe UI'" stroke-dasharray="5,5" stroke="rgb(136,136,136)" stroke-width="2.1">
      <line clip-path="url(#clipPath31)" fill="none" x1="980" x2="45" y1="150" y2="150" />
      <text x="409" y="150" clip-path="url(#clipPath40)" fill="black" stroke="none" xml:space="preserve">ieGenerateCaptcha()</text>
      <line clip-path="url(#clipPath41)" fill="none" x1="973" x2="980" y1="153" y2="150" stroke-dasharray="none" />
      <line clip-path="url(#clipPath41)" fill="none" x1="980" x2="973" y1="150" y2="147" stroke-dasharray="none" />
      <line clip-path="url(#clipPath31)" fill="none" x1="1223" x2="45" y1="420" y2="420" />
      <text x="432" y="420" clip-path="url(#clipPath42)" fill="black" stroke="none" xml:space="preserve">ieVerifyCaptcha(Captcha user response)</text>
      <line clip-path="url(#clipPath43)" fill="none" x1="1216" x2="1223" y1="423" y2="420" stroke-dasharray="none" />
      <line clip-path="url(#clipPath43)" fill="none" x1="1223" x2="1216" y1="420" y2="417" stroke-dasharray="none" />
      <line clip-path="url(#clipPath31)" fill="none" x1="751" x2="45" y1="540" y2="540" />
      <text x="64" y="540" clip-path="url(#clipPath44)" fill="black" stroke="none" xml:space="preserve">ieMessage(Your submitted captcha response is invalid. Try again.)</text>
      <line clip-path="url(#clipPath45)" fill="none" x1="744" x2="751" y1="543" y2="540" stroke-dasharray="none" />
      <line clip-path="url(#clipPath45)" fill="none" x1="751" x2="744" y1="540" y2="537" stroke-dasharray="none" />
      <line clip-path="url(#clipPath31)" fill="none" x1="1223" x2="45" y1="270" y2="270" />
      <text x="458" y="270" clip-path="url(#clipPath46)" fill="black" stroke="none" xml:space="preserve">ieRegisterAnswer(Captcha answer)</text>
      <line clip-path="url(#clipPath47)" fill="none" x1="1216" x2="1223" y1="273" y2="270" stroke-dasharray="none" />
      <line clip-path="url(#clipPath47)" fill="none" x1="1223" x2="1216" y1="270" y2="267" stroke-dasharray="none" />
      <line clip-path="url(#clipPath31)" fill="none" x1="751" x2="45" y1="315" y2="315" />
      <text x="236" y="315" clip-path="url(#clipPath48)" fill="black" stroke="none" xml:space="preserve">ieConfirmCaptcha(Captcha test)</text>
      <line clip-path="url(#clipPath49)" fill="none" x1="744" x2="751" y1="318" y2="315" stroke-dasharray="none" />
      <line clip-path="url(#clipPath49)" fill="none" x1="751" x2="744" y1="315" y2="312" stroke-dasharray="none" />
    </g>
  </g>
</svg>

