<?xml version="1.0" encoding="UTF-8"?>
<svg xmlns="http://www.w3.org/2000/svg" xmlns:xlink="http://www.w3.org/1999/xlink" stroke-dasharray="none" shape-rendering="auto" font-family="'Dialog'" width="1653" text-rendering="auto" fill-opacity="1" contentScriptType="text/ecmascript" color-interpolation="auto" color-rendering="auto" preserveAspectRatio="xMidYMid meet" font-size="12" viewBox="0 0 1653 920" fill="black" stroke="black" image-rendering="auto" stroke-miterlimit="10" zoomAndPan="magnify" version="1.0" stroke-linecap="square" stroke-linejoin="miter" contentStyleType="text/css" font-style="normal" height="920" stroke-width="1" stroke-dashoffset="0" font-weight="normal" stroke-opacity="1">
  <!--Generated by the Batik Graphics2D SVG Generator-->
  <defs id="genericDefs" />
  <g>
    <defs id="defs1">
      <clipPath clipPathUnits="userSpaceOnUse" id="clipPath1">
        <path d="M9 9 L81 9 L81 41 L9 41 L9 9 Z" />
      </clipPath>
      <clipPath clipPathUnits="userSpaceOnUse" id="clipPath2">
        <path d="M39 39 L51 39 L51 911 L39 911 L39 39 Z" />
      </clipPath>
      <clipPath clipPathUnits="userSpaceOnUse" id="clipPath3">
        <path d="M993 9 L1195 9 L1195 61 L993 61 L993 9 Z" />
      </clipPath>
      <clipPath clipPathUnits="userSpaceOnUse" id="clipPath4">
        <path d="M993 9 L1201 9 L1201 61 L993 61 L993 9 Z" />
      </clipPath>
      <clipPath clipPathUnits="userSpaceOnUse" id="clipPath5">
        <path d="M993 9 L1200 9 L1200 61 L993 61 L993 9 Z" />
      </clipPath>
      <clipPath clipPathUnits="userSpaceOnUse" id="clipPath6">
        <path d="M1088 59 L1100 59 L1100 911 L1088 911 L1088 59 Z" />
      </clipPath>
      <clipPath clipPathUnits="userSpaceOnUse" id="clipPath7">
        <path d="M1083 89 L1105 89 L1105 131 L1083 131 L1083 89 Z" />
      </clipPath>
      <clipPath clipPathUnits="userSpaceOnUse" id="clipPath8">
        <path d="M1104 89 L1169 89 L1169 122 L1104 122 L1104 89 Z" />
      </clipPath>
      <clipPath clipPathUnits="userSpaceOnUse" id="clipPath9">
        <path d="M1083 320 L1105 320 L1105 362 L1083 362 L1083 320 Z" />
      </clipPath>
      <clipPath clipPathUnits="userSpaceOnUse" id="clipPath10">
        <path d="M1104 320 L1169 320 L1169 353 L1104 353 L1104 320 Z" />
      </clipPath>
      <clipPath clipPathUnits="userSpaceOnUse" id="clipPath11">
        <path d="M1083 650 L1105 650 L1105 692 L1083 692 L1083 650 Z" />
      </clipPath>
      <clipPath clipPathUnits="userSpaceOnUse" id="clipPath12">
        <path d="M1104 650 L1154 650 L1154 683 L1104 683 L1104 650 Z" />
      </clipPath>
      <clipPath clipPathUnits="userSpaceOnUse" id="clipPath13">
        <path d="M1083 269 L1105 269 L1105 311 L1083 311 L1083 269 Z" />
      </clipPath>
      <clipPath clipPathUnits="userSpaceOnUse" id="clipPath14">
        <path d="M1104 269 L1154 269 L1154 302 L1104 302 L1104 269 Z" />
      </clipPath>
      <clipPath clipPathUnits="userSpaceOnUse" id="clipPath15">
        <path d="M1430 9 L1644 9 L1644 61 L1430 61 L1430 9 Z" />
      </clipPath>
      <clipPath clipPathUnits="userSpaceOnUse" id="clipPath16">
        <path d="M1430 9 L1650 9 L1650 61 L1430 61 L1430 9 Z" />
      </clipPath>
      <clipPath clipPathUnits="userSpaceOnUse" id="clipPath17">
        <path d="M1430 9 L1649 9 L1649 61 L1430 61 L1430 9 Z" />
      </clipPath>
      <clipPath clipPathUnits="userSpaceOnUse" id="clipPath18">
        <path d="M1531 59 L1543 59 L1543 911 L1531 911 L1531 59 Z" />
      </clipPath>
      <clipPath clipPathUnits="userSpaceOnUse" id="clipPath19">
        <path d="M1526 560 L1548 560 L1548 602 L1526 602 L1526 560 Z" />
      </clipPath>
      <clipPath clipPathUnits="userSpaceOnUse" id="clipPath20">
        <path d="M1547 560 L1597 560 L1597 593 L1547 593 L1547 560 Z" />
      </clipPath>
      <clipPath clipPathUnits="userSpaceOnUse" id="clipPath21">
        <path d="M1203 9 L1422 9 L1422 61 L1203 61 L1203 9 Z" />
      </clipPath>
      <clipPath clipPathUnits="userSpaceOnUse" id="clipPath22">
        <path d="M1203 9 L1427 9 L1427 61 L1203 61 L1203 9 Z" />
      </clipPath>
      <clipPath clipPathUnits="userSpaceOnUse" id="clipPath23">
        <path d="M1306 59 L1318 59 L1318 911 L1306 911 L1306 59 Z" />
      </clipPath>
      <clipPath clipPathUnits="userSpaceOnUse" id="clipPath24">
        <path d="M1301 209 L1323 209 L1323 251 L1301 251 L1301 209 Z" />
      </clipPath>
      <clipPath clipPathUnits="userSpaceOnUse" id="clipPath25">
        <path d="M1322 209 L1387 209 L1387 242 L1322 242 L1322 209 Z" />
      </clipPath>
      <clipPath clipPathUnits="userSpaceOnUse" id="clipPath26">
        <path d="M1301 431 L1323 431 L1323 473 L1301 473 L1301 431 Z" />
      </clipPath>
      <clipPath clipPathUnits="userSpaceOnUse" id="clipPath27">
        <path d="M1322 431 L1387 431 L1387 464 L1322 464 L1322 431 Z" />
      </clipPath>
      <clipPath clipPathUnits="userSpaceOnUse" id="clipPath28">
        <path d="M1301 149 L1323 149 L1323 191 L1301 191 L1301 149 Z" />
      </clipPath>
      <clipPath clipPathUnits="userSpaceOnUse" id="clipPath29">
        <path d="M1322 149 L1372 149 L1372 182 L1322 182 L1322 149 Z" />
      </clipPath>
      <clipPath clipPathUnits="userSpaceOnUse" id="clipPath30">
        <path d="M1301 380 L1323 380 L1323 422 L1301 422 L1301 380 Z" />
      </clipPath>
      <clipPath clipPathUnits="userSpaceOnUse" id="clipPath31">
        <path d="M1322 380 L1372 380 L1372 413 L1322 413 L1322 380 Z" />
      </clipPath>
      <clipPath clipPathUnits="userSpaceOnUse" id="clipPath32">
        <path d="M-1 -1 L1654 -1 L1654 921 L-1 921 L-1 -1 Z" />
      </clipPath>
      <clipPath clipPathUnits="userSpaceOnUse" id="clipPath33">
        <path d="M379 64 L755 64 L755 97 L379 97 L379 64 Z" />
      </clipPath>
      <clipPath clipPathUnits="userSpaceOnUse" id="clipPath34">
        <path d="M43 85 L55 85 L55 96 L43 96 L43 85 Z" />
      </clipPath>
      <clipPath clipPathUnits="userSpaceOnUse" id="clipPath35">
        <path d="M341 295 L793 295 L793 328 L341 328 L341 295 Z" />
      </clipPath>
      <clipPath clipPathUnits="userSpaceOnUse" id="clipPath36">
        <path d="M43 316 L55 316 L55 327 L43 327 L43 316 Z" />
      </clipPath>
      <clipPath clipPathUnits="userSpaceOnUse" id="clipPath37">
        <path d="M53 477 L1351 477 L1351 561 L53 561 L53 477 Z" />
      </clipPath>
      <clipPath clipPathUnits="userSpaceOnUse" id="clipPath38">
        <path d="M53 477 L1350 477 L1350 561 L53 561 L53 477 Z" />
      </clipPath>
      <clipPath clipPathUnits="userSpaceOnUse" id="clipPath39">
        <path d="M1518 556 L1530 556 L1530 567 L1518 567 L1518 556 Z" />
      </clipPath>
      <clipPath clipPathUnits="userSpaceOnUse" id="clipPath40">
        <path d="M169 580 L991 580 L991 653 L169 653 L169 580 Z" />
      </clipPath>
      <clipPath clipPathUnits="userSpaceOnUse" id="clipPath41">
        <path d="M1075 646 L1087 646 L1087 657 L1075 657 L1075 646 Z" />
      </clipPath>
      <clipPath clipPathUnits="userSpaceOnUse" id="clipPath42">
        <path d="M421 184 L933 184 L933 217 L421 217 L421 184 Z" />
      </clipPath>
      <clipPath clipPathUnits="userSpaceOnUse" id="clipPath43">
        <path d="M43 205 L55 205 L55 216 L43 216 L43 205 Z" />
      </clipPath>
      <clipPath clipPathUnits="userSpaceOnUse" id="clipPath44">
        <path d="M514 406 L840 406 L840 439 L514 439 L514 406 Z" />
      </clipPath>
      <clipPath clipPathUnits="userSpaceOnUse" id="clipPath45">
        <path d="M43 427 L55 427 L55 438 L43 438 L43 427 Z" />
      </clipPath>
      <clipPath clipPathUnits="userSpaceOnUse" id="clipPath46">
        <path d="M569 124 L785 124 L785 157 L569 157 L569 124 Z" />
      </clipPath>
      <clipPath clipPathUnits="userSpaceOnUse" id="clipPath47">
        <path d="M1293 145 L1305 145 L1305 156 L1293 156 L1293 145 Z" />
      </clipPath>
      <clipPath clipPathUnits="userSpaceOnUse" id="clipPath48">
        <path d="M401 244 L733 244 L733 277 L401 277 L401 244 Z" />
      </clipPath>
      <clipPath clipPathUnits="userSpaceOnUse" id="clipPath49">
        <path d="M1075 265 L1087 265 L1087 276 L1075 276 L1075 265 Z" />
      </clipPath>
      <clipPath clipPathUnits="userSpaceOnUse" id="clipPath50">
        <path d="M471 355 L882 355 L882 388 L471 388 L471 355 Z" />
      </clipPath>
      <clipPath clipPathUnits="userSpaceOnUse" id="clipPath51">
        <path d="M1293 376 L1305 376 L1305 387 L1293 387 L1293 376 Z" />
      </clipPath>
    </defs>
    <g font-size="15" fill="rgb(238,201,142)" font-family="'Segoe UI'" stroke-linejoin="round" stroke="rgb(238,201,142)" stroke-width="0" stroke-miterlimit="0">
      <rect x="10" y="10" clip-path="url(#clipPath1)" width="70" height="30" stroke="none" />
    </g>
    <g stroke-width="0.1" font-size="15" font-family="'Segoe UI'" stroke-linecap="butt">
      <rect x="10" y="10" clip-path="url(#clipPath1)" fill="none" width="69" height="29" />
      <line clip-path="url(#clipPath2)" fill="none" x1="44" x2="44" y1="40" y2="910" stroke-dasharray="10,10" stroke-width="1.1" />
    </g>
    <g stroke-linecap="butt" font-size="15" fill="rgb(255,245,181)" font-family="'Segoe UI'" stroke-dasharray="10,10" stroke="rgb(255,245,181)" stroke-width="1.1">
      <rect x="994" y="10" clip-path="url(#clipPath3)" width="200" height="50" stroke="none" />
    </g>
    <g stroke-width="0.1" font-size="15" font-family="'Segoe UI'" stroke-linecap="butt">
      <rect x="994" y="10" clip-path="url(#clipPath3)" fill="none" width="199" height="49" />
      <text x="1046" font-size="23" y="29" clip-path="url(#clipPath4)" stroke="none" xml:space="preserve">MKremer</text>
      <text x="1000" font-size="23" y="60" clip-path="url(#clipPath5)" stroke="none" xml:space="preserve">: actAuthenticated</text>
      <line clip-path="url(#clipPath6)" fill="none" x1="1093" x2="1093" y1="60" y2="910" stroke-dasharray="10,10" stroke-width="1.1" />
    </g>
    <g stroke-linecap="butt" font-size="15" fill="rgb(39,76,114)" font-family="'Segoe UI'" stroke-dasharray="10,10" stroke="rgb(39,76,114)" stroke-width="1.1">
      <rect x="1084" y="90" clip-path="url(#clipPath7)" width="20" height="40" stroke="none" />
      <rect x="1084" y="90" clip-path="url(#clipPath7)" fill="none" width="19" stroke-dasharray="none" height="39" stroke-width="0.1" />
    </g>
    <g stroke-width="0.1" font-size="23" font-family="'Segoe UI'" stroke-linecap="butt">
      <text xml:space="preserve" x="1105" y="115" clip-path="url(#clipPath8)" stroke="none">out01</text>
      <rect x="1084" y="321" clip-path="url(#clipPath9)" fill="rgb(39,76,114)" width="20" height="40" stroke="none" />
      <rect x="1084" y="321" clip-path="url(#clipPath9)" fill="none" width="19" height="39" stroke="rgb(39,76,114)" />
      <text xml:space="preserve" x="1105" y="346" clip-path="url(#clipPath10)" stroke="none">out03</text>
      <rect x="1084" y="651" clip-path="url(#clipPath11)" fill="rgb(194,239,255)" width="20" height="40" stroke="none" />
      <rect x="1084" y="651" clip-path="url(#clipPath11)" fill="none" width="19" height="39" stroke="rgb(194,239,255)" />
      <text xml:space="preserve" x="1105" y="676" clip-path="url(#clipPath12)" stroke="none">in05</text>
      <rect x="1084" y="270" clip-path="url(#clipPath13)" fill="rgb(194,239,255)" width="20" height="40" stroke="none" />
      <rect x="1084" y="270" clip-path="url(#clipPath13)" fill="none" width="19" height="39" stroke="rgb(194,239,255)" />
      <text xml:space="preserve" x="1105" y="295" clip-path="url(#clipPath14)" stroke="none">in02</text>
      <rect x="1431" y="10" clip-path="url(#clipPath15)" fill="rgb(255,245,181)" width="212" height="50" stroke="none" />
      <rect x="1431" y="10" clip-path="url(#clipPath15)" fill="none" width="211" height="49" />
      <text xml:space="preserve" x="1506" y="29" clip-path="url(#clipPath16)" stroke="none">GMail</text>
      <text xml:space="preserve" x="1441" y="60" clip-path="url(#clipPath17)" stroke="none">: actMailingService</text>
      <line clip-path="url(#clipPath18)" fill="none" x1="1536" x2="1536" y1="60" y2="910" stroke-dasharray="10,10" stroke-width="1.1" />
    </g>
    <g stroke-linecap="butt" font-size="15" fill="rgb(194,239,255)" font-family="'Segoe UI'" stroke-dasharray="10,10" stroke="rgb(194,239,255)" stroke-width="1.1">
      <rect x="1527" y="561" clip-path="url(#clipPath19)" width="20" height="40" stroke="none" />
      <rect x="1527" y="561" clip-path="url(#clipPath19)" fill="none" width="19" stroke-dasharray="none" height="39" stroke-width="0.1" />
    </g>
    <g stroke-width="0.1" font-size="23" font-family="'Segoe UI'" stroke-linecap="butt">
      <text xml:space="preserve" x="1548" y="586" clip-path="url(#clipPath20)" stroke="none">in04</text>
      <rect x="1204" y="10" clip-path="url(#clipPath21)" fill="rgb(255,245,181)" width="217" height="50" stroke="none" />
      <rect x="1204" y="10" clip-path="url(#clipPath21)" fill="none" width="216" height="49" />
      <text xml:space="preserve" x="1234" y="29" clip-path="url(#clipPath22)" stroke="none">CaptchaService</text>
      <text xml:space="preserve" x="1213" y="60" clip-path="url(#clipPath22)" stroke="none">: actCaptchaService</text>
      <line clip-path="url(#clipPath23)" fill="none" x1="1311" x2="1311" y1="60" y2="910" stroke-dasharray="10,10" stroke-width="1.1" />
    </g>
    <g stroke-linecap="butt" font-size="15" fill="rgb(39,76,114)" font-family="'Segoe UI'" stroke-dasharray="10,10" stroke="rgb(39,76,114)" stroke-width="1.1">
      <rect x="1302" y="210" clip-path="url(#clipPath24)" width="20" height="40" stroke="none" />
      <rect x="1302" y="210" clip-path="url(#clipPath24)" fill="none" width="19" stroke-dasharray="none" height="39" stroke-width="0.1" />
    </g>
    <g stroke-width="0.1" font-size="23" font-family="'Segoe UI'" stroke-linecap="butt">
      <text xml:space="preserve" x="1323" y="235" clip-path="url(#clipPath25)" stroke="none">out02</text>
      <rect x="1302" y="432" clip-path="url(#clipPath26)" fill="rgb(39,76,114)" width="20" height="40" stroke="none" />
      <rect x="1302" y="432" clip-path="url(#clipPath26)" fill="none" width="19" height="39" stroke="rgb(39,76,114)" />
      <text xml:space="preserve" x="1323" y="457" clip-path="url(#clipPath27)" stroke="none">out04</text>
      <rect x="1302" y="150" clip-path="url(#clipPath28)" fill="rgb(194,239,255)" width="20" height="40" stroke="none" />
      <rect x="1302" y="150" clip-path="url(#clipPath28)" fill="none" width="19" height="39" stroke="rgb(194,239,255)" />
      <text xml:space="preserve" x="1323" y="175" clip-path="url(#clipPath29)" stroke="none">in01</text>
      <rect x="1302" y="381" clip-path="url(#clipPath30)" fill="rgb(194,239,255)" width="20" height="40" stroke="none" />
      <rect x="1302" y="381" clip-path="url(#clipPath30)" fill="none" width="19" height="39" stroke="rgb(194,239,255)" />
      <text xml:space="preserve" x="1323" y="406" clip-path="url(#clipPath31)" stroke="none">in03</text>
      <line clip-path="url(#clipPath32)" fill="none" x1="1084" x2="45" y1="90" y2="90" stroke="rgb(136,136,136)" stroke-width="2.1" />
      <text x="380" y="90" clip-path="url(#clipPath33)" stroke="none" stroke-width="2.1" xml:space="preserve">oeLogin("mkremer003","Raichu124")</text>
      <line clip-path="url(#clipPath34)" fill="none" x1="52" x2="45" y1="87" y2="90" stroke="rgb(136,136,136)" stroke-width="2.1" />
      <line clip-path="url(#clipPath34)" fill="none" x1="45" x2="52" y1="90" y2="93" stroke="rgb(136,136,136)" stroke-width="2.1" />
      <line clip-path="url(#clipPath32)" fill="none" x1="1084" x2="45" y1="321" y2="321" stroke="rgb(136,136,136)" stroke-width="2.1" />
      <text x="342" y="321" clip-path="url(#clipPath35)" stroke="none" stroke-width="2.1" xml:space="preserve">oeSubmitCaptcha("Captcha user response")</text>
      <line clip-path="url(#clipPath36)" fill="none" x1="52" x2="45" y1="318" y2="321" stroke="rgb(136,136,136)" stroke-width="2.1" />
      <line clip-path="url(#clipPath36)" fill="none" x1="45" x2="52" y1="321" y2="324" stroke="rgb(136,136,136)" stroke-width="2.1" />
    </g>
    <g stroke-linecap="butt" font-size="23" fill="rgb(136,136,136)" font-family="'Segoe UI'" stroke-dasharray="5,5" stroke="rgb(136,136,136)" stroke-width="2.1">
      <line clip-path="url(#clipPath32)" fill="none" x1="1527" x2="45" y1="561" y2="561" />
      <text x="72" y="513" clip-path="url(#clipPath37)" fill="black" stroke="none" xml:space="preserve">ieSendMail(michel.kremer.003@student.uni.lu,Your account has been locked,Notification and unblocking instructions (a bit </text>
      <text x="574" y="544" clip-path="url(#clipPath38)" fill="black" stroke="none" xml:space="preserve">too long to write here...))</text>
      <line clip-path="url(#clipPath39)" fill="none" x1="1520" x2="1527" y1="564" y2="561" stroke-dasharray="none" />
      <line clip-path="url(#clipPath39)" fill="none" x1="1527" x2="1520" y1="561" y2="558" stroke-dasharray="none" />
      <line clip-path="url(#clipPath32)" fill="none" x1="1084" x2="45" y1="651" y2="651" />
      <text x="191" y="610" clip-path="url(#clipPath40)" fill="black" stroke="none" xml:space="preserve">ieMessage(Your user name will be blocked for logging in. Please contact an </text>
      <text x="502" y="641" clip-path="url(#clipPath40)" fill="black" stroke="none" xml:space="preserve">administrator.)</text>
      <line clip-path="url(#clipPath41)" fill="none" x1="1077" x2="1084" y1="654" y2="651" stroke-dasharray="none" />
      <line clip-path="url(#clipPath41)" fill="none" x1="1084" x2="1077" y1="651" y2="648" stroke-dasharray="none" />
      <line clip-path="url(#clipPath32)" fill="none" x1="1302" x2="45" y1="210" y2="210" stroke-dasharray="none" />
      <text x="422" y="210" clip-path="url(#clipPath42)" fill="black" stroke-dasharray="none" stroke="none" xml:space="preserve">oeSendCaptcha("Captcha test","Captcha answer")</text>
      <line clip-path="url(#clipPath43)" fill="none" x1="52" x2="45" y1="207" y2="210" stroke-dasharray="none" />
      <line clip-path="url(#clipPath43)" fill="none" x1="45" x2="52" y1="210" y2="213" stroke-dasharray="none" />
      <line clip-path="url(#clipPath32)" fill="none" x1="1302" x2="45" y1="432" y2="432" stroke-dasharray="none" />
      <text x="515" y="432" clip-path="url(#clipPath44)" fill="black" stroke-dasharray="none" stroke="none" xml:space="preserve">oeCaptchaInvalid("Captcha id")</text>
      <line clip-path="url(#clipPath45)" fill="none" x1="52" x2="45" y1="429" y2="432" stroke-dasharray="none" />
      <line clip-path="url(#clipPath45)" fill="none" x1="45" x2="52" y1="432" y2="435" stroke-dasharray="none" />
      <line clip-path="url(#clipPath32)" fill="none" x1="1302" x2="45" y1="150" y2="150" />
      <text x="570" y="150" clip-path="url(#clipPath46)" fill="black" stroke="none" xml:space="preserve">ieGenerateCaptcha()</text>
      <line clip-path="url(#clipPath47)" fill="none" x1="1295" x2="1302" y1="153" y2="150" stroke-dasharray="none" />
      <line clip-path="url(#clipPath47)" fill="none" x1="1302" x2="1295" y1="150" y2="147" stroke-dasharray="none" />
      <line clip-path="url(#clipPath32)" fill="none" x1="1084" x2="45" y1="270" y2="270" />
      <text x="402" y="270" clip-path="url(#clipPath48)" fill="black" stroke="none" xml:space="preserve">ieConfirmCaptcha(Captcha test)</text>
      <line clip-path="url(#clipPath49)" fill="none" x1="1077" x2="1084" y1="273" y2="270" stroke-dasharray="none" />
      <line clip-path="url(#clipPath49)" fill="none" x1="1084" x2="1077" y1="270" y2="267" stroke-dasharray="none" />
      <line clip-path="url(#clipPath32)" fill="none" x1="1302" x2="45" y1="381" y2="381" />
      <text x="472" y="381" clip-path="url(#clipPath50)" fill="black" stroke="none" xml:space="preserve">ieVerifyCaptcha(Captcha user response)</text>
      <line clip-path="url(#clipPath51)" fill="none" x1="1295" x2="1302" y1="384" y2="381" stroke-dasharray="none" />
      <line clip-path="url(#clipPath51)" fill="none" x1="1302" x2="1295" y1="381" y2="378" stroke-dasharray="none" />
    </g>
  </g>
</svg>

