<?xml version="1.0" encoding="UTF-8"?>
<svg xmlns="http://www.w3.org/2000/svg" xmlns:xlink="http://www.w3.org/1999/xlink" stroke-dasharray="none" shape-rendering="auto" font-family="'Dialog'" width="691" text-rendering="auto" fill-opacity="1" contentScriptType="text/ecmascript" color-interpolation="auto" color-rendering="auto" preserveAspectRatio="xMidYMid meet" font-size="12" viewBox="0 0 691 370" fill="black" stroke="black" image-rendering="auto" stroke-miterlimit="10" zoomAndPan="magnify" version="1.0" stroke-linecap="square" stroke-linejoin="miter" contentStyleType="text/css" font-style="normal" height="370" stroke-width="1" stroke-dashoffset="0" font-weight="normal" stroke-opacity="1">
  <!--Generated by the Batik Graphics2D SVG Generator-->
  <defs id="genericDefs" />
  <g>
    <defs id="defs1">
      <clipPath clipPathUnits="userSpaceOnUse" id="clipPath1">
        <path d="M9 9 L81 9 L81 41 L9 41 L9 9 Z" />
      </clipPath>
      <clipPath clipPathUnits="userSpaceOnUse" id="clipPath2">
        <path d="M39 39 L51 39 L51 361 L39 361 L39 39 Z" />
      </clipPath>
      <clipPath clipPathUnits="userSpaceOnUse" id="clipPath3">
        <path d="M323 9 L522 9 L522 61 L323 61 L323 9 Z" />
      </clipPath>
      <clipPath clipPathUnits="userSpaceOnUse" id="clipPath4">
        <path d="M323 9 L527 9 L527 61 L323 61 L323 9 Z" />
      </clipPath>
      <clipPath clipPathUnits="userSpaceOnUse" id="clipPath5">
        <path d="M416 59 L428 59 L428 361 L416 361 L416 59 Z" />
      </clipPath>
      <clipPath clipPathUnits="userSpaceOnUse" id="clipPath6">
        <path d="M411 89 L433 89 L433 131 L411 131 L411 89 Z" />
      </clipPath>
      <clipPath clipPathUnits="userSpaceOnUse" id="clipPath7">
        <path d="M432 89 L497 89 L497 122 L432 122 L432 89 Z" />
      </clipPath>
      <clipPath clipPathUnits="userSpaceOnUse" id="clipPath8">
        <path d="M411 269 L433 269 L433 311 L411 311 L411 269 Z" />
      </clipPath>
      <clipPath clipPathUnits="userSpaceOnUse" id="clipPath9">
        <path d="M432 269 L482 269 L482 302 L432 302 L432 269 Z" />
      </clipPath>
      <clipPath clipPathUnits="userSpaceOnUse" id="clipPath10">
        <path d="M530 9 L682 9 L682 61 L530 61 L530 9 Z" />
      </clipPath>
      <clipPath clipPathUnits="userSpaceOnUse" id="clipPath11">
        <path d="M530 9 L688 9 L688 61 L530 61 L530 9 Z" />
      </clipPath>
      <clipPath clipPathUnits="userSpaceOnUse" id="clipPath12">
        <path d="M530 9 L687 9 L687 61 L530 61 L530 9 Z" />
      </clipPath>
      <clipPath clipPathUnits="userSpaceOnUse" id="clipPath13">
        <path d="M600 59 L612 59 L612 361 L600 361 L600 59 Z" />
      </clipPath>
      <clipPath clipPathUnits="userSpaceOnUse" id="clipPath14">
        <path d="M595 209 L617 209 L617 251 L595 251 L595 209 Z" />
      </clipPath>
      <clipPath clipPathUnits="userSpaceOnUse" id="clipPath15">
        <path d="M616 209 L681 209 L681 242 L616 242 L616 209 Z" />
      </clipPath>
      <clipPath clipPathUnits="userSpaceOnUse" id="clipPath16">
        <path d="M595 149 L617 149 L617 191 L595 191 L595 149 Z" />
      </clipPath>
      <clipPath clipPathUnits="userSpaceOnUse" id="clipPath17">
        <path d="M616 149 L666 149 L666 182 L616 182 L616 149 Z" />
      </clipPath>
      <clipPath clipPathUnits="userSpaceOnUse" id="clipPath18">
        <path d="M-1 -1 L692 -1 L692 371 L-1 371 L-1 -1 Z" />
      </clipPath>
      <clipPath clipPathUnits="userSpaceOnUse" id="clipPath19">
        <path d="M168 64 L293 64 L293 97 L168 97 L168 64 Z" />
      </clipPath>
      <clipPath clipPathUnits="userSpaceOnUse" id="clipPath20">
        <path d="M43 85 L55 85 L55 96 L43 96 L43 85 Z" />
      </clipPath>
      <clipPath clipPathUnits="userSpaceOnUse" id="clipPath21">
        <path d="M85 184 L560 184 L560 217 L85 217 L85 184 Z" />
      </clipPath>
      <clipPath clipPathUnits="userSpaceOnUse" id="clipPath22">
        <path d="M43 205 L55 205 L55 216 L43 216 L43 205 Z" />
      </clipPath>
      <clipPath clipPathUnits="userSpaceOnUse" id="clipPath23">
        <path d="M223 124 L421 124 L421 157 L223 157 L223 124 Z" />
      </clipPath>
      <clipPath clipPathUnits="userSpaceOnUse" id="clipPath24">
        <path d="M587 145 L599 145 L599 156 L587 156 L587 145 Z" />
      </clipPath>
      <clipPath clipPathUnits="userSpaceOnUse" id="clipPath25">
        <path d="M121 244 L341 244 L341 277 L121 277 L121 244 Z" />
      </clipPath>
      <clipPath clipPathUnits="userSpaceOnUse" id="clipPath26">
        <path d="M403 265 L415 265 L415 276 L403 276 L403 265 Z" />
      </clipPath>
    </defs>
    <g font-size="15" fill="rgb(238,201,142)" font-family="'Segoe UI'" stroke-linejoin="round" stroke="rgb(238,201,142)" stroke-width="0" stroke-miterlimit="0">
      <rect x="10" y="10" clip-path="url(#clipPath1)" width="70" height="30" stroke="none" />
    </g>
    <g stroke-width="0.1" font-size="15" font-family="'Segoe UI'" stroke-linecap="butt">
      <rect x="10" y="10" clip-path="url(#clipPath1)" fill="none" width="69" height="29" />
      <line clip-path="url(#clipPath2)" fill="none" x1="44" x2="44" y1="40" y2="360" stroke-dasharray="10,10" stroke-width="1.1" />
    </g>
    <g stroke-linecap="butt" font-size="15" fill="rgb(255,245,181)" font-family="'Segoe UI'" stroke-dasharray="10,10" stroke="rgb(255,245,181)" stroke-width="1.1">
      <rect x="324" y="10" clip-path="url(#clipPath3)" width="197" height="50" stroke="none" />
    </g>
    <g stroke-width="0.1" font-size="15" font-family="'Segoe UI'" stroke-linecap="butt">
      <rect x="324" y="10" clip-path="url(#clipPath3)" fill="none" width="196" height="49" />
      <text x="399" font-size="23" y="29" clip-path="url(#clipPath4)" stroke="none" xml:space="preserve">User</text>
      <text x="331" font-size="23" y="60" clip-path="url(#clipPath4)" stroke="none" xml:space="preserve">: actAdministrator</text>
      <line clip-path="url(#clipPath5)" fill="none" x1="421" x2="421" y1="60" y2="360" stroke-dasharray="10,10" stroke-width="1.1" />
    </g>
    <g stroke-linecap="butt" font-size="15" fill="rgb(39,76,114)" font-family="'Segoe UI'" stroke-dasharray="10,10" stroke="rgb(39,76,114)" stroke-width="1.1">
      <rect x="412" y="90" clip-path="url(#clipPath6)" width="20" height="40" stroke="none" />
      <rect x="412" y="90" clip-path="url(#clipPath6)" fill="none" width="19" stroke-dasharray="none" height="39" stroke-width="0.1" />
    </g>
    <g stroke-width="0.1" font-size="23" font-family="'Segoe UI'" stroke-linecap="butt">
      <text xml:space="preserve" x="433" y="115" clip-path="url(#clipPath7)" stroke="none">out01</text>
      <rect x="412" y="270" clip-path="url(#clipPath8)" fill="rgb(194,239,255)" width="20" height="40" stroke="none" />
      <rect x="412" y="270" clip-path="url(#clipPath8)" fill="none" width="19" height="39" stroke="rgb(194,239,255)" />
      <text xml:space="preserve" x="433" y="295" clip-path="url(#clipPath9)" stroke="none">in02</text>
      <rect x="531" y="10" clip-path="url(#clipPath10)" fill="rgb(255,245,181)" width="150" height="50" stroke="none" />
      <rect x="531" y="10" clip-path="url(#clipPath10)" fill="none" width="149" height="49" />
      <text xml:space="preserve" x="558" y="29" clip-path="url(#clipPath11)" stroke="none">Database</text>
      <text xml:space="preserve" x="537" y="60" clip-path="url(#clipPath12)" stroke="none">: actDatabase</text>
      <line clip-path="url(#clipPath13)" fill="none" x1="605" x2="605" y1="60" y2="360" stroke-dasharray="10,10" stroke-width="1.1" />
    </g>
    <g stroke-linecap="butt" font-size="15" fill="rgb(39,76,114)" font-family="'Segoe UI'" stroke-dasharray="10,10" stroke="rgb(39,76,114)" stroke-width="1.1">
      <rect x="596" y="210" clip-path="url(#clipPath14)" width="20" height="40" stroke="none" />
      <rect x="596" y="210" clip-path="url(#clipPath14)" fill="none" width="19" stroke-dasharray="none" height="39" stroke-width="0.1" />
    </g>
    <g stroke-width="0.1" font-size="23" font-family="'Segoe UI'" stroke-linecap="butt">
      <text xml:space="preserve" x="617" y="235" clip-path="url(#clipPath15)" stroke="none">out02</text>
      <rect x="596" y="150" clip-path="url(#clipPath16)" fill="rgb(194,239,255)" width="20" height="40" stroke="none" />
      <rect x="596" y="150" clip-path="url(#clipPath16)" fill="none" width="19" height="39" stroke="rgb(194,239,255)" />
      <text xml:space="preserve" x="617" y="175" clip-path="url(#clipPath17)" stroke="none">in01</text>
      <line clip-path="url(#clipPath18)" fill="none" x1="412" x2="45" y1="90" y2="90" stroke="rgb(136,136,136)" stroke-width="2.1" />
      <text x="169" y="90" clip-path="url(#clipPath19)" stroke="none" stroke-width="2.1" xml:space="preserve">oeStatistic()</text>
      <line clip-path="url(#clipPath20)" fill="none" x1="52" x2="45" y1="87" y2="90" stroke="rgb(136,136,136)" stroke-width="2.1" />
      <line clip-path="url(#clipPath20)" fill="none" x1="45" x2="52" y1="90" y2="93" stroke="rgb(136,136,136)" stroke-width="2.1" />
      <line clip-path="url(#clipPath18)" fill="none" x1="596" x2="45" y1="210" y2="210" stroke="rgb(136,136,136)" stroke-width="2.1" />
      <text x="86" y="210" clip-path="url(#clipPath21)" stroke="none" stroke-width="2.1" xml:space="preserve">oeSendStatistic("Statistic for the user activity")</text>
      <line clip-path="url(#clipPath22)" fill="none" x1="52" x2="45" y1="207" y2="210" stroke="rgb(136,136,136)" stroke-width="2.1" />
      <line clip-path="url(#clipPath22)" fill="none" x1="45" x2="52" y1="210" y2="213" stroke="rgb(136,136,136)" stroke-width="2.1" />
    </g>
    <g stroke-linecap="butt" font-size="23" fill="rgb(136,136,136)" font-family="'Segoe UI'" stroke-dasharray="5,5" stroke="rgb(136,136,136)" stroke-width="2.1">
      <line clip-path="url(#clipPath18)" fill="none" x1="596" x2="45" y1="150" y2="150" />
      <text x="224" y="150" clip-path="url(#clipPath23)" fill="black" stroke="none" xml:space="preserve">ieCallUserActivity()</text>
      <line clip-path="url(#clipPath24)" fill="none" x1="589" x2="596" y1="153" y2="150" stroke-dasharray="none" />
      <line clip-path="url(#clipPath24)" fill="none" x1="596" x2="589" y1="150" y2="147" stroke-dasharray="none" />
      <line clip-path="url(#clipPath18)" fill="none" x1="412" x2="45" y1="270" y2="270" />
      <text x="122" y="270" clip-path="url(#clipPath25)" fill="black" stroke="none" xml:space="preserve">ieShowStatisticUser()</text>
      <line clip-path="url(#clipPath26)" fill="none" x1="405" x2="412" y1="273" y2="270" stroke-dasharray="none" />
      <line clip-path="url(#clipPath26)" fill="none" x1="412" x2="405" y1="270" y2="267" stroke-dasharray="none" />
    </g>
  </g>
</svg>

