<?xml version="1.0" encoding="UTF-8"?>
<svg xmlns="http://www.w3.org/2000/svg" xmlns:xlink="http://www.w3.org/1999/xlink" stroke-dasharray="none" shape-rendering="auto" font-family="'Dialog'" width="866" text-rendering="auto" fill-opacity="1" contentScriptType="text/ecmascript" color-interpolation="auto" color-rendering="auto" preserveAspectRatio="xMidYMid meet" font-size="12" viewBox="0 0 866 640" fill="black" stroke="black" image-rendering="auto" stroke-miterlimit="10" zoomAndPan="magnify" version="1.0" stroke-linecap="square" stroke-linejoin="miter" contentStyleType="text/css" font-style="normal" height="640" stroke-width="1" stroke-dashoffset="0" font-weight="normal" stroke-opacity="1">
  <!--Generated by the Batik Graphics2D SVG Generator-->
  <defs id="genericDefs" />
  <g>
    <defs id="defs1">
      <clipPath clipPathUnits="userSpaceOnUse" id="clipPath1">
        <path d="M9 9 L81 9 L81 41 L9 41 L9 9 Z" />
      </clipPath>
      <clipPath clipPathUnits="userSpaceOnUse" id="clipPath2">
        <path d="M39 39 L51 39 L51 631 L39 631 L39 39 Z" />
      </clipPath>
      <clipPath clipPathUnits="userSpaceOnUse" id="clipPath3">
        <path d="M432 9 L636 9 L636 61 L432 61 L432 9 Z" />
      </clipPath>
      <clipPath clipPathUnits="userSpaceOnUse" id="clipPath4">
        <path d="M432 9 L642 9 L642 61 L432 61 L432 9 Z" />
      </clipPath>
      <clipPath clipPathUnits="userSpaceOnUse" id="clipPath5">
        <path d="M432 9 L641 9 L641 61 L432 61 L432 9 Z" />
      </clipPath>
      <clipPath clipPathUnits="userSpaceOnUse" id="clipPath6">
        <path d="M528 59 L540 59 L540 631 L528 631 L528 59 Z" />
      </clipPath>
      <clipPath clipPathUnits="userSpaceOnUse" id="clipPath7">
        <path d="M523 89 L545 89 L545 131 L523 131 L523 89 Z" />
      </clipPath>
      <clipPath clipPathUnits="userSpaceOnUse" id="clipPath8">
        <path d="M544 89 L609 89 L609 122 L544 122 L544 89 Z" />
      </clipPath>
      <clipPath clipPathUnits="userSpaceOnUse" id="clipPath9">
        <path d="M523 327 L545 327 L545 369 L523 369 L523 327 Z" />
      </clipPath>
      <clipPath clipPathUnits="userSpaceOnUse" id="clipPath10">
        <path d="M544 327 L609 327 L609 360 L544 360 L544 327 Z" />
      </clipPath>
      <clipPath clipPathUnits="userSpaceOnUse" id="clipPath11">
        <path d="M523 534 L545 534 L545 576 L523 576 L523 534 Z" />
      </clipPath>
      <clipPath clipPathUnits="userSpaceOnUse" id="clipPath12">
        <path d="M544 534 L594 534 L594 567 L544 567 L544 534 Z" />
      </clipPath>
      <clipPath clipPathUnits="userSpaceOnUse" id="clipPath13">
        <path d="M523 269 L545 269 L545 311 L523 311 L523 269 Z" />
      </clipPath>
      <clipPath clipPathUnits="userSpaceOnUse" id="clipPath14">
        <path d="M544 269 L594 269 L594 302 L544 302 L544 269 Z" />
      </clipPath>
      <clipPath clipPathUnits="userSpaceOnUse" id="clipPath15">
        <path d="M644 9 L857 9 L857 61 L644 61 L644 9 Z" />
      </clipPath>
      <clipPath clipPathUnits="userSpaceOnUse" id="clipPath16">
        <path d="M644 9 L862 9 L862 61 L644 61 L644 9 Z" />
      </clipPath>
      <clipPath clipPathUnits="userSpaceOnUse" id="clipPath17">
        <path d="M744 59 L756 59 L756 631 L744 631 L744 59 Z" />
      </clipPath>
      <clipPath clipPathUnits="userSpaceOnUse" id="clipPath18">
        <path d="M739 209 L761 209 L761 251 L739 251 L739 209 Z" />
      </clipPath>
      <clipPath clipPathUnits="userSpaceOnUse" id="clipPath19">
        <path d="M760 209 L825 209 L825 242 L760 242 L760 209 Z" />
      </clipPath>
      <clipPath clipPathUnits="userSpaceOnUse" id="clipPath20">
        <path d="M739 479 L761 479 L761 521 L739 521 L739 479 Z" />
      </clipPath>
      <clipPath clipPathUnits="userSpaceOnUse" id="clipPath21">
        <path d="M760 479 L825 479 L825 512 L760 512 L760 479 Z" />
      </clipPath>
      <clipPath clipPathUnits="userSpaceOnUse" id="clipPath22">
        <path d="M739 149 L761 149 L761 191 L739 191 L739 149 Z" />
      </clipPath>
      <clipPath clipPathUnits="userSpaceOnUse" id="clipPath23">
        <path d="M760 149 L810 149 L810 182 L760 182 L760 149 Z" />
      </clipPath>
      <clipPath clipPathUnits="userSpaceOnUse" id="clipPath24">
        <path d="M739 397 L761 397 L761 439 L739 439 L739 397 Z" />
      </clipPath>
      <clipPath clipPathUnits="userSpaceOnUse" id="clipPath25">
        <path d="M760 397 L810 397 L810 430 L760 430 L760 397 Z" />
      </clipPath>
      <clipPath clipPathUnits="userSpaceOnUse" id="clipPath26">
        <path d="M-1 -1 L867 -1 L867 641 L-1 641 L-1 -1 Z" />
      </clipPath>
      <clipPath clipPathUnits="userSpaceOnUse" id="clipPath27">
        <path d="M99 64 L475 64 L475 97 L99 97 L99 64 Z" />
      </clipPath>
      <clipPath clipPathUnits="userSpaceOnUse" id="clipPath28">
        <path d="M43 85 L55 85 L55 96 L43 96 L43 85 Z" />
      </clipPath>
      <clipPath clipPathUnits="userSpaceOnUse" id="clipPath29">
        <path d="M61 302 L513 302 L513 335 L61 335 L61 302 Z" />
      </clipPath>
      <clipPath clipPathUnits="userSpaceOnUse" id="clipPath30">
        <path d="M43 323 L55 323 L55 334 L43 334 L43 323 Z" />
      </clipPath>
      <clipPath clipPathUnits="userSpaceOnUse" id="clipPath31">
        <path d="M104 509 L469 509 L469 542 L104 542 L104 509 Z" />
      </clipPath>
      <clipPath clipPathUnits="userSpaceOnUse" id="clipPath32">
        <path d="M515 530 L527 530 L527 541 L515 541 L515 530 Z" />
      </clipPath>
      <clipPath clipPathUnits="userSpaceOnUse" id="clipPath33">
        <path d="M140 184 L652 184 L652 217 L140 217 L140 184 Z" />
      </clipPath>
      <clipPath clipPathUnits="userSpaceOnUse" id="clipPath34">
        <path d="M43 205 L55 205 L55 216 L43 216 L43 205 Z" />
      </clipPath>
      <clipPath clipPathUnits="userSpaceOnUse" id="clipPath35">
        <path d="M242 454 L550 454 L550 487 L242 487 L242 454 Z" />
      </clipPath>
      <clipPath clipPathUnits="userSpaceOnUse" id="clipPath36">
        <path d="M43 475 L55 475 L55 486 L43 486 L43 475 Z" />
      </clipPath>
      <clipPath clipPathUnits="userSpaceOnUse" id="clipPath37">
        <path d="M288 124 L504 124 L504 157 L288 157 L288 124 Z" />
      </clipPath>
      <clipPath clipPathUnits="userSpaceOnUse" id="clipPath38">
        <path d="M731 145 L743 145 L743 156 L731 156 L731 145 Z" />
      </clipPath>
      <clipPath clipPathUnits="userSpaceOnUse" id="clipPath39">
        <path d="M121 244 L453 244 L453 277 L121 277 L121 244 Z" />
      </clipPath>
      <clipPath clipPathUnits="userSpaceOnUse" id="clipPath40">
        <path d="M515 265 L527 265 L527 276 L515 276 L515 265 Z" />
      </clipPath>
      <clipPath clipPathUnits="userSpaceOnUse" id="clipPath41">
        <path d="M190 372 L601 372 L601 405 L190 405 L190 372 Z" />
      </clipPath>
      <clipPath clipPathUnits="userSpaceOnUse" id="clipPath42">
        <path d="M731 393 L743 393 L743 404 L731 404 L731 393 Z" />
      </clipPath>
    </defs>
    <g font-size="15" fill="rgb(238,201,142)" font-family="'Segoe UI'" stroke-linejoin="round" stroke="rgb(238,201,142)" stroke-width="0" stroke-miterlimit="0">
      <rect x="10" y="10" clip-path="url(#clipPath1)" width="70" height="30" stroke="none" />
    </g>
    <g stroke-width="0.1" font-size="15" font-family="'Segoe UI'" stroke-linecap="butt">
      <rect x="10" y="10" clip-path="url(#clipPath1)" fill="none" width="69" height="29" />
      <line clip-path="url(#clipPath2)" fill="none" x1="44" x2="44" y1="40" y2="630" stroke-dasharray="10,10" stroke-width="1.1" />
    </g>
    <g stroke-linecap="butt" font-size="15" fill="rgb(255,245,181)" font-family="'Segoe UI'" stroke-dasharray="10,10" stroke="rgb(255,245,181)" stroke-width="1.1">
      <rect x="433" y="10" clip-path="url(#clipPath3)" width="202" height="50" stroke="none" />
    </g>
    <g stroke-width="0.1" font-size="15" font-family="'Segoe UI'" stroke-linecap="butt">
      <rect x="433" y="10" clip-path="url(#clipPath3)" fill="none" width="201" height="49" />
      <text x="486" font-size="23" y="29" clip-path="url(#clipPath4)" stroke="none" xml:space="preserve">MKremer</text>
      <text x="440" font-size="23" y="60" clip-path="url(#clipPath5)" stroke="none" xml:space="preserve">: actAuthenticated</text>
      <line clip-path="url(#clipPath6)" fill="none" x1="533" x2="533" y1="60" y2="630" stroke-dasharray="10,10" stroke-width="1.1" />
    </g>
    <g stroke-linecap="butt" font-size="15" fill="rgb(39,76,114)" font-family="'Segoe UI'" stroke-dasharray="10,10" stroke="rgb(39,76,114)" stroke-width="1.1">
      <rect x="524" y="90" clip-path="url(#clipPath7)" width="20" height="40" stroke="none" />
      <rect x="524" y="90" clip-path="url(#clipPath7)" fill="none" width="19" stroke-dasharray="none" height="39" stroke-width="0.1" />
    </g>
    <g stroke-width="0.1" font-size="23" font-family="'Segoe UI'" stroke-linecap="butt">
      <text xml:space="preserve" x="545" y="115" clip-path="url(#clipPath8)" stroke="none">out01</text>
      <rect x="524" y="328" clip-path="url(#clipPath9)" fill="rgb(39,76,114)" width="20" height="40" stroke="none" />
      <rect x="524" y="328" clip-path="url(#clipPath9)" fill="none" width="19" height="39" stroke="rgb(39,76,114)" />
      <text xml:space="preserve" x="545" y="353" clip-path="url(#clipPath10)" stroke="none">out03</text>
      <rect x="524" y="535" clip-path="url(#clipPath11)" fill="rgb(194,239,255)" width="20" height="40" stroke="none" />
      <rect x="524" y="535" clip-path="url(#clipPath11)" fill="none" width="19" height="39" stroke="rgb(194,239,255)" />
      <text xml:space="preserve" x="545" y="560" clip-path="url(#clipPath12)" stroke="none">in04</text>
      <rect x="524" y="270" clip-path="url(#clipPath13)" fill="rgb(194,239,255)" width="20" height="40" stroke="none" />
      <rect x="524" y="270" clip-path="url(#clipPath13)" fill="none" width="19" height="39" stroke="rgb(194,239,255)" />
      <text xml:space="preserve" x="545" y="295" clip-path="url(#clipPath14)" stroke="none">in02</text>
      <rect x="645" y="10" clip-path="url(#clipPath15)" fill="rgb(255,245,181)" width="211" height="50" stroke="none" />
      <rect x="645" y="10" clip-path="url(#clipPath15)" fill="none" width="210" height="49" />
      <text xml:space="preserve" x="672" y="29" clip-path="url(#clipPath16)" stroke="none">CaptchaService</text>
      <text xml:space="preserve" x="651" y="60" clip-path="url(#clipPath16)" stroke="none">: actCaptchaService</text>
      <line clip-path="url(#clipPath17)" fill="none" x1="749" x2="749" y1="60" y2="630" stroke-dasharray="10,10" stroke-width="1.1" />
    </g>
    <g stroke-linecap="butt" font-size="15" fill="rgb(39,76,114)" font-family="'Segoe UI'" stroke-dasharray="10,10" stroke="rgb(39,76,114)" stroke-width="1.1">
      <rect x="740" y="210" clip-path="url(#clipPath18)" width="20" height="40" stroke="none" />
      <rect x="740" y="210" clip-path="url(#clipPath18)" fill="none" width="19" stroke-dasharray="none" height="39" stroke-width="0.1" />
    </g>
    <g stroke-width="0.1" font-size="23" font-family="'Segoe UI'" stroke-linecap="butt">
      <text xml:space="preserve" x="761" y="235" clip-path="url(#clipPath19)" stroke="none">out02</text>
      <rect x="740" y="480" clip-path="url(#clipPath20)" fill="rgb(39,76,114)" width="20" height="40" stroke="none" />
      <rect x="740" y="480" clip-path="url(#clipPath20)" fill="none" width="19" height="39" stroke="rgb(39,76,114)" />
      <text xml:space="preserve" x="761" y="505" clip-path="url(#clipPath21)" stroke="none">out04</text>
      <rect x="740" y="150" clip-path="url(#clipPath22)" fill="rgb(194,239,255)" width="20" height="40" stroke="none" />
      <rect x="740" y="150" clip-path="url(#clipPath22)" fill="none" width="19" height="39" stroke="rgb(194,239,255)" />
      <text xml:space="preserve" x="761" y="175" clip-path="url(#clipPath23)" stroke="none">in01</text>
      <rect x="740" y="398" clip-path="url(#clipPath24)" fill="rgb(194,239,255)" width="20" height="40" stroke="none" />
      <rect x="740" y="398" clip-path="url(#clipPath24)" fill="none" width="19" height="39" stroke="rgb(194,239,255)" />
      <text xml:space="preserve" x="761" y="423" clip-path="url(#clipPath25)" stroke="none">in03</text>
      <line clip-path="url(#clipPath26)" fill="none" x1="524" x2="45" y1="90" y2="90" stroke="rgb(136,136,136)" stroke-width="2.1" />
      <text x="100" y="90" clip-path="url(#clipPath27)" stroke="none" stroke-width="2.1" xml:space="preserve">oeLogin("mkremer003","Raichu124")</text>
      <line clip-path="url(#clipPath28)" fill="none" x1="52" x2="45" y1="87" y2="90" stroke="rgb(136,136,136)" stroke-width="2.1" />
      <line clip-path="url(#clipPath28)" fill="none" x1="45" x2="52" y1="90" y2="93" stroke="rgb(136,136,136)" stroke-width="2.1" />
      <line clip-path="url(#clipPath26)" fill="none" x1="524" x2="45" y1="328" y2="328" stroke="rgb(136,136,136)" stroke-width="2.1" />
      <text x="62" y="328" clip-path="url(#clipPath29)" stroke="none" stroke-width="2.1" xml:space="preserve">oeSubmitCaptcha("Captcha user response")</text>
      <line clip-path="url(#clipPath30)" fill="none" x1="52" x2="45" y1="325" y2="328" stroke="rgb(136,136,136)" stroke-width="2.1" />
      <line clip-path="url(#clipPath30)" fill="none" x1="45" x2="52" y1="328" y2="331" stroke="rgb(136,136,136)" stroke-width="2.1" />
    </g>
    <g stroke-linecap="butt" font-size="23" fill="rgb(136,136,136)" font-family="'Segoe UI'" stroke-dasharray="5,5" stroke="rgb(136,136,136)" stroke-width="2.1">
      <line clip-path="url(#clipPath26)" fill="none" x1="524" x2="45" y1="535" y2="535" />
      <text x="105" y="535" clip-path="url(#clipPath31)" fill="black" stroke="none" xml:space="preserve">ieMessage(You are now logged in!)</text>
      <line clip-path="url(#clipPath32)" fill="none" x1="517" x2="524" y1="538" y2="535" stroke-dasharray="none" />
      <line clip-path="url(#clipPath32)" fill="none" x1="524" x2="517" y1="535" y2="532" stroke-dasharray="none" />
      <line clip-path="url(#clipPath26)" fill="none" x1="740" x2="45" y1="210" y2="210" stroke-dasharray="none" />
      <text x="141" y="210" clip-path="url(#clipPath33)" fill="black" stroke-dasharray="none" stroke="none" xml:space="preserve">oeSendCaptcha("Captcha test","Captcha answer")</text>
      <line clip-path="url(#clipPath34)" fill="none" x1="52" x2="45" y1="207" y2="210" stroke-dasharray="none" />
      <line clip-path="url(#clipPath34)" fill="none" x1="45" x2="52" y1="210" y2="213" stroke-dasharray="none" />
      <line clip-path="url(#clipPath26)" fill="none" x1="740" x2="45" y1="480" y2="480" stroke-dasharray="none" />
      <text x="243" y="480" clip-path="url(#clipPath35)" fill="black" stroke-dasharray="none" stroke="none" xml:space="preserve">oeCaptchaValid("Captcha id")</text>
      <line clip-path="url(#clipPath36)" fill="none" x1="52" x2="45" y1="477" y2="480" stroke-dasharray="none" />
      <line clip-path="url(#clipPath36)" fill="none" x1="45" x2="52" y1="480" y2="483" stroke-dasharray="none" />
      <line clip-path="url(#clipPath26)" fill="none" x1="740" x2="45" y1="150" y2="150" />
      <text x="289" y="150" clip-path="url(#clipPath37)" fill="black" stroke="none" xml:space="preserve">ieGenerateCaptcha()</text>
      <line clip-path="url(#clipPath38)" fill="none" x1="733" x2="740" y1="153" y2="150" stroke-dasharray="none" />
      <line clip-path="url(#clipPath38)" fill="none" x1="740" x2="733" y1="150" y2="147" stroke-dasharray="none" />
      <line clip-path="url(#clipPath26)" fill="none" x1="524" x2="45" y1="270" y2="270" />
      <text x="122" y="270" clip-path="url(#clipPath39)" fill="black" stroke="none" xml:space="preserve">ieConfirmCaptcha(Captcha test)</text>
      <line clip-path="url(#clipPath40)" fill="none" x1="517" x2="524" y1="273" y2="270" stroke-dasharray="none" />
      <line clip-path="url(#clipPath40)" fill="none" x1="524" x2="517" y1="270" y2="267" stroke-dasharray="none" />
      <line clip-path="url(#clipPath26)" fill="none" x1="740" x2="45" y1="398" y2="398" />
      <text x="191" y="398" clip-path="url(#clipPath41)" fill="black" stroke="none" xml:space="preserve">ieVerifyCaptcha(Captcha user response)</text>
      <line clip-path="url(#clipPath42)" fill="none" x1="733" x2="740" y1="401" y2="398" stroke-dasharray="none" />
      <line clip-path="url(#clipPath42)" fill="none" x1="740" x2="733" y1="398" y2="395" stroke-dasharray="none" />
    </g>
  </g>
</svg>

