<?xml version="1.0" encoding="UTF-8"?>
<svg xmlns="http://www.w3.org/2000/svg" xmlns:xlink="http://www.w3.org/1999/xlink" stroke-dasharray="none" shape-rendering="auto" font-family="'Dialog'" width="1148" text-rendering="auto" fill-opacity="1" contentScriptType="text/ecmascript" color-interpolation="auto" color-rendering="auto" preserveAspectRatio="xMidYMid meet" font-size="12" viewBox="0 0 1148 610" fill="black" stroke="black" image-rendering="auto" stroke-miterlimit="10" zoomAndPan="magnify" version="1.0" stroke-linecap="square" stroke-linejoin="miter" contentStyleType="text/css" font-style="normal" height="610" stroke-width="1" stroke-dashoffset="0" font-weight="normal" stroke-opacity="1">
  <!--Generated by the Batik Graphics2D SVG Generator-->
  <defs id="genericDefs" />
  <g>
    <defs id="defs1">
      <clipPath clipPathUnits="userSpaceOnUse" id="clipPath1">
        <path d="M9 9 L81 9 L81 41 L9 41 L9 9 Z" />
      </clipPath>
      <clipPath clipPathUnits="userSpaceOnUse" id="clipPath2">
        <path d="M39 39 L51 39 L51 601 L39 601 L39 39 Z" />
      </clipPath>
      <clipPath clipPathUnits="userSpaceOnUse" id="clipPath3">
        <path d="M432 9 L636 9 L636 61 L432 61 L432 9 Z" />
      </clipPath>
      <clipPath clipPathUnits="userSpaceOnUse" id="clipPath4">
        <path d="M432 9 L642 9 L642 61 L432 61 L432 9 Z" />
      </clipPath>
      <clipPath clipPathUnits="userSpaceOnUse" id="clipPath5">
        <path d="M432 9 L641 9 L641 61 L432 61 L432 9 Z" />
      </clipPath>
      <clipPath clipPathUnits="userSpaceOnUse" id="clipPath6">
        <path d="M528 59 L540 59 L540 601 L528 601 L528 59 Z" />
      </clipPath>
      <clipPath clipPathUnits="userSpaceOnUse" id="clipPath7">
        <path d="M523 89 L545 89 L545 131 L523 131 L523 89 Z" />
      </clipPath>
      <clipPath clipPathUnits="userSpaceOnUse" id="clipPath8">
        <path d="M544 89 L609 89 L609 122 L544 122 L544 89 Z" />
      </clipPath>
      <clipPath clipPathUnits="userSpaceOnUse" id="clipPath9">
        <path d="M523 329 L545 329 L545 371 L523 371 L523 329 Z" />
      </clipPath>
      <clipPath clipPathUnits="userSpaceOnUse" id="clipPath10">
        <path d="M544 329 L609 329 L609 362 L544 362 L544 329 Z" />
      </clipPath>
      <clipPath clipPathUnits="userSpaceOnUse" id="clipPath11">
        <path d="M523 269 L545 269 L545 311 L523 311 L523 269 Z" />
      </clipPath>
      <clipPath clipPathUnits="userSpaceOnUse" id="clipPath12">
        <path d="M544 269 L594 269 L594 302 L544 302 L544 269 Z" />
      </clipPath>
      <clipPath clipPathUnits="userSpaceOnUse" id="clipPath13">
        <path d="M523 509 L545 509 L545 551 L523 551 L523 509 Z" />
      </clipPath>
      <clipPath clipPathUnits="userSpaceOnUse" id="clipPath14">
        <path d="M544 509 L594 509 L594 542 L544 542 L544 509 Z" />
      </clipPath>
      <clipPath clipPathUnits="userSpaceOnUse" id="clipPath15">
        <path d="M644 9 L893 9 L893 61 L644 61 L644 9 Z" />
      </clipPath>
      <clipPath clipPathUnits="userSpaceOnUse" id="clipPath16">
        <path d="M644 9 L898 9 L898 61 L644 61 L644 9 Z" />
      </clipPath>
      <clipPath clipPathUnits="userSpaceOnUse" id="clipPath17">
        <path d="M762 59 L774 59 L774 601 L762 601 L762 59 Z" />
      </clipPath>
      <clipPath clipPathUnits="userSpaceOnUse" id="clipPath18">
        <path d="M757 209 L779 209 L779 251 L757 251 L757 209 Z" />
      </clipPath>
      <clipPath clipPathUnits="userSpaceOnUse" id="clipPath19">
        <path d="M778 209 L843 209 L843 242 L778 242 L778 209 Z" />
      </clipPath>
      <clipPath clipPathUnits="userSpaceOnUse" id="clipPath20">
        <path d="M757 149 L779 149 L779 191 L757 191 L757 149 Z" />
      </clipPath>
      <clipPath clipPathUnits="userSpaceOnUse" id="clipPath21">
        <path d="M778 149 L828 149 L828 182 L778 182 L778 149 Z" />
      </clipPath>
      <clipPath clipPathUnits="userSpaceOnUse" id="clipPath22">
        <path d="M901 9 L1139 9 L1139 61 L901 61 L901 9 Z" />
      </clipPath>
      <clipPath clipPathUnits="userSpaceOnUse" id="clipPath23">
        <path d="M901 9 L1144 9 L1144 61 L901 61 L901 9 Z" />
      </clipPath>
      <clipPath clipPathUnits="userSpaceOnUse" id="clipPath24">
        <path d="M1014 59 L1026 59 L1026 601 L1014 601 L1014 59 Z" />
      </clipPath>
      <clipPath clipPathUnits="userSpaceOnUse" id="clipPath25">
        <path d="M1009 449 L1031 449 L1031 491 L1009 491 L1009 449 Z" />
      </clipPath>
      <clipPath clipPathUnits="userSpaceOnUse" id="clipPath26">
        <path d="M1030 449 L1095 449 L1095 482 L1030 482 L1030 449 Z" />
      </clipPath>
      <clipPath clipPathUnits="userSpaceOnUse" id="clipPath27">
        <path d="M1009 389 L1031 389 L1031 431 L1009 431 L1009 389 Z" />
      </clipPath>
      <clipPath clipPathUnits="userSpaceOnUse" id="clipPath28">
        <path d="M1030 389 L1080 389 L1080 422 L1030 422 L1030 389 Z" />
      </clipPath>
      <clipPath clipPathUnits="userSpaceOnUse" id="clipPath29">
        <path d="M-1 -1 L1149 -1 L1149 611 L-1 611 L-1 -1 Z" />
      </clipPath>
      <clipPath clipPathUnits="userSpaceOnUse" id="clipPath30">
        <path d="M99 64 L475 64 L475 97 L99 97 L99 64 Z" />
      </clipPath>
      <clipPath clipPathUnits="userSpaceOnUse" id="clipPath31">
        <path d="M43 85 L55 85 L55 96 L43 96 L43 85 Z" />
      </clipPath>
      <clipPath clipPathUnits="userSpaceOnUse" id="clipPath32">
        <path d="M240 184 L567 184 L567 217 L240 217 L240 184 Z" />
      </clipPath>
      <clipPath clipPathUnits="userSpaceOnUse" id="clipPath33">
        <path d="M43 205 L55 205 L55 216 L43 216 L43 205 Z" />
      </clipPath>
      <clipPath clipPathUnits="userSpaceOnUse" id="clipPath34">
        <path d="M61 304 L513 304 L513 337 L61 337 L61 304 Z" />
      </clipPath>
      <clipPath clipPathUnits="userSpaceOnUse" id="clipPath35">
        <path d="M43 325 L55 325 L55 336 L43 336 L43 325 Z" />
      </clipPath>
      <clipPath clipPathUnits="userSpaceOnUse" id="clipPath36">
        <path d="M376 424 L684 424 L684 457 L376 457 L376 424 Z" />
      </clipPath>
      <clipPath clipPathUnits="userSpaceOnUse" id="clipPath37">
        <path d="M43 445 L55 445 L55 456 L43 456 L43 445 Z" />
      </clipPath>
      <clipPath clipPathUnits="userSpaceOnUse" id="clipPath38">
        <path d="M296 124 L512 124 L512 157 L296 157 L296 124 Z" />
      </clipPath>
      <clipPath clipPathUnits="userSpaceOnUse" id="clipPath39">
        <path d="M749 145 L761 145 L761 156 L749 156 L749 145 Z" />
      </clipPath>
      <clipPath clipPathUnits="userSpaceOnUse" id="clipPath40">
        <path d="M121 244 L453 244 L453 277 L121 277 L121 244 Z" />
      </clipPath>
      <clipPath clipPathUnits="userSpaceOnUse" id="clipPath41">
        <path d="M515 265 L527 265 L527 276 L515 276 L515 265 Z" />
      </clipPath>
      <clipPath clipPathUnits="userSpaceOnUse" id="clipPath42">
        <path d="M324 364 L735 364 L735 397 L324 397 L324 364 Z" />
      </clipPath>
      <clipPath clipPathUnits="userSpaceOnUse" id="clipPath43">
        <path d="M1001 385 L1013 385 L1013 396 L1001 396 L1001 385 Z" />
      </clipPath>
      <clipPath clipPathUnits="userSpaceOnUse" id="clipPath44">
        <path d="M104 484 L469 484 L469 517 L104 517 L104 484 Z" />
      </clipPath>
      <clipPath clipPathUnits="userSpaceOnUse" id="clipPath45">
        <path d="M515 505 L527 505 L527 516 L515 516 L515 505 Z" />
      </clipPath>
    </defs>
    <g font-size="15" fill="rgb(238,201,142)" font-family="'Segoe UI'" stroke-linejoin="round" stroke="rgb(238,201,142)" stroke-width="0" stroke-miterlimit="0">
      <rect x="10" y="10" clip-path="url(#clipPath1)" width="70" height="30" stroke="none" />
    </g>
    <g stroke-width="0.1" font-size="15" font-family="'Segoe UI'" stroke-linecap="butt">
      <rect x="10" y="10" clip-path="url(#clipPath1)" fill="none" width="69" height="29" />
      <line clip-path="url(#clipPath2)" fill="none" x1="44" x2="44" y1="40" y2="600" stroke-dasharray="10,10" stroke-width="1.1" />
    </g>
    <g stroke-linecap="butt" font-size="15" fill="rgb(255,245,181)" font-family="'Segoe UI'" stroke-dasharray="10,10" stroke="rgb(255,245,181)" stroke-width="1.1">
      <rect x="433" y="10" clip-path="url(#clipPath3)" width="202" height="50" stroke="none" />
    </g>
    <g stroke-width="0.1" font-size="15" font-family="'Segoe UI'" stroke-linecap="butt">
      <rect x="433" y="10" clip-path="url(#clipPath3)" fill="none" width="201" height="49" />
      <text x="486" font-size="23" y="29" clip-path="url(#clipPath4)" stroke="none" xml:space="preserve">MKremer</text>
      <text x="440" font-size="23" y="60" clip-path="url(#clipPath5)" stroke="none" xml:space="preserve">: actAuthenticated</text>
      <line clip-path="url(#clipPath6)" fill="none" x1="533" x2="533" y1="60" y2="600" stroke-dasharray="10,10" stroke-width="1.1" />
    </g>
    <g stroke-linecap="butt" font-size="15" fill="rgb(39,76,114)" font-family="'Segoe UI'" stroke-dasharray="10,10" stroke="rgb(39,76,114)" stroke-width="1.1">
      <rect x="524" y="90" clip-path="url(#clipPath7)" width="20" height="40" stroke="none" />
      <rect x="524" y="90" clip-path="url(#clipPath7)" fill="none" width="19" stroke-dasharray="none" height="39" stroke-width="0.1" />
    </g>
    <g stroke-width="0.1" font-size="23" font-family="'Segoe UI'" stroke-linecap="butt">
      <text xml:space="preserve" x="545" y="115" clip-path="url(#clipPath8)" stroke="none">out01</text>
      <rect x="524" y="330" clip-path="url(#clipPath9)" fill="rgb(39,76,114)" width="20" height="40" stroke="none" />
      <rect x="524" y="330" clip-path="url(#clipPath9)" fill="none" width="19" height="39" stroke="rgb(39,76,114)" />
      <text xml:space="preserve" x="545" y="355" clip-path="url(#clipPath10)" stroke="none">out03</text>
      <rect x="524" y="270" clip-path="url(#clipPath11)" fill="rgb(194,239,255)" width="20" height="40" stroke="none" />
      <rect x="524" y="270" clip-path="url(#clipPath11)" fill="none" width="19" height="39" stroke="rgb(194,239,255)" />
      <text xml:space="preserve" x="545" y="295" clip-path="url(#clipPath12)" stroke="none">in02</text>
      <rect x="524" y="510" clip-path="url(#clipPath13)" fill="rgb(194,239,255)" width="20" height="40" stroke="none" />
      <rect x="524" y="510" clip-path="url(#clipPath13)" fill="none" width="19" height="39" stroke="rgb(194,239,255)" />
      <text xml:space="preserve" x="545" y="535" clip-path="url(#clipPath14)" stroke="none">in04</text>
      <rect x="645" y="10" clip-path="url(#clipPath15)" fill="rgb(255,245,181)" width="247" height="50" stroke="none" />
      <rect x="645" y="10" clip-path="url(#clipPath15)" fill="none" width="246" height="49" />
      <text xml:space="preserve" x="675" y="29" clip-path="url(#clipPath16)" stroke="none">CaptchaGenerator</text>
      <text xml:space="preserve" x="654" y="60" clip-path="url(#clipPath16)" stroke="none">: actCaptchaGenerator</text>
      <line clip-path="url(#clipPath17)" fill="none" x1="767" x2="767" y1="60" y2="600" stroke-dasharray="10,10" stroke-width="1.1" />
    </g>
    <g stroke-linecap="butt" font-size="15" fill="rgb(39,76,114)" font-family="'Segoe UI'" stroke-dasharray="10,10" stroke="rgb(39,76,114)" stroke-width="1.1">
      <rect x="758" y="210" clip-path="url(#clipPath18)" width="20" height="40" stroke="none" />
      <rect x="758" y="210" clip-path="url(#clipPath18)" fill="none" width="19" stroke-dasharray="none" height="39" stroke-width="0.1" />
    </g>
    <g stroke-width="0.1" font-size="23" font-family="'Segoe UI'" stroke-linecap="butt">
      <text xml:space="preserve" x="779" y="235" clip-path="url(#clipPath19)" stroke="none">out02</text>
      <rect x="758" y="150" clip-path="url(#clipPath20)" fill="rgb(194,239,255)" width="20" height="40" stroke="none" />
      <rect x="758" y="150" clip-path="url(#clipPath20)" fill="none" width="19" height="39" stroke="rgb(194,239,255)" />
      <text xml:space="preserve" x="779" y="175" clip-path="url(#clipPath21)" stroke="none">in01</text>
      <rect x="902" y="10" clip-path="url(#clipPath22)" fill="rgb(255,245,181)" width="236" height="50" stroke="none" />
      <rect x="902" y="10" clip-path="url(#clipPath22)" fill="none" width="235" height="49" />
      <text xml:space="preserve" x="932" y="29" clip-path="url(#clipPath23)" stroke="none">CaptchaValidator</text>
      <text xml:space="preserve" x="911" y="60" clip-path="url(#clipPath23)" stroke="none">: actCaptchaValidator</text>
      <line clip-path="url(#clipPath24)" fill="none" x1="1019" x2="1019" y1="60" y2="600" stroke-dasharray="10,10" stroke-width="1.1" />
    </g>
    <g stroke-linecap="butt" font-size="15" fill="rgb(39,76,114)" font-family="'Segoe UI'" stroke-dasharray="10,10" stroke="rgb(39,76,114)" stroke-width="1.1">
      <rect x="1010" y="450" clip-path="url(#clipPath25)" width="20" height="40" stroke="none" />
      <rect x="1010" y="450" clip-path="url(#clipPath25)" fill="none" width="19" stroke-dasharray="none" height="39" stroke-width="0.1" />
    </g>
    <g stroke-width="0.1" font-size="23" font-family="'Segoe UI'" stroke-linecap="butt">
      <text xml:space="preserve" x="1031" y="475" clip-path="url(#clipPath26)" stroke="none">out04</text>
      <rect x="1010" y="390" clip-path="url(#clipPath27)" fill="rgb(194,239,255)" width="20" height="40" stroke="none" />
      <rect x="1010" y="390" clip-path="url(#clipPath27)" fill="none" width="19" height="39" stroke="rgb(194,239,255)" />
      <text xml:space="preserve" x="1031" y="415" clip-path="url(#clipPath28)" stroke="none">in03</text>
      <line clip-path="url(#clipPath29)" fill="none" x1="524" x2="45" y1="90" y2="90" stroke="rgb(136,136,136)" stroke-width="2.1" />
      <text x="100" y="90" clip-path="url(#clipPath30)" stroke="none" stroke-width="2.1" xml:space="preserve">oeLogin("mkremer003","Raichu124")</text>
      <line clip-path="url(#clipPath31)" fill="none" x1="52" x2="45" y1="87" y2="90" stroke="rgb(136,136,136)" stroke-width="2.1" />
      <line clip-path="url(#clipPath31)" fill="none" x1="45" x2="52" y1="90" y2="93" stroke="rgb(136,136,136)" stroke-width="2.1" />
      <line clip-path="url(#clipPath29)" fill="none" x1="758" x2="45" y1="210" y2="210" stroke="rgb(136,136,136)" stroke-width="2.1" />
      <text x="241" y="210" clip-path="url(#clipPath32)" stroke="none" stroke-width="2.1" xml:space="preserve">oeSendCaptcha("Captcha test")</text>
      <line clip-path="url(#clipPath33)" fill="none" x1="52" x2="45" y1="207" y2="210" stroke="rgb(136,136,136)" stroke-width="2.1" />
      <line clip-path="url(#clipPath33)" fill="none" x1="45" x2="52" y1="210" y2="213" stroke="rgb(136,136,136)" stroke-width="2.1" />
      <line clip-path="url(#clipPath29)" fill="none" x1="524" x2="45" y1="330" y2="330" stroke="rgb(136,136,136)" stroke-width="2.1" />
      <text x="62" y="330" clip-path="url(#clipPath34)" stroke="none" stroke-width="2.1" xml:space="preserve">oeSubmitCaptcha("Captcha user response")</text>
      <line clip-path="url(#clipPath35)" fill="none" x1="52" x2="45" y1="327" y2="330" stroke="rgb(136,136,136)" stroke-width="2.1" />
      <line clip-path="url(#clipPath35)" fill="none" x1="45" x2="52" y1="330" y2="333" stroke="rgb(136,136,136)" stroke-width="2.1" />
      <line clip-path="url(#clipPath29)" fill="none" x1="1010" x2="45" y1="450" y2="450" stroke="rgb(136,136,136)" stroke-width="2.1" />
      <text x="377" y="450" clip-path="url(#clipPath36)" stroke="none" stroke-width="2.1" xml:space="preserve">oeCaptchaValid("Captcha id")</text>
      <line clip-path="url(#clipPath37)" fill="none" x1="52" x2="45" y1="447" y2="450" stroke="rgb(136,136,136)" stroke-width="2.1" />
      <line clip-path="url(#clipPath37)" fill="none" x1="45" x2="52" y1="450" y2="453" stroke="rgb(136,136,136)" stroke-width="2.1" />
    </g>
    <g stroke-linecap="butt" font-size="23" fill="rgb(136,136,136)" font-family="'Segoe UI'" stroke-dasharray="5,5" stroke="rgb(136,136,136)" stroke-width="2.1">
      <line clip-path="url(#clipPath29)" fill="none" x1="758" x2="45" y1="150" y2="150" />
      <text x="297" y="150" clip-path="url(#clipPath38)" fill="black" stroke="none" xml:space="preserve">ieGenerateCaptcha()</text>
      <line clip-path="url(#clipPath39)" fill="none" x1="751" x2="758" y1="153" y2="150" stroke-dasharray="none" />
      <line clip-path="url(#clipPath39)" fill="none" x1="758" x2="751" y1="150" y2="147" stroke-dasharray="none" />
      <line clip-path="url(#clipPath29)" fill="none" x1="524" x2="45" y1="270" y2="270" />
      <text x="122" y="270" clip-path="url(#clipPath40)" fill="black" stroke="none" xml:space="preserve">ieConfirmCaptcha(Captcha test)</text>
      <line clip-path="url(#clipPath41)" fill="none" x1="517" x2="524" y1="273" y2="270" stroke-dasharray="none" />
      <line clip-path="url(#clipPath41)" fill="none" x1="524" x2="517" y1="270" y2="267" stroke-dasharray="none" />
      <line clip-path="url(#clipPath29)" fill="none" x1="1010" x2="45" y1="390" y2="390" />
      <text x="325" y="390" clip-path="url(#clipPath42)" fill="black" stroke="none" xml:space="preserve">ieVerifyCaptcha(Captcha user response)</text>
      <line clip-path="url(#clipPath43)" fill="none" x1="1003" x2="1010" y1="393" y2="390" stroke-dasharray="none" />
      <line clip-path="url(#clipPath43)" fill="none" x1="1010" x2="1003" y1="390" y2="387" stroke-dasharray="none" />
      <line clip-path="url(#clipPath29)" fill="none" x1="524" x2="45" y1="510" y2="510" />
      <text x="105" y="510" clip-path="url(#clipPath44)" fill="black" stroke="none" xml:space="preserve">ieMessage(You are now logged in!)</text>
      <line clip-path="url(#clipPath45)" fill="none" x1="517" x2="524" y1="513" y2="510" stroke-dasharray="none" />
      <line clip-path="url(#clipPath45)" fill="none" x1="524" x2="517" y1="510" y2="507" stroke-dasharray="none" />
    </g>
  </g>
</svg>

