<?xml version="1.0" encoding="UTF-8"?>
<svg xmlns="http://www.w3.org/2000/svg" xmlns:xlink="http://www.w3.org/1999/xlink" stroke-dasharray="none" shape-rendering="auto" font-family="'Dialog'" width="769" text-rendering="auto" fill-opacity="1" contentScriptType="text/ecmascript" color-interpolation="auto" color-rendering="auto" preserveAspectRatio="xMidYMid meet" font-size="12" viewBox="0 0 769 250" fill="black" stroke="black" image-rendering="auto" stroke-miterlimit="10" zoomAndPan="magnify" version="1.0" stroke-linecap="square" stroke-linejoin="miter" contentStyleType="text/css" font-style="normal" height="250" stroke-width="1" stroke-dashoffset="0" font-weight="normal" stroke-opacity="1">
  <!--Generated by the Batik Graphics2D SVG Generator-->
  <defs id="genericDefs" />
  <g>
    <defs id="defs1">
      <clipPath clipPathUnits="userSpaceOnUse" id="clipPath1">
        <path d="M9 9 L81 9 L81 41 L9 41 L9 9 Z" />
      </clipPath>
      <clipPath clipPathUnits="userSpaceOnUse" id="clipPath2">
        <path d="M39 39 L51 39 L51 241 L39 241 L39 39 Z" />
      </clipPath>
      <clipPath clipPathUnits="userSpaceOnUse" id="clipPath3">
        <path d="M557 9 L760 9 L760 61 L557 61 L557 9 Z" />
      </clipPath>
      <clipPath clipPathUnits="userSpaceOnUse" id="clipPath4">
        <path d="M557 9 L766 9 L766 61 L557 61 L557 9 Z" />
      </clipPath>
      <clipPath clipPathUnits="userSpaceOnUse" id="clipPath5">
        <path d="M557 9 L765 9 L765 61 L557 61 L557 9 Z" />
      </clipPath>
      <clipPath clipPathUnits="userSpaceOnUse" id="clipPath6">
        <path d="M652 59 L664 59 L664 241 L652 241 L652 59 Z" />
      </clipPath>
      <clipPath clipPathUnits="userSpaceOnUse" id="clipPath7">
        <path d="M647 89 L669 89 L669 131 L647 131 L647 89 Z" />
      </clipPath>
      <clipPath clipPathUnits="userSpaceOnUse" id="clipPath8">
        <path d="M668 89 L733 89 L733 122 L668 122 L668 89 Z" />
      </clipPath>
      <clipPath clipPathUnits="userSpaceOnUse" id="clipPath9">
        <path d="M647 149 L669 149 L669 191 L647 191 L647 149 Z" />
      </clipPath>
      <clipPath clipPathUnits="userSpaceOnUse" id="clipPath10">
        <path d="M668 149 L718 149 L718 182 L668 182 L668 149 Z" />
      </clipPath>
      <clipPath clipPathUnits="userSpaceOnUse" id="clipPath11">
        <path d="M-1 -1 L770 -1 L770 251 L-1 251 L-1 -1 Z" />
      </clipPath>
      <clipPath clipPathUnits="userSpaceOnUse" id="clipPath12">
        <path d="M161 63 L537 63 L537 96 L161 96 L161 63 Z" />
      </clipPath>
      <clipPath clipPathUnits="userSpaceOnUse" id="clipPath13">
        <path d="M43 84 L55 84 L55 95 L43 95 L43 84 Z" />
      </clipPath>
      <clipPath clipPathUnits="userSpaceOnUse" id="clipPath14">
        <path d="M166 123 L531 123 L531 156 L166 156 L166 123 Z" />
      </clipPath>
      <clipPath clipPathUnits="userSpaceOnUse" id="clipPath15">
        <path d="M639 144 L651 144 L651 155 L639 155 L639 144 Z" />
      </clipPath>
    </defs>
    <g font-size="15" fill="rgb(238,201,142)" font-family="'Segoe UI'" stroke-linejoin="round" stroke="rgb(238,201,142)" stroke-width="0" stroke-miterlimit="0">
      <rect x="10" y="10" clip-path="url(#clipPath1)" width="70" height="30" stroke="none" />
    </g>
    <g stroke-width="0.1" font-size="15" font-family="'Segoe UI'" stroke-linecap="butt">
      <rect x="10" y="10" clip-path="url(#clipPath1)" fill="none" width="69" height="29" />
      <line clip-path="url(#clipPath2)" fill="none" x1="44" x2="44" y1="40" y2="240" stroke-dasharray="10,10" stroke-width="1.1" />
    </g>
    <g stroke-linecap="butt" font-size="15" fill="rgb(255,245,181)" font-family="'Segoe UI'" stroke-dasharray="10,10" stroke="rgb(255,245,181)" stroke-width="1.1">
      <rect x="558" y="10" clip-path="url(#clipPath3)" width="201" height="50" stroke="none" />
    </g>
    <g stroke-width="0.1" font-size="15" font-family="'Segoe UI'" stroke-linecap="butt">
      <rect x="558" y="10" clip-path="url(#clipPath3)" fill="none" width="200" height="49" />
      <text x="611" font-size="23" y="29" clip-path="url(#clipPath4)" stroke="none" xml:space="preserve">MKremer</text>
      <text x="565" font-size="23" y="60" clip-path="url(#clipPath5)" stroke="none" xml:space="preserve">: actAuthenticated</text>
      <line clip-path="url(#clipPath6)" fill="none" x1="657" x2="657" y1="60" y2="240" stroke-dasharray="10,10" stroke-width="1.1" />
    </g>
    <g stroke-linecap="butt" font-size="15" fill="rgb(39,76,114)" font-family="'Segoe UI'" stroke-dasharray="10,10" stroke="rgb(39,76,114)" stroke-width="1.1">
      <rect x="648" y="90" clip-path="url(#clipPath7)" width="20" height="40" stroke="none" />
      <rect x="648" y="90" clip-path="url(#clipPath7)" fill="none" width="19" stroke-dasharray="none" height="39" stroke-width="0.1" />
    </g>
    <g stroke-width="0.1" font-size="23" font-family="'Segoe UI'" stroke-linecap="butt">
      <text xml:space="preserve" x="669" y="115" clip-path="url(#clipPath8)" stroke="none">out01</text>
      <rect x="648" y="150" clip-path="url(#clipPath9)" fill="rgb(194,239,255)" width="20" height="40" stroke="none" />
      <rect x="648" y="150" clip-path="url(#clipPath9)" fill="none" width="19" height="39" stroke="rgb(194,239,255)" />
      <text xml:space="preserve" x="669" y="175" clip-path="url(#clipPath10)" stroke="none">in01</text>
      <line clip-path="url(#clipPath11)" fill="none" x1="648" x2="45" y1="89" y2="89" stroke="rgb(136,136,136)" stroke-width="2.1" />
      <text x="162" y="89" clip-path="url(#clipPath12)" stroke="none" stroke-width="2.1" xml:space="preserve">oeLogin("mkremer003","Raichu124")</text>
      <line clip-path="url(#clipPath13)" fill="none" x1="52" x2="45" y1="86" y2="89" stroke="rgb(136,136,136)" stroke-width="2.1" />
      <line clip-path="url(#clipPath13)" fill="none" x1="45" x2="52" y1="89" y2="92" stroke="rgb(136,136,136)" stroke-width="2.1" />
    </g>
    <g stroke-linecap="butt" font-size="23" fill="rgb(136,136,136)" font-family="'Segoe UI'" stroke-dasharray="5,5" stroke="rgb(136,136,136)" stroke-width="2.1">
      <line clip-path="url(#clipPath11)" fill="none" x1="648" x2="45" y1="149" y2="149" />
      <text x="167" y="149" clip-path="url(#clipPath14)" fill="black" stroke="none" xml:space="preserve">ieMessage(You are now logged in!)</text>
      <line clip-path="url(#clipPath15)" fill="none" x1="641" x2="648" y1="152" y2="149" stroke-dasharray="none" />
      <line clip-path="url(#clipPath15)" fill="none" x1="648" x2="641" y1="149" y2="146" stroke-dasharray="none" />
    </g>
  </g>
</svg>

