<?xml version="1.0" encoding="UTF-8"?>
<svg xmlns="http://www.w3.org/2000/svg" xmlns:xlink="http://www.w3.org/1999/xlink" stroke-dasharray="none" shape-rendering="auto" font-family="'Dialog'" width="1029" text-rendering="auto" fill-opacity="1" contentScriptType="text/ecmascript" color-interpolation="auto" color-rendering="auto" preserveAspectRatio="xMidYMid meet" font-size="12" viewBox="0 0 1029 370" fill="black" stroke="black" image-rendering="auto" stroke-miterlimit="10" zoomAndPan="magnify" version="1.0" stroke-linecap="square" stroke-linejoin="miter" contentStyleType="text/css" font-style="normal" height="370" stroke-width="1" stroke-dashoffset="0" font-weight="normal" stroke-opacity="1">
  <!--Generated by the Batik Graphics2D SVG Generator-->
  <defs id="genericDefs" />
  <g>
    <defs id="defs1">
      <clipPath clipPathUnits="userSpaceOnUse" id="clipPath1">
        <path d="M9 9 L81 9 L81 41 L9 41 L9 9 Z" />
      </clipPath>
      <clipPath clipPathUnits="userSpaceOnUse" id="clipPath2">
        <path d="M39 39 L51 39 L51 361 L39 361 L39 39 Z" />
      </clipPath>
      <clipPath clipPathUnits="userSpaceOnUse" id="clipPath3">
        <path d="M652 9 L853 9 L853 61 L652 61 L652 9 Z" />
      </clipPath>
      <clipPath clipPathUnits="userSpaceOnUse" id="clipPath4">
        <path d="M652 9 L858 9 L858 61 L652 61 L652 9 Z" />
      </clipPath>
      <clipPath clipPathUnits="userSpaceOnUse" id="clipPath5">
        <path d="M746 59 L758 59 L758 361 L746 361 L746 59 Z" />
      </clipPath>
      <clipPath clipPathUnits="userSpaceOnUse" id="clipPath6">
        <path d="M741 89 L763 89 L763 131 L741 131 L741 89 Z" />
      </clipPath>
      <clipPath clipPathUnits="userSpaceOnUse" id="clipPath7">
        <path d="M762 89 L827 89 L827 122 L762 122 L762 89 Z" />
      </clipPath>
      <clipPath clipPathUnits="userSpaceOnUse" id="clipPath8">
        <path d="M741 269 L763 269 L763 311 L741 311 L741 269 Z" />
      </clipPath>
      <clipPath clipPathUnits="userSpaceOnUse" id="clipPath9">
        <path d="M762 269 L812 269 L812 302 L762 302 L762 269 Z" />
      </clipPath>
      <clipPath clipPathUnits="userSpaceOnUse" id="clipPath10">
        <path d="M868 9 L1020 9 L1020 61 L868 61 L868 9 Z" />
      </clipPath>
      <clipPath clipPathUnits="userSpaceOnUse" id="clipPath11">
        <path d="M868 9 L1026 9 L1026 61 L868 61 L868 9 Z" />
      </clipPath>
      <clipPath clipPathUnits="userSpaceOnUse" id="clipPath12">
        <path d="M868 9 L1025 9 L1025 61 L868 61 L868 9 Z" />
      </clipPath>
      <clipPath clipPathUnits="userSpaceOnUse" id="clipPath13">
        <path d="M938 59 L950 59 L950 361 L938 361 L938 59 Z" />
      </clipPath>
      <clipPath clipPathUnits="userSpaceOnUse" id="clipPath14">
        <path d="M933 209 L955 209 L955 251 L933 251 L933 209 Z" />
      </clipPath>
      <clipPath clipPathUnits="userSpaceOnUse" id="clipPath15">
        <path d="M954 209 L1019 209 L1019 242 L954 242 L954 209 Z" />
      </clipPath>
      <clipPath clipPathUnits="userSpaceOnUse" id="clipPath16">
        <path d="M933 149 L955 149 L955 191 L933 191 L933 149 Z" />
      </clipPath>
      <clipPath clipPathUnits="userSpaceOnUse" id="clipPath17">
        <path d="M954 149 L1004 149 L1004 182 L954 182 L954 149 Z" />
      </clipPath>
      <clipPath clipPathUnits="userSpaceOnUse" id="clipPath18">
        <path d="M-1 -1 L1030 -1 L1030 371 L-1 371 L-1 -1 Z" />
      </clipPath>
      <clipPath clipPathUnits="userSpaceOnUse" id="clipPath19">
        <path d="M333 64 L458 64 L458 97 L333 97 L333 64 Z" />
      </clipPath>
      <clipPath clipPathUnits="userSpaceOnUse" id="clipPath20">
        <path d="M43 85 L55 85 L55 96 L43 96 L43 85 Z" />
      </clipPath>
      <clipPath clipPathUnits="userSpaceOnUse" id="clipPath21">
        <path d="M79 184 L904 184 L904 217 L79 217 L79 184 Z" />
      </clipPath>
      <clipPath clipPathUnits="userSpaceOnUse" id="clipPath22">
        <path d="M43 205 L55 205 L55 216 L43 216 L43 205 Z" />
      </clipPath>
      <clipPath clipPathUnits="userSpaceOnUse" id="clipPath23">
        <path d="M338 124 L645 124 L645 157 L338 157 L338 124 Z" />
      </clipPath>
      <clipPath clipPathUnits="userSpaceOnUse" id="clipPath24">
        <path d="M925 145 L937 145 L937 156 L925 156 L925 145 Z" />
      </clipPath>
      <clipPath clipPathUnits="userSpaceOnUse" id="clipPath25">
        <path d="M282 244 L509 244 L509 277 L282 277 L282 244 Z" />
      </clipPath>
      <clipPath clipPathUnits="userSpaceOnUse" id="clipPath26">
        <path d="M733 265 L745 265 L745 276 L733 276 L733 265 Z" />
      </clipPath>
    </defs>
    <g font-size="15" fill="rgb(238,201,142)" font-family="'Segoe UI'" stroke-linejoin="round" stroke="rgb(238,201,142)" stroke-width="0" stroke-miterlimit="0">
      <rect x="10" y="10" clip-path="url(#clipPath1)" width="70" height="30" stroke="none" />
    </g>
    <g stroke-width="0.1" font-size="15" font-family="'Segoe UI'" stroke-linecap="butt">
      <rect x="10" y="10" clip-path="url(#clipPath1)" fill="none" width="69" height="29" />
      <line clip-path="url(#clipPath2)" fill="none" x1="44" x2="44" y1="40" y2="360" stroke-dasharray="10,10" stroke-width="1.1" />
    </g>
    <g stroke-linecap="butt" font-size="15" fill="rgb(255,245,181)" font-family="'Segoe UI'" stroke-dasharray="10,10" stroke="rgb(255,245,181)" stroke-width="1.1">
      <rect x="653" y="10" clip-path="url(#clipPath3)" width="199" height="50" stroke="none" />
    </g>
    <g stroke-width="0.1" font-size="15" font-family="'Segoe UI'" stroke-linecap="butt">
      <rect x="653" y="10" clip-path="url(#clipPath3)" fill="none" width="198" height="49" />
      <text x="729" font-size="23" y="29" clip-path="url(#clipPath4)" stroke="none" xml:space="preserve">User</text>
      <text x="661" font-size="23" y="60" clip-path="url(#clipPath4)" stroke="none" xml:space="preserve">: actAdministrator</text>
      <line clip-path="url(#clipPath5)" fill="none" x1="751" x2="751" y1="60" y2="360" stroke-dasharray="10,10" stroke-width="1.1" />
    </g>
    <g stroke-linecap="butt" font-size="15" fill="rgb(39,76,114)" font-family="'Segoe UI'" stroke-dasharray="10,10" stroke="rgb(39,76,114)" stroke-width="1.1">
      <rect x="742" y="90" clip-path="url(#clipPath6)" width="20" height="40" stroke="none" />
      <rect x="742" y="90" clip-path="url(#clipPath6)" fill="none" width="19" stroke-dasharray="none" height="39" stroke-width="0.1" />
    </g>
    <g stroke-width="0.1" font-size="23" font-family="'Segoe UI'" stroke-linecap="butt">
      <text xml:space="preserve" x="763" y="115" clip-path="url(#clipPath7)" stroke="none">out01</text>
      <rect x="742" y="270" clip-path="url(#clipPath8)" fill="rgb(194,239,255)" width="20" height="40" stroke="none" />
      <rect x="742" y="270" clip-path="url(#clipPath8)" fill="none" width="19" height="39" stroke="rgb(194,239,255)" />
      <text xml:space="preserve" x="763" y="295" clip-path="url(#clipPath9)" stroke="none">in02</text>
      <rect x="869" y="10" clip-path="url(#clipPath10)" fill="rgb(255,245,181)" width="150" height="50" stroke="none" />
      <rect x="869" y="10" clip-path="url(#clipPath10)" fill="none" width="149" height="49" />
      <text xml:space="preserve" x="896" y="29" clip-path="url(#clipPath11)" stroke="none">Database</text>
      <text xml:space="preserve" x="875" y="60" clip-path="url(#clipPath12)" stroke="none">: actDatabase</text>
      <line clip-path="url(#clipPath13)" fill="none" x1="943" x2="943" y1="60" y2="360" stroke-dasharray="10,10" stroke-width="1.1" />
    </g>
    <g stroke-linecap="butt" font-size="15" fill="rgb(39,76,114)" font-family="'Segoe UI'" stroke-dasharray="10,10" stroke="rgb(39,76,114)" stroke-width="1.1">
      <rect x="934" y="210" clip-path="url(#clipPath14)" width="20" height="40" stroke="none" />
      <rect x="934" y="210" clip-path="url(#clipPath14)" fill="none" width="19" stroke-dasharray="none" height="39" stroke-width="0.1" />
    </g>
    <g stroke-width="0.1" font-size="23" font-family="'Segoe UI'" stroke-linecap="butt">
      <text xml:space="preserve" x="955" y="235" clip-path="url(#clipPath15)" stroke="none">out02</text>
      <rect x="934" y="150" clip-path="url(#clipPath16)" fill="rgb(194,239,255)" width="20" height="40" stroke="none" />
      <rect x="934" y="150" clip-path="url(#clipPath16)" fill="none" width="19" height="39" stroke="rgb(194,239,255)" />
      <text xml:space="preserve" x="955" y="175" clip-path="url(#clipPath17)" stroke="none">in01</text>
      <line clip-path="url(#clipPath18)" fill="none" x1="742" x2="45" y1="90" y2="90" stroke="rgb(136,136,136)" stroke-width="2.1" />
      <text x="334" y="90" clip-path="url(#clipPath19)" stroke="none" stroke-width="2.1" xml:space="preserve">oeStatistic()</text>
      <line clip-path="url(#clipPath20)" fill="none" x1="52" x2="45" y1="87" y2="90" stroke="rgb(136,136,136)" stroke-width="2.1" />
      <line clip-path="url(#clipPath20)" fill="none" x1="45" x2="52" y1="90" y2="93" stroke="rgb(136,136,136)" stroke-width="2.1" />
      <line clip-path="url(#clipPath18)" fill="none" x1="934" x2="45" y1="210" y2="210" stroke="rgb(136,136,136)" stroke-width="2.1" />
      <text x="80" y="210" clip-path="url(#clipPath21)" stroke="none" stroke-width="2.1" xml:space="preserve">oeSendStatistic("For the number of cisises in time for the different type of crisis")</text>
      <line clip-path="url(#clipPath22)" fill="none" x1="52" x2="45" y1="207" y2="210" stroke="rgb(136,136,136)" stroke-width="2.1" />
      <line clip-path="url(#clipPath22)" fill="none" x1="45" x2="52" y1="210" y2="213" stroke="rgb(136,136,136)" stroke-width="2.1" />
    </g>
    <g stroke-linecap="butt" font-size="23" fill="rgb(136,136,136)" font-family="'Segoe UI'" stroke-dasharray="5,5" stroke="rgb(136,136,136)" stroke-width="2.1">
      <line clip-path="url(#clipPath18)" fill="none" x1="934" x2="45" y1="150" y2="150" />
      <text x="339" y="150" clip-path="url(#clipPath23)" fill="black" stroke="none" xml:space="preserve">ieCallTimeAndCrisisNumber()</text>
      <line clip-path="url(#clipPath24)" fill="none" x1="927" x2="934" y1="153" y2="150" stroke-dasharray="none" />
      <line clip-path="url(#clipPath24)" fill="none" x1="934" x2="927" y1="150" y2="147" stroke-dasharray="none" />
      <line clip-path="url(#clipPath18)" fill="none" x1="742" x2="45" y1="270" y2="270" />
      <text x="283" y="270" clip-path="url(#clipPath25)" fill="black" stroke="none" xml:space="preserve">ieShowStatisticCrisis()</text>
      <line clip-path="url(#clipPath26)" fill="none" x1="735" x2="742" y1="273" y2="270" stroke-dasharray="none" />
      <line clip-path="url(#clipPath26)" fill="none" x1="742" x2="735" y1="270" y2="267" stroke-dasharray="none" />
    </g>
  </g>
</svg>

