<?xml version="1.0" encoding="UTF-8"?>
<svg xmlns="http://www.w3.org/2000/svg" xmlns:xlink="http://www.w3.org/1999/xlink" stroke-dasharray="none" shape-rendering="auto" font-family="'Dialog'" width="1218" text-rendering="auto" fill-opacity="1" contentScriptType="text/ecmascript" color-interpolation="auto" color-rendering="auto" preserveAspectRatio="xMidYMid meet" font-size="12" viewBox="0 0 1218 1311" fill="black" stroke="black" image-rendering="auto" stroke-miterlimit="10" zoomAndPan="magnify" version="1.0" stroke-linecap="square" stroke-linejoin="miter" contentStyleType="text/css" font-style="normal" height="1311" stroke-width="1" stroke-dashoffset="0" font-weight="normal" stroke-opacity="1">
  <!--Generated by the Batik Graphics2D SVG Generator-->
  <defs id="genericDefs" />
  <g>
    <defs id="defs1">
      <clipPath clipPathUnits="userSpaceOnUse" id="clipPath1">
        <path d="M737 9 L856 9 L856 61 L737 61 L737 9 Z" />
      </clipPath>
      <clipPath clipPathUnits="userSpaceOnUse" id="clipPath2">
        <path d="M737 9 L861 9 L861 61 L737 61 L737 9 Z" />
      </clipPath>
      <clipPath clipPathUnits="userSpaceOnUse" id="clipPath3">
        <path d="M790 59 L802 59 L802 1302 L790 1302 L790 59 Z" />
      </clipPath>
      <clipPath clipPathUnits="userSpaceOnUse" id="clipPath4">
        <path d="M785 89 L807 89 L807 131 L785 131 L785 89 Z" />
      </clipPath>
      <clipPath clipPathUnits="userSpaceOnUse" id="clipPath5">
        <path d="M806 89 L870 89 L870 117 L806 117 L806 89 Z" />
      </clipPath>
      <clipPath clipPathUnits="userSpaceOnUse" id="clipPath6">
        <path d="M785 209 L807 209 L807 251 L785 251 L785 209 Z" />
      </clipPath>
      <clipPath clipPathUnits="userSpaceOnUse" id="clipPath7">
        <path d="M806 209 L870 209 L870 237 L806 237 L806 209 Z" />
      </clipPath>
      <clipPath clipPathUnits="userSpaceOnUse" id="clipPath8">
        <path d="M785 329 L807 329 L807 371 L785 371 L785 329 Z" />
      </clipPath>
      <clipPath clipPathUnits="userSpaceOnUse" id="clipPath9">
        <path d="M806 329 L870 329 L870 357 L806 357 L806 329 Z" />
      </clipPath>
      <clipPath clipPathUnits="userSpaceOnUse" id="clipPath10">
        <path d="M785 570 L807 570 L807 612 L785 612 L785 570 Z" />
      </clipPath>
      <clipPath clipPathUnits="userSpaceOnUse" id="clipPath11">
        <path d="M806 570 L870 570 L870 598 L806 598 L806 570 Z" />
      </clipPath>
      <clipPath clipPathUnits="userSpaceOnUse" id="clipPath12">
        <path d="M785 910 L807 910 L807 952 L785 952 L785 910 Z" />
      </clipPath>
      <clipPath clipPathUnits="userSpaceOnUse" id="clipPath13">
        <path d="M806 910 L870 910 L870 938 L806 938 L806 910 Z" />
      </clipPath>
      <clipPath clipPathUnits="userSpaceOnUse" id="clipPath14">
        <path d="M785 1030 L807 1030 L807 1072 L785 1072 L785 1030 Z" />
      </clipPath>
      <clipPath clipPathUnits="userSpaceOnUse" id="clipPath15">
        <path d="M806 1030 L870 1030 L870 1058 L806 1058 L806 1030 Z" />
      </clipPath>
      <clipPath clipPathUnits="userSpaceOnUse" id="clipPath16">
        <path d="M785 1150 L807 1150 L807 1192 L785 1192 L785 1150 Z" />
      </clipPath>
      <clipPath clipPathUnits="userSpaceOnUse" id="clipPath17">
        <path d="M806 1150 L870 1150 L870 1178 L806 1178 L806 1150 Z" />
      </clipPath>
      <clipPath clipPathUnits="userSpaceOnUse" id="clipPath18">
        <path d="M785 139 L807 139 L807 181 L785 181 L785 139 Z" />
      </clipPath>
      <clipPath clipPathUnits="userSpaceOnUse" id="clipPath19">
        <path d="M806 139 L870 139 L870 167 L806 167 L806 139 Z" />
      </clipPath>
      <clipPath clipPathUnits="userSpaceOnUse" id="clipPath20">
        <path d="M785 257 L807 257 L807 299 L785 299 L785 257 Z" />
      </clipPath>
      <clipPath clipPathUnits="userSpaceOnUse" id="clipPath21">
        <path d="M806 257 L870 257 L870 285 L806 285 L806 257 Z" />
      </clipPath>
      <clipPath clipPathUnits="userSpaceOnUse" id="clipPath22">
        <path d="M785 443 L807 443 L807 485 L785 485 L785 443 Z" />
      </clipPath>
      <clipPath clipPathUnits="userSpaceOnUse" id="clipPath23">
        <path d="M806 443 L870 443 L870 471 L806 471 L806 443 Z" />
      </clipPath>
      <clipPath clipPathUnits="userSpaceOnUse" id="clipPath24">
        <path d="M785 630 L807 630 L807 672 L785 672 L785 630 Z" />
      </clipPath>
      <clipPath clipPathUnits="userSpaceOnUse" id="clipPath25">
        <path d="M806 630 L870 630 L870 658 L806 658 L806 630 Z" />
      </clipPath>
      <clipPath clipPathUnits="userSpaceOnUse" id="clipPath26">
        <path d="M785 970 L807 970 L807 1012 L785 1012 L785 970 Z" />
      </clipPath>
      <clipPath clipPathUnits="userSpaceOnUse" id="clipPath27">
        <path d="M806 970 L870 970 L870 998 L806 998 L806 970 Z" />
      </clipPath>
      <clipPath clipPathUnits="userSpaceOnUse" id="clipPath28">
        <path d="M785 1090 L807 1090 L807 1132 L785 1132 L785 1090 Z" />
      </clipPath>
      <clipPath clipPathUnits="userSpaceOnUse" id="clipPath29">
        <path d="M806 1090 L870 1090 L870 1118 L806 1118 L806 1090 Z" />
      </clipPath>
      <clipPath clipPathUnits="userSpaceOnUse" id="clipPath30">
        <path d="M785 1210 L807 1210 L807 1252 L785 1252 L785 1210 Z" />
      </clipPath>
      <clipPath clipPathUnits="userSpaceOnUse" id="clipPath31">
        <path d="M806 1210 L870 1210 L870 1238 L806 1238 L806 1210 Z" />
      </clipPath>
      <clipPath clipPathUnits="userSpaceOnUse" id="clipPath32">
        <path d="M599 9 L729 9 L729 61 L599 61 L599 9 Z" />
      </clipPath>
      <clipPath clipPathUnits="userSpaceOnUse" id="clipPath33">
        <path d="M599 9 L735 9 L735 61 L599 61 L599 9 Z" />
      </clipPath>
      <clipPath clipPathUnits="userSpaceOnUse" id="clipPath34">
        <path d="M599 9 L734 9 L734 61 L599 61 L599 9 Z" />
      </clipPath>
      <clipPath clipPathUnits="userSpaceOnUse" id="clipPath35">
        <path d="M658 59 L670 59 L670 1302 L658 1302 L658 59 Z" />
      </clipPath>
      <clipPath clipPathUnits="userSpaceOnUse" id="clipPath36">
        <path d="M653 714 L675 714 L675 756 L653 756 L653 714 Z" />
      </clipPath>
      <clipPath clipPathUnits="userSpaceOnUse" id="clipPath37">
        <path d="M674 714 L738 714 L738 742 L674 742 L674 714 Z" />
      </clipPath>
      <clipPath clipPathUnits="userSpaceOnUse" id="clipPath38">
        <path d="M653 398 L675 398 L675 440 L653 440 L653 398 Z" />
      </clipPath>
      <clipPath clipPathUnits="userSpaceOnUse" id="clipPath39">
        <path d="M674 398 L738 398 L738 426 L674 426 L674 398 Z" />
      </clipPath>
      <clipPath clipPathUnits="userSpaceOnUse" id="clipPath40">
        <path d="M653 790 L675 790 L675 832 L653 832 L653 790 Z" />
      </clipPath>
      <clipPath clipPathUnits="userSpaceOnUse" id="clipPath41">
        <path d="M674 790 L738 790 L738 818 L674 818 L674 790 Z" />
      </clipPath>
      <clipPath clipPathUnits="userSpaceOnUse" id="clipPath42">
        <path d="M864 9 L983 9 L983 61 L864 61 L864 9 Z" />
      </clipPath>
      <clipPath clipPathUnits="userSpaceOnUse" id="clipPath43">
        <path d="M864 9 L988 9 L988 61 L864 61 L864 9 Z" />
      </clipPath>
      <clipPath clipPathUnits="userSpaceOnUse" id="clipPath44">
        <path d="M917 59 L929 59 L929 1302 L917 1302 L917 59 Z" />
      </clipPath>
      <clipPath clipPathUnits="userSpaceOnUse" id="clipPath45">
        <path d="M912 518 L934 518 L934 560 L912 560 L912 518 Z" />
      </clipPath>
      <clipPath clipPathUnits="userSpaceOnUse" id="clipPath46">
        <path d="M933 518 L997 518 L997 546 L933 546 L933 518 Z" />
      </clipPath>
      <clipPath clipPathUnits="userSpaceOnUse" id="clipPath47">
        <path d="M912 850 L934 850 L934 892 L912 892 L912 850 Z" />
      </clipPath>
      <clipPath clipPathUnits="userSpaceOnUse" id="clipPath48">
        <path d="M933 850 L997 850 L997 878 L933 878 L933 850 Z" />
      </clipPath>
      <clipPath clipPathUnits="userSpaceOnUse" id="clipPath49">
        <path d="M186 9 L258 9 L258 41 L186 41 L186 9 Z" />
      </clipPath>
      <clipPath clipPathUnits="userSpaceOnUse" id="clipPath50">
        <path d="M186 9 L262 9 L262 41 L186 41 L186 9 Z" />
      </clipPath>
      <clipPath clipPathUnits="userSpaceOnUse" id="clipPath51">
        <path d="M216 39 L228 39 L228 1302 L216 1302 L216 39 Z" />
      </clipPath>
      <clipPath clipPathUnits="userSpaceOnUse" id="clipPath52">
        <path d="M-1 -1 L1219 -1 L1219 1312 L-1 1312 L-1 -1 Z" />
      </clipPath>
      <clipPath clipPathUnits="userSpaceOnUse" id="clipPath53">
        <path d="M275 66 L740 66 L740 94 L275 94 L275 66 Z" />
      </clipPath>
      <clipPath clipPathUnits="userSpaceOnUse" id="clipPath54">
        <path d="M220 85 L232 85 L232 96 L220 96 L220 85 Z" />
      </clipPath>
      <clipPath clipPathUnits="userSpaceOnUse" id="clipPath55">
        <path d="M311 182 L590 182 L590 210 L311 210 L311 182 Z" />
      </clipPath>
      <clipPath clipPathUnits="userSpaceOnUse" id="clipPath56">
        <path d="M220 205 L232 205 L232 216 L220 216 L220 205 Z" />
      </clipPath>
      <clipPath clipPathUnits="userSpaceOnUse" id="clipPath57">
        <path d="M316 301 L567 301 L567 329 L316 329 L316 301 Z" />
      </clipPath>
      <clipPath clipPathUnits="userSpaceOnUse" id="clipPath58">
        <path d="M220 325 L232 325 L232 336 L220 336 L220 325 Z" />
      </clipPath>
      <clipPath clipPathUnits="userSpaceOnUse" id="clipPath59">
        <path d="M217 488 L621 488 L621 516 L217 516 L217 488 Z" />
      </clipPath>
      <clipPath clipPathUnits="userSpaceOnUse" id="clipPath60">
        <path d="M220 514 L232 514 L232 525 L220 525 L220 514 Z" />
      </clipPath>
      <clipPath clipPathUnits="userSpaceOnUse" id="clipPath61">
        <path d="M326 542 L534 542 L534 570 L326 570 L326 542 Z" />
      </clipPath>
      <clipPath clipPathUnits="userSpaceOnUse" id="clipPath62">
        <path d="M220 566 L232 566 L232 577 L220 577 L220 566 Z" />
      </clipPath>
      <clipPath clipPathUnits="userSpaceOnUse" id="clipPath63">
        <path d="M218 663 L631 663 L631 726 L218 726 L218 663 Z" />
      </clipPath>
      <clipPath clipPathUnits="userSpaceOnUse" id="clipPath64">
        <path d="M218 663 L632 663 L632 726 L218 726 L218 663 Z" />
      </clipPath>
      <clipPath clipPathUnits="userSpaceOnUse" id="clipPath65">
        <path d="M220 710 L232 710 L232 721 L220 721 L220 710 Z" />
      </clipPath>
      <clipPath clipPathUnits="userSpaceOnUse" id="clipPath66">
        <path d="M212 820 L616 820 L616 848 L212 848 L212 820 Z" />
      </clipPath>
      <clipPath clipPathUnits="userSpaceOnUse" id="clipPath67">
        <path d="M220 846 L232 846 L232 857 L220 857 L220 846 Z" />
      </clipPath>
      <clipPath clipPathUnits="userSpaceOnUse" id="clipPath68">
        <path d="M307 882 L612 882 L612 910 L307 910 L307 882 Z" />
      </clipPath>
      <clipPath clipPathUnits="userSpaceOnUse" id="clipPath69">
        <path d="M220 906 L232 906 L232 917 L220 917 L220 906 Z" />
      </clipPath>
      <clipPath clipPathUnits="userSpaceOnUse" id="clipPath70">
        <path d="M149 1005 L1200 1005 L1200 1033 L149 1033 L149 1005 Z" />
      </clipPath>
      <clipPath clipPathUnits="userSpaceOnUse" id="clipPath71">
        <path d="M220 1026 L232 1026 L232 1037 L220 1037 L220 1026 Z" />
      </clipPath>
      <clipPath clipPathUnits="userSpaceOnUse" id="clipPath72">
        <path d="M324 1122 L510 1122 L510 1150 L324 1150 L324 1122 Z" />
      </clipPath>
      <clipPath clipPathUnits="userSpaceOnUse" id="clipPath73">
        <path d="M220 1146 L232 1146 L232 1157 L220 1157 L220 1146 Z" />
      </clipPath>
      <clipPath clipPathUnits="userSpaceOnUse" id="clipPath74">
        <path d="M271 111 L727 111 L727 139 L271 139 L271 111 Z" />
      </clipPath>
      <clipPath clipPathUnits="userSpaceOnUse" id="clipPath75">
        <path d="M777 135 L789 135 L789 146 L777 146 L777 135 Z" />
      </clipPath>
      <clipPath clipPathUnits="userSpaceOnUse" id="clipPath76">
        <path d="M275 231 L698 231 L698 259 L275 259 L275 231 Z" />
      </clipPath>
      <clipPath clipPathUnits="userSpaceOnUse" id="clipPath77">
        <path d="M777 253 L789 253 L789 264 L777 264 L777 253 Z" />
      </clipPath>
      <clipPath clipPathUnits="userSpaceOnUse" id="clipPath78">
        <path d="M23 370 L1031 370 L1031 398 L23 398 L23 370 Z" />
      </clipPath>
      <clipPath clipPathUnits="userSpaceOnUse" id="clipPath79">
        <path d="M645 394 L657 394 L657 405 L645 405 L645 394 Z" />
      </clipPath>
      <clipPath clipPathUnits="userSpaceOnUse" id="clipPath80">
        <path d="M229 411 L903 411 L903 439 L229 439 L229 411 Z" />
      </clipPath>
      <clipPath clipPathUnits="userSpaceOnUse" id="clipPath81">
        <path d="M777 439 L789 439 L789 450 L777 450 L777 439 Z" />
      </clipPath>
      <clipPath clipPathUnits="userSpaceOnUse" id="clipPath82">
        <path d="M256 606 L787 606 L787 634 L256 634 L256 606 Z" />
      </clipPath>
      <clipPath clipPathUnits="userSpaceOnUse" id="clipPath83">
        <path d="M777 626 L789 626 L789 637 L777 637 L777 626 Z" />
      </clipPath>
      <clipPath clipPathUnits="userSpaceOnUse" id="clipPath84">
        <path d="M645 786 L657 786 L657 797 L645 797 L645 786 Z" />
      </clipPath>
      <clipPath clipPathUnits="userSpaceOnUse" id="clipPath85">
        <path d="M255 940 L798 940 L798 968 L255 968 L255 940 Z" />
      </clipPath>
      <clipPath clipPathUnits="userSpaceOnUse" id="clipPath86">
        <path d="M777 966 L789 966 L789 977 L777 977 L777 966 Z" />
      </clipPath>
      <clipPath clipPathUnits="userSpaceOnUse" id="clipPath87">
        <path d="M245 1063 L829 1063 L829 1091 L245 1091 L245 1063 Z" />
      </clipPath>
      <clipPath clipPathUnits="userSpaceOnUse" id="clipPath88">
        <path d="M777 1086 L789 1086 L789 1097 L777 1097 L777 1086 Z" />
      </clipPath>
      <clipPath clipPathUnits="userSpaceOnUse" id="clipPath89">
        <path d="M278 1185 L695 1185 L695 1213 L278 1213 L278 1185 Z" />
      </clipPath>
      <clipPath clipPathUnits="userSpaceOnUse" id="clipPath90">
        <path d="M777 1206 L789 1206 L789 1217 L777 1217 L777 1206 Z" />
      </clipPath>
    </defs>
    <g font-size="23" fill="rgb(255,245,181)" font-family="'Lucida Sans'" stroke-linejoin="round" stroke="rgb(255,245,181)" stroke-width="0" stroke-miterlimit="0">
      <rect x="738" y="10" clip-path="url(#clipPath1)" width="117" height="50" stroke="none" />
    </g>
    <g stroke-width="0.1" font-size="23" font-family="'Lucida Sans'" stroke-linecap="butt">
      <rect x="738" y="10" clip-path="url(#clipPath1)" fill="none" width="116" height="49" />
      <text xml:space="preserve" x="766" y="31" clip-path="url(#clipPath2)" stroke="none">steve</text>
      <text xml:space="preserve" x="740" y="57" clip-path="url(#clipPath2)" stroke="none">: actCoo...</text>
      <line clip-path="url(#clipPath3)" fill="none" x1="795" x2="795" y1="60" y2="1301" stroke-dasharray="10,10" stroke-width="1.1" />
    </g>
    <g stroke-linecap="butt" font-size="23" fill="rgb(77,137,20)" font-family="'Lucida Sans'" stroke-dasharray="10,10" stroke="rgb(77,137,20)" stroke-width="1.1">
      <rect x="786" y="90" clip-path="url(#clipPath4)" width="20" height="40" stroke="none" />
      <rect x="787" y="91" clip-path="url(#clipPath4)" fill="none" width="18" stroke-dasharray="none" height="38" stroke-width="2.1" />
      <text x="807" y="112" clip-path="url(#clipPath5)" stroke-dasharray="none" stroke="none" stroke-width="2.1" xml:space="preserve">tsi10</text>
      <rect x="786" y="210" clip-path="url(#clipPath6)" width="20" stroke-dasharray="none" height="40" stroke="none" stroke-width="2.1" />
      <rect x="787" y="211" clip-path="url(#clipPath6)" fill="none" width="18" stroke-dasharray="none" height="38" stroke-width="2.1" />
      <text x="807" y="232" clip-path="url(#clipPath7)" stroke-dasharray="none" stroke="none" stroke-width="2.1" xml:space="preserve">tsi11</text>
      <rect x="786" y="330" clip-path="url(#clipPath8)" width="20" stroke-dasharray="none" height="40" stroke="none" stroke-width="2.1" />
      <rect x="787" y="331" clip-path="url(#clipPath8)" fill="none" width="18" stroke-dasharray="none" height="38" stroke-width="2.1" />
      <text x="807" y="352" clip-path="url(#clipPath9)" stroke-dasharray="none" stroke="none" stroke-width="2.1" xml:space="preserve">tsi12</text>
      <rect x="786" y="571" clip-path="url(#clipPath10)" width="20" stroke-dasharray="none" height="40" stroke="none" stroke-width="2.1" />
      <rect x="787" y="572" clip-path="url(#clipPath10)" fill="none" width="18" stroke-dasharray="none" height="38" stroke-width="2.1" />
      <text x="807" y="593" clip-path="url(#clipPath11)" stroke-dasharray="none" stroke="none" stroke-width="2.1" xml:space="preserve">tsi14</text>
      <rect x="786" y="911" clip-path="url(#clipPath12)" width="20" stroke-dasharray="none" height="40" stroke="none" stroke-width="2.1" />
      <rect x="787" y="912" clip-path="url(#clipPath12)" fill="none" width="18" stroke-dasharray="none" height="38" stroke-width="2.1" />
      <text x="807" y="933" clip-path="url(#clipPath13)" stroke-dasharray="none" stroke="none" stroke-width="2.1" xml:space="preserve">tsi17</text>
      <rect x="786" y="1031" clip-path="url(#clipPath14)" width="20" stroke-dasharray="none" height="40" stroke="none" stroke-width="2.1" />
      <rect x="787" y="1032" clip-path="url(#clipPath14)" fill="none" width="18" stroke-dasharray="none" height="38" stroke-width="2.1" />
      <text x="807" y="1053" clip-path="url(#clipPath15)" stroke-dasharray="none" stroke="none" stroke-width="2.1" xml:space="preserve">tsi18</text>
      <rect x="786" y="1151" clip-path="url(#clipPath16)" width="20" stroke-dasharray="none" height="40" stroke="none" stroke-width="2.1" />
      <rect x="787" y="1152" clip-path="url(#clipPath16)" fill="none" width="18" stroke-dasharray="none" height="38" stroke-width="2.1" />
      <text x="807" y="1173" clip-path="url(#clipPath17)" stroke-dasharray="none" stroke="none" stroke-width="2.1" xml:space="preserve">tsi19</text>
    </g>
    <g stroke-linecap="butt" font-size="23" fill="rgb(204,242,166)" font-family="'Lucida Sans'" stroke="rgb(204,242,166)" stroke-width="2.1">
      <rect x="786" y="140" clip-path="url(#clipPath18)" width="20" height="40" stroke="none" />
      <rect x="786" y="140" clip-path="url(#clipPath18)" fill="none" width="19" height="39" stroke="rgb(209,209,209)" stroke-width="0.1" />
      <text x="807" y="162" clip-path="url(#clipPath19)" fill="rgb(77,137,20)" stroke="none" stroke-width="0.1" xml:space="preserve">tsi10</text>
      <rect x="786" y="258" clip-path="url(#clipPath20)" width="20" height="40" stroke="none" stroke-width="0.1" />
      <rect x="786" y="258" clip-path="url(#clipPath20)" fill="none" width="19" height="39" stroke="rgb(209,209,209)" stroke-width="0.1" />
      <text x="807" y="280" clip-path="url(#clipPath21)" fill="rgb(77,137,20)" stroke="none" stroke-width="0.1" xml:space="preserve">tsi11</text>
      <rect x="786" y="444" clip-path="url(#clipPath22)" width="20" height="40" stroke="none" stroke-width="0.1" />
      <rect x="786" y="444" clip-path="url(#clipPath22)" fill="none" width="19" height="39" stroke="rgb(209,209,209)" stroke-width="0.1" />
      <text x="807" y="466" clip-path="url(#clipPath23)" fill="rgb(77,137,20)" stroke="none" stroke-width="0.1" xml:space="preserve">tsi12</text>
      <rect x="786" y="631" clip-path="url(#clipPath24)" width="20" height="40" stroke="none" stroke-width="0.1" />
      <rect x="786" y="631" clip-path="url(#clipPath24)" fill="none" width="19" height="39" stroke="rgb(209,209,209)" stroke-width="0.1" />
      <text x="807" y="653" clip-path="url(#clipPath25)" fill="rgb(77,137,20)" stroke="none" stroke-width="0.1" xml:space="preserve">tsi14</text>
      <rect x="786" y="971" clip-path="url(#clipPath26)" width="20" height="40" stroke="none" stroke-width="0.1" />
      <rect x="786" y="971" clip-path="url(#clipPath26)" fill="none" width="19" height="39" stroke="rgb(209,209,209)" stroke-width="0.1" />
      <text x="807" y="993" clip-path="url(#clipPath27)" fill="rgb(77,137,20)" stroke="none" stroke-width="0.1" xml:space="preserve">tsi17</text>
      <rect x="786" y="1091" clip-path="url(#clipPath28)" width="20" height="40" stroke="none" stroke-width="0.1" />
      <rect x="786" y="1091" clip-path="url(#clipPath28)" fill="none" width="19" height="39" stroke="rgb(209,209,209)" stroke-width="0.1" />
      <text x="807" y="1113" clip-path="url(#clipPath29)" fill="rgb(77,137,20)" stroke="none" stroke-width="0.1" xml:space="preserve">tsi18</text>
      <rect x="786" y="1211" clip-path="url(#clipPath30)" width="20" height="40" stroke="none" stroke-width="0.1" />
      <rect x="786" y="1211" clip-path="url(#clipPath30)" fill="none" width="19" height="39" stroke="rgb(209,209,209)" stroke-width="0.1" />
      <text x="807" y="1233" clip-path="url(#clipPath31)" fill="rgb(77,137,20)" stroke="none" stroke-width="0.1" xml:space="preserve">tsi19</text>
      <rect x="600" y="10" clip-path="url(#clipPath32)" fill="rgb(255,245,181)" width="128" height="50" stroke="none" stroke-width="0.1" />
      <rect x="600" y="10" clip-path="url(#clipPath32)" fill="none" width="127" height="49" stroke="black" stroke-width="0.1" />
      <text x="630" y="31" clip-path="url(#clipPath33)" fill="black" stroke="none" stroke-width="0.1" xml:space="preserve">tango</text>
      <text x="604" y="57" clip-path="url(#clipPath34)" fill="black" stroke="none" stroke-width="0.1" xml:space="preserve">: actCom...</text>
    </g>
    <g stroke-width="1.1" font-size="23" stroke-dasharray="10,10" font-family="'Lucida Sans'" stroke-linecap="butt">
      <line clip-path="url(#clipPath35)" fill="none" x1="663" x2="663" y1="60" y2="1301" />
      <rect x="654" y="715" clip-path="url(#clipPath36)" fill="rgb(77,137,20)" width="20" height="40" stroke="none" />
    </g>
    <g stroke-linecap="butt" font-size="23" fill="rgb(77,137,20)" font-family="'Lucida Sans'" stroke="rgb(77,137,20)" stroke-width="2.1">
      <rect x="655" y="716" clip-path="url(#clipPath36)" fill="none" width="18" height="38" />
      <text xml:space="preserve" x="675" y="737" clip-path="url(#clipPath37)" stroke="none">tsi15</text>
      <rect x="654" y="399" clip-path="url(#clipPath38)" fill="rgb(204,242,166)" width="20" height="40" stroke="none" />
      <rect x="654" y="399" clip-path="url(#clipPath38)" fill="none" width="19" height="39" stroke="rgb(209,209,209)" stroke-width="0.1" />
      <text x="675" y="421" clip-path="url(#clipPath39)" stroke="none" stroke-width="0.1" xml:space="preserve">tsi12</text>
      <rect x="654" y="791" clip-path="url(#clipPath40)" fill="rgb(204,242,166)" width="20" height="40" stroke="none" stroke-width="0.1" />
      <rect x="654" y="791" clip-path="url(#clipPath40)" fill="none" width="19" height="39" stroke="rgb(209,209,209)" stroke-width="0.1" />
      <text x="675" y="813" clip-path="url(#clipPath41)" stroke="none" stroke-width="0.1" xml:space="preserve">tsi15</text>
      <rect x="865" y="10" clip-path="url(#clipPath42)" fill="rgb(255,245,181)" width="117" height="50" stroke="none" stroke-width="0.1" />
      <rect x="865" y="10" clip-path="url(#clipPath42)" fill="none" width="116" height="49" stroke="black" stroke-width="0.1" />
      <text x="870" y="31" clip-path="url(#clipPath43)" fill="black" stroke="none" stroke-width="0.1" xml:space="preserve">theCloc...</text>
    </g>
    <g stroke-width="1.1" font-size="23" stroke-dasharray="10,10" font-family="'Lucida Sans'" stroke-linecap="butt">
      <line clip-path="url(#clipPath44)" fill="none" x1="922" x2="922" y1="60" y2="1301" />
      <rect x="913" y="519" clip-path="url(#clipPath45)" fill="rgb(77,137,20)" width="20" height="40" stroke="none" />
    </g>
    <g stroke-linecap="butt" font-size="23" fill="rgb(77,137,20)" font-family="'Lucida Sans'" stroke="rgb(77,137,20)" stroke-width="2.1">
      <rect x="914" y="520" clip-path="url(#clipPath45)" fill="none" width="18" height="38" />
      <text xml:space="preserve" x="934" y="541" clip-path="url(#clipPath46)" stroke="none">tsi13</text>
      <rect x="913" y="851" clip-path="url(#clipPath47)" width="20" height="40" stroke="none" />
      <rect x="914" y="852" clip-path="url(#clipPath47)" fill="none" width="18" height="38" />
      <text xml:space="preserve" x="934" y="873" clip-path="url(#clipPath48)" stroke="none">tsi16</text>
      <rect x="187" y="10" clip-path="url(#clipPath49)" fill="rgb(238,201,142)" width="70" height="30" stroke="none" />
      <rect x="187" y="10" clip-path="url(#clipPath49)" fill="none" width="69" height="29" stroke="black" stroke-width="0.1" />
      <text x="189" y="34" clip-path="url(#clipPath50)" fill="black" stroke="none" stroke-width="0.1" xml:space="preserve">Syst...</text>
    </g>
    <g stroke-width="1.1" font-size="23" stroke-dasharray="10,10" font-family="'Lucida Sans'" stroke-linecap="butt">
      <line clip-path="url(#clipPath51)" fill="none" x1="221" x2="221" y1="40" y2="1301" />
    </g>
    <g stroke-linecap="butt" font-size="23" fill="rgb(136,136,136)" font-family="'Lucida Sans'" stroke="rgb(136,136,136)" stroke-width="2.1">
      <line clip-path="url(#clipPath52)" fill="none" x1="786" x2="222" y1="90" y2="90" />
      <text x="276" y="89" clip-path="url(#clipPath53)" fill="black" stroke="none" xml:space="preserve">oeLogin(steve,pwdMessirExcalibur2017)</text>
      <line clip-path="url(#clipPath54)" fill="none" x1="229" x2="222" y1="87" y2="90" />
      <line clip-path="url(#clipPath54)" fill="none" x1="222" x2="229" y1="90" y2="93" />
      <line clip-path="url(#clipPath52)" fill="none" x1="786" x2="222" y1="210" y2="210" />
      <text x="312" y="205" clip-path="url(#clipPath55)" fill="black" stroke="none" xml:space="preserve">oeGetCrisisSet(pending)</text>
      <line clip-path="url(#clipPath56)" fill="none" x1="229" x2="222" y1="207" y2="210" />
      <line clip-path="url(#clipPath56)" fill="none" x1="222" x2="229" y1="210" y2="213" />
      <line clip-path="url(#clipPath52)" fill="none" x1="786" x2="222" y1="330" y2="330" />
      <text x="317" y="324" clip-path="url(#clipPath57)" fill="black" stroke="none" xml:space="preserve">oeSetCrisisHandler(1)</text>
      <line clip-path="url(#clipPath58)" fill="none" x1="229" x2="222" y1="327" y2="330" />
      <line clip-path="url(#clipPath58)" fill="none" x1="222" x2="229" y1="330" y2="333" />
      <line clip-path="url(#clipPath52)" fill="none" x1="913" x2="222" y1="519" y2="519" />
      <text x="218" y="511" clip-path="url(#clipPath59)" fill="black" stroke="none" xml:space="preserve">oeSetClock(2017:11:26 - 10:45:00)</text>
      <line clip-path="url(#clipPath60)" fill="none" x1="229" x2="222" y1="516" y2="519" />
      <line clip-path="url(#clipPath60)" fill="none" x1="222" x2="229" y1="519" y2="522" />
      <line clip-path="url(#clipPath52)" fill="none" x1="786" x2="222" y1="571" y2="571" />
      <text x="327" y="565" clip-path="url(#clipPath61)" fill="black" stroke="none" xml:space="preserve">oeValidateAlert(1)</text>
      <line clip-path="url(#clipPath62)" fill="none" x1="229" x2="222" y1="568" y2="571" />
      <line clip-path="url(#clipPath62)" fill="none" x1="222" x2="229" y1="571" y2="574" />
      <line clip-path="url(#clipPath52)" fill="none" x1="654" x2="222" y1="715" y2="715" />
      <text x="225" y="690" clip-path="url(#clipPath63)" fill="black" stroke="none" xml:space="preserve">oeAlert(witness,2017:11:26,10:20:</text>
      <text x="222" y="716" clip-path="url(#clipPath64)" fill="black" stroke="none" xml:space="preserve">00,+3524666445000,49.627095...</text>
      <line clip-path="url(#clipPath65)" fill="none" x1="229" x2="222" y1="712" y2="715" />
      <line clip-path="url(#clipPath65)" fill="none" x1="222" x2="229" y1="715" y2="718" />
      <line clip-path="url(#clipPath52)" fill="none" x1="913" x2="222" y1="851" y2="851" />
      <text x="213" y="843" clip-path="url(#clipPath66)" fill="black" stroke="none" xml:space="preserve">oeSetClock(2017:11:26 - 12:45:00)</text>
      <line clip-path="url(#clipPath67)" fill="none" x1="229" x2="222" y1="848" y2="851" />
      <line clip-path="url(#clipPath67)" fill="none" x1="222" x2="229" y1="851" y2="854" />
      <line clip-path="url(#clipPath52)" fill="none" x1="786" x2="222" y1="911" y2="911" />
      <text x="308" y="905" clip-path="url(#clipPath68)" fill="black" stroke="none" xml:space="preserve">oeSetCrisisStatus(1,solved)</text>
      <line clip-path="url(#clipPath69)" fill="none" x1="229" x2="222" y1="908" y2="911" />
      <line clip-path="url(#clipPath69)" fill="none" x1="222" x2="229" y1="911" y2="914" />
      <line clip-path="url(#clipPath52)" fill="none" x1="786" x2="222" y1="1031" y2="1031" />
      <text x="150" y="1028" clip-path="url(#clipPath70)" fill="black" stroke="none" xml:space="preserve">oeReportOnCrisis(1,3 victims sent to hospital, 2 cars evacuated and 4 rescue unit mobilized)</text>
      <line clip-path="url(#clipPath71)" fill="none" x1="229" x2="222" y1="1028" y2="1031" />
      <line clip-path="url(#clipPath71)" fill="none" x1="222" x2="229" y1="1031" y2="1034" />
      <line clip-path="url(#clipPath52)" fill="none" x1="786" x2="222" y1="1151" y2="1151" />
      <text x="325" y="1145" clip-path="url(#clipPath72)" fill="black" stroke="none" xml:space="preserve">oeCloseCrisis(1)</text>
      <line clip-path="url(#clipPath73)" fill="none" x1="229" x2="222" y1="1148" y2="1151" />
      <line clip-path="url(#clipPath73)" fill="none" x1="222" x2="229" y1="1151" y2="1154" />
      <line clip-path="url(#clipPath52)" fill="none" x1="786" x2="222" y1="140" y2="140" stroke-dasharray="5,5" />
      <text x="272" y="134" clip-path="url(#clipPath74)" fill="black" stroke-dasharray="5,5" stroke="none" xml:space="preserve">ieMessage(You are logged ! Welcome ...)</text>
      <line clip-path="url(#clipPath75)" fill="none" x1="779" x2="786" y1="143" y2="140" />
      <line clip-path="url(#clipPath75)" fill="none" x1="786" x2="779" y1="140" y2="137" />
      <line clip-path="url(#clipPath52)" fill="none" x1="786" x2="222" y1="258" y2="258" stroke-dasharray="5,5" />
      <text x="276" y="254" clip-path="url(#clipPath76)" fill="black" stroke-dasharray="5,5" stroke="none" xml:space="preserve">ieSendACrisis(crisis with ID 1 details)</text>
      <line clip-path="url(#clipPath77)" fill="none" x1="779" x2="786" y1="261" y2="258" />
      <line clip-path="url(#clipPath77)" fill="none" x1="786" x2="779" y1="258" y2="255" />
      <line clip-path="url(#clipPath52)" fill="none" x1="654" x2="222" y1="399" y2="399" stroke-dasharray="5,5" />
      <text x="24" y="393" clip-path="url(#clipPath78)" fill="black" stroke-dasharray="5,5" stroke="none" xml:space="preserve">ieSmsSend(+3524666445252,The handling of your alert by our services is in progress !)</text>
      <line clip-path="url(#clipPath79)" fill="none" x1="647" x2="654" y1="402" y2="399" />
      <line clip-path="url(#clipPath79)" fill="none" x1="654" x2="647" y1="399" y2="396" />
      <line clip-path="url(#clipPath52)" fill="none" x1="786" x2="222" y1="444" y2="444" stroke-dasharray="5,5" />
      <text x="230" y="434" clip-path="url(#clipPath80)" fill="black" stroke-dasharray="5,5" stroke="none" xml:space="preserve">ieMessage(You are now considered as handling the crisis !)</text>
      <line clip-path="url(#clipPath81)" fill="none" x1="779" x2="786" y1="447" y2="444" />
      <line clip-path="url(#clipPath81)" fill="none" x1="786" x2="779" y1="444" y2="441" />
      <line clip-path="url(#clipPath52)" fill="none" x1="786" x2="222" y1="631" y2="631" stroke-dasharray="5,5" />
      <text x="257" y="629" clip-path="url(#clipPath82)" fill="black" stroke-dasharray="5,5" stroke="none" xml:space="preserve">ieMessage(The Alert is now declared as valid !)</text>
      <line clip-path="url(#clipPath83)" fill="none" x1="779" x2="786" y1="634" y2="631" />
      <line clip-path="url(#clipPath83)" fill="none" x1="786" x2="779" y1="631" y2="628" />
      <line clip-path="url(#clipPath52)" fill="none" x1="654" x2="222" y1="791" y2="791" stroke-dasharray="5,5" />
      <line clip-path="url(#clipPath84)" fill="none" x1="647" x2="654" y1="794" y2="791" />
      <line clip-path="url(#clipPath84)" fill="none" x1="654" x2="647" y1="791" y2="788" />
      <line clip-path="url(#clipPath52)" fill="none" x1="786" x2="222" y1="971" y2="971" stroke-dasharray="5,5" />
      <text x="256" y="963" clip-path="url(#clipPath85)" fill="black" stroke-dasharray="5,5" stroke="none" xml:space="preserve">ieMessage(The crisis status has been updated !)</text>
      <line clip-path="url(#clipPath86)" fill="none" x1="779" x2="786" y1="974" y2="971" />
      <line clip-path="url(#clipPath86)" fill="none" x1="786" x2="779" y1="971" y2="968" />
      <line clip-path="url(#clipPath52)" fill="none" x1="786" x2="222" y1="1091" y2="1091" stroke-dasharray="5,5" />
      <text x="246" y="1086" clip-path="url(#clipPath87)" fill="black" stroke-dasharray="5,5" stroke="none" xml:space="preserve">ieMessage(The crisis comment has been updated !)</text>
      <line clip-path="url(#clipPath88)" fill="none" x1="779" x2="786" y1="1094" y2="1091" />
      <line clip-path="url(#clipPath88)" fill="none" x1="786" x2="779" y1="1091" y2="1088" />
      <line clip-path="url(#clipPath52)" fill="none" x1="786" x2="222" y1="1211" y2="1211" stroke-dasharray="5,5" />
      <text x="279" y="1208" clip-path="url(#clipPath89)" fill="black" stroke-dasharray="5,5" stroke="none" xml:space="preserve">ieMessage(The crisis is now closed !)</text>
      <line clip-path="url(#clipPath90)" fill="none" x1="779" x2="786" y1="1214" y2="1211" />
      <line clip-path="url(#clipPath90)" fill="none" x1="786" x2="779" y1="1211" y2="1208" />
    </g>
  </g>
</svg>

