<?xml version="1.0" encoding="UTF-8"?>
<svg xmlns="http://www.w3.org/2000/svg" xmlns:xlink="http://www.w3.org/1999/xlink" stroke-dasharray="none" shape-rendering="auto" font-family="'Dialog'" width="1502" text-rendering="auto" fill-opacity="1" contentScriptType="text/ecmascript" color-interpolation="auto" color-rendering="auto" preserveAspectRatio="xMidYMid meet" font-size="12" viewBox="0 0 1502 1010" fill="black" stroke="black" image-rendering="auto" stroke-miterlimit="10" zoomAndPan="magnify" version="1.0" stroke-linecap="square" stroke-linejoin="miter" contentStyleType="text/css" font-style="normal" height="1010" stroke-width="1" stroke-dashoffset="0" font-weight="normal" stroke-opacity="1">
  <!--Generated by the Batik Graphics2D SVG Generator-->
  <defs id="genericDefs" />
  <g>
    <defs id="defs1">
      <clipPath clipPathUnits="userSpaceOnUse" id="clipPath1">
        <path d="M1001 9 L1108 9 L1108 61 L1001 61 L1001 9 Z" />
      </clipPath>
      <clipPath clipPathUnits="userSpaceOnUse" id="clipPath2">
        <path d="M1001 9 L1113 9 L1113 61 L1001 61 L1001 9 Z" />
      </clipPath>
      <clipPath clipPathUnits="userSpaceOnUse" id="clipPath3">
        <path d="M1048 59 L1060 59 L1060 1001 L1048 1001 L1048 59 Z" />
      </clipPath>
      <clipPath clipPathUnits="userSpaceOnUse" id="clipPath4">
        <path d="M1043 89 L1065 89 L1065 131 L1043 131 L1043 89 Z" />
      </clipPath>
      <clipPath clipPathUnits="userSpaceOnUse" id="clipPath5">
        <path d="M1064 89 L1121 89 L1121 120 L1064 120 L1064 89 Z" />
      </clipPath>
      <clipPath clipPathUnits="userSpaceOnUse" id="clipPath6">
        <path d="M1116 9 L1215 9 L1215 61 L1116 61 L1116 9 Z" />
      </clipPath>
      <clipPath clipPathUnits="userSpaceOnUse" id="clipPath7">
        <path d="M1116 9 L1219 9 L1219 61 L1116 61 L1116 9 Z" />
      </clipPath>
      <clipPath clipPathUnits="userSpaceOnUse" id="clipPath8">
        <path d="M1159 59 L1171 59 L1171 1001 L1159 1001 L1159 59 Z" />
      </clipPath>
      <clipPath clipPathUnits="userSpaceOnUse" id="clipPath9">
        <path d="M1154 149 L1176 149 L1176 191 L1154 191 L1154 149 Z" />
      </clipPath>
      <clipPath clipPathUnits="userSpaceOnUse" id="clipPath10">
        <path d="M1175 149 L1232 149 L1232 180 L1175 180 L1175 149 Z" />
      </clipPath>
      <clipPath clipPathUnits="userSpaceOnUse" id="clipPath11">
        <path d="M1154 555 L1176 555 L1176 597 L1154 597 L1154 555 Z" />
      </clipPath>
      <clipPath clipPathUnits="userSpaceOnUse" id="clipPath12">
        <path d="M1175 555 L1232 555 L1232 586 L1175 586 L1175 555 Z" />
      </clipPath>
      <clipPath clipPathUnits="userSpaceOnUse" id="clipPath13">
        <path d="M1154 789 L1176 789 L1176 831 L1154 831 L1154 789 Z" />
      </clipPath>
      <clipPath clipPathUnits="userSpaceOnUse" id="clipPath14">
        <path d="M1175 789 L1232 789 L1232 820 L1175 820 L1175 789 Z" />
      </clipPath>
      <clipPath clipPathUnits="userSpaceOnUse" id="clipPath15">
        <path d="M1223 9 L1352 9 L1352 61 L1223 61 L1223 9 Z" />
      </clipPath>
      <clipPath clipPathUnits="userSpaceOnUse" id="clipPath16">
        <path d="M1223 9 L1356 9 L1356 61 L1223 61 L1223 9 Z" />
      </clipPath>
      <clipPath clipPathUnits="userSpaceOnUse" id="clipPath17">
        <path d="M1281 59 L1293 59 L1293 1001 L1281 1001 L1281 59 Z" />
      </clipPath>
      <clipPath clipPathUnits="userSpaceOnUse" id="clipPath18">
        <path d="M1276 209 L1298 209 L1298 251 L1276 251 L1276 209 Z" />
      </clipPath>
      <clipPath clipPathUnits="userSpaceOnUse" id="clipPath19">
        <path d="M1297 209 L1354 209 L1354 240 L1297 240 L1297 209 Z" />
      </clipPath>
      <clipPath clipPathUnits="userSpaceOnUse" id="clipPath20">
        <path d="M1276 329 L1298 329 L1298 371 L1276 371 L1276 329 Z" />
      </clipPath>
      <clipPath clipPathUnits="userSpaceOnUse" id="clipPath21">
        <path d="M1297 329 L1354 329 L1354 360 L1297 360 L1297 329 Z" />
      </clipPath>
      <clipPath clipPathUnits="userSpaceOnUse" id="clipPath22">
        <path d="M1276 449 L1298 449 L1298 491 L1276 491 L1276 449 Z" />
      </clipPath>
      <clipPath clipPathUnits="userSpaceOnUse" id="clipPath23">
        <path d="M1297 449 L1354 449 L1354 480 L1297 480 L1297 449 Z" />
      </clipPath>
      <clipPath clipPathUnits="userSpaceOnUse" id="clipPath24">
        <path d="M1276 255 L1298 255 L1298 297 L1276 297 L1276 255 Z" />
      </clipPath>
      <clipPath clipPathUnits="userSpaceOnUse" id="clipPath25">
        <path d="M1297 255 L1354 255 L1354 286 L1297 286 L1297 255 Z" />
      </clipPath>
      <clipPath clipPathUnits="userSpaceOnUse" id="clipPath26">
        <path d="M1276 374 L1298 374 L1298 416 L1276 416 L1276 374 Z" />
      </clipPath>
      <clipPath clipPathUnits="userSpaceOnUse" id="clipPath27">
        <path d="M1297 374 L1354 374 L1354 405 L1297 405 L1297 374 Z" />
      </clipPath>
      <clipPath clipPathUnits="userSpaceOnUse" id="clipPath28">
        <path d="M1276 499 L1298 499 L1298 541 L1276 541 L1276 499 Z" />
      </clipPath>
      <clipPath clipPathUnits="userSpaceOnUse" id="clipPath29">
        <path d="M1297 499 L1354 499 L1354 530 L1297 530 L1297 499 Z" />
      </clipPath>
      <clipPath clipPathUnits="userSpaceOnUse" id="clipPath30">
        <path d="M1276 849 L1298 849 L1298 891 L1276 891 L1276 849 Z" />
      </clipPath>
      <clipPath clipPathUnits="userSpaceOnUse" id="clipPath31">
        <path d="M1297 849 L1354 849 L1354 880 L1297 880 L1297 849 Z" />
      </clipPath>
      <clipPath clipPathUnits="userSpaceOnUse" id="clipPath32">
        <path d="M1360 9 L1493 9 L1493 61 L1360 61 L1360 9 Z" />
      </clipPath>
      <clipPath clipPathUnits="userSpaceOnUse" id="clipPath33">
        <path d="M1360 9 L1499 9 L1499 61 L1360 61 L1360 9 Z" />
      </clipPath>
      <clipPath clipPathUnits="userSpaceOnUse" id="clipPath34">
        <path d="M1360 9 L1498 9 L1498 61 L1360 61 L1360 9 Z" />
      </clipPath>
      <clipPath clipPathUnits="userSpaceOnUse" id="clipPath35">
        <path d="M1420 59 L1432 59 L1432 1001 L1420 1001 L1420 59 Z" />
      </clipPath>
      <clipPath clipPathUnits="userSpaceOnUse" id="clipPath36">
        <path d="M1415 650 L1437 650 L1437 692 L1415 692 L1415 650 Z" />
      </clipPath>
      <clipPath clipPathUnits="userSpaceOnUse" id="clipPath37">
        <path d="M1436 650 L1493 650 L1493 681 L1436 681 L1436 650 Z" />
      </clipPath>
      <clipPath clipPathUnits="userSpaceOnUse" id="clipPath38">
        <path d="M1415 729 L1437 729 L1437 771 L1415 771 L1415 729 Z" />
      </clipPath>
      <clipPath clipPathUnits="userSpaceOnUse" id="clipPath39">
        <path d="M1436 729 L1493 729 L1493 760 L1436 760 L1436 729 Z" />
      </clipPath>
      <clipPath clipPathUnits="userSpaceOnUse" id="clipPath40">
        <path d="M862 9 L993 9 L993 61 L862 61 L862 9 Z" />
      </clipPath>
      <clipPath clipPathUnits="userSpaceOnUse" id="clipPath41">
        <path d="M862 9 L998 9 L998 61 L862 61 L862 9 Z" />
      </clipPath>
      <clipPath clipPathUnits="userSpaceOnUse" id="clipPath42">
        <path d="M862 9 L997 9 L997 61 L862 61 L862 9 Z" />
      </clipPath>
      <clipPath clipPathUnits="userSpaceOnUse" id="clipPath43">
        <path d="M921 59 L933 59 L933 1001 L921 1001 L921 59 Z" />
      </clipPath>
      <clipPath clipPathUnits="userSpaceOnUse" id="clipPath44">
        <path d="M916 909 L938 909 L938 951 L916 951 L916 909 Z" />
      </clipPath>
      <clipPath clipPathUnits="userSpaceOnUse" id="clipPath45">
        <path d="M937 909 L994 909 L994 940 L937 940 L937 909 Z" />
      </clipPath>
      <clipPath clipPathUnits="userSpaceOnUse" id="clipPath46">
        <path d="M159 9 L231 9 L231 41 L159 41 L159 9 Z" />
      </clipPath>
      <clipPath clipPathUnits="userSpaceOnUse" id="clipPath47">
        <path d="M159 9 L235 9 L235 41 L159 41 L159 9 Z" />
      </clipPath>
      <clipPath clipPathUnits="userSpaceOnUse" id="clipPath48">
        <path d="M189 39 L201 39 L201 1001 L189 1001 L189 39 Z" />
      </clipPath>
      <clipPath clipPathUnits="userSpaceOnUse" id="clipPath49">
        <path d="M-1 -1 L1503 -1 L1503 1011 L-1 1011 L-1 -1 Z" />
      </clipPath>
      <clipPath clipPathUnits="userSpaceOnUse" id="clipPath50">
        <path d="M454 60 L846 60 L846 91 L454 91 L454 60 Z" />
      </clipPath>
      <clipPath clipPathUnits="userSpaceOnUse" id="clipPath51">
        <path d="M193 85 L205 85 L205 96 L193 96 L193 85 Z" />
      </clipPath>
      <clipPath clipPathUnits="userSpaceOnUse" id="clipPath52">
        <path d="M463 123 L837 123 L837 154 L463 154 L463 123 Z" />
      </clipPath>
      <clipPath clipPathUnits="userSpaceOnUse" id="clipPath53">
        <path d="M193 145 L205 145 L205 156 L193 156 L193 145 Z" />
      </clipPath>
      <clipPath clipPathUnits="userSpaceOnUse" id="clipPath54">
        <path d="M455 178 L824 178 L824 209 L455 209 L455 178 Z" />
      </clipPath>
      <clipPath clipPathUnits="userSpaceOnUse" id="clipPath55">
        <path d="M193 205 L205 205 L205 216 L193 216 L193 205 Z" />
      </clipPath>
      <clipPath clipPathUnits="userSpaceOnUse" id="clipPath56">
        <path d="M430 299 L1002 299 L1002 330 L430 330 L430 299 Z" />
      </clipPath>
      <clipPath clipPathUnits="userSpaceOnUse" id="clipPath57">
        <path d="M193 325 L205 325 L205 336 L193 336 L193 325 Z" />
      </clipPath>
      <clipPath clipPathUnits="userSpaceOnUse" id="clipPath58">
        <path d="M504 418 L629 418 L629 449 L504 449 L504 418 Z" />
      </clipPath>
      <clipPath clipPathUnits="userSpaceOnUse" id="clipPath59">
        <path d="M193 445 L205 445 L205 456 L193 456 L193 445 Z" />
      </clipPath>
      <clipPath clipPathUnits="userSpaceOnUse" id="clipPath60">
        <path d="M459 521 L833 521 L833 552 L459 552 L459 521 Z" />
      </clipPath>
      <clipPath clipPathUnits="userSpaceOnUse" id="clipPath61">
        <path d="M193 551 L205 551 L205 562 L193 562 L193 551 Z" />
      </clipPath>
      <clipPath clipPathUnits="userSpaceOnUse" id="clipPath62">
        <path d="M488 594 L956 594 L956 662 L488 662 L488 594 Z" />
      </clipPath>
      <clipPath clipPathUnits="userSpaceOnUse" id="clipPath63">
        <path d="M193 646 L205 646 L205 657 L193 657 L193 646 Z" />
      </clipPath>
      <clipPath clipPathUnits="userSpaceOnUse" id="clipPath64">
        <path d="M469 760 L782 760 L782 791 L469 791 L469 760 Z" />
      </clipPath>
      <clipPath clipPathUnits="userSpaceOnUse" id="clipPath65">
        <path d="M193 785 L205 785 L205 796 L193 796 L193 785 Z" />
      </clipPath>
      <clipPath clipPathUnits="userSpaceOnUse" id="clipPath66">
        <path d="M438 226 L890 226 L890 257 L438 257 L438 226 Z" />
      </clipPath>
      <clipPath clipPathUnits="userSpaceOnUse" id="clipPath67">
        <path d="M1268 251 L1280 251 L1280 262 L1268 262 L1268 251 Z" />
      </clipPath>
      <clipPath clipPathUnits="userSpaceOnUse" id="clipPath68">
        <path d="M479 344 L720 344 L720 375 L479 375 L479 344 Z" />
      </clipPath>
      <clipPath clipPathUnits="userSpaceOnUse" id="clipPath69">
        <path d="M1268 370 L1280 370 L1280 381 L1268 381 L1268 370 Z" />
      </clipPath>
      <clipPath clipPathUnits="userSpaceOnUse" id="clipPath70">
        <path d="M434 468 L930 468 L930 499 L434 499 L434 468 Z" />
      </clipPath>
      <clipPath clipPathUnits="userSpaceOnUse" id="clipPath71">
        <path d="M1268 495 L1280 495 L1280 506 L1268 506 L1268 495 Z" />
      </clipPath>
      <clipPath clipPathUnits="userSpaceOnUse" id="clipPath72">
        <path d="M326 696 L1426 696 L1426 727 L326 727 L326 696 Z" />
      </clipPath>
      <clipPath clipPathUnits="userSpaceOnUse" id="clipPath73">
        <path d="M1407 725 L1419 725 L1419 736 L1407 736 L1407 725 Z" />
      </clipPath>
      <clipPath clipPathUnits="userSpaceOnUse" id="clipPath74">
        <path d="M344 822 L1303 822 L1303 853 L344 853 L344 822 Z" />
      </clipPath>
      <clipPath clipPathUnits="userSpaceOnUse" id="clipPath75">
        <path d="M1268 845 L1280 845 L1280 856 L1268 856 L1268 845 Z" />
      </clipPath>
      <clipPath clipPathUnits="userSpaceOnUse" id="clipPath76">
        <path d="M23 877 L982 877 L982 908 L23 908 L23 877 Z" />
      </clipPath>
      <clipPath clipPathUnits="userSpaceOnUse" id="clipPath77">
        <path d="M908 905 L920 905 L920 916 L908 916 L908 905 Z" />
      </clipPath>
    </defs>
    <g font-size="23" fill="rgb(255,245,181)" font-family="'Lucida Sans'" stroke-linejoin="round" stroke="rgb(255,245,181)" stroke-width="0" stroke-miterlimit="0">
      <rect x="1002" y="10" clip-path="url(#clipPath1)" width="105" height="50" stroke="none" />
    </g>
    <g stroke-width="0.1" font-size="23" font-family="'Lucida Sans'" stroke-linecap="butt">
      <rect x="1002" y="10" clip-path="url(#clipPath1)" fill="none" width="104" height="49" />
      <text xml:space="preserve" x="1003" y="42" clip-path="url(#clipPath2)" stroke="none">theCrea...</text>
      <line clip-path="url(#clipPath3)" fill="none" x1="1053" x2="1053" y1="60" y2="1000" stroke-dasharray="10,10" stroke-width="1.1" />
    </g>
    <g stroke-linecap="butt" font-size="23" fill="rgb(77,137,20)" font-family="'Lucida Sans'" stroke-dasharray="10,10" stroke="rgb(77,137,20)" stroke-width="1.1">
      <rect x="1044" y="90" clip-path="url(#clipPath4)" width="20" height="40" stroke="none" />
      <rect x="1045" y="91" clip-path="url(#clipPath4)" fill="none" width="18" stroke-dasharray="none" height="38" stroke-width="2.1" />
      <text x="1065" y="112" clip-path="url(#clipPath5)" stroke-dasharray="none" stroke="none" stroke-width="2.1" xml:space="preserve">tsi01</text>
    </g>
    <g stroke-linecap="butt" font-size="23" fill="rgb(255,245,181)" font-family="'Lucida Sans'" stroke="rgb(255,245,181)" stroke-width="2.1">
      <rect x="1117" y="10" clip-path="url(#clipPath6)" width="97" height="50" stroke="none" />
      <rect x="1117" y="10" clip-path="url(#clipPath6)" fill="none" width="96" height="49" stroke="black" stroke-width="0.1" />
      <text x="1121" y="28" clip-path="url(#clipPath7)" fill="black" stroke="none" stroke-width="0.1" xml:space="preserve">theClo...</text>
    </g>
    <g stroke-width="1.1" font-size="23" stroke-dasharray="10,10" font-family="'Lucida Sans'" stroke-linecap="butt">
      <line clip-path="url(#clipPath8)" fill="none" x1="1164" x2="1164" y1="60" y2="1000" />
      <rect x="1155" y="150" clip-path="url(#clipPath9)" fill="rgb(77,137,20)" width="20" height="40" stroke="none" />
    </g>
    <g stroke-linecap="butt" font-size="23" fill="rgb(77,137,20)" font-family="'Lucida Sans'" stroke="rgb(77,137,20)" stroke-width="2.1">
      <rect x="1156" y="151" clip-path="url(#clipPath9)" fill="none" width="18" height="38" />
      <text xml:space="preserve" x="1176" y="172" clip-path="url(#clipPath10)" stroke="none">tsi02</text>
      <rect x="1155" y="556" clip-path="url(#clipPath11)" width="20" height="40" stroke="none" />
      <rect x="1156" y="557" clip-path="url(#clipPath11)" fill="none" width="18" height="38" />
      <text xml:space="preserve" x="1176" y="578" clip-path="url(#clipPath12)" stroke="none">tsi06</text>
      <rect x="1155" y="790" clip-path="url(#clipPath13)" width="20" height="40" stroke="none" />
      <rect x="1156" y="791" clip-path="url(#clipPath13)" fill="none" width="18" height="38" />
      <text xml:space="preserve" x="1176" y="812" clip-path="url(#clipPath14)" stroke="none">tsi09</text>
      <rect x="1224" y="10" clip-path="url(#clipPath15)" fill="rgb(255,245,181)" width="127" height="50" stroke="none" />
      <rect x="1224" y="10" clip-path="url(#clipPath15)" fill="none" width="126" height="49" stroke="black" stroke-width="0.1" />
      <text x="1271" y="28" clip-path="url(#clipPath16)" fill="black" stroke="none" stroke-width="0.1" xml:space="preserve">bill</text>
      <text x="1229" y="57" clip-path="url(#clipPath16)" fill="black" stroke="none" stroke-width="0.1" xml:space="preserve">: actAdmi...</text>
    </g>
    <g stroke-width="1.1" font-size="23" stroke-dasharray="10,10" font-family="'Lucida Sans'" stroke-linecap="butt">
      <line clip-path="url(#clipPath17)" fill="none" x1="1286" x2="1286" y1="60" y2="1000" />
      <rect x="1277" y="210" clip-path="url(#clipPath18)" fill="rgb(77,137,20)" width="20" height="40" stroke="none" />
    </g>
    <g stroke-linecap="butt" font-size="23" fill="rgb(77,137,20)" font-family="'Lucida Sans'" stroke="rgb(77,137,20)" stroke-width="2.1">
      <rect x="1278" y="211" clip-path="url(#clipPath18)" fill="none" width="18" height="38" />
      <text xml:space="preserve" x="1298" y="232" clip-path="url(#clipPath19)" stroke="none">tsi03</text>
      <rect x="1277" y="330" clip-path="url(#clipPath20)" width="20" height="40" stroke="none" />
      <rect x="1278" y="331" clip-path="url(#clipPath20)" fill="none" width="18" height="38" />
      <text xml:space="preserve" x="1298" y="352" clip-path="url(#clipPath21)" stroke="none">tsi04</text>
      <rect x="1277" y="450" clip-path="url(#clipPath22)" width="20" height="40" stroke="none" />
      <rect x="1278" y="451" clip-path="url(#clipPath22)" fill="none" width="18" height="38" />
      <text xml:space="preserve" x="1298" y="472" clip-path="url(#clipPath23)" stroke="none">tsi05</text>
      <rect x="1277" y="256" clip-path="url(#clipPath24)" fill="rgb(204,242,166)" width="20" height="40" stroke="none" />
      <rect x="1277" y="256" clip-path="url(#clipPath24)" fill="none" width="19" height="39" stroke="rgb(209,209,209)" stroke-width="0.1" />
      <text x="1298" y="278" clip-path="url(#clipPath25)" stroke="none" stroke-width="0.1" xml:space="preserve">tsi03</text>
      <rect x="1277" y="375" clip-path="url(#clipPath26)" fill="rgb(204,242,166)" width="20" height="40" stroke="none" stroke-width="0.1" />
      <rect x="1277" y="375" clip-path="url(#clipPath26)" fill="none" width="19" height="39" stroke="rgb(209,209,209)" stroke-width="0.1" />
      <text x="1298" y="397" clip-path="url(#clipPath27)" stroke="none" stroke-width="0.1" xml:space="preserve">tsi04</text>
      <rect x="1277" y="500" clip-path="url(#clipPath28)" fill="rgb(204,242,166)" width="20" height="40" stroke="none" stroke-width="0.1" />
      <rect x="1277" y="500" clip-path="url(#clipPath28)" fill="none" width="19" height="39" stroke="rgb(209,209,209)" stroke-width="0.1" />
      <text x="1298" y="522" clip-path="url(#clipPath29)" stroke="none" stroke-width="0.1" xml:space="preserve">tsi05</text>
      <rect x="1277" y="850" clip-path="url(#clipPath30)" fill="rgb(204,242,166)" width="20" height="40" stroke="none" stroke-width="0.1" />
      <rect x="1277" y="850" clip-path="url(#clipPath30)" fill="none" width="19" height="39" stroke="rgb(209,209,209)" stroke-width="0.1" />
      <text x="1298" y="872" clip-path="url(#clipPath31)" stroke="none" stroke-width="0.1" xml:space="preserve">tsi09</text>
      <rect x="1361" y="10" clip-path="url(#clipPath32)" fill="rgb(255,245,181)" width="131" height="50" stroke="none" stroke-width="0.1" />
      <rect x="1361" y="10" clip-path="url(#clipPath32)" fill="none" width="130" height="49" stroke="black" stroke-width="0.1" />
      <text x="1396" y="28" clip-path="url(#clipPath33)" fill="black" stroke="none" stroke-width="0.1" xml:space="preserve">tango</text>
      <text x="1362" y="57" clip-path="url(#clipPath34)" fill="black" stroke="none" stroke-width="0.1" xml:space="preserve">: actComC...</text>
    </g>
    <g stroke-width="1.1" font-size="23" stroke-dasharray="10,10" font-family="'Lucida Sans'" stroke-linecap="butt">
      <line clip-path="url(#clipPath35)" fill="none" x1="1425" x2="1425" y1="60" y2="1000" />
      <rect x="1416" y="651" clip-path="url(#clipPath36)" fill="rgb(77,137,20)" width="20" height="40" stroke="none" />
    </g>
    <g stroke-linecap="butt" font-size="23" fill="rgb(77,137,20)" font-family="'Lucida Sans'" stroke="rgb(77,137,20)" stroke-width="2.1">
      <rect x="1417" y="652" clip-path="url(#clipPath36)" fill="none" width="18" height="38" />
      <text xml:space="preserve" x="1437" y="673" clip-path="url(#clipPath37)" stroke="none">tsi07</text>
      <rect x="1416" y="730" clip-path="url(#clipPath38)" fill="rgb(204,242,166)" width="20" height="40" stroke="none" />
      <rect x="1416" y="730" clip-path="url(#clipPath38)" fill="none" width="19" height="39" stroke="rgb(209,209,209)" stroke-width="0.1" />
      <text x="1437" y="752" clip-path="url(#clipPath39)" stroke="none" stroke-width="0.1" xml:space="preserve">tsi07</text>
      <rect x="863" y="10" clip-path="url(#clipPath40)" fill="rgb(255,245,181)" width="129" height="50" stroke="none" stroke-width="0.1" />
      <rect x="863" y="10" clip-path="url(#clipPath40)" fill="none" width="128" height="49" stroke="black" stroke-width="0.1" />
      <text x="898" y="28" clip-path="url(#clipPath41)" fill="black" stroke="none" stroke-width="0.1" xml:space="preserve">steve</text>
      <text x="863" y="57" clip-path="url(#clipPath42)" fill="black" stroke="none" stroke-width="0.1" xml:space="preserve">: actCoord...</text>
    </g>
    <g stroke-width="1.1" font-size="23" stroke-dasharray="10,10" font-family="'Lucida Sans'" stroke-linecap="butt">
      <line clip-path="url(#clipPath43)" fill="none" x1="926" x2="926" y1="60" y2="1000" />
      <rect x="917" y="910" clip-path="url(#clipPath44)" fill="rgb(204,242,166)" width="20" height="40" stroke="none" />
    </g>
    <g stroke-linecap="butt" font-size="23" fill="rgb(209,209,209)" font-family="'Lucida Sans'" stroke="rgb(209,209,209)" stroke-width="0.1">
      <rect x="917" y="910" clip-path="url(#clipPath44)" fill="none" width="19" height="39" />
      <text x="938" y="932" clip-path="url(#clipPath45)" fill="rgb(77,137,20)" stroke="none" xml:space="preserve">tsi09</text>
      <rect x="160" y="10" clip-path="url(#clipPath46)" fill="rgb(238,201,142)" width="70" height="30" stroke="none" />
      <rect x="160" y="10" clip-path="url(#clipPath46)" fill="none" width="69" height="29" stroke="black" />
      <text x="163" y="32" clip-path="url(#clipPath47)" fill="black" stroke="none" xml:space="preserve">Syst...</text>
    </g>
    <g stroke-width="1.1" font-size="23" stroke-dasharray="10,10" font-family="'Lucida Sans'" stroke-linecap="butt">
      <line clip-path="url(#clipPath48)" fill="none" x1="194" x2="194" y1="40" y2="1000" />
    </g>
    <g stroke-linecap="butt" font-size="23" fill="rgb(136,136,136)" font-family="'Lucida Sans'" stroke="rgb(136,136,136)" stroke-width="2.1">
      <line clip-path="url(#clipPath49)" fill="none" x1="1044" x2="195" y1="90" y2="90" />
      <text x="455" y="83" clip-path="url(#clipPath50)" fill="black" stroke="none" xml:space="preserve">oeCreateSystemAndEnvironment(4)</text>
      <line clip-path="url(#clipPath51)" fill="none" x1="202" x2="195" y1="87" y2="90" />
      <line clip-path="url(#clipPath51)" fill="none" x1="195" x2="202" y1="90" y2="93" />
      <line clip-path="url(#clipPath49)" fill="none" x1="1155" x2="195" y1="150" y2="150" />
      <text x="464" y="146" clip-path="url(#clipPath52)" fill="black" stroke="none" xml:space="preserve">oeSetClock(2017:11:24 - 03:20:00)</text>
      <line clip-path="url(#clipPath53)" fill="none" x1="202" x2="195" y1="147" y2="150" />
      <line clip-path="url(#clipPath53)" fill="none" x1="195" x2="202" y1="150" y2="153" />
      <line clip-path="url(#clipPath49)" fill="none" x1="1277" x2="195" y1="210" y2="210" />
      <text x="456" y="201" clip-path="url(#clipPath54)" fill="black" stroke="none" xml:space="preserve">oeLogin(icrashadmin,7WXC1359)</text>
      <line clip-path="url(#clipPath55)" fill="none" x1="202" x2="195" y1="207" y2="210" />
      <line clip-path="url(#clipPath55)" fill="none" x1="195" x2="202" y1="210" y2="213" />
      <line clip-path="url(#clipPath49)" fill="none" x1="1277" x2="195" y1="330" y2="330" />
      <text x="431" y="322" clip-path="url(#clipPath56)" fill="black" stroke="none" xml:space="preserve">oeAddCoordinator(1,steve,pwdMessirExcalibur2017)</text>
      <line clip-path="url(#clipPath57)" fill="none" x1="202" x2="195" y1="327" y2="330" />
      <line clip-path="url(#clipPath57)" fill="none" x1="195" x2="202" y1="330" y2="333" />
      <line clip-path="url(#clipPath49)" fill="none" x1="1277" x2="195" y1="450" y2="450" />
      <text x="505" y="441" clip-path="url(#clipPath58)" fill="black" stroke="none" xml:space="preserve">oeLogout()</text>
      <line clip-path="url(#clipPath59)" fill="none" x1="202" x2="195" y1="447" y2="450" />
      <line clip-path="url(#clipPath59)" fill="none" x1="195" x2="202" y1="450" y2="453" />
      <line clip-path="url(#clipPath49)" fill="none" x1="1155" x2="195" y1="556" y2="556" />
      <text x="460" y="544" clip-path="url(#clipPath60)" fill="black" stroke="none" xml:space="preserve">oeSetClock(2017:11:26 - 10:15:00)</text>
      <line clip-path="url(#clipPath61)" fill="none" x1="202" x2="195" y1="553" y2="556" />
      <line clip-path="url(#clipPath61)" fill="none" x1="195" x2="202" y1="556" y2="559" />
      <line clip-path="url(#clipPath49)" fill="none" x1="1416" x2="195" y1="651" y2="651" />
      <text x="524" y="621" clip-path="url(#clipPath62)" fill="black" stroke="none" xml:space="preserve">oeAlert(witness,2017:11:26,10:10:16,</text>
      <text x="491" y="650" clip-path="url(#clipPath62)" fill="black" stroke="none" xml:space="preserve">+3524666445252,49.627675:6.159590,3 c...</text>
      <line clip-path="url(#clipPath63)" fill="none" x1="202" x2="195" y1="648" y2="651" />
      <line clip-path="url(#clipPath63)" fill="none" x1="195" x2="202" y1="651" y2="654" />
      <line clip-path="url(#clipPath49)" fill="none" x1="1155" x2="195" y1="790" y2="790" />
      <text x="470" y="783" clip-path="url(#clipPath64)" fill="black" stroke="none" xml:space="preserve">oeSollicitateCrisisHandling()</text>
      <line clip-path="url(#clipPath65)" fill="none" x1="202" x2="195" y1="787" y2="790" />
      <line clip-path="url(#clipPath65)" fill="none" x1="195" x2="202" y1="790" y2="793" />
      <line clip-path="url(#clipPath49)" fill="none" x1="1277" x2="195" y1="256" y2="256" stroke-dasharray="5,5" />
      <text x="439" y="249" clip-path="url(#clipPath66)" fill="black" stroke-dasharray="5,5" stroke="none" xml:space="preserve">ieMessage(You are logged ! Welcome ...)</text>
      <line clip-path="url(#clipPath67)" fill="none" x1="1270" x2="1277" y1="259" y2="256" />
      <line clip-path="url(#clipPath67)" fill="none" x1="1277" x2="1270" y1="256" y2="253" />
      <line clip-path="url(#clipPath49)" fill="none" x1="1277" x2="195" y1="375" y2="375" stroke-dasharray="5,5" />
      <text x="480" y="367" clip-path="url(#clipPath68)" fill="black" stroke-dasharray="5,5" stroke="none" xml:space="preserve">ieCoordinatorAdded()</text>
      <line clip-path="url(#clipPath69)" fill="none" x1="1270" x2="1277" y1="378" y2="375" />
      <line clip-path="url(#clipPath69)" fill="none" x1="1277" x2="1270" y1="375" y2="372" />
      <line clip-path="url(#clipPath49)" fill="none" x1="1277" x2="195" y1="500" y2="500" stroke-dasharray="5,5" />
      <text x="435" y="491" clip-path="url(#clipPath70)" fill="black" stroke-dasharray="5,5" stroke="none" xml:space="preserve">ieMessage(You are logged out ! Good Bye ...)</text>
      <line clip-path="url(#clipPath71)" fill="none" x1="1270" x2="1277" y1="503" y2="500" />
      <line clip-path="url(#clipPath71)" fill="none" x1="1277" x2="1270" y1="500" y2="497" />
      <line clip-path="url(#clipPath49)" fill="none" x1="1416" x2="195" y1="730" y2="730" stroke-dasharray="5,5" />
      <text x="327" y="719" clip-path="url(#clipPath72)" fill="black" stroke-dasharray="5,5" stroke="none" xml:space="preserve">ieSmsSend(+3524666445252,Your alert has been registered. We will handle it and keep you informed)</text>
      <line clip-path="url(#clipPath73)" fill="none" x1="1409" x2="1416" y1="733" y2="730" />
      <line clip-path="url(#clipPath73)" fill="none" x1="1416" x2="1409" y1="730" y2="727" />
      <line clip-path="url(#clipPath49)" fill="none" x1="1277" x2="195" y1="850" y2="850" stroke-dasharray="5,5" />
      <text x="345" y="845" clip-path="url(#clipPath74)" fill="black" stroke-dasharray="5,5" stroke="none" xml:space="preserve">ieMessage(There are alerts pending since more than the defined delay. Please REACT !)</text>
      <line clip-path="url(#clipPath75)" fill="none" x1="1270" x2="1277" y1="853" y2="850" />
      <line clip-path="url(#clipPath75)" fill="none" x1="1277" x2="1270" y1="850" y2="847" />
      <line clip-path="url(#clipPath49)" fill="none" x1="917" x2="195" y1="910" y2="910" stroke-dasharray="5,5" />
      <text x="24" y="900" clip-path="url(#clipPath76)" fill="black" stroke-dasharray="5,5" stroke="none" xml:space="preserve">ieMessage(There are alerts pending since more than the defined delay. Please REACT !)</text>
      <line clip-path="url(#clipPath77)" fill="none" x1="910" x2="917" y1="913" y2="910" />
      <line clip-path="url(#clipPath77)" fill="none" x1="917" x2="910" y1="910" y2="907" />
    </g>
  </g>
</svg>

