<?xml version="1.0" encoding="UTF-8"?>
<svg xmlns="http://www.w3.org/2000/svg" xmlns:xlink="http://www.w3.org/1999/xlink" stroke-dasharray="none" shape-rendering="auto" font-family="'Dialog'" width="1152" text-rendering="auto" fill-opacity="1" contentScriptType="text/ecmascript" color-interpolation="auto" color-rendering="auto" preserveAspectRatio="xMidYMid meet" font-size="12" viewBox="0 0 1152 1311" fill="black" stroke="black" image-rendering="auto" stroke-miterlimit="10" zoomAndPan="magnify" version="1.0" stroke-linecap="square" stroke-linejoin="miter" contentStyleType="text/css" font-style="normal" height="1311" stroke-width="1" stroke-dashoffset="0" font-weight="normal" stroke-opacity="1">
  <!--Generated by the Batik Graphics2D SVG Generator-->
  <defs id="genericDefs" />
  <g>
    <defs id="defs1">
      <clipPath clipPathUnits="userSpaceOnUse" id="clipPath1">
        <path d="M703 9 L822 9 L822 61 L703 61 L703 9 Z" />
      </clipPath>
      <clipPath clipPathUnits="userSpaceOnUse" id="clipPath2">
        <path d="M703 9 L827 9 L827 61 L703 61 L703 9 Z" />
      </clipPath>
      <clipPath clipPathUnits="userSpaceOnUse" id="clipPath3">
        <path d="M703 9 L826 9 L826 61 L703 61 L703 9 Z" />
      </clipPath>
      <clipPath clipPathUnits="userSpaceOnUse" id="clipPath4">
        <path d="M756 59 L768 59 L768 1302 L756 1302 L756 59 Z" />
      </clipPath>
      <clipPath clipPathUnits="userSpaceOnUse" id="clipPath5">
        <path d="M751 89 L773 89 L773 131 L751 131 L751 89 Z" />
      </clipPath>
      <clipPath clipPathUnits="userSpaceOnUse" id="clipPath6">
        <path d="M772 89 L829 89 L829 120 L772 120 L772 89 Z" />
      </clipPath>
      <clipPath clipPathUnits="userSpaceOnUse" id="clipPath7">
        <path d="M751 209 L773 209 L773 251 L751 251 L751 209 Z" />
      </clipPath>
      <clipPath clipPathUnits="userSpaceOnUse" id="clipPath8">
        <path d="M772 209 L829 209 L829 240 L772 240 L772 209 Z" />
      </clipPath>
      <clipPath clipPathUnits="userSpaceOnUse" id="clipPath9">
        <path d="M751 329 L773 329 L773 371 L751 371 L751 329 Z" />
      </clipPath>
      <clipPath clipPathUnits="userSpaceOnUse" id="clipPath10">
        <path d="M772 329 L829 329 L829 360 L772 360 L772 329 Z" />
      </clipPath>
      <clipPath clipPathUnits="userSpaceOnUse" id="clipPath11">
        <path d="M751 570 L773 570 L773 612 L751 612 L751 570 Z" />
      </clipPath>
      <clipPath clipPathUnits="userSpaceOnUse" id="clipPath12">
        <path d="M772 570 L829 570 L829 601 L772 601 L772 570 Z" />
      </clipPath>
      <clipPath clipPathUnits="userSpaceOnUse" id="clipPath13">
        <path d="M751 910 L773 910 L773 952 L751 952 L751 910 Z" />
      </clipPath>
      <clipPath clipPathUnits="userSpaceOnUse" id="clipPath14">
        <path d="M772 910 L829 910 L829 941 L772 941 L772 910 Z" />
      </clipPath>
      <clipPath clipPathUnits="userSpaceOnUse" id="clipPath15">
        <path d="M751 1030 L773 1030 L773 1072 L751 1072 L751 1030 Z" />
      </clipPath>
      <clipPath clipPathUnits="userSpaceOnUse" id="clipPath16">
        <path d="M772 1030 L829 1030 L829 1061 L772 1061 L772 1030 Z" />
      </clipPath>
      <clipPath clipPathUnits="userSpaceOnUse" id="clipPath17">
        <path d="M751 1150 L773 1150 L773 1192 L751 1192 L751 1150 Z" />
      </clipPath>
      <clipPath clipPathUnits="userSpaceOnUse" id="clipPath18">
        <path d="M772 1150 L829 1150 L829 1181 L772 1181 L772 1150 Z" />
      </clipPath>
      <clipPath clipPathUnits="userSpaceOnUse" id="clipPath19">
        <path d="M751 139 L773 139 L773 181 L751 181 L751 139 Z" />
      </clipPath>
      <clipPath clipPathUnits="userSpaceOnUse" id="clipPath20">
        <path d="M772 139 L829 139 L829 170 L772 170 L772 139 Z" />
      </clipPath>
      <clipPath clipPathUnits="userSpaceOnUse" id="clipPath21">
        <path d="M751 257 L773 257 L773 299 L751 299 L751 257 Z" />
      </clipPath>
      <clipPath clipPathUnits="userSpaceOnUse" id="clipPath22">
        <path d="M772 257 L829 257 L829 288 L772 288 L772 257 Z" />
      </clipPath>
      <clipPath clipPathUnits="userSpaceOnUse" id="clipPath23">
        <path d="M751 443 L773 443 L773 485 L751 485 L751 443 Z" />
      </clipPath>
      <clipPath clipPathUnits="userSpaceOnUse" id="clipPath24">
        <path d="M772 443 L829 443 L829 474 L772 474 L772 443 Z" />
      </clipPath>
      <clipPath clipPathUnits="userSpaceOnUse" id="clipPath25">
        <path d="M751 630 L773 630 L773 672 L751 672 L751 630 Z" />
      </clipPath>
      <clipPath clipPathUnits="userSpaceOnUse" id="clipPath26">
        <path d="M772 630 L829 630 L829 661 L772 661 L772 630 Z" />
      </clipPath>
      <clipPath clipPathUnits="userSpaceOnUse" id="clipPath27">
        <path d="M751 970 L773 970 L773 1012 L751 1012 L751 970 Z" />
      </clipPath>
      <clipPath clipPathUnits="userSpaceOnUse" id="clipPath28">
        <path d="M772 970 L829 970 L829 1001 L772 1001 L772 970 Z" />
      </clipPath>
      <clipPath clipPathUnits="userSpaceOnUse" id="clipPath29">
        <path d="M751 1090 L773 1090 L773 1132 L751 1132 L751 1090 Z" />
      </clipPath>
      <clipPath clipPathUnits="userSpaceOnUse" id="clipPath30">
        <path d="M772 1090 L829 1090 L829 1121 L772 1121 L772 1090 Z" />
      </clipPath>
      <clipPath clipPathUnits="userSpaceOnUse" id="clipPath31">
        <path d="M751 1210 L773 1210 L773 1252 L751 1252 L751 1210 Z" />
      </clipPath>
      <clipPath clipPathUnits="userSpaceOnUse" id="clipPath32">
        <path d="M772 1210 L829 1210 L829 1241 L772 1241 L772 1210 Z" />
      </clipPath>
      <clipPath clipPathUnits="userSpaceOnUse" id="clipPath33">
        <path d="M565 9 L695 9 L695 61 L565 61 L565 9 Z" />
      </clipPath>
      <clipPath clipPathUnits="userSpaceOnUse" id="clipPath34">
        <path d="M565 9 L701 9 L701 61 L565 61 L565 9 Z" />
      </clipPath>
      <clipPath clipPathUnits="userSpaceOnUse" id="clipPath35">
        <path d="M565 9 L700 9 L700 61 L565 61 L565 9 Z" />
      </clipPath>
      <clipPath clipPathUnits="userSpaceOnUse" id="clipPath36">
        <path d="M624 59 L636 59 L636 1302 L624 1302 L624 59 Z" />
      </clipPath>
      <clipPath clipPathUnits="userSpaceOnUse" id="clipPath37">
        <path d="M619 714 L641 714 L641 756 L619 756 L619 714 Z" />
      </clipPath>
      <clipPath clipPathUnits="userSpaceOnUse" id="clipPath38">
        <path d="M640 714 L697 714 L697 745 L640 745 L640 714 Z" />
      </clipPath>
      <clipPath clipPathUnits="userSpaceOnUse" id="clipPath39">
        <path d="M619 398 L641 398 L641 440 L619 440 L619 398 Z" />
      </clipPath>
      <clipPath clipPathUnits="userSpaceOnUse" id="clipPath40">
        <path d="M640 398 L697 398 L697 429 L640 429 L640 398 Z" />
      </clipPath>
      <clipPath clipPathUnits="userSpaceOnUse" id="clipPath41">
        <path d="M619 790 L641 790 L641 832 L619 832 L619 790 Z" />
      </clipPath>
      <clipPath clipPathUnits="userSpaceOnUse" id="clipPath42">
        <path d="M640 790 L697 790 L697 821 L640 821 L640 790 Z" />
      </clipPath>
      <clipPath clipPathUnits="userSpaceOnUse" id="clipPath43">
        <path d="M830 9 L949 9 L949 61 L830 61 L830 9 Z" />
      </clipPath>
      <clipPath clipPathUnits="userSpaceOnUse" id="clipPath44">
        <path d="M830 9 L954 9 L954 61 L830 61 L830 9 Z" />
      </clipPath>
      <clipPath clipPathUnits="userSpaceOnUse" id="clipPath45">
        <path d="M830 9 L953 9 L953 61 L830 61 L830 9 Z" />
      </clipPath>
      <clipPath clipPathUnits="userSpaceOnUse" id="clipPath46">
        <path d="M883 59 L895 59 L895 1302 L883 1302 L883 59 Z" />
      </clipPath>
      <clipPath clipPathUnits="userSpaceOnUse" id="clipPath47">
        <path d="M878 518 L900 518 L900 560 L878 560 L878 518 Z" />
      </clipPath>
      <clipPath clipPathUnits="userSpaceOnUse" id="clipPath48">
        <path d="M899 518 L956 518 L956 549 L899 549 L899 518 Z" />
      </clipPath>
      <clipPath clipPathUnits="userSpaceOnUse" id="clipPath49">
        <path d="M878 850 L900 850 L900 892 L878 892 L878 850 Z" />
      </clipPath>
      <clipPath clipPathUnits="userSpaceOnUse" id="clipPath50">
        <path d="M899 850 L956 850 L956 881 L899 881 L899 850 Z" />
      </clipPath>
      <clipPath clipPathUnits="userSpaceOnUse" id="clipPath51">
        <path d="M152 9 L224 9 L224 41 L152 41 L152 9 Z" />
      </clipPath>
      <clipPath clipPathUnits="userSpaceOnUse" id="clipPath52">
        <path d="M152 9 L228 9 L228 41 L152 41 L152 9 Z" />
      </clipPath>
      <clipPath clipPathUnits="userSpaceOnUse" id="clipPath53">
        <path d="M182 39 L194 39 L194 1302 L182 1302 L182 39 Z" />
      </clipPath>
      <clipPath clipPathUnits="userSpaceOnUse" id="clipPath54">
        <path d="M-1 -1 L1153 -1 L1153 1312 L-1 1312 L-1 -1 Z" />
      </clipPath>
      <clipPath clipPathUnits="userSpaceOnUse" id="clipPath55">
        <path d="M251 65 L694 65 L694 96 L251 96 L251 65 Z" />
      </clipPath>
      <clipPath clipPathUnits="userSpaceOnUse" id="clipPath56">
        <path d="M186 85 L198 85 L198 96 L186 96 L186 85 Z" />
      </clipPath>
      <clipPath clipPathUnits="userSpaceOnUse" id="clipPath57">
        <path d="M280 181 L554 181 L554 212 L280 212 L280 181 Z" />
      </clipPath>
      <clipPath clipPathUnits="userSpaceOnUse" id="clipPath58">
        <path d="M186 205 L198 205 L198 216 L186 216 L186 205 Z" />
      </clipPath>
      <clipPath clipPathUnits="userSpaceOnUse" id="clipPath59">
        <path d="M285 300 L531 300 L531 331 L285 331 L285 300 Z" />
      </clipPath>
      <clipPath clipPathUnits="userSpaceOnUse" id="clipPath60">
        <path d="M186 325 L198 325 L198 336 L186 336 L186 325 Z" />
      </clipPath>
      <clipPath clipPathUnits="userSpaceOnUse" id="clipPath61">
        <path d="M198 487 L572 487 L572 518 L198 518 L198 487 Z" />
      </clipPath>
      <clipPath clipPathUnits="userSpaceOnUse" id="clipPath62">
        <path d="M186 514 L198 514 L198 525 L186 525 L186 514 Z" />
      </clipPath>
      <clipPath clipPathUnits="userSpaceOnUse" id="clipPath63">
        <path d="M296 541 L496 541 L496 572 L296 572 L296 541 Z" />
      </clipPath>
      <clipPath clipPathUnits="userSpaceOnUse" id="clipPath64">
        <path d="M186 566 L198 566 L198 577 L186 577 L186 566 Z" />
      </clipPath>
      <clipPath clipPathUnits="userSpaceOnUse" id="clipPath65">
        <path d="M184 663 L597 663 L597 726 L184 726 L184 663 Z" />
      </clipPath>
      <clipPath clipPathUnits="userSpaceOnUse" id="clipPath66">
        <path d="M186 710 L198 710 L198 721 L186 721 L186 710 Z" />
      </clipPath>
      <clipPath clipPathUnits="userSpaceOnUse" id="clipPath67">
        <path d="M193 819 L567 819 L567 850 L193 850 L193 819 Z" />
      </clipPath>
      <clipPath clipPathUnits="userSpaceOnUse" id="clipPath68">
        <path d="M186 846 L198 846 L198 857 L186 857 L186 846 Z" />
      </clipPath>
      <clipPath clipPathUnits="userSpaceOnUse" id="clipPath69">
        <path d="M274 881 L578 881 L578 912 L274 912 L274 881 Z" />
      </clipPath>
      <clipPath clipPathUnits="userSpaceOnUse" id="clipPath70">
        <path d="M186 906 L198 906 L198 917 L186 917 L186 906 Z" />
      </clipPath>
      <clipPath clipPathUnits="userSpaceOnUse" id="clipPath71">
        <path d="M148 1004 L1134 1004 L1134 1035 L148 1035 L148 1004 Z" />
      </clipPath>
      <clipPath clipPathUnits="userSpaceOnUse" id="clipPath72">
        <path d="M186 1026 L198 1026 L198 1037 L186 1037 L186 1026 Z" />
      </clipPath>
      <clipPath clipPathUnits="userSpaceOnUse" id="clipPath73">
        <path d="M289 1121 L477 1121 L477 1152 L289 1152 L289 1121 Z" />
      </clipPath>
      <clipPath clipPathUnits="userSpaceOnUse" id="clipPath74">
        <path d="M186 1146 L198 1146 L198 1157 L186 1157 L186 1146 Z" />
      </clipPath>
      <clipPath clipPathUnits="userSpaceOnUse" id="clipPath75">
        <path d="M239 110 L691 110 L691 141 L239 141 L239 110 Z" />
      </clipPath>
      <clipPath clipPathUnits="userSpaceOnUse" id="clipPath76">
        <path d="M743 135 L755 135 L755 146 L743 146 L743 135 Z" />
      </clipPath>
      <clipPath clipPathUnits="userSpaceOnUse" id="clipPath77">
        <path d="M250 230 L656 230 L656 261 L250 261 L250 230 Z" />
      </clipPath>
      <clipPath clipPathUnits="userSpaceOnUse" id="clipPath78">
        <path d="M743 253 L755 253 L755 264 L743 264 L743 253 Z" />
      </clipPath>
      <clipPath clipPathUnits="userSpaceOnUse" id="clipPath79">
        <path d="M23 369 L962 369 L962 400 L23 400 L23 369 Z" />
      </clipPath>
      <clipPath clipPathUnits="userSpaceOnUse" id="clipPath80">
        <path d="M611 394 L623 394 L623 405 L611 405 L611 394 Z" />
      </clipPath>
      <clipPath clipPathUnits="userSpaceOnUse" id="clipPath81">
        <path d="M209 410 L855 410 L855 441 L209 441 L209 410 Z" />
      </clipPath>
      <clipPath clipPathUnits="userSpaceOnUse" id="clipPath82">
        <path d="M743 439 L755 439 L755 450 L743 450 L743 439 Z" />
      </clipPath>
      <clipPath clipPathUnits="userSpaceOnUse" id="clipPath83">
        <path d="M230 605 L745 605 L745 636 L230 636 L230 605 Z" />
      </clipPath>
      <clipPath clipPathUnits="userSpaceOnUse" id="clipPath84">
        <path d="M743 626 L755 626 L755 637 L743 637 L743 626 Z" />
      </clipPath>
      <clipPath clipPathUnits="userSpaceOnUse" id="clipPath85">
        <path d="M611 786 L623 786 L623 797 L611 797 L611 786 Z" />
      </clipPath>
      <clipPath clipPathUnits="userSpaceOnUse" id="clipPath86">
        <path d="M230 939 L756 939 L756 970 L230 970 L230 939 Z" />
      </clipPath>
      <clipPath clipPathUnits="userSpaceOnUse" id="clipPath87">
        <path d="M743 966 L755 966 L755 977 L743 977 L743 966 Z" />
      </clipPath>
      <clipPath clipPathUnits="userSpaceOnUse" id="clipPath88">
        <path d="M221 1062 L784 1062 L784 1093 L221 1093 L221 1062 Z" />
      </clipPath>
      <clipPath clipPathUnits="userSpaceOnUse" id="clipPath89">
        <path d="M743 1086 L755 1086 L755 1097 L743 1097 L743 1086 Z" />
      </clipPath>
      <clipPath clipPathUnits="userSpaceOnUse" id="clipPath90">
        <path d="M247 1184 L659 1184 L659 1215 L247 1215 L247 1184 Z" />
      </clipPath>
      <clipPath clipPathUnits="userSpaceOnUse" id="clipPath91">
        <path d="M743 1206 L755 1206 L755 1217 L743 1217 L743 1206 Z" />
      </clipPath>
    </defs>
    <g font-size="23" fill="rgb(255,245,181)" font-family="'Lucida Sans'" stroke-linejoin="round" stroke="rgb(255,245,181)" stroke-width="0" stroke-miterlimit="0">
      <rect x="704" y="10" clip-path="url(#clipPath1)" width="117" height="50" stroke="none" />
    </g>
    <g stroke-width="0.1" font-size="23" font-family="'Lucida Sans'" stroke-linecap="butt">
      <rect x="704" y="10" clip-path="url(#clipPath1)" fill="none" width="116" height="49" />
      <text xml:space="preserve" x="733" y="28" clip-path="url(#clipPath2)" stroke="none">steve</text>
      <text xml:space="preserve" x="705" y="57" clip-path="url(#clipPath3)" stroke="none">: actCoor...</text>
      <line clip-path="url(#clipPath4)" fill="none" x1="761" x2="761" y1="60" y2="1301" stroke-dasharray="10,10" stroke-width="1.1" />
    </g>
    <g stroke-linecap="butt" font-size="23" fill="rgb(77,137,20)" font-family="'Lucida Sans'" stroke-dasharray="10,10" stroke="rgb(77,137,20)" stroke-width="1.1">
      <rect x="752" y="90" clip-path="url(#clipPath5)" width="20" height="40" stroke="none" />
      <rect x="753" y="91" clip-path="url(#clipPath5)" fill="none" width="18" stroke-dasharray="none" height="38" stroke-width="2.1" />
      <text x="773" y="112" clip-path="url(#clipPath6)" stroke-dasharray="none" stroke="none" stroke-width="2.1" xml:space="preserve">tsi10</text>
      <rect x="752" y="210" clip-path="url(#clipPath7)" width="20" stroke-dasharray="none" height="40" stroke="none" stroke-width="2.1" />
      <rect x="753" y="211" clip-path="url(#clipPath7)" fill="none" width="18" stroke-dasharray="none" height="38" stroke-width="2.1" />
      <text x="773" y="232" clip-path="url(#clipPath8)" stroke-dasharray="none" stroke="none" stroke-width="2.1" xml:space="preserve">tsi11</text>
      <rect x="752" y="330" clip-path="url(#clipPath9)" width="20" stroke-dasharray="none" height="40" stroke="none" stroke-width="2.1" />
      <rect x="753" y="331" clip-path="url(#clipPath9)" fill="none" width="18" stroke-dasharray="none" height="38" stroke-width="2.1" />
      <text x="773" y="352" clip-path="url(#clipPath10)" stroke-dasharray="none" stroke="none" stroke-width="2.1" xml:space="preserve">tsi12</text>
      <rect x="752" y="571" clip-path="url(#clipPath11)" width="20" stroke-dasharray="none" height="40" stroke="none" stroke-width="2.1" />
      <rect x="753" y="572" clip-path="url(#clipPath11)" fill="none" width="18" stroke-dasharray="none" height="38" stroke-width="2.1" />
      <text x="773" y="593" clip-path="url(#clipPath12)" stroke-dasharray="none" stroke="none" stroke-width="2.1" xml:space="preserve">tsi14</text>
      <rect x="752" y="911" clip-path="url(#clipPath13)" width="20" stroke-dasharray="none" height="40" stroke="none" stroke-width="2.1" />
      <rect x="753" y="912" clip-path="url(#clipPath13)" fill="none" width="18" stroke-dasharray="none" height="38" stroke-width="2.1" />
      <text x="773" y="933" clip-path="url(#clipPath14)" stroke-dasharray="none" stroke="none" stroke-width="2.1" xml:space="preserve">tsi17</text>
      <rect x="752" y="1031" clip-path="url(#clipPath15)" width="20" stroke-dasharray="none" height="40" stroke="none" stroke-width="2.1" />
      <rect x="753" y="1032" clip-path="url(#clipPath15)" fill="none" width="18" stroke-dasharray="none" height="38" stroke-width="2.1" />
      <text x="773" y="1053" clip-path="url(#clipPath16)" stroke-dasharray="none" stroke="none" stroke-width="2.1" xml:space="preserve">tsi18</text>
      <rect x="752" y="1151" clip-path="url(#clipPath17)" width="20" stroke-dasharray="none" height="40" stroke="none" stroke-width="2.1" />
      <rect x="753" y="1152" clip-path="url(#clipPath17)" fill="none" width="18" stroke-dasharray="none" height="38" stroke-width="2.1" />
      <text x="773" y="1173" clip-path="url(#clipPath18)" stroke-dasharray="none" stroke="none" stroke-width="2.1" xml:space="preserve">tsi19</text>
    </g>
    <g stroke-linecap="butt" font-size="23" fill="rgb(204,242,166)" font-family="'Lucida Sans'" stroke="rgb(204,242,166)" stroke-width="2.1">
      <rect x="752" y="140" clip-path="url(#clipPath19)" width="20" height="40" stroke="none" />
      <rect x="752" y="140" clip-path="url(#clipPath19)" fill="none" width="19" height="39" stroke="rgb(209,209,209)" stroke-width="0.1" />
      <text x="773" y="162" clip-path="url(#clipPath20)" fill="rgb(77,137,20)" stroke="none" stroke-width="0.1" xml:space="preserve">tsi10</text>
      <rect x="752" y="258" clip-path="url(#clipPath21)" width="20" height="40" stroke="none" stroke-width="0.1" />
      <rect x="752" y="258" clip-path="url(#clipPath21)" fill="none" width="19" height="39" stroke="rgb(209,209,209)" stroke-width="0.1" />
      <text x="773" y="280" clip-path="url(#clipPath22)" fill="rgb(77,137,20)" stroke="none" stroke-width="0.1" xml:space="preserve">tsi11</text>
      <rect x="752" y="444" clip-path="url(#clipPath23)" width="20" height="40" stroke="none" stroke-width="0.1" />
      <rect x="752" y="444" clip-path="url(#clipPath23)" fill="none" width="19" height="39" stroke="rgb(209,209,209)" stroke-width="0.1" />
      <text x="773" y="466" clip-path="url(#clipPath24)" fill="rgb(77,137,20)" stroke="none" stroke-width="0.1" xml:space="preserve">tsi12</text>
      <rect x="752" y="631" clip-path="url(#clipPath25)" width="20" height="40" stroke="none" stroke-width="0.1" />
      <rect x="752" y="631" clip-path="url(#clipPath25)" fill="none" width="19" height="39" stroke="rgb(209,209,209)" stroke-width="0.1" />
      <text x="773" y="653" clip-path="url(#clipPath26)" fill="rgb(77,137,20)" stroke="none" stroke-width="0.1" xml:space="preserve">tsi14</text>
      <rect x="752" y="971" clip-path="url(#clipPath27)" width="20" height="40" stroke="none" stroke-width="0.1" />
      <rect x="752" y="971" clip-path="url(#clipPath27)" fill="none" width="19" height="39" stroke="rgb(209,209,209)" stroke-width="0.1" />
      <text x="773" y="993" clip-path="url(#clipPath28)" fill="rgb(77,137,20)" stroke="none" stroke-width="0.1" xml:space="preserve">tsi17</text>
      <rect x="752" y="1091" clip-path="url(#clipPath29)" width="20" height="40" stroke="none" stroke-width="0.1" />
      <rect x="752" y="1091" clip-path="url(#clipPath29)" fill="none" width="19" height="39" stroke="rgb(209,209,209)" stroke-width="0.1" />
      <text x="773" y="1113" clip-path="url(#clipPath30)" fill="rgb(77,137,20)" stroke="none" stroke-width="0.1" xml:space="preserve">tsi18</text>
      <rect x="752" y="1211" clip-path="url(#clipPath31)" width="20" height="40" stroke="none" stroke-width="0.1" />
      <rect x="752" y="1211" clip-path="url(#clipPath31)" fill="none" width="19" height="39" stroke="rgb(209,209,209)" stroke-width="0.1" />
      <text x="773" y="1233" clip-path="url(#clipPath32)" fill="rgb(77,137,20)" stroke="none" stroke-width="0.1" xml:space="preserve">tsi19</text>
      <rect x="566" y="10" clip-path="url(#clipPath33)" fill="rgb(255,245,181)" width="128" height="50" stroke="none" stroke-width="0.1" />
      <rect x="566" y="10" clip-path="url(#clipPath33)" fill="none" width="127" height="49" stroke="black" stroke-width="0.1" />
      <text x="600" y="28" clip-path="url(#clipPath34)" fill="black" stroke="none" stroke-width="0.1" xml:space="preserve">tango</text>
      <text x="574" y="57" clip-path="url(#clipPath35)" fill="black" stroke="none" stroke-width="0.1" xml:space="preserve">: actCom...</text>
    </g>
    <g stroke-width="1.1" font-size="23" stroke-dasharray="10,10" font-family="'Lucida Sans'" stroke-linecap="butt">
      <line clip-path="url(#clipPath36)" fill="none" x1="629" x2="629" y1="60" y2="1301" />
      <rect x="620" y="715" clip-path="url(#clipPath37)" fill="rgb(77,137,20)" width="20" height="40" stroke="none" />
    </g>
    <g stroke-linecap="butt" font-size="23" fill="rgb(77,137,20)" font-family="'Lucida Sans'" stroke="rgb(77,137,20)" stroke-width="2.1">
      <rect x="621" y="716" clip-path="url(#clipPath37)" fill="none" width="18" height="38" />
      <text xml:space="preserve" x="641" y="737" clip-path="url(#clipPath38)" stroke="none">tsi15</text>
      <rect x="620" y="399" clip-path="url(#clipPath39)" fill="rgb(204,242,166)" width="20" height="40" stroke="none" />
      <rect x="620" y="399" clip-path="url(#clipPath39)" fill="none" width="19" height="39" stroke="rgb(209,209,209)" stroke-width="0.1" />
      <text x="641" y="421" clip-path="url(#clipPath40)" stroke="none" stroke-width="0.1" xml:space="preserve">tsi12</text>
      <rect x="620" y="791" clip-path="url(#clipPath41)" fill="rgb(204,242,166)" width="20" height="40" stroke="none" stroke-width="0.1" />
      <rect x="620" y="791" clip-path="url(#clipPath41)" fill="none" width="19" height="39" stroke="rgb(209,209,209)" stroke-width="0.1" />
      <text x="641" y="813" clip-path="url(#clipPath42)" stroke="none" stroke-width="0.1" xml:space="preserve">tsi15</text>
      <rect x="831" y="10" clip-path="url(#clipPath43)" fill="rgb(255,245,181)" width="117" height="50" stroke="none" stroke-width="0.1" />
      <rect x="831" y="10" clip-path="url(#clipPath43)" fill="none" width="116" height="49" stroke="black" stroke-width="0.1" />
      <text x="842" y="28" clip-path="url(#clipPath44)" fill="black" stroke="none" stroke-width="0.1" xml:space="preserve">theClock</text>
      <text x="834" y="57" clip-path="url(#clipPath45)" fill="black" stroke="none" stroke-width="0.1" xml:space="preserve">: actActiv...</text>
    </g>
    <g stroke-width="1.1" font-size="23" stroke-dasharray="10,10" font-family="'Lucida Sans'" stroke-linecap="butt">
      <line clip-path="url(#clipPath46)" fill="none" x1="888" x2="888" y1="60" y2="1301" />
      <rect x="879" y="519" clip-path="url(#clipPath47)" fill="rgb(77,137,20)" width="20" height="40" stroke="none" />
    </g>
    <g stroke-linecap="butt" font-size="23" fill="rgb(77,137,20)" font-family="'Lucida Sans'" stroke="rgb(77,137,20)" stroke-width="2.1">
      <rect x="880" y="520" clip-path="url(#clipPath47)" fill="none" width="18" height="38" />
      <text xml:space="preserve" x="900" y="541" clip-path="url(#clipPath48)" stroke="none">tsi13</text>
      <rect x="879" y="851" clip-path="url(#clipPath49)" width="20" height="40" stroke="none" />
      <rect x="880" y="852" clip-path="url(#clipPath49)" fill="none" width="18" height="38" />
      <text xml:space="preserve" x="900" y="873" clip-path="url(#clipPath50)" stroke="none">tsi16</text>
      <rect x="153" y="10" clip-path="url(#clipPath51)" fill="rgb(238,201,142)" width="70" height="30" stroke="none" />
      <rect x="153" y="10" clip-path="url(#clipPath51)" fill="none" width="69" height="29" stroke="black" stroke-width="0.1" />
      <text x="156" y="32" clip-path="url(#clipPath52)" fill="black" stroke="none" stroke-width="0.1" xml:space="preserve">Syst...</text>
    </g>
    <g stroke-width="1.1" font-size="23" stroke-dasharray="10,10" font-family="'Lucida Sans'" stroke-linecap="butt">
      <line clip-path="url(#clipPath53)" fill="none" x1="187" x2="187" y1="40" y2="1301" />
    </g>
    <g stroke-linecap="butt" font-size="23" fill="rgb(136,136,136)" font-family="'Lucida Sans'" stroke="rgb(136,136,136)" stroke-width="2.1">
      <line clip-path="url(#clipPath54)" fill="none" x1="752" x2="188" y1="90" y2="90" />
      <text x="252" y="88" clip-path="url(#clipPath55)" fill="black" stroke="none" xml:space="preserve">oeLogin(steve,pwdMessirExcalibur2017)</text>
      <line clip-path="url(#clipPath56)" fill="none" x1="195" x2="188" y1="87" y2="90" />
      <line clip-path="url(#clipPath56)" fill="none" x1="188" x2="195" y1="90" y2="93" />
      <line clip-path="url(#clipPath54)" fill="none" x1="752" x2="188" y1="210" y2="210" />
      <text x="281" y="204" clip-path="url(#clipPath57)" fill="black" stroke="none" xml:space="preserve">oeGetCrisisSet(pending)</text>
      <line clip-path="url(#clipPath58)" fill="none" x1="195" x2="188" y1="207" y2="210" />
      <line clip-path="url(#clipPath58)" fill="none" x1="188" x2="195" y1="210" y2="213" />
      <line clip-path="url(#clipPath54)" fill="none" x1="752" x2="188" y1="330" y2="330" />
      <text x="286" y="323" clip-path="url(#clipPath59)" fill="black" stroke="none" xml:space="preserve">oeSetCrisisHandler(1)</text>
      <line clip-path="url(#clipPath60)" fill="none" x1="195" x2="188" y1="327" y2="330" />
      <line clip-path="url(#clipPath60)" fill="none" x1="188" x2="195" y1="330" y2="333" />
      <line clip-path="url(#clipPath54)" fill="none" x1="879" x2="188" y1="519" y2="519" />
      <text x="199" y="510" clip-path="url(#clipPath61)" fill="black" stroke="none" xml:space="preserve">oeSetClock(2017:11:26 - 10:45:00)</text>
      <line clip-path="url(#clipPath62)" fill="none" x1="195" x2="188" y1="516" y2="519" />
      <line clip-path="url(#clipPath62)" fill="none" x1="188" x2="195" y1="519" y2="522" />
      <line clip-path="url(#clipPath54)" fill="none" x1="752" x2="188" y1="571" y2="571" />
      <text x="297" y="564" clip-path="url(#clipPath63)" fill="black" stroke="none" xml:space="preserve">oeValidateAlert(1)</text>
      <line clip-path="url(#clipPath64)" fill="none" x1="195" x2="188" y1="568" y2="571" />
      <line clip-path="url(#clipPath64)" fill="none" x1="188" x2="195" y1="571" y2="574" />
      <line clip-path="url(#clipPath54)" fill="none" x1="620" x2="188" y1="715" y2="715" />
      <text x="193" y="687" clip-path="url(#clipPath65)" fill="black" stroke="none" xml:space="preserve">oeAlert(witness,2017:11:26,10:20:00,</text>
      <text x="191" y="716" clip-path="url(#clipPath65)" fill="black" stroke="none" xml:space="preserve">+3524666445000,49.627095:6.1602...</text>
      <line clip-path="url(#clipPath66)" fill="none" x1="195" x2="188" y1="712" y2="715" />
      <line clip-path="url(#clipPath66)" fill="none" x1="188" x2="195" y1="715" y2="718" />
      <line clip-path="url(#clipPath54)" fill="none" x1="879" x2="188" y1="851" y2="851" />
      <text x="194" y="842" clip-path="url(#clipPath67)" fill="black" stroke="none" xml:space="preserve">oeSetClock(2017:11:26 - 12:45:00)</text>
      <line clip-path="url(#clipPath68)" fill="none" x1="195" x2="188" y1="848" y2="851" />
      <line clip-path="url(#clipPath68)" fill="none" x1="188" x2="195" y1="851" y2="854" />
      <line clip-path="url(#clipPath54)" fill="none" x1="752" x2="188" y1="911" y2="911" />
      <text x="275" y="904" clip-path="url(#clipPath69)" fill="black" stroke="none" xml:space="preserve">oeSetCrisisStatus(1,solved)</text>
      <line clip-path="url(#clipPath70)" fill="none" x1="195" x2="188" y1="908" y2="911" />
      <line clip-path="url(#clipPath70)" fill="none" x1="188" x2="195" y1="911" y2="914" />
      <line clip-path="url(#clipPath54)" fill="none" x1="752" x2="188" y1="1031" y2="1031" />
      <text x="149" y="1027" clip-path="url(#clipPath71)" fill="black" stroke="none" xml:space="preserve">oeReportOnCrisis(1,3 victims sent to hospital, 2 cars evacuated and 4 rescue unit mobilized)</text>
      <line clip-path="url(#clipPath72)" fill="none" x1="195" x2="188" y1="1028" y2="1031" />
      <line clip-path="url(#clipPath72)" fill="none" x1="188" x2="195" y1="1031" y2="1034" />
      <line clip-path="url(#clipPath54)" fill="none" x1="752" x2="188" y1="1151" y2="1151" />
      <text x="290" y="1144" clip-path="url(#clipPath73)" fill="black" stroke="none" xml:space="preserve">oeCloseCrisis(1)</text>
      <line clip-path="url(#clipPath74)" fill="none" x1="195" x2="188" y1="1148" y2="1151" />
      <line clip-path="url(#clipPath74)" fill="none" x1="188" x2="195" y1="1151" y2="1154" />
      <line clip-path="url(#clipPath54)" fill="none" x1="752" x2="188" y1="140" y2="140" stroke-dasharray="5,5" />
      <text x="240" y="133" clip-path="url(#clipPath75)" fill="black" stroke-dasharray="5,5" stroke="none" xml:space="preserve">ieMessage(You are logged ! Welcome ...)</text>
      <line clip-path="url(#clipPath76)" fill="none" x1="745" x2="752" y1="143" y2="140" />
      <line clip-path="url(#clipPath76)" fill="none" x1="752" x2="745" y1="140" y2="137" />
      <line clip-path="url(#clipPath54)" fill="none" x1="752" x2="188" y1="258" y2="258" stroke-dasharray="5,5" />
      <text x="251" y="253" clip-path="url(#clipPath77)" fill="black" stroke-dasharray="5,5" stroke="none" xml:space="preserve">ieSendACrisis(crisis with ID 1 details)</text>
      <line clip-path="url(#clipPath78)" fill="none" x1="745" x2="752" y1="261" y2="258" />
      <line clip-path="url(#clipPath78)" fill="none" x1="752" x2="745" y1="258" y2="255" />
      <line clip-path="url(#clipPath54)" fill="none" x1="620" x2="188" y1="399" y2="399" stroke-dasharray="5,5" />
      <text x="24" y="392" clip-path="url(#clipPath79)" fill="black" stroke-dasharray="5,5" stroke="none" xml:space="preserve">ieSmsSend(+3524666445252,The handling of your alert by our services is in progress !)</text>
      <line clip-path="url(#clipPath80)" fill="none" x1="613" x2="620" y1="402" y2="399" />
      <line clip-path="url(#clipPath80)" fill="none" x1="620" x2="613" y1="399" y2="396" />
      <line clip-path="url(#clipPath54)" fill="none" x1="752" x2="188" y1="444" y2="444" stroke-dasharray="5,5" />
      <text x="210" y="433" clip-path="url(#clipPath81)" fill="black" stroke-dasharray="5,5" stroke="none" xml:space="preserve">ieMessage(You are now considered as handling the crisis !)</text>
      <line clip-path="url(#clipPath82)" fill="none" x1="745" x2="752" y1="447" y2="444" />
      <line clip-path="url(#clipPath82)" fill="none" x1="752" x2="745" y1="444" y2="441" />
      <line clip-path="url(#clipPath54)" fill="none" x1="752" x2="188" y1="631" y2="631" stroke-dasharray="5,5" />
      <text x="231" y="628" clip-path="url(#clipPath83)" fill="black" stroke-dasharray="5,5" stroke="none" xml:space="preserve">ieMessage(The Alert is now declared as valid !)</text>
      <line clip-path="url(#clipPath84)" fill="none" x1="745" x2="752" y1="634" y2="631" />
      <line clip-path="url(#clipPath84)" fill="none" x1="752" x2="745" y1="631" y2="628" />
      <line clip-path="url(#clipPath54)" fill="none" x1="620" x2="188" y1="791" y2="791" stroke-dasharray="5,5" />
      <line clip-path="url(#clipPath85)" fill="none" x1="613" x2="620" y1="794" y2="791" />
      <line clip-path="url(#clipPath85)" fill="none" x1="620" x2="613" y1="791" y2="788" />
      <line clip-path="url(#clipPath54)" fill="none" x1="752" x2="188" y1="971" y2="971" stroke-dasharray="5,5" />
      <text x="231" y="962" clip-path="url(#clipPath86)" fill="black" stroke-dasharray="5,5" stroke="none" xml:space="preserve">ieMessage(The crisis status has been updated !)</text>
      <line clip-path="url(#clipPath87)" fill="none" x1="745" x2="752" y1="974" y2="971" />
      <line clip-path="url(#clipPath87)" fill="none" x1="752" x2="745" y1="971" y2="968" />
      <line clip-path="url(#clipPath54)" fill="none" x1="752" x2="188" y1="1091" y2="1091" stroke-dasharray="5,5" />
      <text x="222" y="1085" clip-path="url(#clipPath88)" fill="black" stroke-dasharray="5,5" stroke="none" xml:space="preserve">ieMessage(The crisis comment has been updated !)</text>
      <line clip-path="url(#clipPath89)" fill="none" x1="745" x2="752" y1="1094" y2="1091" />
      <line clip-path="url(#clipPath89)" fill="none" x1="752" x2="745" y1="1091" y2="1088" />
      <line clip-path="url(#clipPath54)" fill="none" x1="752" x2="188" y1="1211" y2="1211" stroke-dasharray="5,5" />
      <text x="248" y="1207" clip-path="url(#clipPath90)" fill="black" stroke-dasharray="5,5" stroke="none" xml:space="preserve">ieMessage(The crisis is now closed !)</text>
      <line clip-path="url(#clipPath91)" fill="none" x1="745" x2="752" y1="1214" y2="1211" />
      <line clip-path="url(#clipPath91)" fill="none" x1="752" x2="745" y1="1211" y2="1208" />
    </g>
  </g>
</svg>

