<?xml version="1.0" encoding="UTF-8"?>
<svg xmlns="http://www.w3.org/2000/svg" xmlns:xlink="http://www.w3.org/1999/xlink" stroke-dasharray="none" shape-rendering="auto" font-family="'Dialog'" width="1522" text-rendering="auto" fill-opacity="1" contentScriptType="text/ecmascript" color-interpolation="auto" color-rendering="auto" preserveAspectRatio="xMidYMid meet" font-size="12" viewBox="0 0 1522 1010" fill="black" stroke="black" image-rendering="auto" stroke-miterlimit="10" zoomAndPan="magnify" version="1.0" stroke-linecap="square" stroke-linejoin="miter" contentStyleType="text/css" font-style="normal" height="1010" stroke-width="1" stroke-dashoffset="0" font-weight="normal" stroke-opacity="1">
  <!--Generated by the Batik Graphics2D SVG Generator-->
  <defs id="genericDefs" />
  <g>
    <defs id="defs1">
      <clipPath clipPathUnits="userSpaceOnUse" id="clipPath1">
        <path d="M1019 9 L1126 9 L1126 61 L1019 61 L1019 9 Z" />
      </clipPath>
      <clipPath clipPathUnits="userSpaceOnUse" id="clipPath2">
        <path d="M1019 9 L1131 9 L1131 61 L1019 61 L1019 9 Z" />
      </clipPath>
      <clipPath clipPathUnits="userSpaceOnUse" id="clipPath3">
        <path d="M1066 59 L1078 59 L1078 1001 L1066 1001 L1066 59 Z" />
      </clipPath>
      <clipPath clipPathUnits="userSpaceOnUse" id="clipPath4">
        <path d="M1061 89 L1083 89 L1083 131 L1061 131 L1061 89 Z" />
      </clipPath>
      <clipPath clipPathUnits="userSpaceOnUse" id="clipPath5">
        <path d="M1082 89 L1146 89 L1146 117 L1082 117 L1082 89 Z" />
      </clipPath>
      <clipPath clipPathUnits="userSpaceOnUse" id="clipPath6">
        <path d="M1134 9 L1233 9 L1233 61 L1134 61 L1134 9 Z" />
      </clipPath>
      <clipPath clipPathUnits="userSpaceOnUse" id="clipPath7">
        <path d="M1134 9 L1238 9 L1238 61 L1134 61 L1134 9 Z" />
      </clipPath>
      <clipPath clipPathUnits="userSpaceOnUse" id="clipPath8">
        <path d="M1177 59 L1189 59 L1189 1001 L1177 1001 L1177 59 Z" />
      </clipPath>
      <clipPath clipPathUnits="userSpaceOnUse" id="clipPath9">
        <path d="M1172 149 L1194 149 L1194 191 L1172 191 L1172 149 Z" />
      </clipPath>
      <clipPath clipPathUnits="userSpaceOnUse" id="clipPath10">
        <path d="M1193 149 L1257 149 L1257 177 L1193 177 L1193 149 Z" />
      </clipPath>
      <clipPath clipPathUnits="userSpaceOnUse" id="clipPath11">
        <path d="M1172 555 L1194 555 L1194 597 L1172 597 L1172 555 Z" />
      </clipPath>
      <clipPath clipPathUnits="userSpaceOnUse" id="clipPath12">
        <path d="M1193 555 L1257 555 L1257 583 L1193 583 L1193 555 Z" />
      </clipPath>
      <clipPath clipPathUnits="userSpaceOnUse" id="clipPath13">
        <path d="M1172 789 L1194 789 L1194 831 L1172 831 L1172 789 Z" />
      </clipPath>
      <clipPath clipPathUnits="userSpaceOnUse" id="clipPath14">
        <path d="M1193 789 L1257 789 L1257 817 L1193 817 L1193 789 Z" />
      </clipPath>
      <clipPath clipPathUnits="userSpaceOnUse" id="clipPath15">
        <path d="M1241 9 L1370 9 L1370 61 L1241 61 L1241 9 Z" />
      </clipPath>
      <clipPath clipPathUnits="userSpaceOnUse" id="clipPath16">
        <path d="M1241 9 L1374 9 L1374 61 L1241 61 L1241 9 Z" />
      </clipPath>
      <clipPath clipPathUnits="userSpaceOnUse" id="clipPath17">
        <path d="M1241 9 L1375 9 L1375 61 L1241 61 L1241 9 Z" />
      </clipPath>
      <clipPath clipPathUnits="userSpaceOnUse" id="clipPath18">
        <path d="M1299 59 L1311 59 L1311 1001 L1299 1001 L1299 59 Z" />
      </clipPath>
      <clipPath clipPathUnits="userSpaceOnUse" id="clipPath19">
        <path d="M1294 209 L1316 209 L1316 251 L1294 251 L1294 209 Z" />
      </clipPath>
      <clipPath clipPathUnits="userSpaceOnUse" id="clipPath20">
        <path d="M1315 209 L1379 209 L1379 237 L1315 237 L1315 209 Z" />
      </clipPath>
      <clipPath clipPathUnits="userSpaceOnUse" id="clipPath21">
        <path d="M1294 329 L1316 329 L1316 371 L1294 371 L1294 329 Z" />
      </clipPath>
      <clipPath clipPathUnits="userSpaceOnUse" id="clipPath22">
        <path d="M1315 329 L1379 329 L1379 357 L1315 357 L1315 329 Z" />
      </clipPath>
      <clipPath clipPathUnits="userSpaceOnUse" id="clipPath23">
        <path d="M1294 449 L1316 449 L1316 491 L1294 491 L1294 449 Z" />
      </clipPath>
      <clipPath clipPathUnits="userSpaceOnUse" id="clipPath24">
        <path d="M1315 449 L1379 449 L1379 477 L1315 477 L1315 449 Z" />
      </clipPath>
      <clipPath clipPathUnits="userSpaceOnUse" id="clipPath25">
        <path d="M1294 255 L1316 255 L1316 297 L1294 297 L1294 255 Z" />
      </clipPath>
      <clipPath clipPathUnits="userSpaceOnUse" id="clipPath26">
        <path d="M1315 255 L1379 255 L1379 283 L1315 283 L1315 255 Z" />
      </clipPath>
      <clipPath clipPathUnits="userSpaceOnUse" id="clipPath27">
        <path d="M1294 374 L1316 374 L1316 416 L1294 416 L1294 374 Z" />
      </clipPath>
      <clipPath clipPathUnits="userSpaceOnUse" id="clipPath28">
        <path d="M1315 374 L1379 374 L1379 402 L1315 402 L1315 374 Z" />
      </clipPath>
      <clipPath clipPathUnits="userSpaceOnUse" id="clipPath29">
        <path d="M1294 499 L1316 499 L1316 541 L1294 541 L1294 499 Z" />
      </clipPath>
      <clipPath clipPathUnits="userSpaceOnUse" id="clipPath30">
        <path d="M1315 499 L1379 499 L1379 527 L1315 527 L1315 499 Z" />
      </clipPath>
      <clipPath clipPathUnits="userSpaceOnUse" id="clipPath31">
        <path d="M1294 849 L1316 849 L1316 891 L1294 891 L1294 849 Z" />
      </clipPath>
      <clipPath clipPathUnits="userSpaceOnUse" id="clipPath32">
        <path d="M1315 849 L1379 849 L1379 877 L1315 877 L1315 849 Z" />
      </clipPath>
      <clipPath clipPathUnits="userSpaceOnUse" id="clipPath33">
        <path d="M1378 9 L1511 9 L1511 61 L1378 61 L1378 9 Z" />
      </clipPath>
      <clipPath clipPathUnits="userSpaceOnUse" id="clipPath34">
        <path d="M1378 9 L1517 9 L1517 61 L1378 61 L1378 9 Z" />
      </clipPath>
      <clipPath clipPathUnits="userSpaceOnUse" id="clipPath35">
        <path d="M1378 9 L1516 9 L1516 61 L1378 61 L1378 9 Z" />
      </clipPath>
      <clipPath clipPathUnits="userSpaceOnUse" id="clipPath36">
        <path d="M1438 59 L1450 59 L1450 1001 L1438 1001 L1438 59 Z" />
      </clipPath>
      <clipPath clipPathUnits="userSpaceOnUse" id="clipPath37">
        <path d="M1433 650 L1455 650 L1455 692 L1433 692 L1433 650 Z" />
      </clipPath>
      <clipPath clipPathUnits="userSpaceOnUse" id="clipPath38">
        <path d="M1454 650 L1518 650 L1518 678 L1454 678 L1454 650 Z" />
      </clipPath>
      <clipPath clipPathUnits="userSpaceOnUse" id="clipPath39">
        <path d="M1433 729 L1455 729 L1455 771 L1433 771 L1433 729 Z" />
      </clipPath>
      <clipPath clipPathUnits="userSpaceOnUse" id="clipPath40">
        <path d="M1454 729 L1518 729 L1518 757 L1454 757 L1454 729 Z" />
      </clipPath>
      <clipPath clipPathUnits="userSpaceOnUse" id="clipPath41">
        <path d="M880 9 L1011 9 L1011 61 L880 61 L880 9 Z" />
      </clipPath>
      <clipPath clipPathUnits="userSpaceOnUse" id="clipPath42">
        <path d="M880 9 L1016 9 L1016 61 L880 61 L880 9 Z" />
      </clipPath>
      <clipPath clipPathUnits="userSpaceOnUse" id="clipPath43">
        <path d="M939 59 L951 59 L951 1001 L939 1001 L939 59 Z" />
      </clipPath>
      <clipPath clipPathUnits="userSpaceOnUse" id="clipPath44">
        <path d="M934 909 L956 909 L956 951 L934 951 L934 909 Z" />
      </clipPath>
      <clipPath clipPathUnits="userSpaceOnUse" id="clipPath45">
        <path d="M955 909 L1019 909 L1019 937 L955 937 L955 909 Z" />
      </clipPath>
      <clipPath clipPathUnits="userSpaceOnUse" id="clipPath46">
        <path d="M177 9 L249 9 L249 41 L177 41 L177 9 Z" />
      </clipPath>
      <clipPath clipPathUnits="userSpaceOnUse" id="clipPath47">
        <path d="M177 9 L253 9 L253 41 L177 41 L177 9 Z" />
      </clipPath>
      <clipPath clipPathUnits="userSpaceOnUse" id="clipPath48">
        <path d="M207 39 L219 39 L219 1001 L207 1001 L207 39 Z" />
      </clipPath>
      <clipPath clipPathUnits="userSpaceOnUse" id="clipPath49">
        <path d="M-1 -1 L1523 -1 L1523 1011 L-1 1011 L-1 -1 Z" />
      </clipPath>
      <clipPath clipPathUnits="userSpaceOnUse" id="clipPath50">
        <path d="M462 61 L875 61 L875 89 L462 89 L462 61 Z" />
      </clipPath>
      <clipPath clipPathUnits="userSpaceOnUse" id="clipPath51">
        <path d="M211 85 L223 85 L223 96 L211 96 L211 85 Z" />
      </clipPath>
      <clipPath clipPathUnits="userSpaceOnUse" id="clipPath52">
        <path d="M466 124 L870 124 L870 152 L466 152 L466 124 Z" />
      </clipPath>
      <clipPath clipPathUnits="userSpaceOnUse" id="clipPath53">
        <path d="M211 145 L223 145 L223 156 L211 156 L211 145 Z" />
      </clipPath>
      <clipPath clipPathUnits="userSpaceOnUse" id="clipPath54">
        <path d="M465 179 L849 179 L849 207 L465 207 L465 179 Z" />
      </clipPath>
      <clipPath clipPathUnits="userSpaceOnUse" id="clipPath55">
        <path d="M211 205 L223 205 L223 216 L211 216 L211 205 Z" />
      </clipPath>
      <clipPath clipPathUnits="userSpaceOnUse" id="clipPath56">
        <path d="M434 300 L1035 300 L1035 328 L434 328 L434 300 Z" />
      </clipPath>
      <clipPath clipPathUnits="userSpaceOnUse" id="clipPath57">
        <path d="M211 325 L223 325 L223 336 L211 336 L211 325 Z" />
      </clipPath>
      <clipPath clipPathUnits="userSpaceOnUse" id="clipPath58">
        <path d="M521 419 L649 419 L649 447 L521 447 L521 419 Z" />
      </clipPath>
      <clipPath clipPathUnits="userSpaceOnUse" id="clipPath59">
        <path d="M211 445 L223 445 L223 456 L211 456 L211 445 Z" />
      </clipPath>
      <clipPath clipPathUnits="userSpaceOnUse" id="clipPath60">
        <path d="M462 522 L866 522 L866 550 L462 550 L462 522 Z" />
      </clipPath>
      <clipPath clipPathUnits="userSpaceOnUse" id="clipPath61">
        <path d="M211 551 L223 551 L223 562 L211 562 L211 551 Z" />
      </clipPath>
      <clipPath clipPathUnits="userSpaceOnUse" id="clipPath62">
        <path d="M506 594 L974 594 L974 662 L506 662 L506 594 Z" />
      </clipPath>
      <clipPath clipPathUnits="userSpaceOnUse" id="clipPath63">
        <path d="M506 594 L975 594 L975 662 L506 662 L506 594 Z" />
      </clipPath>
      <clipPath clipPathUnits="userSpaceOnUse" id="clipPath64">
        <path d="M211 646 L223 646 L223 657 L211 657 L211 646 Z" />
      </clipPath>
      <clipPath clipPathUnits="userSpaceOnUse" id="clipPath65">
        <path d="M481 761 L807 761 L807 789 L481 789 L481 761 Z" />
      </clipPath>
      <clipPath clipPathUnits="userSpaceOnUse" id="clipPath66">
        <path d="M211 785 L223 785 L223 796 L211 796 L211 785 Z" />
      </clipPath>
      <clipPath clipPathUnits="userSpaceOnUse" id="clipPath67">
        <path d="M454 227 L910 227 L910 255 L454 255 L454 227 Z" />
      </clipPath>
      <clipPath clipPathUnits="userSpaceOnUse" id="clipPath68">
        <path d="M1286 251 L1298 251 L1298 262 L1286 262 L1286 251 Z" />
      </clipPath>
      <clipPath clipPathUnits="userSpaceOnUse" id="clipPath69">
        <path d="M494 345 L743 345 L743 373 L494 373 L494 345 Z" />
      </clipPath>
      <clipPath clipPathUnits="userSpaceOnUse" id="clipPath70">
        <path d="M1286 370 L1298 370 L1298 381 L1286 381 L1286 370 Z" />
      </clipPath>
      <clipPath clipPathUnits="userSpaceOnUse" id="clipPath71">
        <path d="M446 469 L953 469 L953 497 L446 497 L446 469 Z" />
      </clipPath>
      <clipPath clipPathUnits="userSpaceOnUse" id="clipPath72">
        <path d="M1286 495 L1298 495 L1298 506 L1286 506 L1286 495 Z" />
      </clipPath>
      <clipPath clipPathUnits="userSpaceOnUse" id="clipPath73">
        <path d="M307 697 L1482 697 L1482 725 L307 725 L307 697 Z" />
      </clipPath>
      <clipPath clipPathUnits="userSpaceOnUse" id="clipPath74">
        <path d="M1425 725 L1437 725 L1437 736 L1425 736 L1425 725 Z" />
      </clipPath>
      <clipPath clipPathUnits="userSpaceOnUse" id="clipPath75">
        <path d="M344 823 L1340 823 L1340 851 L344 851 L344 823 Z" />
      </clipPath>
      <clipPath clipPathUnits="userSpaceOnUse" id="clipPath76">
        <path d="M1286 845 L1298 845 L1298 856 L1286 856 L1286 845 Z" />
      </clipPath>
      <clipPath clipPathUnits="userSpaceOnUse" id="clipPath77">
        <path d="M23 878 L1019 878 L1019 906 L23 906 L23 878 Z" />
      </clipPath>
      <clipPath clipPathUnits="userSpaceOnUse" id="clipPath78">
        <path d="M926 905 L938 905 L938 916 L926 916 L926 905 Z" />
      </clipPath>
    </defs>
    <g font-size="23" fill="rgb(255,245,181)" font-family="'Lucida Sans'" stroke-linejoin="round" stroke="rgb(255,245,181)" stroke-width="0" stroke-miterlimit="0">
      <rect x="1020" y="10" clip-path="url(#clipPath1)" width="105" height="50" stroke="none" />
    </g>
    <g stroke-width="0.1" font-size="23" font-family="'Lucida Sans'" stroke-linecap="butt">
      <rect x="1020" y="10" clip-path="url(#clipPath1)" fill="none" width="104" height="49" />
      <text xml:space="preserve" x="1023" y="44" clip-path="url(#clipPath2)" stroke="none">theCre...</text>
      <line clip-path="url(#clipPath3)" fill="none" x1="1071" x2="1071" y1="60" y2="1000" stroke-dasharray="10,10" stroke-width="1.1" />
    </g>
    <g stroke-linecap="butt" font-size="23" fill="rgb(77,137,20)" font-family="'Lucida Sans'" stroke-dasharray="10,10" stroke="rgb(77,137,20)" stroke-width="1.1">
      <rect x="1062" y="90" clip-path="url(#clipPath4)" width="20" height="40" stroke="none" />
      <rect x="1063" y="91" clip-path="url(#clipPath4)" fill="none" width="18" stroke-dasharray="none" height="38" stroke-width="2.1" />
      <text x="1083" y="112" clip-path="url(#clipPath5)" stroke-dasharray="none" stroke="none" stroke-width="2.1" xml:space="preserve">tsi01</text>
    </g>
    <g stroke-linecap="butt" font-size="23" fill="rgb(255,245,181)" font-family="'Lucida Sans'" stroke="rgb(255,245,181)" stroke-width="2.1">
      <rect x="1135" y="10" clip-path="url(#clipPath6)" width="97" height="50" stroke="none" />
      <rect x="1135" y="10" clip-path="url(#clipPath6)" fill="none" width="96" height="49" stroke="black" stroke-width="0.1" />
      <text x="1135" y="44" clip-path="url(#clipPath7)" fill="black" stroke="none" stroke-width="0.1" xml:space="preserve">theClo...</text>
    </g>
    <g stroke-width="1.1" font-size="23" stroke-dasharray="10,10" font-family="'Lucida Sans'" stroke-linecap="butt">
      <line clip-path="url(#clipPath8)" fill="none" x1="1182" x2="1182" y1="60" y2="1000" />
      <rect x="1173" y="150" clip-path="url(#clipPath9)" fill="rgb(77,137,20)" width="20" height="40" stroke="none" />
    </g>
    <g stroke-linecap="butt" font-size="23" fill="rgb(77,137,20)" font-family="'Lucida Sans'" stroke="rgb(77,137,20)" stroke-width="2.1">
      <rect x="1174" y="151" clip-path="url(#clipPath9)" fill="none" width="18" height="38" />
      <text xml:space="preserve" x="1194" y="172" clip-path="url(#clipPath10)" stroke="none">tsi02</text>
      <rect x="1173" y="556" clip-path="url(#clipPath11)" width="20" height="40" stroke="none" />
      <rect x="1174" y="557" clip-path="url(#clipPath11)" fill="none" width="18" height="38" />
      <text xml:space="preserve" x="1194" y="578" clip-path="url(#clipPath12)" stroke="none">tsi06</text>
      <rect x="1173" y="790" clip-path="url(#clipPath13)" width="20" height="40" stroke="none" />
      <rect x="1174" y="791" clip-path="url(#clipPath13)" fill="none" width="18" height="38" />
      <text xml:space="preserve" x="1194" y="812" clip-path="url(#clipPath14)" stroke="none">tsi09</text>
      <rect x="1242" y="10" clip-path="url(#clipPath15)" fill="rgb(255,245,181)" width="127" height="50" stroke="none" />
      <rect x="1242" y="10" clip-path="url(#clipPath15)" fill="none" width="126" height="49" stroke="black" stroke-width="0.1" />
      <text x="1287" y="31" clip-path="url(#clipPath16)" fill="black" stroke="none" stroke-width="0.1" xml:space="preserve">bill</text>
      <text x="1242" y="57" clip-path="url(#clipPath17)" fill="black" stroke="none" stroke-width="0.1" xml:space="preserve">: actAdmi...</text>
    </g>
    <g stroke-width="1.1" font-size="23" stroke-dasharray="10,10" font-family="'Lucida Sans'" stroke-linecap="butt">
      <line clip-path="url(#clipPath18)" fill="none" x1="1304" x2="1304" y1="60" y2="1000" />
      <rect x="1295" y="210" clip-path="url(#clipPath19)" fill="rgb(77,137,20)" width="20" height="40" stroke="none" />
    </g>
    <g stroke-linecap="butt" font-size="23" fill="rgb(77,137,20)" font-family="'Lucida Sans'" stroke="rgb(77,137,20)" stroke-width="2.1">
      <rect x="1296" y="211" clip-path="url(#clipPath19)" fill="none" width="18" height="38" />
      <text xml:space="preserve" x="1316" y="232" clip-path="url(#clipPath20)" stroke="none">tsi03</text>
      <rect x="1295" y="330" clip-path="url(#clipPath21)" width="20" height="40" stroke="none" />
      <rect x="1296" y="331" clip-path="url(#clipPath21)" fill="none" width="18" height="38" />
      <text xml:space="preserve" x="1316" y="352" clip-path="url(#clipPath22)" stroke="none">tsi04</text>
      <rect x="1295" y="450" clip-path="url(#clipPath23)" width="20" height="40" stroke="none" />
      <rect x="1296" y="451" clip-path="url(#clipPath23)" fill="none" width="18" height="38" />
      <text xml:space="preserve" x="1316" y="472" clip-path="url(#clipPath24)" stroke="none">tsi05</text>
      <rect x="1295" y="256" clip-path="url(#clipPath25)" fill="rgb(204,242,166)" width="20" height="40" stroke="none" />
      <rect x="1295" y="256" clip-path="url(#clipPath25)" fill="none" width="19" height="39" stroke="rgb(209,209,209)" stroke-width="0.1" />
      <text x="1316" y="278" clip-path="url(#clipPath26)" stroke="none" stroke-width="0.1" xml:space="preserve">tsi03</text>
      <rect x="1295" y="375" clip-path="url(#clipPath27)" fill="rgb(204,242,166)" width="20" height="40" stroke="none" stroke-width="0.1" />
      <rect x="1295" y="375" clip-path="url(#clipPath27)" fill="none" width="19" height="39" stroke="rgb(209,209,209)" stroke-width="0.1" />
      <text x="1316" y="397" clip-path="url(#clipPath28)" stroke="none" stroke-width="0.1" xml:space="preserve">tsi04</text>
      <rect x="1295" y="500" clip-path="url(#clipPath29)" fill="rgb(204,242,166)" width="20" height="40" stroke="none" stroke-width="0.1" />
      <rect x="1295" y="500" clip-path="url(#clipPath29)" fill="none" width="19" height="39" stroke="rgb(209,209,209)" stroke-width="0.1" />
      <text x="1316" y="522" clip-path="url(#clipPath30)" stroke="none" stroke-width="0.1" xml:space="preserve">tsi05</text>
      <rect x="1295" y="850" clip-path="url(#clipPath31)" fill="rgb(204,242,166)" width="20" height="40" stroke="none" stroke-width="0.1" />
      <rect x="1295" y="850" clip-path="url(#clipPath31)" fill="none" width="19" height="39" stroke="rgb(209,209,209)" stroke-width="0.1" />
      <text x="1316" y="872" clip-path="url(#clipPath32)" stroke="none" stroke-width="0.1" xml:space="preserve">tsi09</text>
      <rect x="1379" y="10" clip-path="url(#clipPath33)" fill="rgb(255,245,181)" width="131" height="50" stroke="none" stroke-width="0.1" />
      <rect x="1379" y="10" clip-path="url(#clipPath33)" fill="none" width="130" height="49" stroke="black" stroke-width="0.1" />
      <text x="1410" y="31" clip-path="url(#clipPath34)" fill="black" stroke="none" stroke-width="0.1" xml:space="preserve">tango</text>
      <text x="1384" y="57" clip-path="url(#clipPath35)" fill="black" stroke="none" stroke-width="0.1" xml:space="preserve">: actCom...</text>
    </g>
    <g stroke-width="1.1" font-size="23" stroke-dasharray="10,10" font-family="'Lucida Sans'" stroke-linecap="butt">
      <line clip-path="url(#clipPath36)" fill="none" x1="1443" x2="1443" y1="60" y2="1000" />
      <rect x="1434" y="651" clip-path="url(#clipPath37)" fill="rgb(77,137,20)" width="20" height="40" stroke="none" />
    </g>
    <g stroke-linecap="butt" font-size="23" fill="rgb(77,137,20)" font-family="'Lucida Sans'" stroke="rgb(77,137,20)" stroke-width="2.1">
      <rect x="1435" y="652" clip-path="url(#clipPath37)" fill="none" width="18" height="38" />
      <text xml:space="preserve" x="1455" y="673" clip-path="url(#clipPath38)" stroke="none">tsi07</text>
      <rect x="1434" y="730" clip-path="url(#clipPath39)" fill="rgb(204,242,166)" width="20" height="40" stroke="none" />
      <rect x="1434" y="730" clip-path="url(#clipPath39)" fill="none" width="19" height="39" stroke="rgb(209,209,209)" stroke-width="0.1" />
      <text x="1455" y="752" clip-path="url(#clipPath40)" stroke="none" stroke-width="0.1" xml:space="preserve">tsi07</text>
      <rect x="881" y="10" clip-path="url(#clipPath41)" fill="rgb(255,245,181)" width="129" height="50" stroke="none" stroke-width="0.1" />
      <rect x="881" y="10" clip-path="url(#clipPath41)" fill="none" width="128" height="49" stroke="black" stroke-width="0.1" />
      <text x="915" y="31" clip-path="url(#clipPath42)" fill="black" stroke="none" stroke-width="0.1" xml:space="preserve">steve</text>
      <text x="884" y="57" clip-path="url(#clipPath42)" fill="black" stroke="none" stroke-width="0.1" xml:space="preserve">: actCoor...</text>
    </g>
    <g stroke-width="1.1" font-size="23" stroke-dasharray="10,10" font-family="'Lucida Sans'" stroke-linecap="butt">
      <line clip-path="url(#clipPath43)" fill="none" x1="944" x2="944" y1="60" y2="1000" />
      <rect x="935" y="910" clip-path="url(#clipPath44)" fill="rgb(204,242,166)" width="20" height="40" stroke="none" />
    </g>
    <g stroke-linecap="butt" font-size="23" fill="rgb(209,209,209)" font-family="'Lucida Sans'" stroke="rgb(209,209,209)" stroke-width="0.1">
      <rect x="935" y="910" clip-path="url(#clipPath44)" fill="none" width="19" height="39" />
      <text x="956" y="932" clip-path="url(#clipPath45)" fill="rgb(77,137,20)" stroke="none" xml:space="preserve">tsi09</text>
      <rect x="178" y="10" clip-path="url(#clipPath46)" fill="rgb(238,201,142)" width="70" height="30" stroke="none" />
      <rect x="178" y="10" clip-path="url(#clipPath46)" fill="none" width="69" height="29" stroke="black" />
      <text x="180" y="34" clip-path="url(#clipPath47)" fill="black" stroke="none" xml:space="preserve">Syst...</text>
    </g>
    <g stroke-width="1.1" font-size="23" stroke-dasharray="10,10" font-family="'Lucida Sans'" stroke-linecap="butt">
      <line clip-path="url(#clipPath48)" fill="none" x1="212" x2="212" y1="40" y2="1000" />
    </g>
    <g stroke-linecap="butt" font-size="23" fill="rgb(136,136,136)" font-family="'Lucida Sans'" stroke="rgb(136,136,136)" stroke-width="2.1">
      <line clip-path="url(#clipPath49)" fill="none" x1="1062" x2="213" y1="90" y2="90" />
      <text x="463" y="84" clip-path="url(#clipPath50)" fill="black" stroke="none" xml:space="preserve">oeCreateSystemAndEnvironment(4)</text>
      <line clip-path="url(#clipPath51)" fill="none" x1="220" x2="213" y1="87" y2="90" />
      <line clip-path="url(#clipPath51)" fill="none" x1="213" x2="220" y1="90" y2="93" />
      <line clip-path="url(#clipPath49)" fill="none" x1="1173" x2="213" y1="150" y2="150" />
      <text x="467" y="147" clip-path="url(#clipPath52)" fill="black" stroke="none" xml:space="preserve">oeSetClock(2017:11:24 - 03:20:00)</text>
      <line clip-path="url(#clipPath53)" fill="none" x1="220" x2="213" y1="147" y2="150" />
      <line clip-path="url(#clipPath53)" fill="none" x1="213" x2="220" y1="150" y2="153" />
      <line clip-path="url(#clipPath49)" fill="none" x1="1295" x2="213" y1="210" y2="210" />
      <text x="466" y="202" clip-path="url(#clipPath54)" fill="black" stroke="none" xml:space="preserve">oeLogin(icrashadmin,7WXC1359)</text>
      <line clip-path="url(#clipPath55)" fill="none" x1="220" x2="213" y1="207" y2="210" />
      <line clip-path="url(#clipPath55)" fill="none" x1="213" x2="220" y1="210" y2="213" />
      <line clip-path="url(#clipPath49)" fill="none" x1="1295" x2="213" y1="330" y2="330" />
      <text x="435" y="323" clip-path="url(#clipPath56)" fill="black" stroke="none" xml:space="preserve">oeAddCoordinator(1,steve,pwdMessirExcalibur2017)</text>
      <line clip-path="url(#clipPath57)" fill="none" x1="220" x2="213" y1="327" y2="330" />
      <line clip-path="url(#clipPath57)" fill="none" x1="213" x2="220" y1="330" y2="333" />
      <line clip-path="url(#clipPath49)" fill="none" x1="1295" x2="213" y1="450" y2="450" />
      <text x="522" y="442" clip-path="url(#clipPath58)" fill="black" stroke="none" xml:space="preserve">oeLogout()</text>
      <line clip-path="url(#clipPath59)" fill="none" x1="220" x2="213" y1="447" y2="450" />
      <line clip-path="url(#clipPath59)" fill="none" x1="213" x2="220" y1="450" y2="453" />
      <line clip-path="url(#clipPath49)" fill="none" x1="1173" x2="213" y1="556" y2="556" />
      <text x="463" y="545" clip-path="url(#clipPath60)" fill="black" stroke="none" xml:space="preserve">oeSetClock(2017:11:26 - 10:15:00)</text>
      <line clip-path="url(#clipPath61)" fill="none" x1="220" x2="213" y1="553" y2="556" />
      <line clip-path="url(#clipPath61)" fill="none" x1="213" x2="220" y1="556" y2="559" />
      <line clip-path="url(#clipPath49)" fill="none" x1="1434" x2="213" y1="651" y2="651" />
      <text x="522" y="624" clip-path="url(#clipPath62)" fill="black" stroke="none" xml:space="preserve">oeAlert(witness,2017:11:26,10:10:16,</text>
      <text x="511" y="650" clip-path="url(#clipPath63)" fill="black" stroke="none" xml:space="preserve">+3524666445252,49.627675:6.1595...</text>
      <line clip-path="url(#clipPath64)" fill="none" x1="220" x2="213" y1="648" y2="651" />
      <line clip-path="url(#clipPath64)" fill="none" x1="213" x2="220" y1="651" y2="654" />
      <line clip-path="url(#clipPath49)" fill="none" x1="1173" x2="213" y1="790" y2="790" />
      <text x="482" y="784" clip-path="url(#clipPath65)" fill="black" stroke="none" xml:space="preserve">oeSollicitateCrisisHandling()</text>
      <line clip-path="url(#clipPath66)" fill="none" x1="220" x2="213" y1="787" y2="790" />
      <line clip-path="url(#clipPath66)" fill="none" x1="213" x2="220" y1="790" y2="793" />
      <line clip-path="url(#clipPath49)" fill="none" x1="1295" x2="213" y1="256" y2="256" stroke-dasharray="5,5" />
      <text x="455" y="250" clip-path="url(#clipPath67)" fill="black" stroke-dasharray="5,5" stroke="none" xml:space="preserve">ieMessage(You are logged ! Welcome ...)</text>
      <line clip-path="url(#clipPath68)" fill="none" x1="1288" x2="1295" y1="259" y2="256" />
      <line clip-path="url(#clipPath68)" fill="none" x1="1295" x2="1288" y1="256" y2="253" />
      <line clip-path="url(#clipPath49)" fill="none" x1="1295" x2="213" y1="375" y2="375" stroke-dasharray="5,5" />
      <text x="495" y="368" clip-path="url(#clipPath69)" fill="black" stroke-dasharray="5,5" stroke="none" xml:space="preserve">ieCoordinatorAdded()</text>
      <line clip-path="url(#clipPath70)" fill="none" x1="1288" x2="1295" y1="378" y2="375" />
      <line clip-path="url(#clipPath70)" fill="none" x1="1295" x2="1288" y1="375" y2="372" />
      <line clip-path="url(#clipPath49)" fill="none" x1="1295" x2="213" y1="500" y2="500" stroke-dasharray="5,5" />
      <text x="447" y="492" clip-path="url(#clipPath71)" fill="black" stroke-dasharray="5,5" stroke="none" xml:space="preserve">ieMessage(You are logged out ! Good Bye ...)</text>
      <line clip-path="url(#clipPath72)" fill="none" x1="1288" x2="1295" y1="503" y2="500" />
      <line clip-path="url(#clipPath72)" fill="none" x1="1295" x2="1288" y1="500" y2="497" />
      <line clip-path="url(#clipPath49)" fill="none" x1="1434" x2="213" y1="730" y2="730" stroke-dasharray="5,5" />
      <text x="308" y="720" clip-path="url(#clipPath73)" fill="black" stroke-dasharray="5,5" stroke="none" xml:space="preserve">ieSmsSend(+3524666445252,Your alert has been registered. We will handle it and keep you informed)</text>
      <line clip-path="url(#clipPath74)" fill="none" x1="1427" x2="1434" y1="733" y2="730" />
      <line clip-path="url(#clipPath74)" fill="none" x1="1434" x2="1427" y1="730" y2="727" />
      <line clip-path="url(#clipPath49)" fill="none" x1="1295" x2="213" y1="850" y2="850" stroke-dasharray="5,5" />
      <text x="345" y="846" clip-path="url(#clipPath75)" fill="black" stroke-dasharray="5,5" stroke="none" xml:space="preserve">ieMessage(There are alerts pending since more than the defined delay. Please REACT !)</text>
      <line clip-path="url(#clipPath76)" fill="none" x1="1288" x2="1295" y1="853" y2="850" />
      <line clip-path="url(#clipPath76)" fill="none" x1="1295" x2="1288" y1="850" y2="847" />
      <line clip-path="url(#clipPath49)" fill="none" x1="935" x2="213" y1="910" y2="910" stroke-dasharray="5,5" />
      <text x="24" y="901" clip-path="url(#clipPath77)" fill="black" stroke-dasharray="5,5" stroke="none" xml:space="preserve">ieMessage(There are alerts pending since more than the defined delay. Please REACT !)</text>
      <line clip-path="url(#clipPath78)" fill="none" x1="928" x2="935" y1="913" y2="910" />
      <line clip-path="url(#clipPath78)" fill="none" x1="935" x2="928" y1="910" y2="907" />
    </g>
  </g>
</svg>

